<?xml version="1.0" encoding="UTF-8" standalone="no"?>
<!-- Created with Inkscape (http://www.inkscape.org/) -->

<svg
   version="1.1"
   id="svg2"
   width="483.85333"
   height="422.79999"
   viewBox="0 0 483.85333 422.79999"
   sodipodi:docname="5157529.eps"
   xmlns:inkscape="http://www.inkscape.org/namespaces/inkscape"
   xmlns:sodipodi="http://sodipodi.sourceforge.net/DTD/sodipodi-0.dtd"
   xmlns="http://www.w3.org/2000/svg"
   xmlns:svg="http://www.w3.org/2000/svg">
  <defs
     id="defs6" />
  <sodipodi:namedview
     id="namedview4"
     pagecolor="#ffffff"
     bordercolor="#000000"
     borderopacity="0.25"
     inkscape:showpageshadow="2"
     inkscape:pageopacity="0.0"
     inkscape:pagecheckerboard="0"
     inkscape:deskcolor="#d1d1d1" />
  <g
     id="g8"
     inkscape:groupmode="layer"
     inkscape:label="ink_ext_XXXXXX"
     transform="matrix(1.3333333,0,0,-1.3333333,0,422.8)">
    <g
       id="g10"
       transform="scale(0.1)">
      <path
         d="M 82.1523,904.289 C 175.836,674.27 588.602,308.051 1604.77,586.301 2620.94,864.559 3421.3,867.73 3602.02,1527.34 3782.76,2186.96 3015.71,2886.7 2413.84,2919.63 1811.96,2952.57 1501.69,2645.51 1205.01,2188.33 908.332,1731.15 386.004,1681.67 229.773,1518.06 73.543,1354.45 32.0234,1027.36 82.1523,904.289"
         style="fill:#63a9e1;fill-opacity:1;fill-rule:nonzero;stroke:none"
         id="path12" />
      <path
         d="m 1276.81,2425.34 h 638.39 c 0,0 3.54,101.1 -102.18,101.1 0,0 -26.55,105.79 -120.83,105.79 -94.28,0 -120.76,-65.12 -120.76,-65.12 0,0 -148.74,73.26 -203.04,-92.44 0,0 -68.92,16.47 -91.58,-49.33"
         style="fill:#ffffff;fill-opacity:1;fill-rule:nonzero;stroke:none"
         id="path14" />
      <path
         d="m 2906.82,1615.34 h 638.38 c 0,0 3.54,101.1 -102.17,101.1 0,0 -26.56,105.79 -120.84,105.79 -94.28,0 -120.76,-65.12 -120.76,-65.12 0,0 -148.74,73.26 -203.04,-92.44 0,0 -68.92,16.47 -91.57,-49.33"
         style="fill:#ffffff;fill-opacity:1;fill-rule:nonzero;stroke:none"
         id="path16" />
      <path
         d="m 2874.94,2315.34 h 506.64 c 0,0 6.96,117.62 -122.82,98.14 0,0 -2.32,119.52 -141.37,69.72 0,0 -108.01,51.73 -151.09,-69.72 0,0 -85.83,22.5 -91.36,-98.14"
         style="fill:#ffffff;fill-opacity:1;fill-rule:nonzero;stroke:none"
         id="path18" />
      <path
         d="M 3227.77,797.082 H 996.34 V 2183.81 c 0,61.93 50.2,112.14 112.14,112.14 h 2007.16 c 61.93,0 112.13,-50.21 112.13,-112.14 V 797.082"
         style="fill:#4379c6;fill-opacity:1;fill-rule:nonzero;stroke:none"
         id="path20" />
      <path
         d="m 1107.19,864.559 h 1995.27 v 1335 H 1107.19 Z"
         style="fill:#b4cbe7;fill-opacity:1;fill-rule:nonzero;stroke:none"
         id="path22" />
      <path
         d="m 1107.19,2088.71 h 1995.27 v 110.844 H 1107.19 Z"
         style="fill:#385bb2;fill-opacity:1;fill-rule:nonzero;stroke:none"
         id="path24" />
      <path
         d="M 3509.97,35.6016 H 714.137 c -8.828,0 -14.883,8.8984 -11.641,17.1093 L 996.34,797.082 H 3227.78 L 3521.61,52.7109 c 3.25,-8.2109 -2.81,-17.1093 -11.64,-17.1093"
         style="fill:#477dc8;fill-opacity:1;fill-rule:nonzero;stroke:none"
         id="path26" />
      <path
         d="M 3492.78,0 H 731.34 C 711.684,0 695.742,15.9297 695.742,35.6016 H 1768.46 l 3.23,3.7695 c 6.75,7.918 16.64,12.4883 27.06,12.4883 h 623.64 c 10.33,0 20.14,-4.4883 26.9,-12.2891 l 3.43,-3.9687 H 3528.37 C 3528.37,15.9297 3512.43,0 3492.78,0"
         style="fill:#385bb2;fill-opacity:1;fill-rule:nonzero;stroke:none"
         id="path28" />
      <path
         d="M 3290.61,348.078 H 947.172 c -13.746,0 -23.27,13.813 -18.457,26.774 l 141.815,382.277 c 2.84,7.652 10.14,12.73 18.3,12.73 H 3132.5 c 8.17,0 15.66,-5.078 18.79,-12.73 l 156.73,-382.277 c 5.31,-12.961 -3.66,-26.774 -17.41,-26.774"
         style="fill:#63a9e1;fill-opacity:1;fill-rule:nonzero;stroke:none"
         id="path30" />
      <path
         d="m 1397.38,576.441 h -275.84 c -4.01,0 -6.78,4.02 -5.34,7.77 l 20.33,52.949 c 0.85,2.219 2.97,3.672 5.33,3.672 h 268.66 c 3.72,0 6.45,-3.48 5.55,-7.094 l -13.14,-52.949 c -0.63,-2.551 -2.92,-4.348 -5.55,-4.348"
         style="fill:#ffffff;fill-opacity:1;fill-rule:nonzero;stroke:none"
         id="path32" />
      <path
         d="m 1397.38,586.301 h -275.84 c -4.01,0 -6.78,4.027 -5.34,7.769 l 20.33,52.961 c 0.85,2.199 2.97,3.668 5.33,3.668 h 268.66 c 3.72,0 6.45,-3.5 5.55,-7.097 l -13.14,-52.961 c -0.63,-2.551 -2.92,-4.34 -5.55,-4.34"
         style="fill:#385bb2;fill-opacity:1;fill-rule:nonzero;stroke:none"
         id="path34" />
      <path
         d="m 1615.54,576.441 h -147.6 c -4.01,0 -6.78,4.02 -5.34,7.77 l 14.67,52.949 c 0.85,2.219 2.98,3.672 5.34,3.672 h 140.42 c 3.72,0 6.45,-3.48 5.56,-7.094 l -7.49,-52.949 c -0.64,-2.551 -2.93,-4.348 -5.56,-4.348"
         style="fill:#ffffff;fill-opacity:1;fill-rule:nonzero;stroke:none"
         id="path36" />
      <path
         d="m 1615.54,586.301 h -147.6 c -4.01,0 -6.78,4.027 -5.34,7.769 l 14.67,52.961 c 0.85,2.199 2.98,3.668 5.34,3.668 h 140.42 c 3.72,0 6.45,-3.5 5.56,-7.097 l -7.49,-52.961 c -0.64,-2.551 -2.93,-4.34 -5.56,-4.34"
         style="fill:#385bb2;fill-opacity:1;fill-rule:nonzero;stroke:none"
         id="path38" />
      <path
         d="m 1831.01,576.441 h -147.6 c -4.01,0 -6.78,4.02 -5.34,7.77 l 9.71,52.949 c 0.85,2.219 2.97,3.672 5.34,3.672 h 140.41 c 3.72,0 6.45,-3.48 5.56,-7.094 l -2.53,-52.949 c -0.63,-2.551 -2.92,-4.348 -5.55,-4.348"
         style="fill:#ffffff;fill-opacity:1;fill-rule:nonzero;stroke:none"
         id="path40" />
      <path
         d="m 1831.01,586.301 h -147.6 c -4.01,0 -6.78,4.027 -5.34,7.769 l 9.71,52.961 c 0.85,2.199 2.97,3.668 5.34,3.668 h 140.41 c 3.72,0 6.45,-3.5 5.56,-7.097 l -2.53,-52.961 c -0.63,-2.551 -2.92,-4.34 -5.55,-4.34"
         style="fill:#385bb2;fill-opacity:1;fill-rule:nonzero;stroke:none"
         id="path42" />
      <path
         d="m 2078.58,576.441 h -147.6 c -4.01,0 -6.78,4.02 -5.34,7.77 l 5.76,52.949 c 0.85,2.219 2.98,3.672 5.34,3.672 h 140.42 c 3.72,0 6.45,-3.48 5.56,-7.094 l 1.41,-52.949 c -0.63,-2.551 -2.92,-4.348 -5.55,-4.348"
         style="fill:#ffffff;fill-opacity:1;fill-rule:nonzero;stroke:none"
         id="path44" />
      <path
         d="m 2078.58,586.301 h -147.6 c -4.01,0 -6.78,4.027 -5.34,7.769 l 5.76,52.961 c 0.85,2.199 2.98,3.668 5.34,3.668 h 140.42 c 3.72,0 6.45,-3.5 5.56,-7.097 l 1.41,-52.961 c -0.63,-2.551 -2.92,-4.34 -5.55,-4.34"
         style="fill:#385bb2;fill-opacity:1;fill-rule:nonzero;stroke:none"
         id="path46" />
      <path
         d="m 2650.12,576.441 h 147.61 c 4.01,0 6.77,4.02 5.34,7.77 l -20.33,52.949 c -0.85,2.219 -2.97,3.672 -5.35,3.672 h -140.41 c -3.72,0 -6.45,-3.48 -5.55,-7.094 l 13.14,-52.949 c 0.64,-2.551 2.92,-4.348 5.55,-4.348"
         style="fill:#ffffff;fill-opacity:1;fill-rule:nonzero;stroke:none"
         id="path48" />
      <path
         d="m 2650.12,586.301 h 147.61 c 4.01,0 6.77,4.027 5.34,7.769 l -20.33,52.961 c -0.85,2.199 -2.97,3.668 -5.35,3.668 h -140.41 c -3.72,0 -6.45,-3.5 -5.55,-7.097 l 13.14,-52.961 c 0.64,-2.551 2.92,-4.34 5.55,-4.34"
         style="fill:#385bb2;fill-opacity:1;fill-rule:nonzero;stroke:none"
         id="path50" />
      <path
         d="m 2427.08,576.441 h 147.6 c 4.01,0 6.78,4.02 5.34,7.77 l -14.68,52.949 c -0.85,2.219 -2.96,3.672 -5.34,3.672 h -140.41 c -3.72,0 -6.45,-3.48 -5.55,-7.094 l 7.49,-52.949 c 0.63,-2.551 2.92,-4.348 5.55,-4.348"
         style="fill:#ffffff;fill-opacity:1;fill-rule:nonzero;stroke:none"
         id="path52" />
      <path
         d="m 2427.08,586.301 h 147.6 c 4.01,0 6.78,4.027 5.34,7.769 l -14.68,52.961 c -0.85,2.199 -2.96,3.668 -5.34,3.668 h -140.41 c -3.72,0 -6.45,-3.5 -5.55,-7.097 l 7.49,-52.961 c 0.63,-2.551 2.92,-4.34 5.55,-4.34"
         style="fill:#385bb2;fill-opacity:1;fill-rule:nonzero;stroke:none"
         id="path54" />
      <path
         d="m 2178.37,576.441 h 147.61 c 4.01,0 6.78,4.02 5.34,7.77 l -9.71,52.949 c -0.85,2.219 -2.98,3.672 -5.34,3.672 h -140.42 c -3.72,0 -6.44,-3.48 -5.55,-7.094 l 2.52,-52.949 c 0.63,-2.551 2.92,-4.348 5.55,-4.348"
         style="fill:#ffffff;fill-opacity:1;fill-rule:nonzero;stroke:none"
         id="path56" />
      <path
         d="m 2178.37,586.301 h 147.61 c 4.01,0 6.78,4.027 5.34,7.769 l -9.71,52.961 c -0.85,2.199 -2.98,3.668 -5.34,3.668 h -140.42 c -3.72,0 -6.44,-3.5 -5.55,-7.097 l 2.52,-52.961 c 0.63,-2.551 2.92,-4.34 5.55,-4.34"
         style="fill:#385bb2;fill-opacity:1;fill-rule:nonzero;stroke:none"
         id="path58" />
      <path
         d="m 2874.98,577.129 h 250.42 c 4.02,0 6.78,4.031 5.34,7.781 l -20.69,51.57 c -0.84,2.211 -2.97,3.668 -5.34,3.668 h -250.96 c -3.72,0 -6.44,-3.488 -5.55,-7.097 l 21.23,-51.571 c 0.63,-2.558 2.92,-4.351 5.55,-4.351"
         style="fill:#ffffff;fill-opacity:1;fill-rule:nonzero;stroke:none"
         id="path60" />
      <path
         d="m 2874.98,586.988 h 250.42 c 4.02,0 6.78,4.024 5.34,7.774 l -20.69,51.57 c -0.84,2.207 -2.97,3.668 -5.34,3.668 h -250.96 c -3.72,0 -6.44,-3.48 -5.55,-7.09 l 21.23,-51.578 c 0.63,-2.551 2.92,-4.344 5.55,-4.344"
         style="fill:#385bb2;fill-opacity:1;fill-rule:nonzero;stroke:none"
         id="path62" />
      <path
         d="m 1484.2,475.852 h -394.93 c -5.37,0 -9.07,4.027 -7.15,7.777 l 22.09,52.949 c 1.13,2.211 3.98,3.672 7.15,3.672 h 385.31 c 4.98,0 8.63,-3.488 7.43,-7.102 l -12.46,-52.949 c -0.85,-2.558 -3.92,-4.347 -7.44,-4.347"
         style="fill:#ffffff;fill-opacity:1;fill-rule:nonzero;stroke:none"
         id="path64" />
      <path
         d="m 1484.2,485.719 h -394.93 c -5.37,0 -9.07,4.019 -7.15,7.761 l 22.09,52.961 c 1.13,2.207 3.98,3.661 7.15,3.661 h 385.31 c 4.98,0 8.63,-3.481 7.43,-7.09 l -12.46,-52.961 c -0.85,-2.551 -3.92,-4.332 -7.44,-4.332"
         style="fill:#385bb2;fill-opacity:1;fill-rule:nonzero;stroke:none"
         id="path66" />
      <path
         d="m 1728.67,475.852 h -162.03 c -4.02,0 -6.78,4.027 -5.34,7.777 l 10.96,52.949 c 0.85,2.211 2.97,3.672 5.34,3.672 h 154.85 c 3.72,0 6.45,-3.488 5.56,-7.102 l -3.78,-52.949 c -0.64,-2.558 -2.93,-4.347 -5.56,-4.347"
         style="fill:#ffffff;fill-opacity:1;fill-rule:nonzero;stroke:none"
         id="path68" />
      <path
         d="m 1728.67,485.719 h -162.03 c -4.02,0 -6.78,4.019 -5.34,7.761 l 10.96,52.961 c 0.85,2.207 2.97,3.661 5.34,3.661 h 154.85 c 3.72,0 6.45,-3.481 5.56,-7.09 l -3.78,-52.961 c -0.64,-2.551 -2.93,-4.332 -5.56,-4.332"
         style="fill:#385bb2;fill-opacity:1;fill-rule:nonzero;stroke:none"
         id="path70" />
      <path
         d="m 1965.43,475.852 h -158.52 c -4.02,0 -6.78,4.027 -5.35,7.777 l 5.49,52.949 c 0.85,2.211 2.97,3.672 5.34,3.672 h 152.09 c 3.73,0 6.46,-3.488 5.56,-7.102 l 0.94,-52.949 c -0.64,-2.558 -2.92,-4.347 -5.55,-4.347"
         style="fill:#ffffff;fill-opacity:1;fill-rule:nonzero;stroke:none"
         id="path72" />
      <path
         d="m 1965.43,485.719 h -158.52 c -4.02,0 -6.78,4.019 -5.35,7.761 l 5.49,52.961 c 0.85,2.207 2.97,3.661 5.34,3.661 h 152.09 c 3.73,0 6.46,-3.481 5.56,-7.09 l 0.94,-52.961 c -0.64,-2.551 -2.92,-4.332 -5.55,-4.332"
         style="fill:#385bb2;fill-opacity:1;fill-rule:nonzero;stroke:none"
         id="path74" />
      <path
         d="m 2205.59,475.852 h -158.15 c -4.01,0 -6.77,4.027 -5.34,7.777 l -0.38,52.949 c 0.85,2.211 2.97,3.672 5.34,3.672 h 157.1 c 3.72,0 6.46,-3.488 5.56,-7.102 l 1.41,-52.949 c -0.62,-2.558 -2.91,-4.347 -5.54,-4.347"
         style="fill:#ffffff;fill-opacity:1;fill-rule:nonzero;stroke:none"
         id="path76" />
      <path
         d="m 2205.59,485.719 h -158.15 c -4.01,0 -6.77,4.019 -5.34,7.761 l -0.38,52.961 c 0.85,2.207 2.97,3.661 5.34,3.661 h 157.1 c 3.72,0 6.46,-3.481 5.56,-7.09 l 1.41,-52.961 c -0.62,-2.551 -2.91,-4.332 -5.54,-4.332"
         style="fill:#385bb2;fill-opacity:1;fill-rule:nonzero;stroke:none"
         id="path78" />
      <path
         d="m 2528.79,475.852 h 176.14 c 4.02,0 6.78,4.027 5.35,7.777 l -14.67,52.949 c -0.85,2.211 -2.98,3.672 -5.35,3.672 h -172.04 c -3.72,0 -6.44,-3.488 -5.55,-7.102 l 10.56,-52.949 c 0.64,-2.558 2.93,-4.347 5.56,-4.347"
         style="fill:#ffffff;fill-opacity:1;fill-rule:nonzero;stroke:none"
         id="path80" />
      <path
         d="m 2528.79,485.719 h 176.14 c 4.02,0 6.78,4.019 5.35,7.761 l -14.67,52.961 c -0.85,2.207 -2.98,3.661 -5.35,3.661 h -172.04 c -3.72,0 -6.44,-3.481 -5.55,-7.09 l 10.56,-52.961 c 0.64,-2.551 2.93,-4.332 5.56,-4.332"
         style="fill:#385bb2;fill-opacity:1;fill-rule:nonzero;stroke:none"
         id="path82" />
      <path
         d="m 2288.12,475.852 h 158.87 c 4.02,0 6.78,4.027 5.35,7.777 l -9.71,52.949 c -0.85,2.211 -2.97,3.672 -5.34,3.672 h -151.7 c -3.71,0 -6.45,-3.488 -5.55,-7.102 l 2.52,-52.949 c 0.64,-2.558 2.93,-4.347 5.56,-4.347"
         style="fill:#ffffff;fill-opacity:1;fill-rule:nonzero;stroke:none"
         id="path84" />
      <path
         d="m 2288.12,485.719 h 158.87 c 4.02,0 6.78,4.019 5.35,7.761 l -9.71,52.961 c -0.85,2.207 -2.97,3.661 -5.34,3.661 h -151.7 c -3.71,0 -6.45,-3.481 -5.55,-7.09 l 2.52,-52.961 c 0.64,-2.551 2.93,-4.332 5.56,-4.332"
         style="fill:#385bb2;fill-opacity:1;fill-rule:nonzero;stroke:none"
         id="path86" />
      <path
         d="m 2835.65,476.551 h 330.25 c 4.01,0 6.78,4.019 5.34,7.758 l -20.68,51.582 c -0.85,2.211 -2.98,3.668 -5.34,3.668 h -330.8 c -3.72,0 -6.45,-3.489 -5.56,-7.098 l 21.23,-51.582 c 0.63,-2.547 2.92,-4.328 5.56,-4.328"
         style="fill:#ffffff;fill-opacity:1;fill-rule:nonzero;stroke:none"
         id="path88" />
      <path
         d="m 2835.65,486.398 h 330.25 c 4.01,0 6.78,4.024 5.34,7.774 l -20.68,51.578 c -0.85,2.199 -2.98,3.672 -5.34,3.672 h -330.8 c -3.72,0 -6.45,-3.5 -5.56,-7.102 l 21.23,-51.57 c 0.63,-2.551 2.92,-4.352 5.56,-4.352"
         style="fill:#385bb2;fill-opacity:1;fill-rule:nonzero;stroke:none"
         id="path90" />
      <path
         d="m 1299.82,675 h -147.61 c -4.01,0 -6.78,4.031 -5.34,7.781 l 20.33,52.949 c 0.85,2.211 2.97,3.668 5.34,3.668 h 140.42 c 3.72,0 6.45,-3.488 5.55,-7.097 l -13.14,-52.949 c -0.64,-2.551 -2.93,-4.352 -5.55,-4.352"
         style="fill:#ffffff;fill-opacity:1;fill-rule:nonzero;stroke:none"
         id="path92" />
      <path
         d="m 1299.82,684.871 h -147.61 c -4.01,0 -6.78,4.02 -5.34,7.758 l 20.33,52.961 c 0.85,2.211 2.97,3.672 5.34,3.672 h 140.42 c 3.72,0 6.45,-3.492 5.55,-7.102 l -13.14,-52.961 c -0.64,-2.539 -2.93,-4.328 -5.55,-4.328"
         style="fill:#385bb2;fill-opacity:1;fill-rule:nonzero;stroke:none"
         id="path94" />
      <path
         d="m 1518,675 h -147.6 c -4.02,0 -6.78,4.031 -5.34,7.781 l 14.67,52.949 c 0.85,2.211 2.98,3.668 5.35,3.668 h 140.41 c 3.72,0 6.45,-3.488 5.55,-7.097 l -7.48,-52.949 C 1522.92,676.801 1520.63,675 1518,675"
         style="fill:#ffffff;fill-opacity:1;fill-rule:nonzero;stroke:none"
         id="path96" />
      <path
         d="m 1518,684.871 h -147.6 c -4.02,0 -6.78,4.02 -5.34,7.758 l 14.67,52.961 c 0.85,2.211 2.98,3.672 5.35,3.672 h 140.41 c 3.72,0 6.45,-3.492 5.55,-7.102 l -7.48,-52.961 c -0.64,-2.539 -2.93,-4.328 -5.56,-4.328"
         style="fill:#385bb2;fill-opacity:1;fill-rule:nonzero;stroke:none"
         id="path98" />
      <path
         d="m 1735.85,675 h -147.61 c -4.01,0 -6.78,4.031 -5.34,7.781 l 9.71,52.949 c 0.85,2.211 2.97,3.668 5.34,3.668 h 140.42 c 3.72,0 6.45,-3.488 5.55,-7.097 l -2.52,-52.949 c -0.64,-2.551 -2.93,-4.352 -5.55,-4.352"
         style="fill:#ffffff;fill-opacity:1;fill-rule:nonzero;stroke:none"
         id="path100" />
      <path
         d="m 1735.85,684.871 h -147.61 c -4.01,0 -6.78,4.02 -5.34,7.758 l 9.71,52.961 c 0.85,2.211 2.97,3.672 5.34,3.672 h 140.42 c 3.72,0 6.45,-3.492 5.55,-7.102 l -2.52,-52.961 c -0.64,-2.539 -2.93,-4.328 -5.55,-4.328"
         style="fill:#385bb2;fill-opacity:1;fill-rule:nonzero;stroke:none"
         id="path102" />
      <path
         d="m 1952.55,675 h -147.6 c -4.02,0 -6.78,4.031 -5.34,7.781 l 5.76,52.949 c 0.85,2.211 2.98,3.668 5.35,3.668 h 140.41 c 3.73,0 6.45,-3.488 5.55,-7.097 l 1.43,-52.949 c -0.64,-2.551 -2.93,-4.352 -5.56,-4.352"
         style="fill:#ffffff;fill-opacity:1;fill-rule:nonzero;stroke:none"
         id="path104" />
      <path
         d="m 1952.55,684.871 h -147.6 c -4.02,0 -6.78,4.02 -5.34,7.758 l 5.76,52.961 c 0.85,2.211 2.98,3.672 5.35,3.672 h 140.41 c 3.73,0 6.45,-3.492 5.55,-7.102 l 1.43,-52.961 c -0.64,-2.539 -2.93,-4.328 -5.56,-4.328"
         style="fill:#385bb2;fill-opacity:1;fill-rule:nonzero;stroke:none"
         id="path106" />
      <path
         d="m 2457.51,675 h 147.61 c 4.01,0 6.78,4.031 5.34,7.781 l -20.33,52.949 c -0.85,2.211 -2.97,3.668 -5.34,3.668 h -140.42 c -3.71,0 -6.45,-3.488 -5.55,-7.097 l 13.14,-52.949 c 0.63,-2.551 2.92,-4.352 5.55,-4.352"
         style="fill:#ffffff;fill-opacity:1;fill-rule:nonzero;stroke:none"
         id="path108" />
      <path
         d="m 2457.51,684.871 h 147.61 c 4.01,0 6.78,4.02 5.34,7.758 l -20.33,52.961 c -0.85,2.211 -2.97,3.672 -5.34,3.672 h -140.42 c -3.71,0 -6.45,-3.492 -5.55,-7.102 l 13.14,-52.961 c 0.63,-2.539 2.92,-4.328 5.55,-4.328"
         style="fill:#385bb2;fill-opacity:1;fill-rule:nonzero;stroke:none"
         id="path110" />
      <path
         d="m 2239.33,675 h 147.6 c 4.01,0 6.78,4.031 5.34,7.781 l -14.67,52.949 c -0.85,2.211 -2.98,3.668 -5.34,3.668 h -140.42 c -3.72,0 -6.45,-3.488 -5.56,-7.097 l 7.49,-52.949 c 0.64,-2.551 2.93,-4.352 5.56,-4.352"
         style="fill:#ffffff;fill-opacity:1;fill-rule:nonzero;stroke:none"
         id="path112" />
      <path
         d="m 2239.33,684.871 h 147.6 c 4.01,0 6.78,4.02 5.34,7.758 l -14.67,52.961 c -0.85,2.211 -2.98,3.672 -5.34,3.672 h -140.42 c -3.72,0 -6.45,-3.492 -5.56,-7.102 l 7.49,-52.961 c 0.64,-2.539 2.93,-4.328 5.56,-4.328"
         style="fill:#385bb2;fill-opacity:1;fill-rule:nonzero;stroke:none"
         id="path114" />
      <path
         d="m 2021.49,675 h 147.59 c 4.02,0 6.78,4.031 5.35,7.781 l -9.71,52.949 c -0.85,2.211 -2.97,3.668 -5.34,3.668 h -140.42 c -3.71,0 -6.45,-3.488 -5.55,-7.097 l 2.52,-52.949 c 0.63,-2.551 2.92,-4.352 5.56,-4.352"
         style="fill:#ffffff;fill-opacity:1;fill-rule:nonzero;stroke:none"
         id="path116" />
      <path
         d="m 2021.49,684.871 h 147.59 c 4.02,0 6.78,4.02 5.35,7.758 l -9.71,52.961 c -0.85,2.211 -2.97,3.672 -5.34,3.672 h -140.42 c -3.71,0 -6.45,-3.492 -5.55,-7.102 l 2.52,-52.961 c 0.63,-2.539 2.92,-4.328 5.56,-4.328"
         style="fill:#385bb2;fill-opacity:1;fill-rule:nonzero;stroke:none"
         id="path118" />
      <path
         d="m 2850.8,675 h 241.02 c 4.01,0 6.79,4.031 5.34,7.781 l -29.47,52.949 c -0.85,2.211 -2.98,3.668 -5.34,3.668 h -243.86 c -3.71,0 -6.45,-3.488 -5.55,-7.097 l 32.32,-52.949 c 0.62,-2.551 2.92,-4.352 5.54,-4.352"
         style="fill:#ffffff;fill-opacity:1;fill-rule:nonzero;stroke:none"
         id="path120" />
      <path
         d="m 2850.8,684.871 h 241.02 c 4.01,0 6.79,4.02 5.34,7.758 l -29.47,52.961 c -0.85,2.211 -2.98,3.672 -5.34,3.672 h -243.86 c -3.71,0 -6.45,-3.492 -5.55,-7.102 l 32.32,-52.961 c 0.62,-2.539 2.92,-4.328 5.54,-4.328"
         style="fill:#385bb2;fill-opacity:1;fill-rule:nonzero;stroke:none"
         id="path122" />
      <path
         d="m 2655.36,675 h 147.6 c 4.01,0 6.79,4.031 5.34,7.781 l -30.8,52.949 c -0.85,2.211 -2.98,3.668 -5.34,3.668 h -140.42 c -3.72,0 -6.44,-3.488 -5.56,-7.097 l 23.63,-52.949 c 0.63,-2.551 2.93,-4.352 5.55,-4.352"
         style="fill:#ffffff;fill-opacity:1;fill-rule:nonzero;stroke:none"
         id="path124" />
      <path
         d="m 2655.36,684.871 h 147.6 c 4.01,0 6.79,4.02 5.34,7.758 l -30.8,52.961 c -0.85,2.211 -2.98,3.672 -5.34,3.672 h -140.42 c -3.72,0 -6.44,-3.492 -5.56,-7.102 l 23.63,-52.961 c 0.63,-2.539 2.93,-4.328 5.55,-4.328"
         style="fill:#385bb2;fill-opacity:1;fill-rule:nonzero;stroke:none"
         id="path126" />
      <path
         d="m 1218.62,376.742 h -166.76 c -5.38,0 -9.08,4.028 -7.16,7.778 l 22.09,52.949 c 1.14,2.211 3.98,3.672 7.15,3.672 h 157.14 c 4.98,0 8.63,-3.493 7.44,-7.102 l -12.47,-52.949 c -0.85,-2.551 -3.91,-4.348 -7.43,-4.348"
         style="fill:#ffffff;fill-opacity:1;fill-rule:nonzero;stroke:none"
         id="path128" />
      <path
         d="m 1218.62,386.609 h -166.76 c -5.38,0 -9.08,4.02 -7.16,7.77 l 22.09,52.953 c 1.14,2.207 3.98,3.668 7.15,3.668 h 157.14 c 4.98,0 8.63,-3.5 7.44,-7.102 l -12.47,-52.949 c -0.85,-2.558 -3.91,-4.34 -7.43,-4.34"
         style="fill:#385bb2;fill-opacity:1;fill-rule:nonzero;stroke:none"
         id="path130" />
      <path
         d="m 1463.36,376.742 h -157.82 c -5.37,0 -9.08,4.028 -7.15,7.778 l 13.14,52.949 c 1.14,2.211 3.98,3.672 7.15,3.672 h 157.15 c 4.98,0 8.64,-3.493 7.43,-7.102 L 1470.8,381.09 c -0.85,-2.551 -3.92,-4.348 -7.44,-4.348"
         style="fill:#ffffff;fill-opacity:1;fill-rule:nonzero;stroke:none"
         id="path132" />
      <path
         d="m 1463.36,386.609 h -157.82 c -5.37,0 -9.08,4.02 -7.15,7.77 l 13.14,52.953 c 1.14,2.207 3.98,3.668 7.15,3.668 h 157.15 c 4.98,0 8.64,-3.5 7.43,-7.102 l -12.46,-52.949 c -0.85,-2.558 -3.92,-4.34 -7.44,-4.34"
         style="fill:#385bb2;fill-opacity:1;fill-rule:nonzero;stroke:none"
         id="path134" />
      <path
         d="M 2955.46,376.742 H 1553.15 c -5.37,0 -9.08,4.028 -7.15,7.778 l 7.76,52.949 c 1.13,2.211 3.98,3.672 7.15,3.672 h 1376.52 c 4.97,0 8.64,-3.493 7.44,-7.102 l 18.03,-52.949 c -0.85,-2.551 -3.91,-4.348 -7.44,-4.348"
         style="fill:#ffffff;fill-opacity:1;fill-rule:nonzero;stroke:none"
         id="path136" />
      <path
         d="M 2955.46,386.609 H 1553.15 c -5.37,0 -9.08,4.02 -7.15,7.77 l 7.76,52.953 c 1.13,2.207 3.98,3.668 7.15,3.668 h 1376.52 c 4.97,0 8.64,-3.5 7.44,-7.102 l 18.03,-52.949 c -0.85,-2.558 -3.91,-4.34 -7.44,-4.34"
         style="fill:#385bb2;fill-opacity:1;fill-rule:nonzero;stroke:none"
         id="path138" />
      <path
         d="m 3040.07,376.742 h 159.84 c 4.02,0 6.79,4.028 5.35,7.778 l -20.33,52.949 c -0.85,2.211 -2.96,3.672 -5.34,3.672 h -157.36 c -3.72,0 -6.45,-3.493 -5.55,-7.102 l 17.83,-52.949 c 0.64,-2.551 2.93,-4.348 5.56,-4.348"
         style="fill:#ffffff;fill-opacity:1;fill-rule:nonzero;stroke:none"
         id="path140" />
      <path
         d="m 3040.07,386.609 h 159.84 c 4.02,0 6.79,4.02 5.35,7.77 l -20.33,52.953 c -0.85,2.207 -2.96,3.668 -5.34,3.668 h -157.36 c -3.72,0 -6.45,-3.5 -5.55,-7.102 l 17.83,-52.949 c 0.64,-2.558 2.93,-4.34 5.56,-4.34"
         style="fill:#385bb2;fill-opacity:1;fill-rule:nonzero;stroke:none"
         id="path142" />
      <path
         d="M 2638.77,67.4688 H 1612.13 c -34.9,0 -61.46,31.3125 -55.76,65.7502 l 18.32,110.633 c 4.52,27.289 28.11,47.289 55.76,47.289 h 990 c 27.65,0 51.24,-20 55.76,-47.289 l 18.31,-110.633 c 5.71,-34.4377 -20.86,-65.7502 -55.75,-65.7502"
         style="fill:#4379c6;fill-opacity:1;fill-rule:nonzero;stroke:none"
         id="path144" />
      <path
         d="m 1604.3,284.68 h 1042.29 c 0,0 -9.73,6.461 -26.14,6.461 -16.4,0 -990,0 -990,0 0,0 -15.8,0.449 -26.15,-6.461"
         style="fill:#385bb2;fill-opacity:1;fill-rule:nonzero;stroke:none"
         id="path146" />
      <path
         d="m 2854.03,2142.05 c 0,-14.3 -11.59,-25.88 -25.88,-25.88 -14.29,0 -25.87,11.58 -25.87,25.88 0,14.28 11.58,25.87 25.87,25.87 14.29,0 25.88,-11.59 25.88,-25.87"
         style="fill:#ffffff;fill-opacity:1;fill-rule:nonzero;stroke:none"
         id="path148" />
      <path
         d="m 2951.97,2142.05 c 0,-14.3 -11.59,-25.88 -25.87,-25.88 -14.29,0 -25.88,11.58 -25.88,25.88 0,14.28 11.59,25.87 25.88,25.87 14.28,0 25.87,-11.59 25.87,-25.87"
         style="fill:#ffffff;fill-opacity:1;fill-rule:nonzero;stroke:none"
         id="path150" />
      <path
         d="m 3049.9,2142.05 c 0,-14.3 -11.58,-25.88 -25.86,-25.88 -14.29,0 -25.87,11.58 -25.87,25.88 0,14.28 11.58,25.87 25.87,25.87 14.28,0 25.86,-11.59 25.86,-25.87"
         style="fill:#ffffff;fill-opacity:1;fill-rule:nonzero;stroke:none"
         id="path152" />
      <path
         d="m 1330.74,1819.08 c 0,0 5.14,8.81 24.29,23.42 19.14,14.61 21.24,52.43 49.7,52.53 20.9,0.07 12.49,-20.64 23.21,-61.1 3.02,-11.43 19.06,-35.2 24.26,-68.81 0,0 -31.56,55.81 -121.46,53.96"
         style="fill:#ef9fad;fill-opacity:1;fill-rule:nonzero;stroke:none"
         id="path154" />
      <path
         d="m 1123.85,1840.42 c -17.74,11.6 -25.18,77.65 -2.92,87.46 22.27,9.81 30.11,-26.33 38.14,-42.66 9.68,-19.65 42.08,-76.13 77.89,-72.25 0,0 -60.9,-6.71 -113.11,27.45"
         style="fill:#ef9fad;fill-opacity:1;fill-rule:nonzero;stroke:none"
         id="path156" />
      <path
         d="m 1156.71,1885.22 c 0,0 -4.77,25.25 18.67,26.68 23.46,1.43 25.18,-47.59 47.15,-69.26 22,-21.7 38.93,-26.7 38.93,-26.7 l -30.43,-3.15 c 0,0 -28.32,-9.37 -74.32,72.43"
         style="fill:#ef9fad;fill-opacity:1;fill-rule:nonzero;stroke:none"
         id="path158" />
      <path
         d="m 1272.89,1652.45 c 0,0 -8.94,48.09 -11.7,58.86 -2.76,10.76 -4.5,15.35 -32.25,20.05 -27.73,4.68 -97.2,36.84 -125.44,60.31 -28.17,23.44 -36.97,53.89 -27.31,69.49 9.66,15.59 39.77,-19.49 73.12,-32.46 33.4,-12.99 68.88,-16.65 98.62,-12.77 29.76,3.88 112.95,13.07 155.58,-6.6 42.71,-19.72 62.09,-47.84 52.53,-85.28 -9.56,-37.5 -17.1,-88.01 -17.1,-88.01 l -166.05,16.41"
         style="fill:#f5b2bb;fill-opacity:1;fill-rule:nonzero;stroke:none"
         id="path160" />
      <path
         d="m 1785.13,1667.72 c -44.92,-22.93 -61.1,-48 -113.53,-143.55 -52.57,-95.82 -139.32,-322.43 -139.32,-322.43 l -79.53,432.94 -200.74,19.83 c 0,0 2.03,-447 7.54,-556.52 5.54,-110.092 69.91,-223.092 176.94,-234.299 107.41,-11.242 298.96,191.729 298.96,191.729 0,0 40.17,115.85 57.66,216.24 17.43,99.97 -7.98,396.06 -7.98,396.06"
         style="fill:#77ba83;fill-opacity:1;fill-rule:nonzero;stroke:none"
         id="path162" />
      <path
         d="m 1917.87,1731.73 c 0,0 -119.22,-51.26 -132.74,-64.01 -13.53,-12.75 -73.29,-215.08 -86.67,-293.43 -13.41,-78.6 15.91,-158.06 59.55,-175.55 l -60.78,-335.951 h 774.09 c 0,0 1.22,666.881 2.01,699.131 0.8,32.2 -1.2,62.89 -55.27,96.43 -53.92,33.45 -132.11,59.02 -192.33,112.95 0,0 -141.95,-159.98 -207.59,-160.16 -65.52,-0.18 -100.27,120.59 -100.27,120.59"
         style="fill:#77ba83;fill-opacity:1;fill-rule:nonzero;stroke:none"
         id="path164" />
      <path
         d="m 1695.27,1015.72 c 17.15,16.17 29.87,29.05 36.04,35.39 l -1.22,-6.72 -34.82,-28.67"
         style="fill:#85b4ae;fill-opacity:1;fill-rule:nonzero;stroke:none"
         id="path166" />
      <path
         d="m 1695.18,1015.65 c 0,0 24.84,140.72 10.13,160.33 -14.71,19.61 -69,81.98 -46.61,163.68 22.19,80.93 71.55,167.63 72.48,169.27 -0.04,-0.15 -0.08,-0.31 -0.13,-0.46 -2.47,-8.42 -36,-122.95 -35.86,-151.1 0.02,-4.42 -0.05,-10.35 0.04,-17.34 -0.33,-16.37 1.07,-32.37 3.92,-47.41 4.12,-24.31 12.51,-50.3 29.54,-70.48 8.61,-10.96 18.53,-19.08 29.32,-23.4 v 0 l -26.7,-147.63 c -6.17,-6.34 -18.89,-19.22 -36.04,-35.39 l -0.09,-0.07"
         style="fill:#5aa267;fill-opacity:1;fill-rule:nonzero;stroke:none"
         id="path168" />
      <path
         d="m 1730.09,1044.39 1.22,6.72 26.7,147.63 v 0 l -27.92,-154.35 m 27.92,154.35 c -10.79,4.32 -20.71,12.44 -29.32,23.4 7.81,-9.27 17.45,-17.31 29.32,-23.4 m -58.86,93.88 c -2.85,15.04 -4.25,31.04 -3.92,47.41 0.18,-13.04 0.93,-29.78 3.92,-47.41 m 31.9,215.85 c 0.05,0.15 0.09,0.31 0.13,0.46 0.01,0.02 0.02,0.03 0.02,0.03 0,0 -0.05,-0.17 -0.15,-0.49"
         style="fill:#5aa267;fill-opacity:1;fill-rule:nonzero;stroke:none"
         id="path170" />
      <path
         d="m 2209.27,2048.15 c 0,0 -24.1,-178.65 -3.05,-260.88 0,0 -89.64,-134.91 -185.14,-126 -95.22,8.89 -54.58,112.99 -54.58,112.99 0,0 14.93,64.35 10.37,106.95 0,0 65.85,15.27 128.72,46.27 62.9,31 103.68,120.67 103.68,120.67"
         style="fill:#f5b2bb;fill-opacity:1;fill-rule:nonzero;stroke:none"
         id="path172" />
      <path
         d="m 1963.33,1764.47 c 0,0 -33.14,-24.16 -45.46,-32.74 0,0 -7.24,-244.06 27.45,-253.04 34.75,-9.01 198.1,189.6 231.54,229.23 33.41,39.6 48.87,63.38 48.87,63.38 l -19.51,15.97 c 0,0 -102.17,-104.72 -181.15,-94.23 -78.76,10.45 -61.74,71.43 -61.74,71.43"
         style="fill:#f5b2bb;fill-opacity:1;fill-rule:nonzero;stroke:none"
         id="path174" />
      <path
         d="m 2404.41,1663.44 c 48.23,-20.86 67.56,-45.34 131.92,-139.27 64.76,-94.5 179.93,-320.6 179.93,-320.6 l 32.21,443.05 206.24,30.32 c 0,0 49.86,-456.89 56.84,-569.1 7.03,-112.809 -47.13,-230.309 -157.23,-244.82 -109.85,-14.469 -403.94,218.67 -403.94,218.67 0,0 -30.91,76.98 -45.97,192.31 -13.48,103.23 0,389.44 0,389.44"
         style="fill:#77ba83;fill-opacity:1;fill-rule:nonzero;stroke:none"
         id="path176" />
      <path
         d="m 1973.84,1814.93 c 0,0 1.89,14.08 2.94,26.06 -0.72,-8.98 -1.77,-17.86 -2.93,-26.06 -0.01,0 0,0 -0.01,0 m 3.57,35.88 c 0.01,0.14 0.01,0.28 0.01,0.42 0.3,11.57 -0.51,29.04 -0.55,29.94 v 0 c 1,-9.37 1.06,-19.8 0.54,-30.36"
         style="fill:#b098b5;fill-opacity:1;fill-rule:nonzero;stroke:none"
         id="path178" />
      <path
         d="m 1973.85,1814.93 c 1.16,8.2 2.21,17.08 2.93,26.06 0.31,3.61 0.55,7.03 0.63,9.82 0.52,10.56 0.46,20.99 -0.54,30.36 0.44,-0.01 0.89,-0.01 1.33,-0.02 1.22,-0.04 3.26,-0.08 5.99,-0.08 23.93,0 101.31,3.62 154.03,47.91 0.4,0.31 0.8,0.62 1.2,0.93 -3.37,-4.95 -70.51,-101.84 -165.57,-114.98"
         style="fill:#e98095;fill-opacity:1;fill-rule:nonzero;stroke:none"
         id="path180" />
      <path
         d="m 2553.49,2574.23 c 7.45,-108.66 -75.23,-200.18 -184.42,-203.89 -108.85,-3.71 -202.07,81.36 -208.45,189.48 -6.35,107.56 75.69,197.76 183.49,202 108.11,4.25 201.97,-79.51 209.38,-187.59"
         style="fill:#363788;fill-opacity:1;fill-rule:nonzero;stroke:none"
         id="path182" />
      <path
         d="m 2066.65,2492.57 c -88.92,4.41 -201.02,-59.1 -232.55,-240.61 -31.76,-182.89 -34.96,-348.63 96.63,-367.17 132.19,-18.63 253.87,33.77 278.54,163.36 24.54,128.92 61.02,434.33 -142.62,444.42"
         style="fill:#f5b2bb;fill-opacity:1;fill-rule:nonzero;stroke:none"
         id="path184" />
      <path
         d="m 2156.6,2512.04 c -118.33,-1.53 -288.11,-2.82 -339.61,-56.49 -51.55,-53.73 -53.08,-114.49 -54.7,-127.58 -1.62,-13.09 3.33,-30.67 41.92,-33.39 38.63,-2.73 105.33,36.18 128.33,73.95 0,0 -8.62,-61.25 33.47,-77.3 42.17,-16.08 119.69,-13.53 149.62,-16.93 29.96,-3.39 46.7,62.8 49.47,93.46 0,0 -6.62,-160.55 37.57,-169.9 0,0 -19.24,-141.61 6.6,-149.71 25.87,-8.09 91.39,16.03 135.01,94.85 43.52,78.62 29.95,218.76 12.84,270.64 -17.05,51.74 -86.48,99.88 -200.52,98.4"
         style="fill:#363788;fill-opacity:1;fill-rule:nonzero;stroke:none"
         id="path186" />
      <path
         d="m 1864.95,2048.93 151.53,-8.34 c 0,0 -26.88,-54.28 -84.48,-49.31 -57.49,4.96 -67.05,57.65 -67.05,57.65"
         style="fill:#ffffff;fill-opacity:1;fill-rule:nonzero;stroke:none"
         id="path188" />
      <path
         d="m 1941.03,2086.51 c -6.8,0 -15.87,1.77 -21.91,9.68 -2.46,3.3 -3.18,7.53 -3.21,12.3 0.04,10.94 4.18,25.67 9.62,40.42 5.46,14.73 12.25,29.31 17.81,39.35 0.62,1.11 1.77,1.74 2.95,1.74 0.56,0 1.12,-0.14 1.64,-0.43 1.63,-0.9 2.21,-2.96 1.31,-4.59 -5.36,-9.65 -12.06,-24.04 -17.38,-38.41 -5.34,-14.33 -9.24,-28.82 -9.2,-38.08 -0.03,-4.04 0.78,-6.91 1.83,-8.22 4.19,-5.54 10.78,-7 16.62,-7.02 0.01,0 0.01,0 0.02,0 3.93,0 7.3,0.7 8.65,1.04 l 0.64,0.16 c 0.32,0.1 0.64,0.14 0.96,0.14 1.45,0 2.8,-0.94 3.23,-2.41 0.53,-1.78 -0.48,-3.66 -2.27,-4.19 -0.19,-0.05 -4.94,-1.47 -11.23,-1.48 -0.03,0 -0.06,0 -0.08,0"
         style="fill:#e98095;fill-opacity:1;fill-rule:nonzero;stroke:none"
         id="path190" />
      <path
         d="m 2035.52,2171.05 c -0.66,-13.31 -7.07,-23.67 -14.31,-23.13 -7.23,0.53 -12.56,11.76 -11.89,25.06 0.67,13.29 7.07,23.63 14.3,23.1 7.23,-0.53 12.56,-11.73 11.9,-25.03"
         style="fill:#363788;fill-opacity:1;fill-rule:nonzero;stroke:none"
         id="path192" />
      <path
         d="m 2008.22,2215.88 0.01,0.01 c 0.48,0.24 7.18,3.25 15.28,3.22 6.98,-0.05 14.76,-1.97 21.96,-9.53 1.89,-2.01 5.06,-2.1 7.06,-0.21 2.01,1.9 2.11,5.06 0.21,7.07 -9.21,9.82 -20.31,12.72 -29.23,12.67 -11.17,-0.03 -19.32,-4.09 -19.71,-4.26 -2.48,-1.22 -3.5,-4.22 -2.28,-6.69 1.22,-2.48 4.22,-3.5 6.7,-2.28"
         style="fill:#363788;fill-opacity:1;fill-rule:nonzero;stroke:none"
         id="path194" />
      <path
         d="m 2346.38,2145.4 c -10.04,-72.07 -64.45,-123.47 -121.41,-114.62 -56.83,8.83 -94.45,74.31 -84.14,146.07 10.29,71.54 64.37,122.48 120.93,113.95 56.68,-8.53 94.62,-73.55 84.62,-145.4"
         style="fill:#385bb2;fill-opacity:1;fill-rule:nonzero;stroke:none"
         id="path196" />
      <path
         d="m 2346.38,2145.4 c -10.04,-72.07 -58.12,-124.45 -107.29,-116.81 -49.08,7.63 -80.45,72.16 -70.17,143.96 10.23,71.59 58.05,123.5 106.89,116.14 48.93,-7.37 80.57,-71.44 70.57,-143.29"
         style="fill:#3b5fb5;fill-opacity:1;fill-rule:nonzero;stroke:none"
         id="path198" />
      <path
         d="m 2235.85,2286.25 c 0,0 -0.02,214.55 -187.07,223.43 l -69.04,-4.48 c 0,0 50.81,26.53 127.18,16.4 76.57,-10.16 130.4,-60.42 145.31,-104.89 14.95,-44.58 9.53,-125.91 9.53,-125.91 0,0 -10.69,-7.83 -25.91,-4.55"
         style="fill:#3a59b0;fill-opacity:1;fill-rule:nonzero;stroke:none"
         id="path200" />
      <path
         d="m 2207.69,2035.44 c 0,0 -6.51,-54.68 -11.36,-80.63 -4.86,-25.97 -40.5,-35.65 -94.15,-34.11 -53.57,1.53 -100.53,5.52 -100.53,5.52 0,0 -10.04,27.91 19.52,28.75 0,0 101.15,-8.72 127.11,-7.98 25.99,0.74 29.77,53.88 31.3,105.95 0,0 16.96,8.27 28.11,-17.5"
         style="fill:#3a59b0;fill-opacity:1;fill-rule:nonzero;stroke:none"
         id="path202" />
      <path
         d="m 1914.85,1980.59 c 40.02,-3.82 99.61,-5.22 106.32,-25.62 6.72,-20.42 -2.92,-39.43 -44.18,-41.54 -41.21,-2.1 -78.98,7.43 -93.72,9.45 -14.72,2.01 -33.35,63.9 31.58,57.71"
         style="fill:#3a59b0;fill-opacity:1;fill-rule:nonzero;stroke:none"
         id="path204" />
      <path
         d="m 1898.5,2175.59 c -0.66,-13.3 -7.06,-23.67 -14.31,-23.13 -7.23,0.54 -12.56,11.76 -11.89,25.06 0.67,13.29 7.07,23.63 14.3,23.1 7.23,-0.53 12.56,-11.73 11.9,-25.03"
         style="fill:#363788;fill-opacity:1;fill-rule:nonzero;stroke:none"
         id="path206" />
      <path
         d="m 1871.2,2220.42 0.01,0.01 c 0.48,0.25 7.18,3.25 15.29,3.22 6.98,-0.04 14.76,-1.97 21.96,-9.53 1.89,-2.01 5.06,-2.1 7.06,-0.2 2.01,1.89 2.1,5.06 0.21,7.06 -9.21,9.82 -20.31,12.72 -29.23,12.67 -11.18,-0.02 -19.33,-4.09 -19.72,-4.26 -2.48,-1.22 -3.5,-4.22 -2.28,-6.69 1.22,-2.48 4.22,-3.5 6.7,-2.28"
         style="fill:#363788;fill-opacity:1;fill-rule:nonzero;stroke:none"
         id="path208" />
      <path
         d="m 2413.87,862.379 0.07,0.41 h 57.38 c 0,0 0,0.602 0,1.77 v 0 -1.77 l -57.45,-0.41"
         style="fill:#3675bd;fill-opacity:1;fill-rule:nonzero;stroke:none"
         id="path210" />
      <path
         d="m 2471.32,864.559 v 0 c 0.03,12.992 0.18,96.043 0.41,200.651 v 0 l -0.41,-200.651"
         style="fill:#85b4ae;fill-opacity:1;fill-rule:nonzero;stroke:none"
         id="path212" />
      <path
         d="m 2471.32,862.789 h -57.38 l 36.44,218.901 c 0,0 7.81,-6.18 21.35,-16.48 -0.23,-104.608 -0.38,-187.659 -0.41,-200.651 0,-1.168 0,-1.77 0,-1.77"
         style="fill:#5aa267;fill-opacity:1;fill-rule:nonzero;stroke:none"
         id="path214" />
      <path
         d="m 2471.73,1065.21 v 0 c -13.54,10.3 -21.35,16.48 -21.35,16.48 l 21.35,-16.48"
         style="fill:#5aa267;fill-opacity:1;fill-rule:nonzero;stroke:none"
         id="path216" />
      <path
         d="m 3067.12,1875.92 c 17.3,12.9 17.4,81.01 -7.15,89.74 -24.53,8.72 -28.53,-28.72 -35.07,-45.89 -7.85,-20.66 -35.21,-80.24 -73.1,-78.27 0,0 64.5,-3.47 115.32,34.42"
         style="fill:#ef9fad;fill-opacity:1;fill-rule:nonzero;stroke:none"
         id="path218" />
      <path
         d="m 3024.9,1919.77 c 0,0 2.07,26.11 -22.67,26.2 -24.72,0.09 -20.82,-50.1 -41.27,-73.48 -20.47,-23.4 -37.55,-29.45 -37.55,-29.45 l 32.13,-1.52 c 0,0 30.71,-8 69.36,78.25"
         style="fill:#ef9fad;fill-opacity:1;fill-rule:nonzero;stroke:none"
         id="path220" />
      <path
         d="m 2852.86,1842.99 c 0,0 -6.36,8.68 -27.93,22.49 -21.55,13.79 -28.09,52.14 -57.57,50.6 -21.63,-1.12 -10.54,-21.68 -16.95,-63.38 -1.8,-11.78 -15.64,-36.8 -17.14,-71.21 0,0 26.19,58.41 119.59,61.5"
         style="fill:#ef9fad;fill-opacity:1;fill-rule:nonzero;stroke:none"
         id="path222" />
      <path
         d="m 2933.16,1673.77 c 0,0 3.74,49.56 5.37,60.69 1.63,11.14 2.92,15.92 31.35,22.19 28.47,6.27 97.6,42.92 124.56,68.53 26.93,25.6 32.64,57.33 20.63,72.78 -12,15.43 -39.58,-22.24 -73.1,-37.41 -33.52,-15.16 -70.23,-20.88 -101.76,-18.57 -31.5,2.31 -119.07,7.05 -160.96,-15.31 -41.89,-22.37 -58.65,-51.95 -44.48,-89.46 14.21,-37.59 27.82,-88.51 27.82,-88.51 l 170.57,25.07"
         style="fill:#f5b2bb;fill-opacity:1;fill-rule:nonzero;stroke:none"
         id="path224" />
      <path
         d="m 1887.07,3103.39 c 0,37.36 -30.28,67.64 -67.63,67.64 h -739.77 c -37.36,0 -67.64,-30.28 -67.64,-67.64 v -335.77 c 0,-37.35 30.28,-67.63 67.64,-67.63 h 687.82 l 119.58,-102.32 v 505.72"
         style="fill:#b4cbe7;fill-opacity:1;fill-rule:nonzero;stroke:none"
         id="path226" />
      <path
         d="m 1012.03,3073.99 h 875.04 v 30.21 c 0,36.91 -29.91,66.83 -66.82,66.83 h -741.39 c -36.91,0 -66.83,-29.92 -66.83,-66.83 v -30.21"
         style="fill:#385bb2;fill-opacity:1;fill-rule:nonzero;stroke:none"
         id="path228" />
      <path
         d="m 1703.06,3123.03 c 0,-9.44 -7.65,-17.1 -17.1,-17.1 -9.45,0 -17.11,7.66 -17.11,17.1 0,9.45 7.66,17.11 17.11,17.11 9.45,0 17.1,-7.66 17.1,-17.11"
         style="fill:#ffffff;fill-opacity:1;fill-rule:nonzero;stroke:none"
         id="path230" />
      <path
         d="m 1769.39,3123.03 c 0,-9.44 -7.65,-17.1 -17.1,-17.1 -9.45,0 -17.11,7.66 -17.11,17.1 0,9.45 7.66,17.11 17.11,17.11 9.45,0 17.1,-7.66 17.1,-17.11"
         style="fill:#ffffff;fill-opacity:1;fill-rule:nonzero;stroke:none"
         id="path232" />
      <path
         d="m 1835.72,3123.03 c 0,-9.44 -7.66,-17.1 -17.1,-17.1 -9.45,0 -17.11,7.66 -17.11,17.1 0,9.45 7.66,17.11 17.11,17.11 9.44,0 17.1,-7.66 17.1,-17.11"
         style="fill:#ffffff;fill-opacity:1;fill-rule:nonzero;stroke:none"
         id="path234" />
      <path
         d="m 1301.51,2761.97 h -236.85 v 263.24 h 236.85 v -263.24"
         style="fill:#363788;fill-opacity:1;fill-rule:nonzero;stroke:none"
         id="path236" />
      <path
         d="m 1816.24,2995.17 h -445.23 c -6.12,0 -11.08,4.96 -11.08,11.07 0,6.12 4.96,11.08 11.08,11.08 h 445.23 c 6.11,0 11.07,-4.96 11.07,-11.08 0,-6.11 -4.96,-11.07 -11.07,-11.07"
         style="fill:#363788;fill-opacity:1;fill-rule:nonzero;stroke:none"
         id="path238" />
      <path
         d="m 1816.24,2930.43 h -445.23 c -6.12,0 -11.08,4.95 -11.08,11.07 0,6.12 4.96,11.07 11.08,11.07 h 445.23 c 6.11,0 11.07,-4.95 11.07,-11.07 0,-6.12 -4.96,-11.07 -11.07,-11.07"
         style="fill:#363788;fill-opacity:1;fill-rule:nonzero;stroke:none"
         id="path240" />
      <path
         d="m 1535.27,2865.68 h -164.26 c -6.12,0 -11.08,4.96 -11.08,11.07 0,6.12 4.96,11.08 11.08,11.08 h 164.26 c 6.11,0 11.07,-4.96 11.07,-11.08 0,-6.11 -4.96,-11.07 -11.07,-11.07"
         style="fill:#363788;fill-opacity:1;fill-rule:nonzero;stroke:none"
         id="path242" />
      <path
         d="M 1816.24,2800.94 H 1527.7 c -6.12,0 -11.07,4.95 -11.07,11.07 0,6.12 4.95,11.08 11.07,11.08 h 288.54 c 6.11,0 11.07,-4.96 11.07,-11.08 0,-6.12 -4.96,-11.07 -11.07,-11.07"
         style="fill:#363788;fill-opacity:1;fill-rule:nonzero;stroke:none"
         id="path244" />
      <path
         d="m 3484.72,3004.72 h -657.01 c -35.38,0 -64.08,-28.68 -64.08,-64.07 v -242.84 -42.84 -171.91 l 136.59,107.84 h 584.5 c 35.39,0 64.07,28.69 64.07,64.07 v 285.68 c 0,35.39 -28.68,64.07 -64.07,64.07"
         style="fill:#b4cbe7;fill-opacity:1;fill-rule:nonzero;stroke:none"
         id="path246" />
      <path
         d="M 3470.49,2889.89 H 2843 c -6.11,0 -11.07,4.96 -11.07,11.08 0,6.11 4.96,11.07 11.07,11.07 h 627.49 c 6.11,0 11.07,-4.96 11.07,-11.07 0,-6.12 -4.96,-11.08 -11.07,-11.08"
         style="fill:#363788;fill-opacity:1;fill-rule:nonzero;stroke:none"
         id="path248" />
      <path
         d="M 3470.49,2821.13 H 2843 c -6.11,0 -11.07,4.95 -11.07,11.07 0,6.11 4.96,11.07 11.07,11.07 h 627.49 c 6.11,0 11.07,-4.96 11.07,-11.07 0,-6.12 -4.96,-11.07 -11.07,-11.07"
         style="fill:#363788;fill-opacity:1;fill-rule:nonzero;stroke:none"
         id="path250" />
      <path
         d="M 3470.49,2752.36 H 2843 c -6.11,0 -11.07,4.95 -11.07,11.07 0,6.11 4.96,11.07 11.07,11.07 h 627.49 c 6.11,0 11.07,-4.96 11.07,-11.07 0,-6.12 -4.96,-11.07 -11.07,-11.07"
         style="fill:#363788;fill-opacity:1;fill-rule:nonzero;stroke:none"
         id="path252" />
      <path
         d="M 3151.2,2683.59 H 2843 c -6.11,0 -11.07,4.95 -11.07,11.07 0,6.11 4.96,11.07 11.07,11.07 h 308.2 c 6.13,0 11.09,-4.96 11.09,-11.07 0,-6.12 -4.96,-11.07 -11.09,-11.07"
         style="fill:#363788;fill-opacity:1;fill-rule:nonzero;stroke:none"
         id="path254" />
      <path
         d="m 1391.47,2003.12 c 0,-36.87 -29.85,-66.73 -67.31,-66.73 -36.88,0 -66.73,29.86 -66.73,66.73 0,37.46 29.85,67.31 66.73,67.31 37.46,0 67.31,-29.85 67.31,-67.31 z m -221.25,323.1 c 0,2.92 25.17,110.63 155.7,110.63 87.79,0 166.23,-57.37 166.23,-139.9 0,-57.36 -42.73,-92.48 -98.92,-116.48 -19.9,-8.77 -20.49,-25.17 -20.49,-44.48 v -32.78 h -96.58 v 63.8 c 0,25.76 1.17,46.83 27.51,63.8 35.71,22.83 69.07,24.58 69.07,66.14 0,28.1 -21.07,48 -47.41,48 -42.14,0 -62.63,-35.12 -69.07,-60.29 l -86.04,41.56"
         style="fill:#e75792;fill-opacity:1;fill-rule:nonzero;stroke:none"
         id="path256" />
      <path
         d="M 895.172,2224.11 H 54.8594 c -30.2969,0 -54.85549375,-24.56 -54.85549375,-54.86 v -249.3 c 0,-30.31 24.55859375,-54.87 54.85549375,-54.87 H 868.055 l 81.98,-98.33 v 153.2 5.11 244.19 c 0,30.3 -24.562,54.86 -54.863,54.86"
         style="fill:#b4cbe7;fill-opacity:1;fill-rule:nonzero;stroke:none"
         id="path258" />
      <path
         d="M 950.031,2147.92 H 0.00390625 v 23.6 c 0,29.05 23.53909375,52.59 52.58199375,52.59 H 897.449 c 29.043,0 52.582,-23.54 52.582,-52.59 v -23.6"
         style="fill:#385bb2;fill-opacity:1;fill-rule:nonzero;stroke:none"
         id="path260" />
      <path
         d="M 871.031,2063.04 H 75.457 c -7.414,0 -13.4179,6.01 -13.4179,13.42 0,7.41 6.0039,13.42 13.4179,13.42 h 795.574 c 7.414,0 13.422,-6.01 13.422,-13.42 0,-7.41 -6.008,-13.42 -13.422,-13.42"
         style="fill:#363788;fill-opacity:1;fill-rule:nonzero;stroke:none"
         id="path262" />
      <path
         d="M 871.031,2001.89 H 75.457 c -7.414,0 -13.4179,6.02 -13.4179,13.43 0,7.41 6.0039,13.42 13.4179,13.42 h 795.574 c 7.414,0 13.422,-6.01 13.422,-13.42 0,-7.41 -6.008,-13.43 -13.422,-13.43"
         style="fill:#363788;fill-opacity:1;fill-rule:nonzero;stroke:none"
         id="path264" />
      <path
         d="M 871.031,1940.76 H 75.457 c -7.414,0 -13.4179,6 -13.4179,13.42 0,7.41 6.0039,13.42 13.4179,13.42 h 795.574 c 7.414,0 13.422,-6.01 13.422,-13.42 0,-7.42 -6.008,-13.42 -13.422,-13.42"
         style="fill:#363788;fill-opacity:1;fill-rule:nonzero;stroke:none"
         id="path266" />
      <path
         d="M 1104.47,1285.95 H 494.039 c -28.574,0 -51.738,23.17 -51.738,51.74 v 201.86 c 0,28.57 23.164,51.73 51.738,51.73 h 610.431 c 28.58,0 51.74,-23.16 51.74,-51.73 v -201.86 c 0,-28.57 -23.16,-51.74 -51.74,-51.74"
         style="fill:#be7b3a;fill-opacity:1;fill-rule:nonzero;stroke:none"
         id="path268" />
      <path
         d="M 1105.54,1285.95 H 522.043 c -27.988,0 -50.676,22.69 -50.676,50.68 v 203.98 c 0,27.98 22.688,50.67 50.676,50.67 h 583.497 c 27.98,0 50.67,-22.69 50.67,-50.67 v -203.98 c 0,-27.99 -22.69,-50.68 -50.67,-50.68"
         style="fill:#e89d36;fill-opacity:1;fill-rule:nonzero;stroke:none"
         id="path270" />
      <path
         d="m 471.367,1540.61 c 0,0 158.266,-254.66 569.793,-254.66 H 519.695 c -26.691,0 -48.328,21.64 -48.328,48.33 v 206.33"
         style="fill:#d79038;fill-opacity:1;fill-rule:nonzero;stroke:none"
         id="path272" />
      <path
         d="m 985.109,1591.28 116.521,-23.6 c 0,0 35.4,-8.4 35.4,-47.71 0,-39.31 0,-222.99 0,-222.99 0,0 19.18,13.61 19.18,39.65 0,26.02 0,203.98 0,203.98 0,0 -2.52,50.67 -50.67,50.67 -48.15,0 -120.431,0 -120.431,0"
         style="fill:#e2bb58;fill-opacity:1;fill-rule:nonzero;stroke:none"
         id="path274" />
      <path
         d="m 578.449,1373.93 v 135.33 h 27.321 v -53.27 h 53.539 v 53.27 h 27.324 v -135.33 h -27.324 v 59.17 H 605.77 v -59.17 h -27.321"
         style="fill:#ffffff;fill-opacity:1;fill-rule:nonzero;stroke:none"
         id="path276" />
      <path
         d="m 714.879,1373.93 v 135.33 h 100.34 v -22.89 h -73.016 v -30.01 h 67.938 v -22.8 h -67.938 v -36.83 h 75.598 v -22.8 H 714.879"
         style="fill:#ffffff;fill-opacity:1;fill-rule:nonzero;stroke:none"
         id="path278" />
      <path
         d="m 841.711,1373.93 v 134.22 h 27.324 v -111.42 h 67.942 v -22.8 h -95.266"
         style="fill:#ffffff;fill-opacity:1;fill-rule:nonzero;stroke:none"
         id="path280" />
      <path
         d="m 983.773,1486.37 v -38.41 h 14.95 c 10.767,0 17.967,0.71 21.597,2.12 3.63,1.42 6.48,3.64 8.54,6.65 2.07,3.02 3.1,6.53 3.1,10.53 0,4.92 -1.45,8.99 -4.35,12.18 -2.89,3.2 -6.55,5.2 -10.98,6 -3.26,0.62 -9.82,0.93 -19.661,0.93 z m -27.324,-112.44 v 135.33 h 43.851 c 16.61,0 27.44,-0.68 32.49,-2.03 7.75,-2.03 14.24,-6.45 19.47,-13.25 5.23,-6.8 7.85,-15.59 7.85,-26.36 0,-8.3 -1.51,-15.29 -4.53,-20.95 -3.01,-5.66 -6.84,-10.1 -11.49,-13.34 -4.64,-3.23 -9.37,-5.37 -14.17,-6.41 -6.52,-1.29 -15.97,-1.94 -28.34,-1.94 h -17.807 v -51.05 h -27.324"
         style="fill:#ffffff;fill-opacity:1;fill-rule:nonzero;stroke:none"
         id="path282" />
      <path
         d="M 906.129,241.309 H 485.355 c -25.609,0 -46.367,20.773 -46.367,46.371 v 858.77 c 0,25.61 20.758,46.36 46.367,46.36 h 420.774 c 25.605,0 46.367,-20.75 46.367,-46.36 V 287.68 c 0,-25.598 -20.762,-46.371 -46.367,-46.371"
         style="fill:#363788;fill-opacity:1;fill-rule:nonzero;stroke:none"
         id="path284" />
      <path
         d="M 898.039,352.871 H 493.445 V 1137.74 H 898.039 V 352.871"
         style="fill:#b4cbe7;fill-opacity:1;fill-rule:nonzero;stroke:none"
         id="path286" />
      <path
         d="m 493.445,352.871 c 0,0 404.594,308.117 404.594,637.899 V 352.871 H 493.445"
         style="fill:#acc4d6;fill-opacity:1;fill-rule:nonzero;stroke:none"
         id="path288" />
      <path
         d="m 695.742,259.148 c -20.48,0 -37.082,16.602 -37.082,37.082 0,20.469 16.602,37.079 37.082,37.079 20.481,0 37.082,-16.61 37.082,-37.079 0,-20.48 -16.601,-37.082 -37.082,-37.082"
         style="fill:#32306c;fill-opacity:1;fill-rule:nonzero;stroke:none"
         id="path290" />
      <path
         d="m 833.109,899.129 c 0,-75.859 -61.5,-137.367 -137.367,-137.367 -75.863,0 -137.367,61.508 -137.367,137.367 0,75.871 61.504,137.371 137.367,137.371 75.867,0 137.367,-61.5 137.367,-137.371"
         style="fill:#e89d36;fill-opacity:1;fill-rule:nonzero;stroke:none"
         id="path292" />
      <path
         d="m 633.391,466.141 c 0,-26.379 -21.383,-47.77 -47.758,-47.77 -26.383,0 -47.766,21.391 -47.766,47.77 0,26.371 21.383,47.757 47.766,47.757 26.375,0 47.758,-21.386 47.758,-47.757"
         style="fill:#e75792;fill-opacity:1;fill-rule:nonzero;stroke:none"
         id="path294" />
      <path
         d="m 862.156,466.141 c 0,-26.379 -21.383,-47.77 -47.765,-47.77 -26.375,0 -47.758,21.391 -47.758,47.77 0,26.371 21.383,47.757 47.758,47.757 26.382,0 47.765,-21.386 47.765,-47.757"
         style="fill:#77ba83;fill-opacity:1;fill-rule:nonzero;stroke:none"
         id="path296" />
      <path
         d="m 735.477,778.191 c 0,-24.3 -19.672,-43.98 -44.368,-43.98 -24.3,0 -43.972,19.68 -43.972,43.98 0,24.7 19.672,44.36 43.972,44.36 24.696,0 44.368,-19.66 44.368,-44.36 z m -145.821,212.95 c 0,1.918 16.59,72.909 102.617,72.909 57.868,0 109.555,-37.8 109.555,-92.198 0,-37.813 -28.16,-60.961 -65.191,-76.77 -13.117,-5.793 -13.504,-16.594 -13.504,-29.32 V 844.16 H 659.48 v 42.051 c 0,16.969 0.77,30.859 18.133,42.051 23.532,15.039 45.52,16.199 45.52,43.59 0,18.519 -13.887,31.628 -31.246,31.628 -27.778,0 -41.278,-23.14 -45.524,-39.73 l -56.707,27.391"
         style="fill:#ffffff;fill-opacity:1;fill-rule:nonzero;stroke:none"
         id="path298" />
      <path
         d="m 3466.88,627.32 c -23.84,-20.269 -59.61,-17.379 -79.9,6.461 l -330.7,388.869 86.35,73.43 330.7,-388.869 c 20.29,-23.852 17.39,-59.609 -6.45,-79.891"
         style="fill:#363788;fill-opacity:1;fill-rule:nonzero;stroke:none"
         id="path300" />
      <path
         d="m 3430.19,613.82 c -16.05,0 -31.99,6.782 -43.21,19.961 l -106.23,124.918 86.35,73.422 106.23,-124.91 c 9.07,-10.66 13.51,-23.711 13.51,-36.699 0,-16.043 -6.78,-31.981 -19.96,-43.192 -10.66,-9.058 -23.71,-13.5 -36.69,-13.5"
         style="fill:#32306c;fill-opacity:1;fill-rule:nonzero;stroke:none"
         id="path302" />
      <path
         d="m 3168.11,1066.11 -14.51,17.07 v 0 l 14.52,-17.06 c 0,0 0,0 -0.01,-0.01"
         style="fill:#364fa9;fill-opacity:1;fill-rule:nonzero;stroke:none"
         id="path304" />
      <path
         d="m 3081.76,992.68 -14.51,17.07 v 0 l 14.52,-17.07 c -0.01,0 -0.01,0 -0.01,0"
         style="fill:#5e73b2;fill-opacity:1;fill-rule:nonzero;stroke:none"
         id="path306" />
      <path
         d="m 3081.77,992.68 -14.52,17.07 c 16.23,9.26 31.84,20.15 46.59,32.7 14.75,12.54 28.02,26.2 39.76,40.73 l 14.51,-17.07 c -0.23,-0.45 -12.23,-23.78 -36.57,-44.47 -22.52,-19.17 -49.29,-28.781 -49.77,-28.96"
         style="fill:#32306c;fill-opacity:1;fill-rule:nonzero;stroke:none"
         id="path308" />
      <path
         d="m 3102.46,1115.37 v 317.19 c 0.13,-0.15 0.27,-0.31 0.39,-0.46 39.06,-45.92 58.16,-102.12 58.15,-158.03 -0.01,-56.92 -19.82,-113.53 -58.54,-158.7"
         style="fill:#6aa2dc;fill-opacity:1;fill-rule:nonzero;stroke:none"
         id="path310" />
      <path
         d="m 3009.57,1048.12 c 2.55,19.66 3.23,39.76 1.98,59.72 -4.21,67.76 -24.06,261.21 -39.13,403.84 48.99,-11.39 94.88,-37.97 130.04,-79.12 v -317.19 c -8.27,-9.66 -17.42,-18.8 -27.42,-27.3 -20.14,-17.13 -42.27,-30.42 -65.47,-39.95 m 14.64,390.5 c -8.65,0 -16.23,-3.62 -21.42,-12.15 -13.16,-21.63 9.84,-49.38 38.92,-73.96 7.54,-6.37 15.58,-9.13 23.01,-9.13 21.21,-0.01 37.45,22.57 22.94,48.22 -13.96,24.68 -41.97,47.02 -63.45,47.02 m -307.95,-235.05 c 0,0 -17.68,34.71 -43.08,82.61 2.69,53.53 22.89,106.09 59.87,148.34 l -16.79,-230.95"
         style="fill:#b4cbe7;fill-opacity:1;fill-rule:nonzero;stroke:none"
         id="path312" />
      <path
         d="m 2917.05,1029.93 c -69.1,0 -137.76,29.18 -186.03,85.95 -39.06,45.93 -58.16,102.12 -58.15,158.03 0,4.1 0.1,8.18 0.31,12.27 25.4,-47.9 43.08,-82.61 43.08,-82.61 l 16.79,230.95 c 7.84,8.95 16.43,17.45 25.77,25.39 45.92,39.04 102.11,58.15 158,58.15 18.7,0 37.36,-2.14 55.6,-6.38 15.07,-142.63 34.92,-336.08 39.13,-403.84 1.25,-19.96 0.57,-40.06 -1.98,-59.72 -29.69,-12.18 -61.15,-18.19 -92.52,-18.19 m -26.89,445.62 c -27.05,0 -59.54,-7.81 -93.32,-29.54 -36.66,-23.58 -64.48,-72.59 -55.61,-94.62 3.11,-7.71 9.59,-11.72 19.03,-11.72 17.5,-0.01 45.17,13.81 80.27,43.37 54.01,45.48 89.16,27.34 115.8,49.36 17.5,14.46 -14.34,43.15 -66.17,43.15"
         style="fill:#96c4b1;fill-opacity:1;fill-rule:nonzero;stroke:none"
         id="path314" />
      <path
         d="m 3075.04,1088.07 c -102.68,-87.32 -256.71,-74.87 -344.02,27.81 -87.33,102.68 -74.87,256.71 27.8,344.03 102.69,87.32 256.71,74.87 344.03,-27.81 87.33,-102.68 74.88,-256.7 -27.81,-344.03 m 73.44,382.83 c -108.75,127.88 -300.58,143.38 -428.46,34.63 -127.87,-108.75 -143.38,-300.57 -34.63,-428.44 108.75,-127.891 300.58,-143.391 428.45,-34.64 127.88,108.75 143.38,300.57 34.64,428.45"
         style="fill:#363788;fill-opacity:1;fill-rule:nonzero;stroke:none"
         id="path316" />
      <path
         d="m 2760.26,1339.67 c -9.44,0 -15.92,4.01 -19.03,11.72 -8.87,22.03 18.95,71.04 55.61,94.62 33.78,21.73 66.27,29.54 93.32,29.54 51.83,0 83.67,-28.69 66.17,-43.15 -26.64,-22.02 -61.79,-3.88 -115.8,-49.36 -35.1,-29.56 -62.77,-43.38 -80.27,-43.37"
         style="fill:#a6c8ca;fill-opacity:1;fill-rule:nonzero;stroke:none"
         id="path318" />
      <path
         d="m 3064.72,1343.38 c -7.43,0 -15.47,2.76 -23.01,9.13 -29.08,24.58 -52.08,52.33 -38.92,73.96 5.19,8.53 12.77,12.15 21.42,12.15 21.48,0 49.49,-22.34 63.45,-47.02 14.51,-25.65 -1.73,-48.23 -22.94,-48.22"
         style="fill:#b4cbe7;fill-opacity:1;fill-rule:nonzero;stroke:none"
         id="path320" />
      <path
         d="m 2975.37,2026.49 h -151 c -4.63,0 -8.38,-3.75 -8.38,-8.37 v -44.97 c 0,-40.69 28.97,-74.59 67.41,-82.24 v -12.84 c 0,-9.56 7.75,-17.32 17.32,-17.32 9.57,0 17.33,7.76 17.33,17.32 v 13.23 c 37.58,8.31 65.7,41.77 65.7,81.85 v 44.97 c 0,4.62 -3.75,8.37 -8.38,8.37"
         style="fill:#363788;fill-opacity:1;fill-rule:nonzero;stroke:none"
         id="path322" />
      <path
         d="m 3095.09,2261.62 c 0,107.62 -87.25,194.86 -194.87,194.86 -107.62,0 -194.87,-87.24 -194.87,-194.86 0,-67.49 38.31,-121.61 86.44,-161.91 15.5,-12.98 34.34,-35.6 34.34,-73.22 h 74.09 74.1 c 0,37.62 18.84,60.24 34.33,73.22 48.13,40.3 86.44,94.42 86.44,161.91"
         style="fill:#e89d36;fill-opacity:1;fill-rule:nonzero;stroke:none"
         id="path324" />
      <path
         d="m 2815.99,1980.19 h 167.762 v 23.3867 H 2815.99 Z"
         style="fill:#32306c;fill-opacity:1;fill-rule:nonzero;stroke:none"
         id="path326" />
      <path
         d="m 2834.54,2197.55 31.22,-171.66 6.69,1.21 -31.21,171.66"
         style="fill:#ffffff;fill-opacity:1;fill-rule:nonzero;stroke:none"
         id="path328" />
      <path
         d="m 2953.28,2198.76 -31.22,-171.66 6.7,-1.21 31.21,171.66"
         style="fill:#ffffff;fill-opacity:1;fill-rule:nonzero;stroke:none"
         id="path330" />
      <path
         d="m 2798.2,2196.85 c 0.12,-0.19 3.56,-6.28 10.27,-12.6 6.7,-6.29 16.82,-12.91 30.09,-13.47 l 1.86,-0.04 c 12.74,0.01 23.74,5.45 32.34,12.45 8.62,7.03 14.96,15.63 18.65,22.6 2.31,4.42 3.34,10.06 3.35,16.07 -0.01,7.79 -1.78,16.19 -5.82,23 -3.96,6.78 -10.75,12.09 -19.79,12.04 l -1.3,-0.04 c -7.75,-0.38 -14.11,-4.42 -18.21,-10.2 -4.14,-5.78 -6.25,-13.24 -6.26,-21.07 0,-10.42 3.78,-21.63 12.12,-30.42 10.63,-11.17 25.59,-20.51 42.88,-20.54 15.4,-0.03 32.11,7.62 48,26.79 10.37,12.47 14.62,24.34 14.62,34.45 0,8.1 -2.76,15.01 -7.1,19.88 -4.33,4.88 -10.28,7.76 -16.48,7.77 -5.3,0.01 -10.72,-2.18 -15.06,-6.63 -6.3,-6.46 -9.82,-16.47 -9.85,-27.25 0,-11.75 4.32,-24.59 14.66,-34.44 10.34,-9.87 26.51,-16.52 49.52,-16.51 2.35,0 4.76,0.07 7.25,0.21 l -0.38,6.79 c -2.37,-0.13 -4.66,-0.19 -6.87,-0.19 -21.75,0.01 -35.96,6.18 -44.82,14.62 -8.86,8.45 -12.54,19.39 -12.55,29.52 -0.02,9.28 3.19,17.75 7.89,22.49 3.22,3.25 6.72,4.57 10.21,4.58 4.06,0 8.21,-1.9 11.4,-5.48 3.17,-3.57 5.37,-8.79 5.37,-15.36 0,-8.17 -3.43,-18.53 -13.04,-30.1 -15.09,-18.09 -29.69,-24.31 -42.77,-24.34 -14.71,-0.02 -28.17,8.13 -37.94,18.43 -7.05,7.4 -10.25,16.93 -10.25,25.73 -0.01,6.61 1.83,12.73 4.98,17.11 3.18,4.37 7.44,7.05 13.04,7.37 l 0.94,0.02 c 6.32,-0.04 10.64,-3.3 13.94,-8.71 3.23,-5.38 4.88,-12.79 4.87,-19.52 0.01,-5.18 -0.99,-9.95 -2.57,-12.9 -3.24,-6.17 -9.16,-14.19 -16.92,-20.49 -7.79,-6.33 -17.31,-10.93 -28.05,-10.92 l -1.58,0.03 c -11.07,0.46 -19.72,6.01 -25.71,11.63 -2.98,2.8 -5.26,5.59 -6.78,7.67 -0.76,1.03 -1.33,1.88 -1.7,2.47 l -0.41,0.66 -0.11,0.19 -5.93,-3.35"
         style="fill:#ffffff;fill-opacity:1;fill-rule:nonzero;stroke:none"
         id="path332" />
    </g>
  </g>
</svg>
