<svg width="24" height="24" viewBox="0 0 24 24" fill="none" xmlns="http://www.w3.org/2000/svg">
<path d="M16.51 5.01L14.55 3.05C13.15 1.65 10.85 1.65 9.45001 3.05L7.49001 5.01C7.10001 5.4 7.10001 6.04 7.49001 6.43L11.3 10.24C11.69 10.63 12.32 10.63 12.71 10.24L16.52 6.43C16.9 6.04 16.9 5.4 16.51 5.01Z" fill="white"/>
<path d="M5.01 7.49001L3.05 9.45001C1.65 10.85 1.65 13.15 3.05 14.55L5.01 16.51C5.4 16.9 6.03 16.9 6.42 16.51L10.23 12.7C10.62 12.31 10.62 11.68 10.23 11.29L6.43 7.49001C6.04 7.10001 5.4 7.10001 5.01 7.49001Z" fill="white"/>
<path d="M20.95 9.45001L18.99 7.49001C18.6 7.10001 17.97 7.10001 17.58 7.49001L13.77 11.3C13.38 11.69 13.38 12.32 13.77 12.71L17.58 16.52C17.97 16.91 18.6 16.91 18.99 16.52L20.95 14.56C22.35 13.15 22.35 10.85 20.95 9.45001Z" fill="white"/>
<path d="M7.48999 18.99L9.44999 20.95C10.85 22.35 13.15 22.35 14.55 20.95L16.51 18.99C16.9 18.6 16.9 17.97 16.51 17.58L12.7 13.77C12.31 13.38 11.68 13.38 11.29 13.77L7.47999 17.58C7.09999 17.96 7.09999 18.6 7.48999 18.99Z" fill="white"/>
</svg>
