<svg width="129" height="129" viewBox="0 0 129 129" fill="none" xmlns="http://www.w3.org/2000/svg">
<circle cx="64.5" cy="64.5" r="64.5" fill="#2864F0"/>
<path d="M86.3745 64.7439L77.3394 58.9729L86.3745 53.2019C86.7642 52.953 87 52.5226 87 52.0601C87 51.5977 86.7642 51.1674 86.3745 50.9184L75.552 44.0056C75.1073 43.7214 74.5381 43.7215 74.0935 44.0056L64 50.4527L53.9066 44.0056C53.4618 43.7215 52.8928 43.7215 52.4481 44.0056L41.6256 50.9184C41.2358 51.1674 41 51.5978 41 52.0601C41 52.5225 41.2358 52.953 41.6256 53.2019L50.6607 58.9729L41.6256 64.7439C41.2358 64.9929 41 65.4232 41 65.8856C41 66.3481 41.2358 66.7785 41.6256 67.0274L52.4481 73.9401C52.6705 74.0822 52.9239 74.1531 53.1774 74.1531C53.4308 74.1531 53.6844 74.0821 53.9067 73.9402L64 67.4932L74.0933 73.9401C74.3157 74.0821 74.5692 74.153 74.8226 74.153C75.0761 74.153 75.3295 74.0821 75.5519 73.94L86.3744 67.0273C86.7641 66.7784 87 66.348 87 65.8855C87 65.4231 86.7641 64.9929 86.3745 64.7439ZM64 64.2782L55.6941 58.9729L64 53.6678L72.3058 58.973L64 64.2782Z" fill="#5582FF"/>
<path d="M75.552 76.7982L64.7292 69.8854C64.2845 69.6013 63.7154 69.6013 63.2708 69.8854L52.4481 76.7982C52.0584 77.0471 51.8225 77.4776 51.8225 77.94C51.8225 78.4024 52.0583 78.8329 52.4481 79.0817L63.2707 85.9946C63.4931 86.1365 63.7465 86.2075 64 86.2075C64.2534 86.2075 64.5069 86.1365 64.7292 85.9946L75.5519 79.0817C75.9415 78.8329 76.1775 78.4024 76.1775 77.94C76.1775 77.4776 75.9415 77.0471 75.552 76.7982Z" fill="#5582FF"/>
<path d="M86.9999 52.0601C86.9999 51.5976 86.7641 51.1673 86.3744 50.9183L75.5519 44.0056C75.1073 43.7214 74.538 43.7215 74.0935 44.0056L63.9999 50.4526L63.9997 50.4524V53.6678L63.9999 53.6676L72.3058 58.9728L63.9999 64.278L63.9997 64.2778V67.4932L63.9999 67.493L74.0933 73.9399C74.3157 74.0819 74.5691 74.1529 74.8226 74.1529C75.076 74.1529 75.3295 74.0819 75.5518 73.9398L86.3744 67.0271C86.7641 66.7782 86.9999 66.3478 86.9999 65.8854C86.9999 65.4229 86.7641 64.9926 86.3744 64.7436L77.3393 58.9726L86.3744 53.2016C86.7641 52.9529 86.9999 52.5225 86.9999 52.0601Z" fill="white"/>
<path d="M75.5519 76.7985L64.7292 69.8858C64.5069 69.7438 64.2536 69.6729 64.0003 69.6729V86.2078C64.2536 86.2078 64.507 86.1368 64.7292 85.9949L75.5518 79.0821C75.9415 78.8332 76.1774 78.4028 76.1774 77.9403C76.1774 77.4779 75.9415 77.0475 75.5519 76.7985Z" fill="white"/>
</svg>
