<svg width="129" height="129" viewBox="0 0 129 129" fill="none" xmlns="http://www.w3.org/2000/svg">
<circle cx="64.5" cy="64.5" r="64.5" fill="#F80000"/>
<path d="M82.6683 63.2177C82.5725 62.2402 81.7483 61.5118 80.7708 61.5118H66.3C65.2458 61.5118 64.3833 62.3743 64.3833 63.4285V66.706C64.3833 67.7602 65.2458 68.6227 66.3 68.6227H74.9442C74.7333 70.386 73.5833 73.0502 71.0342 74.8327C69.405 75.9635 67.2392 76.7493 64.3833 76.7493C64.2492 76.7493 64.1342 76.7493 64 76.7302C59.1125 76.5768 54.9725 73.2994 53.4775 68.7952C53.075 67.5877 52.845 66.3227 52.845 65.0002C52.845 63.6777 53.075 62.3935 53.4583 61.2051C53.5733 60.8601 53.7075 60.5152 53.8608 60.1702C55.6242 56.2027 59.4767 53.4043 64 53.2702C64.115 53.251 64.2492 53.251 64.3833 53.251C67.1242 53.251 69.175 54.1518 70.6125 55.1485C71.36 55.666 72.3567 55.551 73.0083 54.9185L75.6725 52.3118C76.5158 51.4877 76.4392 50.0885 75.4808 49.3985C72.4333 47.156 68.715 45.8335 64.3833 45.8335C64.2492 45.8335 64.1342 45.8335 64 45.8527C56.6592 45.9868 50.3533 50.2418 47.2675 56.3943C45.9642 59.001 45.2167 61.9143 45.2167 65.0002C45.2167 68.086 45.9642 70.9993 47.2675 73.606H47.2867C50.3725 79.7585 56.6783 84.0135 64 84.1476C64.1342 84.1668 64.2492 84.1668 64.3833 84.1668C69.5583 84.1668 73.9092 82.461 77.0717 79.5285C80.6942 76.1743 82.7833 71.2677 82.7833 65.4218C82.7833 64.5977 82.745 63.8885 82.6683 63.2177Z" fill="white"/>
</svg>
