<svg width="30" height="30" viewBox="0 0 30 30" fill="none" xmlns="http://www.w3.org/2000/svg">
<path d="M10.4875 23.1124V10.4124C10.4875 9.91241 10.6375 9.42491 10.9125 9.01241L14.325 3.93741C14.8625 3.12491 16.2 2.54991 17.3375 2.97491C18.5625 3.38741 19.375 4.76241 19.1125 5.98741L18.4625 10.0749C18.4125 10.4499 18.5125 10.7874 18.725 11.0499C18.9375 11.2874 19.25 11.4374 19.5875 11.4374H24.725C25.7125 11.4374 26.5625 11.8374 27.0625 12.5374C27.5375 13.2124 27.625 14.0874 27.3125 14.9749L24.2375 24.3374C23.85 25.8874 22.1625 27.1499 20.4875 27.1499H15.6125C14.775 27.1499 13.6 26.8624 13.0625 26.3249L11.4625 25.0874C10.85 24.6249 10.4875 23.8874 10.4875 23.1124Z" fill="white"/>
<path d="M6.5125 7.97485H5.225C3.2875 7.97485 2.5 8.72485 2.5 10.5749V23.1499C2.5 24.9999 3.2875 25.7499 5.225 25.7499H6.5125C8.45 25.7499 9.2375 24.9999 9.2375 23.1499V10.5749C9.2375 8.72485 8.45 7.97485 6.5125 7.97485Z" fill="white"/>
</svg>
