<svg width="129" height="129" viewBox="0 0 129 129" fill="none" xmlns="http://www.w3.org/2000/svg">
<circle cx="64.5" cy="64.5" r="64.5" fill="#2867B2"/>
<path d="M82.4 82.4003V68.9223C82.4 62.2983 80.974 57.2383 73.246 57.2383C69.52 57.2383 67.036 59.2623 66.024 61.1943H65.932V57.8363H58.618V82.4003H66.254V70.2103C66.254 66.9903 66.852 63.9083 70.808 63.9083C74.718 63.9083 74.764 67.5423 74.764 70.3943V82.3543H82.4V82.4003Z" fill="white"/>
<path d="M46.198 57.8359H53.834V82.3999H46.198V57.8359Z" fill="white"/>
<path d="M50.016 45.6001C47.578 45.6001 45.6 47.5781 45.6 50.0161C45.6 52.4541 47.578 54.4781 50.016 54.4781C52.454 54.4781 54.432 52.4541 54.432 50.0161C54.432 47.5781 52.454 45.6001 50.016 45.6001V45.6001Z" fill="white"/>
</svg>
