<svg width="26" height="26" viewBox="0 0 26 26" fill="none" xmlns="http://www.w3.org/2000/svg">
<path d="M13 2.1665C7.02002 2.1665 2.16669 6.66235 2.16669 12.1982C2.16669 15.3398 3.72668 18.1348 6.15335 19.9765V21.9807C6.15335 22.8148 7.04167 23.3348 7.7675 22.9232L9.78255 21.7857C10.8009 22.0782 11.8733 22.2298 12.9892 22.2298C18.9692 22.2298 23.8225 17.734 23.8225 12.1982C23.8333 6.66235 18.98 2.1665 13 2.1665ZM16.8025 11.3098L14.0942 14.549C13.9209 14.7548 13.6392 14.7982 13.4117 14.6682L12.3175 14.029C12.1983 13.964 12.0575 13.9423 11.9167 13.9748L9.73918 14.5057C9.23001 14.6249 8.86168 14.029 9.19751 13.6282L11.9492 10.3565C12.1117 10.1615 12.3934 10.1073 12.6209 10.2265L13.8992 10.8982C14.0184 10.9632 14.1592 10.974 14.2892 10.9415L16.2609 10.4323C16.7592 10.3023 17.1384 10.909 16.8025 11.3098Z" fill="url(#paint0_linear_361_898)"/>
<defs>
<linearGradient id="paint0_linear_361_898" x1="2.16669" y1="12.6168" x2="23.8215" y2="13.1777" gradientUnits="userSpaceOnUse">
<stop stop-color="#009DE0"/>
<stop offset="1" stop-color="#29EFEF"/>
</linearGradient>
</defs>
</svg>
