<svg width="32" height="32" viewBox="0 0 32 32" fill="none" xmlns="http://www.w3.org/2000/svg">
<path d="M25.4 12.7599C26.06 11.0999 27.1 9.45988 28.49 7.87986C28.93 7.37986 28.99 6.65989 28.63 6.09989C28.35 5.65989 27.89 5.4199 27.39 5.4199C27.25 5.4199 27.11 5.42985 26.97 5.47989C24.03 6.33989 17.16 9.38987 16.97 19.1699C16.9 22.9399 19.66 26.1799 23.25 26.5499C25.24 26.7499 27.22 26.0999 28.69 24.7799C30.16 23.4499 31 21.5499 31 19.5699C31 16.2699 28.66 13.3799 25.4 12.7599Z" fill="white"/>
<path d="M7.28998 26.5499C9.27002 26.7499 11.25 26.0999 12.72 24.7799C14.19 23.4499 15.03 21.5499 15.03 19.5699C15.03 16.2699 12.69 13.3799 9.42999 12.7599C10.09 11.0999 11.13 9.45988 12.52 7.87987C12.96 7.37987 13.02 6.6599 12.66 6.0999C12.38 5.6599 11.92 5.41991 11.42 5.41991C11.28 5.41991 11.14 5.42986 11 5.47991C8.06 6.3399 1.19 9.38988 1 19.1699L1 19.3099C1 23.0199 3.72998 26.1799 7.28998 26.5499Z" fill="white"/>
</svg>
