<svg width="30" height="30" viewBox="0 0 30 30" fill="none" xmlns="http://www.w3.org/2000/svg">
<path d="M16.7875 18.75H5.49999C3.22499 18.75 1.77499 16.3125 2.87499 14.3125L5.78749 9.01255L8.51249 4.05005C9.64999 1.98755 12.625 1.98755 13.7625 4.05005L16.5 9.01255L17.8125 11.4L19.4125 14.3125C20.5125 16.3125 19.0625 18.75 16.7875 18.75Z" fill="white"/>
<path d="M28.3125 19.9999C28.3125 24.4874 24.675 28.1249 20.1875 28.1249C16.375 28.1249 13.1875 25.5124 12.3 21.9624C12.2125 21.5874 12.5 21.2499 12.8875 21.2499H17.6C19.3375 21.2499 20.9125 20.3499 21.8 18.8624C22.675 17.3624 22.7125 15.5624 21.8625 14.0374L21.2375 12.8874C21 12.4624 21.3375 11.9499 21.8125 12.0374C25.5125 12.7874 28.3125 16.0624 28.3125 19.9999Z" fill="white"/>
</svg>
