<svg width="73" height="67" viewBox="0 0 73 67" fill="none" xmlns="http://www.w3.org/2000/svg">
<path d="M32.8558 1.29556e-05C50.9972 1.29556e-05 65.833 14.7747 65.6826 33.0161C65.6233 40.4584 63.6263 46.9562 58.7844 52.7844C60.7814 57.2554 66.2707 60.7679 72.0656 63.2533C63.9181 65.1838 56.3178 63.5605 51.2981 60.3093C47.0498 63.2177 42.1819 65.0823 37.0862 65.753C31.9906 66.4237 26.8096 65.8817 21.9602 64.1707C17.1109 62.4597 12.7287 59.6275 9.16636 55.9021C5.60406 52.1767 2.96117 47.6621 1.45045 42.7217C-0.0602875 37.7814 -0.396652 32.5533 0.46843 27.4584C1.33351 22.3634 3.37585 17.5439 6.43108 13.3878C9.48631 9.23165 13.469 5.85504 18.0587 3.52975C22.6484 1.20445 27.7167 -0.00456555 32.8558 1.29556e-05Z" fill="#F4F4F4"/>
<path d="M32.3465 44.5117L21.0851 30.755C21.0234 30.6861 20.9762 30.6053 20.9464 30.5175C20.9165 30.4298 20.9046 30.3369 20.9114 30.2443C20.9182 30.1518 20.9435 30.0617 20.9858 29.9793C21.0281 29.8969 21.0866 29.8239 21.1577 29.7648C21.2287 29.7057 21.311 29.6617 21.3994 29.6353C21.4878 29.609 21.5806 29.601 21.6722 29.6116C21.7638 29.6223 21.8524 29.6515 21.9325 29.6975C22.0125 29.7435 22.0826 29.8053 22.1383 29.8792L32.0684 42.0126L43.6079 19.1765C43.6459 19.0915 43.7006 19.0152 43.7688 18.9521C43.8369 18.889 43.9171 18.8405 44.0045 18.8096C44.0919 18.7786 44.1846 18.7659 44.277 18.772C44.3694 18.7782 44.4596 18.8032 44.5421 18.8454C44.6247 18.8877 44.6978 18.9464 44.7571 19.018C44.8164 19.0896 44.8606 19.1725 44.8871 19.2618C44.9136 19.351 44.9217 19.4448 44.9111 19.5373C44.9005 19.6299 44.8713 19.7193 44.8252 19.8001L32.3465 44.5117Z" fill="#11998E"/>
</svg>
