<svg width="30" height="30" viewBox="0 0 30 30" fill="none" xmlns="http://www.w3.org/2000/svg">
<path d="M15 5.8125C9.02501 5.8125 4.16251 10.675 4.16251 16.65C4.16251 22.625 9.02501 27.5 15 27.5C20.975 27.5 25.8375 22.6375 25.8375 16.6625C25.8375 10.6875 20.975 5.8125 15 5.8125ZM15.9375 16.25C15.9375 16.7625 15.5125 17.1875 15 17.1875C14.4875 17.1875 14.0625 16.7625 14.0625 16.25V10C14.0625 9.4875 14.4875 9.0625 15 9.0625C15.5125 9.0625 15.9375 9.4875 15.9375 10V16.25Z" fill="white"/>
<path d="M18.6125 4.3125H11.3875C10.8875 4.3125 10.4875 3.9125 10.4875 3.4125C10.4875 2.9125 10.8875 2.5 11.3875 2.5H18.6125C19.1125 2.5 19.5125 2.9 19.5125 3.4C19.5125 3.9 19.1125 4.3125 18.6125 4.3125Z" fill="white"/>
</svg>
