<svg width="129" height="129" viewBox="0 0 129 129" fill="none" xmlns="http://www.w3.org/2000/svg">
<circle cx="64.5" cy="64.5" r="64.5" fill="#1DA1F3"/>
<path d="M82.4 53.5895C81.0315 54.1898 79.5733 54.5877 78.053 54.7809C79.617 53.8471 80.8107 52.3797 81.3719 50.611C79.9137 51.4804 78.3037 52.0945 76.5879 52.4372C75.2033 50.9629 73.2299 50.0498 71.0771 50.0498C66.9003 50.0498 63.5377 53.44 63.5377 57.5961C63.5377 58.1941 63.5883 58.7691 63.7125 59.3165C57.4404 59.0106 51.8905 56.0045 48.1622 51.4252C45.496 56.229 48.475 60.1675 50.4806 61.5084C49.2685 61.4854 48.0794 61.1335 47.072 60.5792C47.072 64.3241 49.6871 67.3734 53.1164 68.0749C52.3666 68.3238 50.7285 68.459 49.7101 68.1945C50.6876 71.1822 53.4614 73.3787 56.7596 73.45C54.1928 75.4579 50.4102 77.0946 45.6 76.5642C48.9419 78.7193 52.9025 79.9498 57.1736 79.9498C71.0564 79.9498 78.6464 68.4498 78.6464 58.4816C78.6464 58.1481 78.6349 57.8261 78.6188 57.5064C80.1161 56.4438 81.3742 55.1167 82.4 53.5895Z" fill="white"/>
</svg>
