<svg width="26" height="26" viewBox="0 0 26 26" fill="none" xmlns="http://www.w3.org/2000/svg">
<path d="M23.8116 12.3607C23.4433 6.07732 17.7341 1.23484 11.1583 2.31817C6.62996 3.06567 3.0008 6.73815 2.29664 11.2665C1.88497 13.8881 2.42666 16.369 3.6075 18.4165L2.64331 22.0023C2.42665 22.8148 3.17412 23.5515 3.97579 23.324L7.50747 22.349C9.1108 23.2915 10.985 23.8332 12.9891 23.8332C19.0991 23.8332 24.1691 18.449 23.8116 12.3607ZM18.2866 17.0298C18.1891 17.2248 18.07 17.409 17.9183 17.5823C17.6475 17.8748 17.3549 18.0915 17.0299 18.2215C16.7049 18.3623 16.3475 18.4273 15.9683 18.4273C15.4158 18.4273 14.82 18.2973 14.2025 18.0265C13.5741 17.7557 12.9567 17.3981 12.3392 16.954C11.7108 16.499 11.1258 15.9898 10.5625 15.4373C9.99914 14.874 9.50078 14.2781 9.04578 13.6606C8.60162 13.0431 8.24414 12.4256 7.98414 11.8081C7.72414 11.1906 7.59415 10.5948 7.59415 10.0315C7.59415 9.66316 7.65915 9.30566 7.78915 8.98066C7.91915 8.64483 8.125 8.3415 8.4175 8.07067C8.76416 7.724 9.14331 7.5615 9.54414 7.5615C9.69581 7.5615 9.84745 7.59399 9.98828 7.65899C10.1291 7.72399 10.2591 7.82149 10.3566 7.96233L11.6133 9.73898C11.7108 9.87981 11.7866 9.99898 11.83 10.1181C11.8841 10.2373 11.9058 10.3456 11.9058 10.454C11.9058 10.584 11.8625 10.714 11.7866 10.844C11.7108 10.974 11.6133 11.104 11.4833 11.234L11.0716 11.6673C11.0066 11.7323 10.985 11.7973 10.985 11.884C10.985 11.9273 10.9958 11.9706 11.0066 12.014C11.0283 12.0573 11.0392 12.0898 11.05 12.1223C11.1475 12.3065 11.3208 12.534 11.5591 12.8156C11.8083 13.0973 12.0683 13.3898 12.35 13.6715C12.6425 13.964 12.9242 14.224 13.2167 14.4731C13.4983 14.7115 13.7366 14.874 13.9208 14.9715C13.9533 14.9823 13.9858 15.004 14.0183 15.0148C14.0616 15.0365 14.105 15.0365 14.1592 15.0365C14.2567 15.0365 14.3217 15.004 14.3867 14.939L14.7983 14.5273C14.9391 14.3865 15.0692 14.289 15.1883 14.224C15.3183 14.1482 15.4375 14.1048 15.5783 14.1048C15.6866 14.1048 15.795 14.1265 15.9141 14.1806C16.0333 14.2348 16.1633 14.2998 16.2933 14.3973L18.0917 15.6757C18.2325 15.7732 18.33 15.8923 18.395 16.0223C18.4491 16.1632 18.4816 16.2931 18.4816 16.4448C18.4166 16.629 18.3733 16.8348 18.2866 17.0298Z" fill="url(#paint0_linear_361_904)"/>
<defs>
<linearGradient id="paint0_linear_361_904" x1="2.15997" y1="12.9996" x2="23.8294" y2="13.5414" gradientUnits="userSpaceOnUse">
<stop stop-color="#11998E"/>
<stop offset="1" stop-color="#38EF7D"/>
</linearGradient>
</defs>
</svg>
