<svg width="20" height="20" viewBox="0 0 20 20" fill="none" xmlns="http://www.w3.org/2000/svg">
<path d="M18.6592 4.98037C17.765 3.44835 16.552 2.23536 15.0199 1.34115C13.4875 0.446989 11.8148 0 10.0003 0C8.18604 0 6.51277 0.446989 4.98071 1.34115C3.44855 2.23522 2.23555 3.44822 1.34129 4.98037C0.446991 6.51261 0 8.18586 0 10C0 11.8142 0.447128 13.4872 1.34116 15.0195C2.23537 16.5516 3.44837 17.7646 4.98053 18.6589C6.51277 19.553 8.1859 20 10.0001 20C11.8144 20 13.4877 19.553 15.0198 18.6589C16.5519 17.7649 17.7649 16.5516 18.659 15.0195C19.5531 13.4873 20 11.8141 20 10C20 8.18568 19.5531 6.51238 18.6592 4.98037ZM10.0002 1.45836C12.1529 1.45836 14.0323 2.17014 15.6381 3.59366L15.4754 3.82137C15.4103 3.91267 15.2475 4.08826 14.9872 4.34881C14.7268 4.60913 14.4425 4.85668 14.1344 5.09101C13.826 5.32543 13.4074 5.59231 12.8777 5.89181C12.3482 6.19131 11.784 6.45405 11.1849 6.67971C10.1867 4.83926 9.11911 3.18128 7.9819 1.70568C8.66778 1.54077 9.34048 1.45836 10.0002 1.45836ZM3.30758 4.70021C4.14086 3.65007 5.15634 2.84265 6.35438 2.2785C7.43075 3.71077 8.48969 5.35151 9.53144 7.2004C6.89254 7.89485 4.2624 8.2421 1.64084 8.24196C1.91877 6.93128 2.4743 5.75057 3.30758 4.70021ZM2.03132 13.0797C1.64932 12.1031 1.45837 11.0765 1.45837 10C1.45837 9.87841 1.46284 9.78725 1.47141 9.72654C4.61394 9.72654 7.53505 9.32302 10.2347 8.51555C10.5125 9.05371 10.7426 9.5355 10.9249 9.96096C10.8897 9.97829 10.8337 9.99772 10.7555 10.0195C10.6771 10.0412 10.6208 10.0562 10.5858 10.065L10.1042 10.2343C9.77416 10.3559 9.34217 10.5642 8.80853 10.8592C8.27474 11.1547 7.70835 11.506 7.10936 11.9141C6.51036 12.3222 5.89184 12.8626 5.25389 13.5356C4.61585 14.2082 4.07984 14.9307 3.6458 15.7032C2.95135 14.9307 2.41323 14.0559 2.03132 13.0797ZM10.0002 18.5418C7.96886 18.5418 6.15463 17.8907 4.55734 16.5887L4.75267 16.732C5.05646 16.0634 5.50345 15.421 6.09388 14.8048C6.68421 14.1886 7.25274 13.6914 7.79961 13.3137C8.34648 12.9363 8.94106 12.5805 9.58352 12.2458C10.2258 11.9119 10.664 11.699 10.8986 11.6081C11.133 11.517 11.3197 11.4452 11.4585 11.3931L11.4845 11.38H11.5107C12.3611 13.6108 12.969 15.7725 13.3335 17.8645C12.2571 18.3161 11.1461 18.5416 10.0002 18.5418ZM17.1881 14.6159C16.5457 15.61 15.7425 16.4326 14.7793 17.0834C14.4231 15.0869 13.8678 13.0511 13.1124 10.9766C14.8398 10.7072 16.615 10.8333 18.4379 11.354C18.2469 12.5345 17.8302 13.6221 17.1881 14.6159ZM18.4117 9.88284C18.3249 9.8656 18.2163 9.8459 18.0861 9.82432C17.956 9.80275 17.7974 9.77657 17.6107 9.7462C17.4243 9.71583 17.2157 9.68769 16.9858 9.6616C16.7557 9.63556 16.5105 9.61175 16.2499 9.59004C15.9896 9.56824 15.7117 9.55105 15.4168 9.53791C15.1213 9.52496 14.822 9.5184 14.5181 9.5184C14.2145 9.5184 13.8952 9.5272 13.5612 9.54444C13.2271 9.56154 12.9038 9.59228 12.5914 9.6356C12.5651 9.59214 12.5327 9.52049 12.4936 9.42062C12.4546 9.32087 12.4262 9.2448 12.4094 9.19272C12.2442 8.82814 12.0532 8.41577 11.8359 7.95583C12.4349 7.71261 13.0058 7.43276 13.5487 7.11584C14.0911 6.79893 14.5248 6.51699 14.8505 6.26962C15.1761 6.02197 15.4842 5.75937 15.7749 5.48167C16.0659 5.20393 16.2544 5.01088 16.3415 4.90233C16.4284 4.79361 16.5109 4.68734 16.5889 4.58332L16.602 4.57018C17.8693 6.11533 18.5163 7.89476 18.542 9.90883L18.4117 9.88284Z" fill="black"/>
</svg>
