<svg width="20" height="21" viewBox="0 0 20 21" fill="none" xmlns="http://www.w3.org/2000/svg">
<path d="M15.0194 1.35118C13.4874 0.457011 11.8141 0.0100098 9.99998 0.0100098C8.1856 0.0100098 6.51238 0.457011 4.98034 1.35118C3.4483 2.24539 2.23518 3.45852 1.34117 4.99035C0.447001 6.52257 0 8.19578 0 10.01C0 12.0325 0.550981 13.8685 1.65356 15.5176C2.75594 17.1672 4.20113 18.3866 5.98951 19.1764C5.95463 18.2476 6.0111 17.4795 6.1588 16.8719L7.44779 11.4292C7.23075 11.0039 7.12231 10.4745 7.12231 9.84068C7.12231 9.10287 7.30893 8.48638 7.68217 7.99183C8.0552 7.49686 8.51107 7.24936 9.04935 7.24936C9.48322 7.24936 9.81758 7.39243 10.052 7.67923C10.2864 7.96558 10.4037 8.32594 10.4037 8.75985C10.4037 9.02911 10.3536 9.3569 10.254 9.74301C10.154 10.1293 10.0238 10.5763 9.86344 11.0842C9.70282 11.5919 9.58786 11.9976 9.51831 12.3016C9.39658 12.831 9.49656 13.2845 9.81779 13.6622C10.1388 14.0398 10.5643 14.2285 11.0939 14.2285C12.0227 14.2285 12.7844 13.7122 13.3791 12.6792C13.9737 11.6462 14.271 10.3918 14.271 8.91597C14.271 7.77896 13.9044 6.85429 13.1708 6.14253C12.4372 5.43093 11.4149 5.07482 10.1044 5.07482C8.63722 5.07482 7.4501 5.54593 6.54322 6.48745C5.63613 7.42941 5.18257 8.55586 5.18257 9.8662C5.18257 10.6475 5.40407 11.3031 5.84661 11.8326C5.99414 12.0062 6.0419 12.1927 5.98989 12.3922C5.97235 12.4444 5.93771 12.5745 5.88571 12.7827C5.83373 12.9909 5.79885 13.1258 5.78152 13.1864C5.71197 13.4643 5.54714 13.5512 5.28655 13.4468C4.61809 13.169 4.1102 12.6874 3.76318 12.0016C3.41594 11.3159 3.24241 10.5217 3.24241 9.6189C3.24241 9.03729 3.33562 8.45564 3.52224 7.87403C3.70886 7.29242 3.99945 6.73046 4.39469 6.1877C4.78948 5.64559 5.26269 5.16564 5.81408 4.74907C6.36527 4.33228 7.03588 3.99838 7.82586 3.74622C8.61568 3.49471 9.46655 3.36877 10.378 3.36877C11.6106 3.36877 12.7175 3.64224 13.6983 4.18897C14.6791 4.73594 15.4279 5.44353 15.9444 6.3115C16.4607 7.1795 16.7192 8.10813 16.7192 9.09807C16.7192 10.4002 16.4933 11.5721 16.0421 12.6138C15.5907 13.6555 14.9526 14.4736 14.1279 15.0682C13.303 15.6627 12.3655 15.96 11.3154 15.96C10.7858 15.96 10.291 15.8364 9.83091 15.5889C9.37058 15.3414 9.0538 15.0485 8.88027 14.7099C8.4897 16.2461 8.25532 17.1624 8.17714 17.4572C8.01207 18.0737 7.6735 18.7852 7.1614 19.5926C8.09025 19.8704 9.03643 20.0091 9.99998 20.0091C11.8142 20.0091 13.4874 19.5622 15.0194 18.6682C16.5514 17.774 17.7645 16.5609 18.6588 15.0286C19.5528 13.4966 20 11.8236 20 10.0091C20 8.19474 19.5528 6.52177 18.6588 4.98952C17.7648 3.45852 16.5514 2.24539 15.0194 1.35118Z" fill="black"/>
</svg>
