<svg width="20" height="20" viewBox="0 0 20 20" fill="none" xmlns="http://www.w3.org/2000/svg">
<g clip-path="url(#clip0_2_570)">
<path d="M12.5318 9.23383C13.6746 9.23383 14.6045 8.30398 14.6045 7.16105V2.0727C14.6045 0.929805 13.6746 0 12.5318 0C11.3888 0 10.459 0.929805 10.459 2.0727V7.16109C10.459 8.30398 11.3889 9.23383 12.5318 9.23383V9.23383Z" fill="black"/>
<path d="M16.4404 9.23385H17.9273C19.0702 9.23385 20 8.304 20 7.16107C20 6.01818 19.0702 5.08838 17.9273 5.08838C16.7843 5.08838 15.8545 6.01818 15.8545 7.16107V8.64791C15.8545 8.9715 16.1168 9.23385 16.4404 9.23385V9.23385Z" fill="black"/>
<path d="M2.0727 9.54082H7.16105C8.30395 9.54082 9.23375 8.61097 9.23375 7.46804C9.23375 6.32519 8.30395 5.39539 7.16105 5.39539H2.0727C0.929805 5.39542 0 6.32523 0 7.46808C0 8.61097 0.929805 9.54082 2.0727 9.54082V9.54082Z" fill="black"/>
<path d="M7.16059 4.14539H8.64734C8.97094 4.14539 9.23328 3.88305 9.23328 3.55945V2.0727C9.23328 0.929805 8.30348 0 7.16059 0C6.0177 0 5.08789 0.929805 5.08789 2.0727C5.08789 3.21559 6.0177 4.14539 7.16059 4.14539Z" fill="black"/>
<path d="M7.4682 10.7661C6.32531 10.7661 5.39551 11.696 5.39551 12.8389V17.9272C5.39551 19.0701 6.32531 20 7.4682 20C8.61117 20 9.54102 19.0701 9.54102 17.9272V12.8389C9.54102 11.696 8.61113 10.7661 7.4682 10.7661V10.7661Z" fill="black"/>
<path d="M3.55949 10.7661H2.0727C0.929805 10.7661 0 11.696 0 12.8389C0 13.9818 0.929805 14.9116 2.0727 14.9116C3.21563 14.9116 4.14547 13.9818 4.14547 12.8389V11.3521C4.14543 11.0285 3.88309 10.7661 3.55949 10.7661Z" fill="black"/>
<path d="M17.9276 10.4591H12.8393C11.6964 10.4591 10.7666 11.389 10.7666 12.5319C10.7666 13.6747 11.6964 14.6045 12.8393 14.6045H17.9277C19.0705 14.6045 20.0004 13.6747 20.0004 12.5319C20.0003 11.389 19.0705 10.4591 17.9276 10.4591V10.4591Z" fill="black"/>
<path d="M12.8393 15.8545H11.3525C11.0289 15.8545 10.7666 16.1168 10.7666 16.4404V17.9272C10.7666 19.0702 11.6964 20 12.8393 20C13.9822 20 14.9121 19.0702 14.9121 17.9272C14.912 16.7843 13.9822 15.8545 12.8393 15.8545Z" fill="black"/>
</g>
<defs>
<clipPath id="clip0_2_570">
<rect width="20" height="20" fill="white"/>
</clipPath>
</defs>
</svg>
