<svg width="20" height="20" viewBox="0 0 20 20" fill="none" xmlns="http://www.w3.org/2000/svg">
<path d="M14.9841 0H5C2.25397 0 0 2.25397 0 5.01587V15C0 17.746 2.25397 20 5 20H14.9841C17.746 20 20 17.746 20 14.9841V5.01587C20 2.25397 17.746 0 14.9841 0ZM15.9841 13.2857C15.9365 13.381 15.8254 13.4762 15.6349 13.5714C15.381 13.6984 14.9841 13.7937 14.4603 13.873C14.4127 13.8889 14.3651 13.9206 14.3333 13.9683C14.3016 14.0159 14.2857 14.127 14.254 14.2698L14.2381 14.3492C14.2222 14.4127 14.2063 14.4921 14.1905 14.5556C14.1587 14.6349 14.1111 14.6825 14.0159 14.6825C13.9683 14.6825 13.8889 14.6825 13.7619 14.6508C13.5873 14.619 13.3651 14.5714 13.0794 14.5714C12.9048 14.5714 12.746 14.5873 12.5873 14.619C12.254 14.6825 11.9524 14.873 11.6349 15.0952C11.2064 15.3968 10.7302 15.746 10 15.746C9.96825 15.746 9.93651 15.746 9.92064 15.746C9.90476 15.746 9.90476 15.746 9.88889 15.746C9.87302 15.746 9.85714 15.746 9.85714 15.746C9.12698 15.746 8.65079 15.3968 8.20635 15.0952C7.90476 14.8889 7.61905 14.6825 7.26984 14.619C7.11111 14.5873 6.93651 14.5714 6.77778 14.5714C6.49206 14.5714 6.26984 14.619 6.11111 14.6508H6.09524C6.01587 14.6667 5.92064 14.6825 5.84127 14.6825C5.74603 14.6825 5.68254 14.6508 5.65079 14.5556C5.5873 14.4444 5.55556 14.3651 5.53968 14.2857L5.52381 14.2381C5.49206 14.1111 5.47619 14 5.42857 13.9365C5.4127 13.8889 5.36508 13.8571 5.31746 13.8571C4.79365 13.7778 4.39683 13.6667 4.12698 13.5556C3.95238 13.4762 3.8254 13.381 3.77778 13.2857C3.7619 13.254 3.76191 13.2222 3.76191 13.2063C3.76191 13.1905 3.76191 13.1905 3.76191 13.1746C3.8254 13.1111 3.85714 13.0794 3.90476 13.0635C4.31746 13 4.69841 12.8413 5.03175 12.619C5.31746 12.4444 5.5873 12.2063 5.8254 11.9206C6.2381 11.4444 6.44444 10.9841 6.47619 10.9048V10.8889C6.5873 10.6825 6.60317 10.4921 6.53968 10.3492C6.4127 10.0635 6.03175 9.93651 5.7619 9.85714L5.71429 9.84127C5.66667 9.8254 5.61905 9.80952 5.5873 9.79365C5.39683 9.71429 5.25397 9.63492 5.1746 9.55556C5.04762 9.44444 5.03175 9.33333 5.04762 9.26984C5.06349 9.19048 5.12698 9.09524 5.2381 9.03175C5.38095 8.95238 5.57143 8.92063 5.68254 8.98413C6.04762 9.15873 6.34921 9.20635 6.57143 9.09524C6.63492 9.06349 6.66667 9 6.66667 8.93651C6.66667 8.84127 6.65079 8.74603 6.65079 8.65079V8.63492C6.60318 7.80952 6.53968 6.77778 6.79365 6.19048C6.98413 5.77778 7.22222 5.42857 7.52381 5.14286C7.77778 4.90476 8.06349 4.71429 8.39683 4.57143C8.96825 4.31746 9.49206 4.28571 9.76191 4.28571H10C10.2698 4.28571 10.7937 4.31746 11.3651 4.57143C11.6984 4.71429 11.9841 4.90476 12.2381 5.14286C12.5397 5.42857 12.7937 5.77778 12.9683 6.19048C13.2381 6.77778 13.1587 7.80952 13.1111 8.61905V8.66667C13.1111 8.73016 13.0952 8.77778 13.0952 8.84127V8.92064C13.0952 8.98413 13.127 9.04762 13.1905 9.07937C13.254 9.11111 13.3333 9.12698 13.4127 9.12698C13.4127 9.12698 13.4286 9.12698 13.4444 9.12698C13.619 9.11111 13.8095 9.06349 14.0159 8.96825C14.0952 8.93651 14.1746 8.93651 14.2063 8.93651C14.2857 8.93651 14.3492 8.95238 14.4286 8.98413C14.6032 9.04762 14.7302 9.1746 14.7302 9.30159C14.7302 9.34921 14.7143 9.42857 14.619 9.52381C14.5238 9.61905 14.381 9.69841 14.1746 9.79365C14.1429 9.80952 14.0952 9.8254 14.0635 9.8254L14.0159 9.84127C13.7619 9.92064 13.3651 10.0476 13.2381 10.3333C13.1746 10.4762 13.1905 10.6667 13.3016 10.8889C13.3016 10.9048 13.3016 10.9048 13.3175 10.9206C13.4603 11.2381 14.254 12.7937 15.8889 13.0635C15.9524 13.0794 16 13.127 16 13.2063C16 13.2381 15.9841 13.2698 15.9841 13.2857Z" fill="black"/>
</svg>
