<svg width="21" height="21" viewBox="0 0 21 21" fill="none" xmlns="http://www.w3.org/2000/svg">
<path d="M19.6021 13.1055C21.0522 6.60485 15.3517 0.704284 8.65101 1.82939C5.02566 -0.420825 0.200195 2.12942 0.200195 6.45484C0.200195 7.45493 0.475222 8.40503 0.950268 9.2051C-0.37486 15.7307 5.35069 21.5563 12.0513 20.3312C16.7768 22.8314 21.9773 17.8559 19.6021 13.1055ZM13.2515 17.0309C11.5013 17.7559 8.60101 17.7559 6.85084 16.8308C4.3506 15.5057 3.92555 12.5054 6.07576 12.5054C7.70092 12.5054 7.17587 14.4056 8.82603 15.1557C9.5761 15.5057 11.2013 15.5307 12.1263 14.9057C13.0514 14.2806 12.9764 13.3055 12.4764 12.8555C11.1513 11.6303 7.32588 12.1054 5.57571 9.95518C4.82564 9.03009 4.67563 7.37993 5.60072 6.17981C7.22587 4.07961 12.0013 3.9546 14.0515 5.52975C15.9517 7.00489 15.4267 8.93008 13.9015 8.93008C12.0763 8.93008 13.0264 6.52984 10.0511 6.52984C7.90094 6.52984 7.05086 8.05499 8.576 8.80506C10.6262 9.85517 15.8517 9.50513 15.8517 13.5055C15.8517 15.1557 14.8266 16.3808 13.2515 17.0309V17.0309Z" fill="white"/>
</svg>
