<svg width="20" height="22" viewBox="0 0 20 22" fill="none" xmlns="http://www.w3.org/2000/svg">
<path d="M18.1818 0H13.6364C12.6336 0 11.8182 0.82225 11.8182 1.83333V6.82413L8.05409 0.447792C7.89 0.170042 7.59318 0 7.27273 0H0.909091C0.407273 0 0 0.410667 0 0.916667V20.1667C0 21.1778 0.815455 22 1.81818 22H6.36364C7.36636 22 8.18182 21.1778 8.18182 20.1667V15.1759L11.9459 21.5522C12.11 21.83 12.4068 22 12.7273 22H19.0909C19.5927 22 20 21.5893 20 21.0833V1.83333C20 0.82225 19.1845 0 18.1818 0ZM13.6364 1.83333H18.1818V17.6041L13.6364 9.90412V1.83333ZM6.36364 20.1667H1.81818V4.39587L6.36364 12.0959V20.1667ZM2.42182 1.83333H6.75591L17.5782 20.1667H13.2441L2.42182 1.83333Z" fill="white"/>
</svg>
