<svg width="21" height="21" viewBox="0 0 21 21" fill="none" xmlns="http://www.w3.org/2000/svg">
<path d="M10.9889 0C11.0198 0 11.0511 0.000160518 11.0821 0.000441425C13.606 0.0233153 16.1151 0.929923 17.9662 2.48767C19.9227 4.13415 21.0002 6.36816 21.0002 8.77814C21.0001 11.3044 18.5405 13.3596 15.5174 13.3596C14.7565 13.3596 14.02 13.2316 13.3283 12.9792C13.1392 12.9102 13.0034 12.7595 12.9556 12.5657C12.9069 12.3676 12.9589 12.1662 13.0982 12.0131C13.5766 11.4873 13.8401 10.806 13.8401 10.0946C13.8401 9.41171 13.5751 8.68605 13.3095 8.064C13.0113 7.36558 12.5901 6.70164 12.0592 6.15656C10.9186 4.98578 9.35501 4.39214 7.4119 4.39214C5.46814 4.39214 2.83512 4.8763 1.32966 7.18283C1.32453 7.19066 1.31951 7.1984 1.31445 7.20623C2.56072 3.03761 6.4329 0 10.9889 0V0Z" fill="white"/>
<path d="M3.76632 17.5596C1.85735 15.6331 0.81916 13.0784 0.842676 10.365C0.845686 10.3055 0.903432 9.33936 1.45987 8.27481C1.62801 7.95313 1.82982 7.64718 2.05993 7.36655C3.07496 6.12868 4.61787 5.51514 6.18147 5.34186C7.72875 5.17038 9.39304 5.30422 10.7376 6.15601C10.7391 6.15693 10.7405 6.15789 10.742 6.15882C11.4718 6.62303 12.0925 7.31599 12.5065 8.07404C12.5071 8.075 12.5076 8.07596 12.5081 8.07693C12.0426 7.76942 11.4898 7.59646 10.9059 7.603C10.446 7.60813 10.0047 7.75152 9.58254 7.92343C8.23988 8.47024 7.19447 9.48736 6.54822 10.8805C5.91566 12.244 5.73339 13.8452 6.03496 15.3891C6.34111 16.9566 7.13852 18.3446 8.28037 19.2974C8.5815 19.5487 8.90964 19.7722 9.25315 19.9615C9.69911 20.2072 10.1798 20.3998 10.6701 20.5369C10.6811 20.54 10.6919 20.5433 10.7029 20.5464C8.07707 20.4871 5.62159 19.4318 3.76632 17.5596V17.5596Z" fill="white"/>
<path d="M19.8388 15.834C18.4308 18.0652 16.1593 19.6861 13.6041 20.2839C13.3259 20.2968 13.0489 20.2974 12.7708 20.2832C11.6782 20.228 10.588 19.9446 9.64928 19.3725C9.41913 19.2322 9.18823 19.0681 8.97787 18.8925C7.92876 18.017 7.19515 16.7369 6.91216 15.288C6.63173 13.8523 6.80012 12.3658 7.38625 11.1024C7.61647 10.6062 7.91504 10.1401 8.27849 9.73077C8.41228 9.5802 8.55526 9.4371 8.70599 9.30347C8.53018 9.69248 8.4372 10.1219 8.44599 10.5625C8.47906 12.2214 9.26708 13.7739 10.6649 14.934C12.0516 16.0848 13.8843 16.7186 15.8253 16.7186C17.2247 16.7186 18.5867 16.3849 19.764 15.7533C19.7743 15.7478 19.8016 15.7332 19.8315 15.7654C19.8617 15.7978 19.8451 15.824 19.8388 15.834V15.834Z" fill="white"/>
</svg>
