<svg width="20" height="20" viewBox="0 0 20 20" fill="none" xmlns="http://www.w3.org/2000/svg">
<path d="M8.04857 7.92408C8.04857 6.98065 7.40673 6.98065 7.40673 6.98065H7.06688H4.76611V9.005H7.24304C7.67108 9.0048 8.04857 8.86792 8.04857 7.92408Z" fill="#FFFDFD"/>
<path d="M7.40693 10.4033H4.76611V12.8278H7.28499C7.66391 12.817 8.36325 12.6983 8.36325 11.6493C8.36325 10.3906 7.40693 10.4033 7.40693 10.4033Z" fill="#FFFDFD"/>
<path d="M14.1675 9.00482C12.7662 9.00482 12.5708 10.4033 12.5708 10.4033H15.5509C15.5511 10.4033 15.5689 9.00482 14.1675 9.00482Z" fill="#FFFDFD"/>
<path d="M10 0C4.47714 0 0 4.47734 0 10C0 15.5227 4.47714 20 10 20C15.5229 20 20 15.5227 20 10C20 4.47734 15.5229 0 10 0ZM12.1803 5.9024H15.9233V7.01954H12.1803V5.9024ZM10.2885 11.7618C10.2885 14.5307 7.40685 14.4397 7.40685 14.4397H4.76604H4.68849H2.68604V5.36798H4.68849H4.76604H7.40665C8.84133 5.36798 9.97381 6.16 9.97381 7.78332C9.97381 9.40685 8.58946 9.50977 8.58946 9.50977C10.4143 9.50977 10.2885 11.7618 10.2885 11.7618ZM14.1852 13.1926C15.6931 13.1926 15.6397 12.2167 15.6397 12.2167H17.2362C17.2362 14.8068 14.132 14.6294 14.132 14.6294C10.4068 14.6294 10.6463 11.1613 10.6463 11.1613C10.6463 11.1613 10.6435 7.67611 14.1316 7.67611C17.8036 7.67611 17.2894 11.6137 17.2894 11.6137H12.5886C12.5886 13.2994 14.1852 13.1926 14.1852 13.1926Z" fill="#FFFDFD"/>
</svg>
