<svg width="20" height="23" viewBox="0 0 20 23" fill="none" xmlns="http://www.w3.org/2000/svg">
<path d="M3.88184 10.0374C3.87737 10.0285 3.87291 10.024 3.86845 10.0151C3.74354 9.7965 3.46247 9.73404 3.25279 9.87234C3.24833 9.87234 3.24833 9.8768 3.24387 9.8768C3.04757 10.0062 2.99404 10.2694 3.11896 10.4657C3.12342 10.4702 3.12788 10.4791 3.13234 10.488C3.26172 10.6932 3.53385 10.7557 3.73907 10.6218C3.74354 10.6218 3.74354 10.6174 3.748 10.6174C3.93537 10.4925 3.99783 10.2382 3.88184 10.0374Z" fill="white"/>
<path d="M11.412 21.1326C11.2603 20.9809 11.0239 20.9586 10.8454 21.0836C10.0558 21.6278 9.15904 21.9847 8.19986 22.1275C7.88311 22.1721 7.5619 22.1989 7.24515 22.1989C5.54986 22.1989 3.95272 21.5431 2.75264 20.3519C1.55701 19.1607 0.896741 17.577 0.89228 15.8951C0.89228 14.3872 1.44994 12.906 2.43588 11.7684C2.58311 11.5989 2.58311 11.349 2.43142 11.184L2.42696 11.1795C2.24851 10.9832 1.93622 10.9832 1.76223 11.184C0.633526 12.4867 -0.00443804 14.1775 2.32422e-05 15.8995C2.32422e-05 17.8224 0.753981 19.6292 2.12359 20.9899C3.49321 22.3506 5.30895 23.1001 7.24515 23.1001C7.60651 23.1001 7.9768 23.0733 8.3337 23.0198C9.43118 22.8547 10.4617 22.4487 11.3629 21.8241C11.5904 21.668 11.6127 21.3468 11.4209 21.1505C11.4165 21.1371 11.4165 21.1326 11.412 21.1326Z" fill="white"/>
<path d="M12.188 19.8478C12.1747 19.8612 12.1657 19.8746 12.1524 19.8924C11.9962 20.0798 12.0274 20.3608 12.2193 20.5125C12.2237 20.517 12.2282 20.5214 12.2327 20.5214C12.42 20.6731 12.6922 20.6374 12.8439 20.4545C12.8572 20.4411 12.8662 20.4278 12.8795 20.4099C13.0357 20.2136 13 19.9281 12.7992 19.7809C12.7992 19.7809 12.7948 19.7764 12.7903 19.7764C12.6029 19.6336 12.3353 19.6649 12.188 19.8478V19.8478Z" fill="white"/>
<path d="M19.9949 8.02535L19.9904 6.28991C19.9859 5.81255 19.5487 5.80809 19.5443 5.80809C16.7783 5.80809 14.503 3.55514 14.4807 0.784685C14.4807 0.575004 14.3246 0.356401 14.0346 0.343018H10.5013C10.2559 0.343018 10.0551 0.543775 10.0551 0.789146V10.5415L10.0507 15.8861C10.0507 17.0862 9.27886 18.148 8.13231 18.5272C7.80218 18.6343 7.45866 18.6834 7.11068 18.6655C5.64292 18.5941 4.47406 17.3896 4.45175 15.9263C4.44283 15.1768 4.72389 14.4719 5.25032 13.9366C5.78121 13.3967 6.49502 13.0978 7.25344 13.0978C7.55235 13.0978 7.85125 13.1469 8.13677 13.2406C8.3063 13.2941 8.49368 13.2451 8.61413 13.1112C8.68551 13.0265 8.7212 12.9149 8.7212 12.8078V9.20759C8.7212 8.98899 8.5606 8.79715 8.34199 8.76592C7.98063 8.71239 7.6148 8.68562 7.25344 8.68562C6.45933 8.68562 5.69199 8.81054 4.9648 9.05145C4.72835 9.13175 4.61682 9.39496 4.72835 9.61803V9.62249C4.74174 9.6448 4.75512 9.67156 4.76404 9.69387C4.85327 9.87232 5.06295 9.95709 5.25032 9.89463C5.88382 9.68495 6.55748 9.57788 7.24898 9.57788C7.44081 9.57788 7.63265 9.5868 7.82448 9.60464V12.2546C7.63265 12.2234 7.44081 12.21 7.24898 12.21C6.24965 12.21 5.31278 12.6026 4.61236 13.312C3.9164 14.0169 3.54165 14.9493 3.55503 15.9397C3.5818 17.8714 5.12541 19.4596 7.0616 19.5533C7.52112 19.5756 7.97171 19.5132 8.40891 19.3704C9.92575 18.8707 10.9429 17.4699 10.9429 15.8817L10.9474 10.5371V1.23527H12.1118C12.6471 1.23081 13.236 1.22635 13.6108 1.23081C13.7268 2.6495 14.3335 3.96558 15.3551 4.97829C16.3723 5.98654 17.6928 6.58436 19.1071 6.69143C19.1071 7.36062 19.1115 8.65885 19.116 9.35035C18.1122 9.30128 17.1352 9.07821 16.2072 8.68562C15.5247 8.4001 14.8867 8.02535 14.3023 7.57476C14.1684 7.47215 13.9855 7.45431 13.8338 7.52569C13.6821 7.59707 13.584 7.75767 13.584 7.9272L13.6018 15.9174C13.5974 16.8052 13.41 17.6617 13.0576 18.4514C12.9683 18.6477 13.0397 18.8797 13.2182 18.9956C13.2226 18.9956 13.2226 19.0001 13.2271 19.0001C13.4546 19.1473 13.7625 19.0581 13.874 18.8127C14.2755 17.9116 14.4896 16.9345 14.4941 15.9174L14.4673 8.77485C14.909 9.05145 15.3685 9.29682 15.8503 9.49757C17.0237 9.99278 18.2684 10.2471 19.5487 10.2471C19.6692 10.2471 19.7852 10.2025 19.87 10.1177C19.9547 10.0329 19.9993 9.9214 19.9993 9.80094L19.9949 8.02535Z" fill="white"/>
</svg>
