<svg width="20" height="20" viewBox="0 0 20 20" fill="none" xmlns="http://www.w3.org/2000/svg">
<path d="M14.5173 0H5.4827C2.45953 0 0 2.45953 0 5.48273V14.5173C0 17.5405 2.45953 20 5.4827 20H14.5173C17.5405 20 20 17.5405 20 14.5173V5.48273C20 2.45953 17.5405 0 14.5173 0ZM18.8189 14.5173C18.8189 16.8892 16.8893 18.8189 14.5173 18.8189H5.4827C3.11078 18.8189 1.18109 16.8893 1.18109 14.5173V5.48273C1.18109 3.11078 3.11078 1.18109 5.4827 1.18109H14.5173C16.8893 1.18109 18.8189 3.11078 18.8189 5.48273V14.5173Z" fill="white"/>
<path d="M10.0002 4.5144C6.97547 4.5144 4.51465 6.97522 4.51465 9.99999C4.51465 13.0248 6.97543 15.4856 10.0002 15.4856C13.025 15.4856 15.4859 13.0247 15.4859 9.99995C15.4859 6.97518 13.025 4.5144 10.0002 4.5144ZM10.0002 14.3045C7.62672 14.3045 5.6957 12.3735 5.6957 9.99995C5.6957 7.62643 7.62672 5.69542 10.0002 5.69542C12.3738 5.69542 14.3048 7.62647 14.3048 9.99999C14.3048 12.3735 12.3738 14.3045 10.0002 14.3045Z" fill="white"/>
<path d="M15.8136 2.51965C14.8946 2.51965 14.147 3.26735 14.147 4.18633C14.147 5.10532 14.8946 5.85297 15.8136 5.85297C16.7326 5.85297 17.4803 5.10528 17.4803 4.18629C17.4803 3.26731 16.7326 2.51965 15.8136 2.51965ZM15.8136 4.67184C15.5459 4.67184 15.3281 4.45403 15.3281 4.18629C15.3281 3.91856 15.5459 3.70075 15.8136 3.70075C16.0813 3.70075 16.2992 3.9186 16.2992 4.18629C16.2992 4.45399 16.0813 4.67184 15.8136 4.67184Z" fill="white"/>
</svg>
