<svg width="64" height="64" viewBox="0 0 64 64" fill="none" xmlns="http://www.w3.org/2000/svg">
<path d="M63.1298 31.6435L50.5592 23.6142L63.1298 15.585C63.6719 15.2387 64 14.6399 64 13.9965C64 13.3531 63.6719 12.7544 63.1298 12.408L48.0723 2.79014C47.4537 2.39476 46.6617 2.39489 46.0432 2.79014L31.9999 11.76L17.957 2.79014C17.3382 2.39489 16.5465 2.39489 15.9278 2.79014L0.870373 12.408C0.328124 12.7544 0 13.3532 0 13.9965C0 14.6397 0.328124 15.2387 0.870373 15.585L13.441 23.6142L0.870373 31.6435C0.328124 31.9898 0 32.5886 0 33.232C0 33.8753 0.328124 34.4742 0.870373 34.8205L15.9278 44.4382C16.2372 44.6358 16.5898 44.7346 16.9425 44.7346C17.2951 44.7346 17.6478 44.6357 17.9571 44.4383L31.9999 35.4686L46.0429 44.4382C46.3523 44.6357 46.7049 44.7344 47.0575 44.7344C47.4102 44.7344 47.7628 44.6357 48.0722 44.4381L63.1296 34.8203C63.6718 34.4741 64 33.8752 64 33.2318C64 32.5885 63.6718 31.9898 63.1298 31.6435ZM31.9999 30.9955L20.444 23.6142L31.9999 16.2332L43.5559 23.6143L31.9999 30.9955Z" fill="#5582FF"/>
<path d="M48.0723 48.4147L33.0146 38.7969C32.3958 38.4017 31.6041 38.4017 30.9854 38.7969L15.9277 48.4147C15.3856 48.761 15.0573 49.3599 15.0573 50.0033C15.0573 50.6466 15.3855 51.2455 15.9277 51.5918L30.9853 61.2096C31.2947 61.4071 31.6473 61.5059 31.9999 61.5059C32.3526 61.5059 32.7052 61.4071 33.0146 61.2096L48.0722 51.5918C48.6143 51.2455 48.9425 50.6466 48.9425 50.0033C48.9425 49.3599 48.6143 48.761 48.0723 48.4147Z" fill="#5582FF"/>
<path d="M63.9999 13.9966C63.9999 13.3532 63.6717 12.7545 63.1296 12.4081L48.0723 2.79038C47.4536 2.39501 46.6616 2.39513 46.0431 2.79038L31.9999 11.7601L31.9995 11.7599V16.2335L31.9999 16.2332L43.5559 23.6143L31.9999 30.9955L31.9995 30.9952V35.4688L31.9999 35.4686L46.0429 44.4382C46.3523 44.6357 46.7049 44.7344 47.0575 44.7344C47.4101 44.7344 47.7628 44.6357 48.0721 44.4381L63.1296 34.8203C63.6717 34.4741 63.9999 33.8752 63.9999 33.2318C63.9999 32.5884 63.6717 31.9897 63.1296 31.6433L50.559 23.6141L63.1296 15.5849C63.6717 15.2389 63.9999 14.64 63.9999 13.9966Z" fill="#2864F0"/>
<path d="M48.0722 48.415L33.0145 38.7972C32.7053 38.5997 32.3529 38.501 32.0004 38.501V61.5062C32.3529 61.5061 32.7054 61.4073 33.0145 61.2099L48.0721 51.5921C48.6142 51.2458 48.9425 50.647 48.9425 50.0036C48.9425 49.3602 48.6142 48.7613 48.0722 48.415Z" fill="#2864F0"/>
</svg>
