<svg width="49" height="49" viewBox="0 0 49 49" fill="none" xmlns="http://www.w3.org/2000/svg">
<path d="M2.83786 19.2983L0.0915679 27.7363C-0.157165 28.5025 0.111474 29.3482 0.768189 29.8259L24.4999 47.0699L16.9043 32.1538L2.83786 19.2983Z" fill="#FFA100"/>
<path d="M46.1621 19.2983L48.9084 27.7363C49.1571 28.5025 48.8885 29.3482 48.2318 29.8259L24.5001 47.0699L32.8466 29.3787L46.1621 19.2983Z" fill="#FFA100"/>
<path d="M24.5 47.07L24.4999 29.9774L15.4749 19.2984L9.16133 16.1572L2.83784 19.2984L24.5 47.07Z" fill="#FF6D18"/>
<path d="M24.5 47.07L24.5001 28.9436L33.5251 19.2984L40.3551 16.1572L46.1621 19.2984L24.5 47.07Z" fill="#FF6D18"/>
<path d="M24.5 47.07L33.525 19.2983H15.475L24.5 47.07Z" fill="#FC3819"/>
<path d="M2.83795 19.2986H15.4849L10.042 2.57201C9.76341 1.71623 8.54942 1.71623 8.26087 2.57201L2.83795 19.2986Z" fill="#FC3819"/>
<path d="M46.162 19.2986H33.515L38.948 2.57201C39.2266 1.71623 40.4406 1.71623 40.7291 2.57201L46.162 19.2986Z" fill="#FC3819"/>
</svg>
