<svg width="52" height="52" viewBox="0 0 52 52" fill="none" xmlns="http://www.w3.org/2000/svg">
<g clip-path="url(#clip0_52_1627)">
<path d="M3.30629 3.59213C-0.744631 7.79984 0.0844541 12.2696 0.0844541 25.8485C0.0844541 37.1249 -1.88301 48.4293 8.41396 51.0905C11.6294 51.9174 40.1189 51.9174 43.33 51.0862C47.6172 49.98 51.1054 46.5026 51.5822 40.4391C51.6488 39.5929 51.6488 12.1192 51.5801 11.2558C51.0732 4.79709 47.0974 1.0748 41.8587 0.320893C40.6581 0.146914 40.4175 0.095365 34.2573 0.0846256C12.4069 0.095365 7.6171 -0.877628 3.30629 3.59213Z" fill="url(#paint0_linear_52_1627)"/>
<path d="M25.8548 6.82647C18.0559 6.82647 10.6499 6.13271 7.82118 13.3926C6.65272 16.391 6.82241 20.2851 6.82241 25.8611C6.82241 30.7539 6.66561 35.3526 7.82118 38.3274C10.6435 45.5915 18.1096 44.8956 25.8505 44.8956C33.3187 44.8956 41.0189 45.6732 43.8821 38.3274C45.0527 35.2989 44.8808 31.4627 44.8808 25.8611C44.8808 18.4251 45.2911 13.6245 41.6848 10.0204C38.0334 6.36897 33.0954 6.82647 25.8462 6.82647H25.8548ZM24.1494 10.2567C40.4175 10.2309 42.4881 8.42236 41.3454 33.5462C40.9394 42.432 34.1736 41.4569 25.857 41.4569C10.6929 41.4569 10.2569 41.023 10.2569 25.8525C10.2569 10.5058 11.4597 10.2652 24.1494 10.2524V10.2567ZM36.0143 13.4162C34.7535 13.4162 33.7311 14.4386 33.7311 15.6994C33.7311 16.9602 34.7535 17.9826 36.0143 17.9826C37.2752 17.9826 38.2975 16.9602 38.2975 15.6994C38.2975 14.4386 37.2752 13.4162 36.0143 13.4162ZM25.8548 16.086C20.4572 16.086 16.082 20.4634 16.082 25.8611C16.082 31.2587 20.4572 35.6339 25.8548 35.6339C31.2525 35.6339 35.6256 31.2587 35.6256 25.8611C35.6256 20.4634 31.2525 16.086 25.8548 16.086ZM25.8548 19.5162C34.2423 19.5162 34.2531 32.2059 25.8548 32.2059C17.4695 32.2059 17.4566 19.5162 25.8548 19.5162Z" fill="white"/>
</g>
<defs>
<linearGradient id="paint0_linear_52_1627" x1="3.40513" y1="48.3414" x2="51.3147" y2="6.87618" gradientUnits="userSpaceOnUse">
<stop stop-color="#FFDD55"/>
<stop offset="0.5" stop-color="#FF543E"/>
<stop offset="1" stop-color="#C837AB"/>
</linearGradient>
<clipPath id="clip0_52_1627">
<rect width="51.5493" height="51.5493" fill="white" transform="translate(0.0845337 0.0844727)"/>
</clipPath>
</defs>
</svg>
