<svg width="48" height="48" viewBox="0 0 48 48" fill="none" xmlns="http://www.w3.org/2000/svg">
<path d="M24 0.552979C11.0399 0.552979 0.533333 10.2916 0.533333 22.3048C0.533333 29.1483 3.94304 35.252 9.2729 39.2389L9.36794 46.9084C9.37264 47.3226 9.82085 47.5802 10.1816 47.3748L17.5103 43.213C19.5712 43.7616 21.7489 44.0561 24.0006 44.0561C36.9606 44.0561 47.4672 34.3174 47.4672 22.3042C47.4672 10.2911 36.96 0.552979 24 0.552979ZM25.7817 29.3161L20.7657 24.0953C20.4718 23.7891 20.0101 23.7163 19.6364 23.9176L10.8346 28.6572C10.4996 28.8373 10.1705 28.4085 10.4316 28.1316L20.832 17.1064C21.1306 16.7901 21.6334 16.7901 21.9314 17.1069L26.9456 22.428C27.2401 22.7413 27.7077 22.8158 28.0855 22.6099L36.7348 17.9007C37.0697 17.7188 37.4006 18.1483 37.139 18.4258L26.8764 29.3108C26.5801 29.6246 26.0815 29.627 25.7817 29.3161Z" fill="#0081FD"/>
</svg>
