<svg width="56" height="57" viewBox="0 0 56 57" fill="none" xmlns="http://www.w3.org/2000/svg">
<path d="M34.4717 55.5025C41.788 53.8103 48.0102 49.2617 51.9019 43.095C52.3767 42.3425 51.5394 41.4426 50.7553 41.8633C47.7635 43.4682 44.2127 44.3982 40.4039 44.3982C29.8472 44.3982 21.2686 37.2572 21.0917 28.3918C21.0319 25.396 22.8198 22.7475 25.4143 21.6404L25.4126 21.6392C23.8788 22.176 22.154 22.398 20.8201 23.3227C15.7608 26.8298 12.6896 33.319 13.1789 39.1528C13.6537 44.8137 17.1154 51.4474 23.1032 54.4111C26.2345 55.9609 30.274 55.7086 34.4717 55.5025Z" fill="url(#paint0_linear_52_1642)"/>
<path d="M34.2177 36.6138C36.1143 37.3059 38.206 37.6895 40.4041 37.6895C49.0175 37.6895 56 31.8021 56.0002 24.5397C56.0002 10.142 42.5715 0.129988 28.3731 0.00117487C12.893 -0.139498 0.142253 12.3704 0.00125122 27.8505C0.00125122 27.8505 3.8742 15.8895 17.7089 15.8895C27.0702 15.8895 33.6152 21.4462 34.6903 25.6468C34.978 26.414 35.1362 27.2447 35.1362 28.1124C35.1362 29.9321 34.4441 31.59 33.3089 32.8377C32.1842 34.0737 32.6476 36.0409 34.2177 36.6138Z" fill="url(#paint1_linear_52_1642)"/>
<path d="M34.6902 25.6468C33.6153 21.4462 30.0351 13.3516 18.4055 13.3516C0.523252 13.3516 0.00119194 27.8505 0.00119194 27.8505C-0.141238 43.4968 12.4992 56.225 28.1126 56.225C30.2997 56.225 32.4284 55.9751 34.4718 55.5025C11.7935 56.6162 9.46437 27.2217 25.4128 21.6392L25.4145 21.6404C26.2211 21.2962 27.1047 21.0993 28.0361 21.0893C31.0803 21.0569 33.6832 22.9618 34.6902 25.6468Z" fill="url(#paint2_linear_52_1642)"/>
<defs>
<linearGradient id="paint0_linear_52_1642" x1="13.128" y1="38.648" x2="52.0403" y2="38.648" gradientUnits="userSpaceOnUse">
<stop stop-color="#00376F"/>
<stop offset="1" stop-color="#004E99"/>
</linearGradient>
<linearGradient id="paint1_linear_52_1642" x1="11.4976" y1="9.91417" x2="44.0523" y2="29.1719" gradientUnits="userSpaceOnUse">
<stop stop-color="#00C2DD"/>
<stop offset="1" stop-color="#00D34F"/>
</linearGradient>
<linearGradient id="paint2_linear_52_1642" x1="14.5465" y1="15.5667" x2="23.3157" y2="55.8016" gradientUnits="userSpaceOnUse">
<stop offset="0.0016" stop-color="#006393"/>
<stop offset="0.4" stop-color="#0086DE"/>
<stop offset="1" stop-color="#006393"/>
</linearGradient>
</defs>
</svg>
