<svg width="89" height="24" viewBox="0 0 89 24" fill="none" xmlns="http://www.w3.org/2000/svg">
<path d="M8.37226 0.231934V13.6258L3.54031 0.231934H0.014389V23.9001C1.24866 23.7244 2.48534 23.5561 3.72426 23.3947V10.5241L8.02071 22.8663C9.37199 22.7095 10.7259 22.5612 12.0821 22.4216V0.231934H8.37226Z" fill="#E50914"/>
<path d="M25.9551 3.92029V0.231934H15.6497V22.0764C19.0691 21.7657 22.5042 21.5096 25.9549 21.3109V17.6551C23.7501 17.7826 21.5516 17.9333 19.3596 18.1057V12.5714C20.7979 12.5571 22.6917 12.5132 24.3696 12.534V8.87819C23.0292 8.87492 20.8748 8.89695 19.3596 8.91639V3.92029H25.9551Z" fill="#E50914"/>
<path d="M28.3333 0.231934V3.92029H32.2163V21.0142C33.4507 20.9676 34.6879 20.9292 35.9261 20.8969V3.92029H39.8089V0.231934H28.3333Z" fill="#E50914"/>
<path d="M52.5441 3.92029V0.231934H42.1873V20.7967L45.8973 20.7959V12.3559H50.9263V8.70044H45.8973V3.92012H52.5441V3.92029Z" fill="#E50914"/>
<path d="M58.632 17.472V0.229736H54.9221V20.9781C58.2937 21.0941 61.6513 21.2643 64.995 21.4871V17.8316C62.8799 17.6905 60.7588 17.5709 58.632 17.472Z" fill="#E50914"/>
<path d="M81.3538 6.45835L78.9401 0.231934H74.9264L79.2397 11.3576L74.5308 22.2723C75.8335 22.3992 77.1328 22.5348 78.4303 22.6782L81.1688 16.332L83.881 23.3277C85.2937 23.5094 86.703 23.6989 88.1093 23.8997L88.115 23.8973L83.282 11.4328L88.1151 0.231934H84.0401L81.3538 6.45835Z" fill="#E50914"/>
<path d="M68.0536 0.231934V21.7073C69.292 21.8021 70.5287 21.9038 71.7636 22.0138V0.231934H68.0536Z" fill="#E50914"/>
</svg>
