<svg width="44" height="44" viewBox="0 0 44 44" fill="none" xmlns="http://www.w3.org/2000/svg">
<g clip-path="url(#clip0_52_1665)">
<path d="M22.0001 44.0002C34.1501 44.0002 43.9997 34.1506 43.9997 22.0006C43.9997 9.85054 34.1501 0.000976562 22.0001 0.000976562C9.85005 0.000976562 0.000488281 9.85054 0.000488281 22.0006C0.000488281 34.1506 9.85005 44.0002 22.0001 44.0002Z" fill="#CB2027"/>
<path d="M23.7757 29.46C22.1125 29.3314 21.4137 28.5067 20.1094 27.7149C19.3925 31.4762 18.5164 35.0817 15.9214 36.9653C15.1195 31.2805 17.0971 27.0106 18.0156 22.4783C16.4501 19.843 18.2038 14.5386 21.5058 15.8457C25.5698 17.4528 17.9874 25.6447 23.0776 26.6678C28.3919 27.7361 30.5613 17.4469 27.2656 14.1002C22.5039 9.26831 13.4053 13.9904 14.5242 20.9073C14.7967 22.5983 16.5442 23.1117 15.2222 25.4451C12.1747 24.7702 11.2657 22.3666 11.3825 19.1622C11.5712 13.917 16.0956 10.2444 20.6337 9.73616C26.373 9.09379 31.7598 11.8436 32.5033 17.2422C33.3398 23.3352 29.9123 29.9338 23.7757 29.46Z" fill="#F1F2F2"/>
</g>
<defs>
<clipPath id="clip0_52_1665">
<rect width="44" height="44" fill="white"/>
</clipPath>
</defs>
</svg>
