<svg width="46" height="37" viewBox="0 0 46 37" fill="none" xmlns="http://www.w3.org/2000/svg">
<path d="M45.026 4.66778C43.3569 5.39994 41.5784 5.88524 39.7241 6.12087C41.6317 4.98196 43.0876 3.19225 43.772 1.03505C41.9935 2.09542 40.0299 2.8444 37.9372 3.26238C36.2485 1.46425 33.8417 0.350586 31.216 0.350586C26.1218 0.350586 22.0206 4.48544 22.0206 9.55443C22.0206 10.2838 22.0823 10.9851 22.2338 11.6527C14.584 11.2796 7.81506 7.61324 3.26784 2.02809C0.0160578 7.88702 3.64935 12.6906 6.09548 14.3261C4.61714 14.298 3.16685 13.8688 1.93818 13.1928C1.93818 17.7602 5.12768 21.4793 9.31023 22.3349C8.39573 22.6384 6.39787 22.8034 5.15573 22.4808C6.34794 26.1247 9.73101 28.8037 13.7537 28.8906C10.6231 31.3396 6.00964 33.3358 0.142853 32.6889C4.2188 35.3173 9.04935 36.8181 14.2586 36.8181C31.1907 36.8181 40.4479 22.7921 40.4479 10.6344C40.4479 10.2277 40.4339 9.83495 40.4142 9.44503C42.2404 8.14903 43.7748 6.53043 45.026 4.66778Z" fill="#1DA1F3"/>
</svg>
