<svg xmlns="http://www.w3.org/2000/svg" width="596" height="348.566"><g data-name="Group 3" transform="translate(-69.197)"><path data-name="Path 70" d="M663.787 254.077c-3.477 22.1-14.25 43.554-32.029 57.129-17.5 13.37-39.914 18.12-61.554 22.2q-38.932 7.356-78.077 13.447-5.549.884-11.106 1.709h-152c-.154-.205-.316-.419-.47-.632-.248-.359-.5-.718-.735-1.077-.136-.205-.273-.419-.41-.632h95.343a10.219 10.219 0 0010.209-10.2V208.763c.615-1.931 1.187-3.87 1.709-5.835a153.814 153.814 0 004.724-27.945c.513-6.578.667-13.157.555-19.744-.316-18.1-2.682-36.207-5.254-54.182-.188-1.324-.384-2.657-.572-3.981-1.811-12.49-3.46-26.083 2.836-37.027 7.2-12.525 23.187-17.744 37.582-16.463 25.895 2.315 47.706 22.144 59.043 45.544s13.866 50 14.9 75.967c.547 13.772.487 28.159-1.435 41.973q9.739-22.272 19.5-44.545c3.469-7.92 7.117-16.1 13.541-21.888 13.43-12.123 35.643-9.68 49.987 1.358s22.2 28.5 27.424 45.818c6.468 21.42 9.775 44.163 6.289 66.264z" fill="#3f3d56"/><path data-name="Path 71" d="M606.503 134.032c9.391 16.632 13.7 35.7 13.6 54.737a132.493 132.493 0 01-12.244 54.617 137.208 137.208 0 01-29.446 41.263 125.015 125.015 0 01-42.316 27.031 110.583 110.583 0 01-57.42 5.456q-4.019-.691-7.978-1.674c-1.6-.395-2.284 2.076-.681 2.471a113.438 113.438 0 0060.864-1.75 125.394 125.394 0 0044.581-25.362 139.179 139.179 0 0031.97-40.762 136.26 136.26 0 0015.015-54.56c1.119-19.318-2.119-38.98-10.473-56.5q-1.519-3.185-3.259-6.256a1.282 1.282 0 00-2.213 1.294z" fill="#fff"/><path data-name="Path 72" d="M470.484 43.248a277.959 277.959 0 0124.176 60.643 292.894 292.894 0 014.983 129.482 276.9 276.9 0 01-19.469 62.353c-8.9 19.775-21.717 40.612-43.607 47.536a45.644 45.644 0 01-7.57 1.692c-1.627.223-.934 2.693.681 2.471 22.644-3.108 38.378-21.92 48.246-41.1a263.107 263.107 0 0022.315-63.143 295.193 295.193 0 00-1.011-131.667 282.282 282.282 0 00-22.665-62.193q-1.878-3.714-3.87-7.368c-.784-1.449-2.998-.157-2.209 1.294z" fill="#fff"/><path data-name="Path 73" d="M363.311 39.52H209.873a11.762 11.762 0 00-11.747 11.747v76.881h23.61a10.148 10.148 0 018.637 4.776l8.185 13.029 7.826 12.448 1.469 2.341 8.953 14.242.1.162h118.152V51.267a11.762 11.762 0 00-11.747-11.747z" fill="#2f5e7b"/><path data-name="Path 74" d="M302.49 63.022h-76.027a7.6 7.6 0 100 15.2h76.027a7.6 7.6 0 100-15.2z" fill="#fff"/><path data-name="Path 75" d="M344.651 100.34h-117.5a8.3 8.3 0 100 16.591h117.5a8.3 8.3 0 100-16.591z" fill="#fff"/><path data-name="Path 76" d="M352.152 134.141a8.291 8.291 0 00-7.5-4.776h-117.5c-.179 0-.35.009-.53.017a10.18 10.18 0 013.751 3.537l8.184 13.029h106.094a8.285 8.285 0 007.5-11.807z" fill="#fff"/><path data-name="Path 77" d="M352.862 165.577a8.3 8.3 0 00-8.21-7.176h-98.265l1.469 2.341 8.953 14.242h87.842a8.2 8.2 0 004.81-1.546 8.284 8.284 0 003.477-6.749 7.9 7.9 0 00-.077-1.111z" fill="#fff"/><path data-name="Path 78" d="M446.65 105.731l-11.961-4.673-59.633-23.273-71.346-27.843a11.768 11.768 0 00-15.214 6.678l-2.495 6.4-5.937 15.2-8.629 22.119-6.479 16.592-4.853 12.439-6.476 16.583-4.861 12.448-.136.359-.774 1.981 8.953 14.242.1.162h165.837a10.18 10.18 0 017.937 3.793l.7-1.777 8.56-21.922 13.379-34.284a11.77 11.77 0 00-6.672-15.224z" fill="#ed5a40"/><path data-name="Path 79" d="M381.448 105.51l-6.39-2.495-64.436-25.144a7.603 7.603 0 10-5.528 14.165l21.282 8.3L352.7 110.61l22.358 8.731.863.333a7.603 7.603 0 005.528-14.165z" fill="#fff"/><path data-name="Path 80" d="M407.146 155.607l-32.089-12.524-22.9-8.936-12.234-4.776-31.866-12.439-10.355-4.041a8.3 8.3 0 00-10.448 4.041c-.1.214-.205.436-.29.666a8.29 8.29 0 004.707 10.739l2.648 1.034 42.473 16.577 38.266 14.934 26.057 10.175a8.3 8.3 0 106.032-15.455z" fill="#fff"/><path data-name="Path 81" d="M375.057 174.237l-2.059-.8-20.137-7.86-18.394-7.176-31.9-12.448-15.429-6.023a8.294 8.294 0 00-6.023 15.455l7.723 3.016 38.53 15.036 3.964 1.546.41.162h45.63z" fill="#fff"/><path data-name="Path 82" d="M297.116 174.982l-3.964-1.546-16.567-6.467a8.282 8.282 0 00-11.209 6.467 7.852 7.852 0 00-.094 1.546.95.95 0 00.009.162h32.244z" fill="#fff"/><path data-name="Path 83" d="M331.332 174.982l-3.964-1.542h-61.991a7.863 7.863 0 00-.094 1.546h-8.475l.1.162h74.831zm0 0h-74.523l.1.162h74.831zm0 0h-74.523l.1.162h74.831zm.41.162l-.41-.162h-74.523l.1.162zm-149.516 171.08a10.216 10.216 0 01-10.2-10.2V138.357a10.218 10.218 0 0110.2-10.209h15.9v-1.708h-15.9a11.932 11.932 0 00-11.909 11.918v197.666a11.918 11.918 0 006.98 10.833h150.515c-.136-.205-.273-.419-.41-.632zm249.157-169.063a11.856 11.856 0 00-8.637-3.721H257.86l-9.227-14.677-.222-.359-7.825-12.448-8.766-13.943a11.94 11.94 0 00-10.081-5.573h-39.513a11.932 11.932 0 00-11.909 11.918v197.666a11.918 11.918 0 006.98 10.833 11.746 11.746 0 004.929 1.077h240.52a11.787 11.787 0 004.938-1.076 11.919 11.919 0 006.98-10.833V185.354a11.849 11.849 0 00-3.281-8.193zm1.572 158.863a10.218 10.218 0 01-10.209 10.2h-240.52a10.216 10.216 0 01-10.2-10.2V138.357a10.218 10.218 0 0110.2-10.209h39.513a10.149 10.149 0 018.637 4.776l8.185 13.029 7.826 12.447 1.469 2.341 8.953 14.242.1.162h165.837a10.218 10.218 0 0110.209 10.209zM331.332 174.982h-74.523l.1.162h74.831zm0 0h-74.523l.1.162h74.831zm0 0h-74.523l.1.162h74.831zm0 0l-3.964-1.542H257.86l-9.227-14.677-.778 1.982 8.953 14.242.1.162h74.831z" fill="#3f3d56"/><path data-name="Path 84" d="M135.45 245.851l-4.894 10.231-41.791-14.006 7.222-15.1z" fill="#ffb8b8"/><path data-name="Path 85" d="M123.675 262.943l9.882-20.679 12.421 5.935-15.363 32.151-.95-.454a12.714 12.714 0 01-5.99-16.953z" fill="#fff"/><path data-name="Path 86" d="M145.301 337.217l-11.334-.383-.478-44.121 13.287.784z" fill="#ffb8b8"/><path data-name="Path 87" d="M124.928 333.286l22.913.773-.465 13.763-35.624-1.202.036-1.052a12.718 12.718 0 0113.14-12.282z" fill="#fff"/><path data-name="Path 88" d="M163.555 152.566s-34.69-8.788-50.416 4.163l-8.788 25.439-35.153 49.954 50.879 30.527 9.251-23.127-22.2-11.1 26.827-23.127-4.625 122.109 17.576 2.775s38.85-150.786 16.649-177.613z" fill="#2f2e41"/><path data-name="Path 89" d="M110.925 160.491l.423-.752c4.457-7.924 3.735-20.827 2.344-30.255-1.165-7.9-1.13-21.815-.9-32.1a15.285 15.285 0 0112.188-14.713c10.553-2.2 23.509-2.661 30.292-2.744l.006.462-.006-.462a7.044 7.044 0 017.07 6.871c.206 11.075.142 31.272-2.606 42.109-4.079 16.083 2.3 27.012 2.365 27.121l.385.643z" fill="#97a2a3"/><path data-name="Path 90" d="M93.08 204.846a8.565 8.565 0 003.255-12.723l19.578-84.423h-14.8l-17.278 82.759a8.611 8.611 0 009.246 14.387z" fill="#ffb8b8"/><path data-name="Path 92" d="M122.902 83.756s-20.4-3.346-22.253 12.38-2.775 15.726-2.775 15.726 14.8-2.775 18.5.925 6.528-29.031 6.528-29.031z" fill="#97a2a3"/><path data-name="Path 94" d="M138.774 27.627c-5.252-4.195-6.633-12.291-3.585-18.282s9.937-9.6 16.654-9.331a22.433 22.433 0 0116.937 9.607c5.466 7.7 6.613 18.4 13.881 24.429 6.565 5.444 15.969 5.288 24.486 4.855 2.871-.146 5.835-.315 8.412-1.591s4.681-3.966 4.349-6.822c2.14 3.387.9 8.137-1.972 10.932s-6.958 3.966-10.938 4.432a40.64 40.64 0 01-36.866-16.175c-2.964-4.088-5.251-8.849-9.317-11.842s-10.847-3.2-13.344 1.188c-1.235 2.171-1.114 4.894-2.249 7.118s-4.823 3.424-5.916 1.178" fill="#2f2e41"/><circle data-name="Ellipse 19" cx="25.63" cy="25.63" r="25.63" transform="translate(112.341 20.979)" fill="#2f2e41"/><circle data-name="Ellipse 20" cx="20.983" cy="20.983" r="20.983" transform="translate(116.833 32.278)" fill="#ffb8b8"/><path data-name="Path 95" d="M118.681 37.851c2.852.624 1.919 5.408 4.172 7.263 2.033 1.674 4.96-.048 7.519-.671 3.23-.787 6.611.366 9.593 1.835s5.858 3.293 9.111 3.977 7.11-.087 8.934-2.867c1.744-2.658 1.1-6.242-.262-9.113a21.161 21.161 0 00-37.968-.526" fill="#2f2e41"/><path data-name="Path 96" d="M613.083 347.712a.807.807 0 01-.743.854H81.44a.863.863 0 010-1.709h530.9a.807.807 0 01.743.855z" fill="#3f3d56"/><path data-name="Path 125" d="M331.332 174.983l-3.964-1.542-66.937 1.546c-.082.511 4.833-.517 4.853 0h-8.475l.1.162h74.831zm0 0h-74.523l.1.162h74.831zm0 0h-74.523l.1.162h74.831zm.41.162l-.41-.162h-74.523l.1.162zm-149.516 171.08a10.216 10.216 0 01-10.2-10.2V138.358a10.218 10.218 0 0110.2-10.209h15.9v-1.708h-15.9a11.932 11.932 0 00-11.909 11.918v197.666a11.918 11.918 0 006.98 10.833h150.515c-.136-.205-.273-.419-.41-.632H182.226zm250.729-165.484c-2.242-2.379-6.94-7.3-10.209-7.3H257.86l-9.227-14.677-.222-.359-7.825-12.448-8.766-13.943a11.94 11.94 0 00-10.081-5.573h-39.513a11.932 11.932 0 00-11.909 11.918v197.666c.005 4.666 5.634 8.9 9.88 10.833 1.546.712.327 1.079 2.029 1.076l240.52-1.077c1.7 0-17.576.712-16.027 0 4.246-1.934 26.231-.916 26.237-5.582l1.709-155.921c.001-3.051.398-2.413-1.71-4.613zm-5.047 165.487c-.01 5.633 5.633-26.568 0-26.563l-237.764 28.269c-5.63-.009.009-55.9 0-61.526l-18.119-148.05a10.218 10.218 0 0110.2-10.209h39.513c2.381-.006-25.81-3.121-41.542 0-7.1 1.409-8.77 9.25-8.172 10.209v173.144l14.791 35.356 241.092-.632 1.842-6.509-186.656-179.576 3.294 4.677 10.423 10.169.1.162 124.627 91.7c5.636 0 14.423 36.8 14.428 42.441zm-96.576-171.245h-74.523l.1.162h74.831zm0 0h-74.523l.1.162h74.831zm0 0h-74.523l.1.162h74.831zm0 0l-3.964-1.542-70.559 1.7-8.4-12.4-2.024 2.065 10.423 10.169.1.162 171 168.946z" fill="rgba(3,3,3,0.13)"/><path data-name="Path 91" d="M212.12 121.744l-32.672-30.906-8.83 12.362 22.076 19.426-28.951 22.99c-.209-.014-.417-.032-.63-.032a9.272 9.272 0 109.18 10.5l.091.091z" fill="#ffb8b8"/><path data-name="Path 93" d="M153.378 81.335s16.651-2.775 24.052 4.625 11.1 9.251 11.1 9.251-16.651 9.251-10.176 17.576c0 0-17.576-8.326-20.352-5.55s-4.624-25.902-4.624-25.902z" fill="#97a2a3"/></g></svg>