<svg height="527.472" width="614.119" xmlns="http://www.w3.org/2000/svg"><path d="M342.566 459.269c141.105-.326 222.645 17.61 222.645 39.333s-94.139 27.894-217.1 27.894-146.09-8.835-228.19-27.894 81.54-39.007 222.645-39.333z" fill="#2f2e41"/><path d="M193.99 243.931a106.018 106.018 0 10-49.19 39.5 34.294 34.294 0 1049.19-39.5z" fill="#ff6399"/><rect fill="#fff" height="9.956" rx="4.978" width="112.26" x="50" y="159.551"/><rect fill="#fff" height="9.956" rx="4.978" width="112.26" x="50" y="181.145"/><rect fill="#fff" height="9.956" rx="4.978" width="112.26" x="50" y="201.739"/><path d="M420.129 165.196a106.018 106.018 0 1149.19 39.5 34.294 34.294 0 11-49.19-39.5zM235.908 455.254a59.189 59.189 0 1127.462 22.05 19.146 19.146 0 11-27.462-22.05z" fill="#ff6399"/><circle cx="261.773" cy="420.864" fill="#fff" r="6.85"/><circle cx="285.142" cy="420.864" fill="#fff" r="6.85"/><circle cx="308.511" cy="420.864" fill="#fff" r="6.85"/><path d="M292.001 208.372s30.561.831 35.609 2.667 7.3 14.968 7.3 14.968l-23.729 7.458-17.748-1.005-13.357.944 7.458-19.533z" fill="#2f2e41"/><path d="M293.318 198.344s2.011 7.766-2.452 13.265 19.184 25.093 19.184 25.093l12.475-2.144s-2.749-23.862.944-29.9-30.151-6.314-30.151-6.314z" fill="#9f616a"/><path d="M293.318 198.344s2.011 7.766-2.452 13.265 19.184 25.093 19.184 25.093l12.475-2.144s-2.749-23.862.944-29.9-30.151-6.314-30.151-6.314z" opacity=".1"/><path d="M376.284 425.405l-27.525 36.5 18.784 10.968 25.853-42.3z" fill="#9f616a"/><path d="M356.977 462.522s-10.136-11.777-9.685-9.151-7.212 24.9-.082 27.053 68.273 7.868 69.115.964-18.24-11.736-18.24-11.736-11.336-10.9-13.85-9.787-27.258 2.657-27.258 2.657z" fill="#b1b1b1"/><path d="M370.109 460.265l21.985 37.453 16.6-9.612-22.169-30.664z" fill="#9f616a"/><path d="M404.814 371.155l-6.525 9.233s-31.105 43.2-27.8 46.689 17.061 16.671 24.057 14.116 31.854-46.709 31.854-46.709l-6.484-25.924z" fill="#2f2e41"/><path d="M270.822 362.415s6.966 13 24.622 17.4 36.1 13.4 36.758 13.285 2.513-1.108 2.965 1.518 5.294 7.2 5.294 7.2 19.5 66.273 26.951 66.345 22.754-5.263 23.072-7.345-22.806-69.761-23.032-71.074l-2.708-15.758s30.582 4.883 33.434 5.745 28.222 14.752 28.222 14.752 25.863-18.641 1.672-37.466-65.77-32.634-65.77-32.634l-14.917-4.2-13-.776-1.914-7.34-30.789 1.776-32.131 13.634z" fill="#2f2e41"/><circle cx="311.457" cy="189.818" fill="#9f616a" r="23.983"/><path d="M289.76 209.095l2.885-.5s5.21 20.06 21.327 23.373c0 0 7.953-9.527 7.613-11.134s6.3-10.184 9.827-5.383-.862 89.376 2.1 90.894 9.325 3.129 4.206 8.741-25.453 13.162-29.956 10.557-13.706-24.683-17.687-32.111-10.351-32.7-10.351-32.7-8.133-27.659-3.126-33.929 13.162-17.808 13.162-17.808z" fill="#d0cde1"/><path d="M312.713 313.215a136.809 136.809 0 01-2.747 17.514c-1.176 4.7-2.546 7.533-4.109 7.412-3.988-.3-5.8 5.551-6.735 12.294-1 7.154-1 15.315-1.547 18.2-.725 3.811-5.365 6.719-14.638 5.865a65.433 65.433 0 01-16.129-3.956c-12.519-4.552-12.149-41.466-10.054-68.857 1.281-16.789 3.206-30.01 3.206-30.01s-3.8-11.343-5.019-19.118a25.424 25.424 0 01-.363-4.294c.185-6.791 12.584-25.144 20.076-36.575s17.732-3.045 17.732-3.045l-3.561 10.747s5.518 8.515 5.559 16.62 13.212 13.953 17.941 17.877c2.971 2.465 2.902 35.375.388 59.326zm10.414-100.729s.864 1.022 4.822.523c4.746-.6 11.272 1.044 12.788 5.576 2.78 8.31 10.618 42.113 10.618 42.113s3.263 38.646 4.73 47.181.739 16.1 2.185 20.58-14.28-8.361-20.077-6.689-9.52-19.995-8.792-27.556 1.344-15.778-.667-23.544 1.554-28.32 1.421-33.029-12.781-16.577-7.028-25.155z" fill="#2f2e41"/><path d="M340.097 332.596s25.394 13.854 27.824 33.572-33.965-19.092-33.965-19.092zm14.496-13.984s7.781 39.221 19.9 37.137-6.769-39.398-6.769-39.398z" fill="#9f616a"/><path d="M396.105 489.595s-6.207 7.15-7.745 6.063-5.078 13.716-1.888 16.548 15.481 7.479 15.614 12.188 33.1 3.775 34.275-1.159-4.134-16.189-7.869-18.251-17.542-21.041-17.542-21.041-10.816 1.584-14.845 5.652z" fill="#b1b1b1"/><path d="M336.056 356.582c-5.889-4.157-22.332-5.188-36.93-6.147-6.4-.411-12.455-.814-17.1-1.466-4.479-.62-8.507-4.713-12.084-10.812-5.422-9.241-9.8-23.1-13.18-36.471 1.281-16.789 3.206-30.01 3.206-30.01s-3.8-11.343-5.019-19.118a10.23 10.23 0 013.239-2.916c15.484-6.646 30.267 58.762 32.144 69.026.032.169.056.33.081.467.91 5.285 10.747 9.8 19.561 11.593 5.43 1.1 10.481 1.176 12.81-.258 6.115-3.754 24.918 11.271 26.344 11.7s-4.617 20.398-13.072 14.412z" opacity=".1"/><path d="M258.183 245.617s-11.254 5.314-6.309 30.151 14.907 67.063 30.141 69.176 45.57 1.631 54.034 7.612 14.5-13.983 13.07-14.414-20.231-15.45-26.345-11.7-30.9-2.8-32.367-11.336-16.484-76.25-32.224-69.489zm81.097-11.911l12.369 28.7s1.245-.621 2.692 3.862 2.124 8.423 4.658 11.367 13.809 44.945 14.147 46.914-15.572 8.76-19.127 3.288-14.739-94.131-14.739-94.131zm-41.468-44.222c.919-.245 1.054-1.466 1.085-2.417.165-5.092 3.231-10.317 8.105-11.8a13.628 13.628 0 015.744-.316 21.757 21.757 0 017.779 2.6 12.135 12.135 0 003.955 1.791c.951.144 5.069 1.341 6.016 1.51 2.082.37 4.017 2.233 6.015 1.54 1.911-.663 2.334-3.138 2.381-5.16.105-4.608-3.393-10.985-6.474-14.413-2.338-2.6-5.858-3.8-9.3-4.426a61.915 61.915 0 00-12.163-.74c-5.507.1-11.167.523-16.134 2.906s-9.138 7.126-9.376 12.629c-.05 1.146.069 2.3-.028 3.441-.235 2.789-1.716 5.309-2.411 8.02a14.676 14.676 0 002.049 11.728c1.843 2.712 4.74 5.165 4.633 8.443l4-4.14a3.282 3.282 0 00.976-4.01l-1.415-5.518a4.979 4.979 0 01-.122-3.071c1.513-3.75 3.153 1.812 4.685 1.403z" fill="#2f2e41"/><path d="M479.435 465.419c-.166-.271-4.071-6.791-5.425-20.332-1.242-12.423-.443-33.362 10.416-62.57 20.573-55.333-4.741-99.98-5-100.424l1.249-.725c.065.113 6.6 11.5 10.456 29.622a129.23 129.23 0 01-5.352 72.031c-20.538 55.239-5.269 81.389-5.113 81.647z" fill="#3f3d56"/><circle cx="471.39" cy="269.461" fill="#fd6399" r="9.382"/><circle cx="500.98" cy="304.103" fill="#3f3d56" r="9.382"/><circle cx="480.772" cy="327.197" fill="#fd6399" r="9.382"/><circle cx="505.31" cy="346.683" fill="#fd6399" r="9.382"/><circle cx="473.555" cy="376.994" fill="#3f3d56" r="9.382"/><path d="M485.102 465.764s-9.382-23.094 18.764-40.415zm-11.538-.419s-4.27-24.559-37.318-24.349z" fill="#3f3d56"/><text fill="#fff" font-family="Inter-Bold, Inter" font-size="145" font-weight="700" transform="translate(469 163)"><tspan x="0" y="0">?</tspan></text></svg>