<svg xmlns="http://www.w3.org/2000/svg" width="1261.058" height="860"><defs><filter id="a" x="462" y="0" width="653" height="860" filterUnits="userSpaceOnUse"><feOffset dy="3"/><feGaussianBlur stdDeviation="8" result="blur"/><feFlood flood-opacity=".11"/><feComposite operator="in" in2="blur"/><feComposite in="SourceGraphic"/></filter></defs><g data-name="Group 7"><g data-name="Group 5" transform="translate(-278.927 226)"><ellipse data-name="Ellipse 39" cx="526" cy="18" rx="526" ry="18" transform="translate(459.927 594)" fill="rgba(249,190,121,0.09)"/><path data-name="Path 126" d="M666.398 494.853l-36.747-34.306-17.426-16.073a14.138 14.138 0 012.694-22.737 14.138 14.138 0 0119.852 6.7l5.732 13.151 35.6 36.922z" fill="#ffb9b9"/><path data-name="Path 127" d="M671.201 472.601l-12.9 21.495 52.387 32.135c46.184-33.2 55.327-44 44.011-96.88l-9-9-43.522 70.58z" fill="#6c63ff"/><path data-name="Path 128" d="M595.124 412.839a3.173 3.173 0 00-3.971-.391l-24.259 15.8a3.191 3.191 0 00-.51 4.935l61.694 61.427a3.191 3.191 0 004.547-.044l20.218-20.926a3.2 3.2 0 00-.065-4.5z" fill="#3f3d56"/><path data-name="Path 129" d="M571.673 429.94l2.511-1.6a2.392 2.392 0 003.443 3.141l16.246-11.169a2.391 2.391 0 00-.632-4.25l1.293-.825a.871.871 0 011.087.122l54.654 53.71a.87.87 0 01-.022 1.245l-19.849 19.34a.87.87 0 01-1.211-.017l-57.666-58.346a.87.87 0 01.147-1.35z" fill="#fff"/><path data-name="Path 130" d="M634.751 457.208l-16.766 15.808-39.879-39.4 20.239-13.174z" fill="#909090"/><path data-name="Path 131" d="M579.657 443.339a.581.581 0 000-.821l-3.487-3.487a.594.594 0 00-.821 0 .581.581 0 000 .821l3.487 3.487a.594.594 0 00.821 0z" fill="#e6e6e6"/><path data-name="Path 132" d="M585.531 448.393l-3.487-3.487a.58.58 0 00-.821.821l3.487 3.487a.58.58 0 10.821-.821z" fill="#e6e6e6"/><circle data-name="Ellipse 34" cx="3.917" cy="3.917" r="3.917" transform="translate(630.448 466.86)" fill="#6c63ff"/><path data-name="Path 134" d="M765.4 607.864V304.126h2.106v304.119z" fill="#e8e8e8"/><path data-name="Path 135" d="M382.685 598.852l-19.9 5.253a24.825 24.825 0 01-31.634 11.72l-.435-.18a29.7 29.7 0 01-7.3-4.458c-8.357-6.774-22.279-10.27-40.742-11.093a5.35 5.35 0 01-3.738-5.385 5.35 5.35 0 014.65-5.023l99.553-12.985z" fill="#e6e6e6"/><path data-name="Path 136" d="M640.799 616.481c-52.051-8.347-99.47-21.859-139.228-43.91l-123.406 30.287.452-27.06 96.461-33.833a122.588 122.588 0 0150.754-6.486l114.967 21.333z" fill="#2f2e41"/><path data-name="Path 137" d="M442.357 627.34a6.328 6.328 0 012.6-7.117l46.668-24.536 11.3-29.382 19.438 12.205-5.424 21.7 1.283 8.979a19.856 19.856 0 01-19.656 22.664h-50.147a6.329 6.329 0 01-6.062-4.51z" fill="#e6e6e6"/><path data-name="Path 138" d="M703.632 599.756c-56.358 70.069-95.135-6.25-133.351-87.243l-46.108 75.038-28.026-19.89 48.327-106.32a18.2 18.2 0 0128.94-5.819l67.385 75.071 12.657-.9z" fill="#2f2e41"/><circle data-name="Ellipse 35" cx="33.451" cy="33.451" r="33.451" transform="translate(673.345 332.602)" fill="#ffb9b9"/><path data-name="Path 139" d="M749.288 425.725l-37.067 8.137a223.879 223.879 0 00-15.369-44.3l34.355-12.657a237.743 237.743 0 0018.081 48.82z" fill="#ffb9b9"/><path data-name="Path 140" d="M706.796 608.344l-66-77.751 26.877-44.668c2.829-20.095 13.207-35.889 29.178-48.5l10.849-18.033 32.547-13.561a66.605 66.605 0 0119.757 78.362z" fill="#f9be79"/><path data-name="Path 141" d="M649.84 522.457l-39.783-30.738-18.845-14.382a14.138 14.138 0 01.568-22.889 14.138 14.138 0 0120.388 4.821l6.93 12.561 38.875 33.451z" fill="#ffb9b9"/><path data-name="Path 142" d="M652.552 499.855l-10.849 22.6 55.149 27.122c42.9-37.349 66.814-73.165 50.628-124.763l-20.794 5.424-41.587 84.987z" fill="#f9be79"/><circle data-name="Ellipse 36" cx="13.318" cy="13.318" r="13.318" transform="translate(736.904 300.864)" fill="#2f2e41"/><path data-name="Path 143" d="M736.499 310.925a13.308 13.308 0 0113.312-12.448c-.275-.035-.547-.077-.828-.1a13.318 13.318 0 00-1.709 26.582c.28.018.556.011.833.012a13.308 13.308 0 01-11.608-14.046z" fill="#2f2e41"/><path data-name="Path 144" d="M736.424 316.609c-11.878-9.853-45.947 2.67-48.145 9.294-16.062 2.189-28.222 11.561-28.222 28.222 9.55 3.912 20.41 3.43 32.151 0 18.715 15.252 20 34.425 8.616 56.447l14 .28 17.357-25.367.83 25.731 32.1-.644v-36.873a77.1 77.1 0 00-8.232-35.32c-5.003-9.717-12.765-15.391-20.455-21.77z" fill="#676684"/><ellipse data-name="Ellipse 37" cx="6.369" cy="8.916" rx="6.369" ry="8.916" transform="translate(700.166 363.925)" fill="#ffb8b8"/></g><g filter="url(#a)"><rect data-name="Rectangle 50" width="605" height="812" rx="10" transform="translate(486 21)" fill="#fff"/></g><g data-name="Group 6" transform="translate(488 139.096)"><path data-name="Path 150" d="M631.607 596.974l-13.649 7.444 8.686 28.539 13.648 1.241 7.445-16.13z" fill="#c68a93"/><path data-name="Path 151" d="M673.795 654.05v13.648l21.094-1.24-.294-11.241z" fill="#c68a93"/><path data-name="Path 152" d="M626.644 433.186l7.444 93.061 23.576 136.491 37.224-4.963-12.408-107.95 4.963-99.264z" fill="#143557"/><path data-name="Path 153" d="M725.908 363.704l-89.338 1.241-9.927 68.244 60.8 28.539 14.89 54.6-75.689 80.652 29.779 37.224s42.188-57.077 73.208-89.338 16.13-130.285 16.13-130.285z" fill="#143557"/><circle data-name="Ellipse 38" cx="27.298" cy="27.298" r="27.298" transform="translate(645.256 132.912)" fill="#c68a93"/><path data-name="Path 154" d="M662.628 178.822v27.3l18.612 29.779s28.539-21.094 22.334-26.057-7.445-43.428-7.445-43.428z" fill="#c68a93"/><path data-name="Path 155" d="M662.628 201.156l-18.613 22.334 7.446 155.1 58.317-1.241 9.927-135.247-12.408-34.742-8.511-11.58-15.064 22.747z" fill="#e5e2f7"/><path data-name="Path 156" d="M632.848 281.809l-13.649 52.114 13.649 52.114-22.334 29.779-19.853-94.3s14.89-76.93 16.13-85.616 3.722-9.927 3.722-9.927l9.927 1.241z" fill="#1369be"/><path data-name="Path 157" d="M732.112 301.661l8.686 16.131 2.482 27.3-4.963 31.02 17.371 28.539 17.37-78.173-18.611-100.51h-7.449z" fill="#1369be"/><path data-name="Path 158" d="M626.644 595.733s-17.371 4.963-23.575 6.2 3.722 24.816 3.722 24.816 6.2 32.261 7.445 38.465 9.927 27.3 21.094 29.779 3.722-43.428 3.722-43.428 4.963-14.89 4.963-19.853-7.445-2.482-7.445-2.482c-19.852-2.477-9.926-33.497-9.926-33.497z" fill="#2b2829"/><path data-name="Path 159" d="M667.59 691.275c1.241 7.445-1.241 7.445 18.612 9.926s14.89-13.649 14.89-13.649a104.268 104.268 0 00-4.963-22.334c-3.722-9.927-23.575 2.482-23.575 2.482s-6.208 16.13-4.964 23.575z" fill="#2b2829"/><path data-name="Path 160" d="M696.162 167.281l.647 11.035s8.007-18.106 9.247-36.718-19.853-22.334-32.261-23.575-33.5 7.445-33.5 17.371 22.334 7.445 31.02 4.963 12.408 18.612 12.408 18.612l4.96 1.241z"/><path data-name="Path 161" d="M655.304 209.944l7.324-8.787 21.094 17.371-21.094 14.89z" fill="#d0cde1"/><path data-name="Path 162" d="M707.297 207.36l-8.686-11.167-14.89 22.334 18.612 13.649z" fill="#d0cde1"/><path data-name="Path 163" d="M629.126 299.18l4.963 47.151-9.926 28.539-6.2 27.3s0 26.057 24.816 27.3 45.91-78.171 45.91-78.171 3.722 17.371 6.2 27.3 44.668 49.623 44.668 49.623 9.926-1.241 18.612-21.094-17.371-38.465-17.371-38.465l-7.441-26.055 2.482-32.261 17.371-84.375-51.494-26.677 5.584 71.346-18.612 55.836-27.921-123.455-9.31 6.82-39.7 16.131z" fill="#1369be"/></g></g></svg>