<svg width="22" height="22" viewBox="0 0 22 22" fill="none" xmlns="http://www.w3.org/2000/svg">
<path d="M6.36396 2.22554L11.9624 6.353C11.9672 6.35658 11.9722 6.36025 11.9773 6.36401C12.0329 6.40505 12.1025 6.4565 12.1774 6.50238C12.5067 6.704 12.8874 6.80599 13.2733 6.79603C13.3612 6.79376 13.4472 6.78403 13.5158 6.77627C13.5221 6.77556 13.5283 6.77486 13.5343 6.77418L20.4464 5.99891C20.6727 5.97353 20.8161 5.95759 20.9204 5.94957C20.9348 5.94847 20.9472 5.94761 20.9579 5.94695C20.952 5.95591 20.945 5.96625 20.9369 5.97809C20.8778 6.06444 20.7923 6.18069 20.6571 6.36396L16.5297 11.9624C16.5261 11.9672 16.5224 11.9722 16.5187 11.9773C16.4776 12.0329 16.4262 12.1025 16.3803 12.1774C16.1787 12.5067 16.0767 12.8874 16.0867 13.2733C16.0889 13.3612 16.0987 13.4472 16.1064 13.5158C16.1071 13.5221 16.1078 13.5283 16.1085 13.5343L16.8838 20.4464C16.9092 20.6727 16.9251 20.8161 16.9331 20.9204C16.9342 20.9348 16.9351 20.9472 16.9357 20.9579C16.9268 20.952 16.9164 20.945 16.9046 20.9369C16.8182 20.8778 16.702 20.7923 16.5187 20.6571L10.9203 16.5297C10.9154 16.5261 10.9105 16.5224 10.9054 16.5187C10.8498 16.4776 10.7802 16.4262 10.7052 16.3803C10.3759 16.1787 9.99533 16.0767 9.60934 16.0867C9.52149 16.0889 9.43546 16.0987 9.36684 16.1064C9.36055 16.1071 9.3544 16.1078 9.34842 16.1085L2.43631 16.8838C2.21002 16.9092 2.06659 16.9251 1.96224 16.9331C1.94793 16.9342 1.93551 16.9351 1.92479 16.9357C1.93072 16.9268 1.93767 16.9164 1.94578 16.9046C2.0049 16.8182 2.09042 16.702 2.22554 16.5187L6.353 10.9203C6.35658 10.9154 6.36025 10.9105 6.36401 10.9054C6.40505 10.8498 6.4565 10.7802 6.50238 10.7052C6.704 10.3759 6.80599 9.99533 6.79603 9.60934C6.79376 9.52149 6.78403 9.43546 6.77626 9.36684C6.77555 9.36055 6.77486 9.3544 6.77419 9.34842L5.99891 2.43631C5.97353 2.21002 5.95759 2.06659 5.94957 1.96224C5.94847 1.94793 5.94762 1.93551 5.94696 1.92478C5.95592 1.93072 5.96625 1.93767 5.97809 1.94578C6.06444 2.0049 6.18069 2.09042 6.36396 2.22554Z" stroke="#111111" stroke-width="2"/>
</svg>
