<svg width="32" height="31" viewBox="0 0 32 31" fill="none" xmlns="http://www.w3.org/2000/svg">
<path d="M8.11756 1.46037L17.0726 8.06252C17.0775 8.06609 17.0824 8.06977 17.0875 8.07353C17.1431 8.11456 17.2127 8.16601 17.2877 8.21189C17.617 8.41351 17.9976 8.5155 18.3836 8.50554C18.4714 8.50328 18.5574 8.49355 18.626 8.48578C18.6323 8.48507 18.6385 8.48437 18.6445 8.4837L29.7009 7.2436C29.9271 7.21822 30.0706 7.20228 30.1749 7.19426C30.1892 7.19316 30.2017 7.1923 30.2124 7.19164C30.2064 7.2006 30.1995 7.21093 30.1914 7.22278C30.1323 7.30913 30.0467 7.42538 29.9116 7.60865L23.3095 16.5637C23.3059 16.5686 23.3022 16.5735 23.2985 16.5786C23.2574 16.6342 23.206 16.7038 23.1601 16.7787C22.9585 17.108 22.8565 17.4887 22.8665 17.8747C22.8687 17.9625 22.8785 18.0485 22.8862 18.1171C22.8869 18.1234 22.8876 18.1296 22.8883 18.1356L24.1284 29.192C24.1538 29.4182 24.1697 29.5617 24.1777 29.666C24.1788 29.6803 24.1797 29.6927 24.1804 29.7035C24.1714 29.6975 24.1611 29.6906 24.1492 29.6825C24.0629 29.6234 23.9466 29.5378 23.7633 29.4027L14.8083 22.8006C14.8034 22.797 14.7984 22.7933 14.7933 22.7895C14.7378 22.7485 14.6682 22.6971 14.5933 22.6512C14.264 22.4496 13.8833 22.3476 13.4973 22.3575C13.4095 22.3598 13.3235 22.3695 13.2548 22.3773C13.2485 22.378 13.2424 22.3787 13.2364 22.3794L2.18005 23.6195C1.95377 23.6449 1.81033 23.6608 1.70599 23.6688C1.69168 23.6699 1.67926 23.6708 1.66853 23.6714C1.67446 23.6625 1.68141 23.6522 1.68952 23.6403C1.74864 23.554 1.83416 23.4377 1.96928 23.2544L8.57143 14.2994C8.57501 14.2945 8.57869 14.2895 8.58246 14.2844C8.62349 14.2289 8.67493 14.1593 8.7208 14.0843C8.92242 13.755 9.02441 13.3744 9.01445 12.9884C9.01219 12.9006 9.00245 12.8146 8.99469 12.746C8.99398 12.7397 8.99328 12.7335 8.99261 12.7275L7.75251 1.67114C7.72713 1.44486 7.71119 1.30142 7.70317 1.19708C7.70207 1.18277 7.70122 1.17034 7.70055 1.15962C7.70951 1.16555 7.71984 1.1725 7.73169 1.18061C7.81804 1.23973 7.93429 1.32525 8.11756 1.46037Z" stroke="#111111" stroke-width="2"/>
</svg>
