<?xml version="1.0" encoding="UTF-8" standalone="no"?>
<!-- Created with Inkscape (http://www.inkscape.org/) -->

<svg
   version="1.1"
   id="svg2"
   width="1000"
   height="666.66669"
   viewBox="0 0 1000 666.66669"
   sodipodi:docname="5127313.eps"
   xmlns:inkscape="http://www.inkscape.org/namespaces/inkscape"
   xmlns:sodipodi="http://sodipodi.sourceforge.net/DTD/sodipodi-0.dtd"
   xmlns="http://www.w3.org/2000/svg"
   xmlns:svg="http://www.w3.org/2000/svg">
  <defs
     id="defs6">
    <clipPath
       clipPathUnits="userSpaceOnUse"
       id="clipPath210">
      <path
         d="m 2530.38,3469.72 c 0,-396.81 -321.68,-718.5 -718.5,-718.5 -396.82,0 -718.51,321.69 -718.51,718.5 0,396.82 321.69,858.03 718.51,858.03 396.82,0 718.5,-461.21 718.5,-858.03 z"
         id="path208" />
    </clipPath>
  </defs>
  <sodipodi:namedview
     id="namedview4"
     pagecolor="#ffffff"
     bordercolor="#000000"
     borderopacity="0.25"
     inkscape:showpageshadow="2"
     inkscape:pageopacity="0.0"
     inkscape:pagecheckerboard="0"
     inkscape:deskcolor="#d1d1d1" />
  <g
     id="g8"
     inkscape:groupmode="layer"
     inkscape:label="ink_ext_XXXXXX"
     transform="matrix(1.3333333,0,0,-1.3333333,0,666.66667)">
    <g
       id="g10"
       transform="scale(0.1)">
      <path
         d="M 7500,0 H 0 V 5000 H 7500 V 0"
         style="fill:#ffffff;fill-opacity:1;fill-rule:nonzero;stroke:none"
         id="path12" />
      <path
         d="M 6716.88,1292.8 C 6456.77,898.23 6010.78,666.301 5538.18,666.301 H 1615.67 c -788.428,0 -1230.537,921.829 -719.221,1440.899 511.311,519.07 59.684,962.4 848.361,1378.64 764.07,403.26 1024.93,-456.31 1728.82,106.13 703.88,562.43 1728.66,509.37 1953.81,-63.67 225.15,-573.06 172.09,-774.73 649.63,-902.05 477.55,-127.32 944.47,-848.95 657.95,-1305.26 -5.97,-9.52 -12.01,-18.91 -18.14,-28.19"
         style="fill:#afc5dd;fill-opacity:1;fill-rule:nonzero;stroke:none"
         id="path14" />
      <path
         d="M 6542.51,1132.85 C 6129.29,1097.8 5850.73,323.23 4817.73,788.801 c 0,0 113.43,338.129 621.56,548.909 508.11,210.76 1103.22,-204.86 1103.22,-204.86"
         style="fill:#bfd9f3;fill-opacity:1;fill-rule:nonzero;stroke:none"
         id="path16" />
      <path
         d="m 4958.79,846.801 c 107.84,56.07 219.71,104.41 333.94,146.449 28.43,10.93 57.25,20.75 86.17,30.32 28.78,9.98 57.94,18.8 87.05,27.82 29.01,9.34 58.54,16.94 87.97,24.92 14.72,3.91 29.39,8.08 44.19,11.79 l 44.48,10.67 44.6,10.22 44.91,8.85 44.92,8.82 c 14.98,2.87 30.1,5.1 45.19,7.39 30.21,4.46 60.3,9.52 90.73,12.43 30.39,3.16 60.6,7.54 91.18,8.68 121.69,8.83 244.74,6.83 364.73,-13.47 -121.55,2.94 -242.05,-4.25 -361.57,-18.98 l -22.43,-2.55 -22.32,-3.43 -44.68,-6.52 c -29.83,-3.82 -59.38,-9.81 -88.99,-15.16 -14.77,-2.89 -29.67,-4.97 -44.42,-8.04 l -44.22,-9.18 -44.19,-9.2 -43.94,-10.52 -44.04,-10.07 c -14.65,-3.5 -29.19,-7.47 -43.79,-11.18 l -43.77,-11.32 c -14.61,-3.7 -29.01,-8.23 -43.59,-12.05 -29.08,-7.98 -58.22,-15.779 -87.04,-24.752 C 5361,979.961 5331.94,971.73 5303.18,962.5 5187.83,926.559 5073.5,887 4958.79,846.801"
         style="fill:#a0b8ce;fill-opacity:1;fill-rule:nonzero;stroke:none"
         id="path18" />
      <path
         d="M 6593.09,2451 C 6088.89,2090.59 6322.13,882.77 4639.54,692.602 c 0,0 -112.32,521.028 379.7,1179.628 492.02,658.59 1573.85,578.77 1573.85,578.77"
         style="fill:#d0e8f8;fill-opacity:1;fill-rule:nonzero;stroke:none"
         id="path20" />
      <path
         d="m 4751.48,838.121 c 73.39,158.988 163.97,310.189 265.87,453.329 101.61,143.42 215.53,278.38 339.61,403.38 124.24,124.77 258.85,239.83 404.52,339.14 145.23,99.29 301.9,184.72 469,237.95 -155.1,-81.32 -298.81,-177.98 -435.31,-284 -135.99,-106.6 -264.58,-222.23 -386.41,-344.68 -121.91,-122.41 -236.8,-251.8 -346.14,-386.18 -109.01,-134.73 -211.46,-274.958 -311.14,-418.939"
         style="fill:#bfd9f3;fill-opacity:1;fill-rule:nonzero;stroke:none"
         id="path22" />
      <path
         d="m 1154.08,1240.5 c 409.74,-64.06 633.05,-856.32 1696.27,-464.648 0,0 -89.33,345.278 -581.35,591.298 C 1776.98,1613.17 1154.08,1240.5 1154.08,1240.5"
         style="fill:#bfd9f3;fill-opacity:1;fill-rule:nonzero;stroke:none"
         id="path24" />
      <path
         d="m 2713.73,843.629 c -111.59,48.18 -222.85,95.703 -335.39,139.672 -28.04,11.23 -56.44,21.489 -84.61,32.279 -28.12,10.97 -56.65,20.81 -85.09,30.81 -14.27,4.84 -28.31,10.38 -42.62,15.09 l -42.87,14.37 c -14.3,4.74 -28.53,9.72 -42.89,14.25 l -43.22,13.14 -43.09,13.6 -43.45,12.28 -43.46,12.28 c -14.49,4.09 -29.21,7.21 -43.73,11.14 -29.17,7.42 -58.22,15.47 -87.71,21.39 l -44.11,9.65 -22.03,4.99 -22.18,4.12 c -118.19,23.11 -237.9,38.78 -359.34,44.4 121.12,11.8 244.01,5.14 364.77,-12.25 30.42,-3.29 60.25,-9.78 90.34,-15.07 30.15,-5.05 59.81,-12.23 89.63,-18.79 14.89,-3.35 29.82,-6.64 44.56,-10.56 l 44.18,-11.96 44.19,-11.99 43.76,-13.33 43.63,-13.79 c 14.49,-4.74 28.83,-9.93 43.25,-14.87 28.79,-10.03 57.71,-19.69 85.99,-31.05 28.41,-11.05 56.87,-21.9 84.88,-33.88 28.16,-11.58 56.22,-23.41 83.81,-36.31 110.99,-49.99 219.18,-106.08 322.8,-169.611"
         style="fill:#a0b8ce;fill-opacity:1;fill-rule:nonzero;stroke:none"
         id="path26" />
      <path
         d="m 1426.46,2506.46 c 454.01,-375.53 151.96,-1505.33 1734.89,-1798.319 0,0 141.4,486.589 -281.11,1144.099 -422.51,657.51 -1453.78,654.22 -1453.78,654.22"
         style="fill:#d0e8f8;fill-opacity:1;fill-rule:nonzero;stroke:none"
         id="path28" />
      <path
         d="M 3064.94,853.621 C 2979.38,996.52 2891.29,1136.12 2796.75,1271 c -94.91,134.54 -195.23,264.8 -302.59,388.99 -107.28,124.22 -221.34,242.47 -342.92,352.84 -122.12,109.83 -251.61,211.37 -392.9,299.54 155.24,-60.99 298.44,-152.24 429.74,-255.97 131.75,-103.78 251.85,-221.9 361.37,-348.61 109.36,-126.9 208.33,-262.66 294.88,-405.69 86.87,-142.74 162.33,-292.45 220.61,-448.479"
         style="fill:#bfd9f3;fill-opacity:1;fill-rule:nonzero;stroke:none"
         id="path30" />
      <path
         d="m 4096.5,1454.69 c -56.83,-67.5 -108.35,-179.4 -140.32,-197.16 -31.97,-17.76 -85.88,-23.94 -136.82,-187.91 -50.94,-163.972 206.25,-141.518 206.25,-141.518 0,0 109.97,63.16 154.37,215.748 l 110.13,97.69 -193.61,213.15"
         style="fill:#f6878d;fill-opacity:1;fill-rule:nonzero;stroke:none"
         id="path32" />
      <path
         d="m 3897.55,946.07 c 0,0 83.24,27.11 153.85,101.68 70.87,74.87 80.01,208.05 80.01,208.05 l 33.94,-63.43 67.9,72.57 32.73,3.17 24.13,-26.57 -110.13,-97.69 c -44.4,-152.588 -154.37,-215.748 -154.37,-215.748 0,0 -70.9,-6.153 -130.87,11.707 1.54,3.871 2.81,6.261 2.81,6.261"
         style="fill:#f14262;fill-opacity:1;fill-rule:nonzero;stroke:none"
         id="path34" />
      <path
         d="m 4482.08,2041.97 c -78.78,-57.59 -125.78,-99.37 -164.95,-177.71 -39.17,-78.34 -284.65,-359.8 -300.31,-384.89 -15.68,-25.1 137.95,-291.47 260.91,-356.75 0,0 185.64,214.14 292.71,295.09 107.06,80.95 70.51,368.21 20.89,464.83 -49.62,96.62 -109.25,159.43 -109.25,159.43"
         style="fill:#4a69bb;fill-opacity:1;fill-rule:nonzero;stroke:none"
         id="path36" />
      <path
         d="m 4479.21,1523.67 v 159.89 c 0,0 20.84,8.34 37.1,-45.62 6.49,-21.59 5.99,-44.29 3.09,-63.83 l 119.53,89.88 c 4.94,-100.62 -11.22,-202.97 -68.49,-246.28 -107.07,-80.95 -292.71,-295.09 -292.71,-295.09 -31.72,16.84 -65.47,47.12 -97.84,83.12 75.59,75.27 219,220.55 299.32,317.93"
         style="fill:#3556ae;fill-opacity:1;fill-rule:nonzero;stroke:none"
         id="path38" />
      <path
         d="m 3715.53,991.262 c -20.45,-6.383 -35.54,-16.153 -35.54,-41.903 0,-25.757 4.44,-66.609 14.2,-82.589 9.77,-15.989 60.22,-25.571 60.22,-25.571 0,0 -3.37,106.383 -14.03,125.922 -10.66,19.539 -24.85,24.141 -24.85,24.141"
         style="fill:#f6878d;fill-opacity:1;fill-rule:nonzero;stroke:none"
         id="path40" />
      <path
         d="m 3694.19,866.77 c -2.74,4.492 -5.02,11.062 -6.95,18.601 10.95,-10.762 14.63,-10.84 28.03,-12.25 l 38.3,-11.949 c 0.59,-11.973 0.84,-19.973 0.84,-19.973 0,0 -50.45,9.582 -60.22,25.571"
         style="fill:#f14262;fill-opacity:1;fill-rule:nonzero;stroke:none"
         id="path42" />
      <path
         d="m 3764.36,1030.18 c -24.87,-2.67 -49.74,-21.32 -49.74,-47.071 0,-25.757 -8.88,-97.699 0,-109.238 8.88,-11.551 52.4,-44.41 67.5,-47.07 15.1,-2.672 40.73,1.769 37.24,9.769 -3.49,7.989 -55,193.61 -55,193.61"
         style="fill:#f6878d;fill-opacity:1;fill-rule:nonzero;stroke:none"
         id="path44" />
      <path
         d="m 3710.85,893.199 c 18.85,-21.277 67.06,-19.367 67.06,-19.367 0,0 21.19,-22.633 23.81,-29.891 1.57,-4.402 10.25,-10.179 11.43,-14.652 -7.96,-3.039 -21.57,-4.16 -31.03,-2.488 -14.81,2.609 -56.84,34.199 -66.85,46.32 l -4.42,20.027 c 0,0.012 0,0.032 0,0.051"
         style="fill:#f14262;fill-opacity:1;fill-rule:nonzero;stroke:none"
         id="path46" />
      <path
         d="m 3857.53,1072.67 c -76.3,-4.31 -90.51,-11.41 -93.17,-42.49 -2.67,-31.09 -0.89,-121.668 8.87,-144.77 9.78,-23.09 15.1,-43.519 27.54,-55.949 12.43,-12.43 31.04,-12.481 31.04,-12.481 0,0 41.78,61.329 43.56,112.829 1.77,51.523 -17.84,142.861 -17.84,142.861"
         style="fill:#f6878d;fill-opacity:1;fill-rule:nonzero;stroke:none"
         id="path48" />
      <path
         d="m 3813.64,868.012 c 3.87,21.09 12.45,43.578 13.54,114.168 0.41,26.52 25,-111.969 14.02,-149.981 -5.47,-9.437 -9.39,-15.219 -9.39,-15.219 0,0 -18.61,0.051 -31.04,12.481 -12.44,12.43 -17.76,32.859 -27.54,55.949 -0.63,1.5 -1.23,3.32 -1.79,5.352 4.98,-12.953 20.79,-21.453 42.2,-22.75"
         style="fill:#f14262;fill-opacity:1;fill-rule:nonzero;stroke:none"
         id="path50" />
      <path
         d="m 4024.57,916.488 c -4.8,-42.437 -60.39,-57.718 -66.61,-79.027 -6.21,-21.32 -1.78,-40.859 -12.43,-46.18 -10.66,-5.332 -55.06,19.528 -53.28,47.949 0,0 -11.56,-23.98 -37.31,-28.421 -25.75,-4.43 -31.97,14.382 -27.53,42.722 4.44,28.34 3.56,43.43 2.67,77.168 -0.89,33.75 -8.89,64.84 6.21,102.141 15.1,37.3 35.53,70.16 76.38,63.94 40.85,-6.21 65.72,-57.73 87.92,-75.49 22.2,-17.75 29.3,-57.731 23.98,-104.802"
         style="fill:#f6878d;fill-opacity:1;fill-rule:nonzero;stroke:none"
         id="path52" />
      <path
         d="m 3892.25,839.23 c 2.49,53.969 5.3,98.141 5.3,106.84 0,8.719 -2.81,66 17.55,69.48 3.08,0.52 47.87,-27.851 48.74,-46.999 0.87,-19.16 0,-53.539 -13.93,-63.332 -13.92,-9.797 -57.66,-65.989 -57.66,-65.989"
         style="fill:#f14262;fill-opacity:1;fill-rule:nonzero;stroke:none"
         id="path54" />
      <path
         d="m 5742.96,1926.93 c -80.95,102.72 -108.81,113.17 -192.37,161.91 -83.57,48.75 -400.42,172.35 -465.71,188.03 -65.28,15.66 -328.59,-107.08 -414.99,-146.25 -86.39,-39.16 -196.34,-77.71 -215.07,-115.88 -62.7,-127.8 61.49,-308.91 62.14,-688.43 0.34,-198.78 45.64,-645.771 45.64,-645.771 0,0 994.95,-1.867 1008.87,19.031 13.94,20.891 48.75,734.68 66.17,880.92 17.41,146.24 105.32,346.44 105.32,346.44"
         style="fill:#4a69bb;fill-opacity:1;fill-rule:nonzero;stroke:none"
         id="path56" />
      <path
         d="m 4458.48,1814.64 c -7.46,24.03 -11.89,48.49 -15.62,73.06 -3.41,24.61 -6.08,49.33 -5.71,74.49 7.48,-24.03 11.9,-48.49 15.6,-73.06 3.39,-24.62 6.08,-49.33 5.73,-74.49"
         style="fill:#3556ae;fill-opacity:1;fill-rule:nonzero;stroke:none"
         id="path58" />
      <path
         d="m 4830.54,1964.15 c -38.44,14.36 -129.51,-10.61 -146.16,-16.41 -16.66,-5.79 9.79,65.38 19.58,74.18 9.79,8.82 25.46,29.34 55.49,20.05 30.03,-9.27 55.28,-43.66 59.63,-54.98 4.35,-11.31 11.46,-22.84 11.46,-22.84"
         style="fill:#3556ae;fill-opacity:1;fill-rule:nonzero;stroke:none"
         id="path60" />
      <path
         d="m 5150.84,1904.74 c -13.71,0.65 -93.69,37.43 -112.83,46.57 -19.15,9.14 -105.91,13.41 -164.16,-2.87 0,0 112.15,75.77 177.43,75.11 65.28,-0.65 90.1,-24.15 95.31,-45.04 5.23,-20.89 4.25,-73.77 4.25,-73.77"
         style="fill:#3556ae;fill-opacity:1;fill-rule:nonzero;stroke:none"
         id="path62" />
      <path
         d="m 4723.13,840.59 c 10.68,10.449 660.45,-10.449 673.51,57.449 13.06,67.891 22.04,191.371 22.04,191.371 -78.22,-41.78 -191.79,-24.38 -191.79,-24.38 75.74,24.73 185.41,148.98 190.64,185.55 16.09,112.62 -44.08,423.14 -44.08,423.14 l 44.08,88.69 51.58,28.73 c 0,0 97.8,-48.71 181.44,-138.31 -5.65,-24.79 -10.17,-49.24 -12.91,-72.34 -16.42,-137.88 -48.3,-780.131 -63.57,-870.67 -201.26,-7.422 -566.08,-20.781 -810.2,-29.16 -118.28,-0.281 -201.27,-0.121 -201.27,-0.121 0,0 -1.53,58.793 -5.08,143.102 68.1,3.988 158.98,10.468 165.61,16.949"
         style="fill:#3556ae;fill-opacity:1;fill-rule:nonzero;stroke:none"
         id="path64" />
      <path
         d="m 4855.08,1945.21 c 70.11,8.45 182.8,69.2 227.2,48.32 44.39,-20.89 54.83,-74.43 63.97,-83.57 9.14,-9.14 48.31,36.56 48.31,148.85 0,112.29 3.45,227.27 -79.23,242.9 -82.67,15.63 -296.81,-65.32 -339.9,-97.97 -43.09,-32.64 -61.37,-65.7 -73.12,-97.48 -11.75,-31.78 -43.08,-159.74 -28.73,-161.05 14.37,-1.3 54.85,82.26 84.88,84.88 30.03,2.61 77.63,-87.17 96.62,-84.88"
         style="fill:#4a69bb;fill-opacity:1;fill-rule:nonzero;stroke:none"
         id="path66" />
      <path
         d="m 4815.2,2045.75 c -17.89,42.43 -37.47,79.65 -36.81,109.03 0.65,29.38 7.18,49.61 39.82,58.76 32.64,9.14 46.35,-8.49 48.31,-52.89 1.96,-44.39 -51.32,-114.9 -51.32,-114.9"
         style="fill:#3556ae;fill-opacity:1;fill-rule:nonzero;stroke:none"
         id="path68" />
      <path
         d="m 5071.15,2124.86 c 68.25,61.91 75.98,131.12 69.57,145.47 -6.41,14.37 -34.6,24.82 -34.6,24.82 0,0 -11.1,-45.05 -4.57,-56.16 6.53,-11.09 -30.4,-114.13 -30.4,-114.13"
         style="fill:#3556ae;fill-opacity:1;fill-rule:nonzero;stroke:none"
         id="path70" />
      <path
         d="m 4962.51,1975.21 c 16.63,7.47 33.98,13.29 51.68,18.09 17.78,4.33 36.04,7.77 55.02,6.54 9.36,-0.7 19.42,-2.74 27.79,-9.36 7.38,-6.97 13,-13.27 19.28,-20.43 12.43,-14.12 21,-31.26 28.88,-47.38 1.74,-3.71 4.49,-8.08 5.7,-8.47 0.15,-0.06 0.08,-0.28 1.49,0.59 1.18,0.83 2.55,2.26 3.8,3.82 5.09,6.52 9.26,14.64 13.33,22.56 8.22,15.63 12.63,32.95 16.13,50.6 3.4,17.65 5.36,35.67 6.63,53.74 1.55,18.06 2.07,36.23 2.31,54.44 3.59,-36.26 3.65,-72.98 -1.38,-109.45 -2.43,-18.19 -6.99,-36.55 -15.2,-53.51 -4.05,-8.31 -8.17,-16.51 -14.17,-24.46 -1.59,-1.97 -3.3,-3.96 -5.82,-5.78 -1.21,-0.91 -2.87,-1.77 -4.85,-2.25 -2.07,-0.49 -4.56,-0.15 -6.41,0.72 -3.74,1.88 -5.32,4.39 -6.84,6.52 -1.44,2.19 -2.58,4.32 -3.65,6.42 -7.9,16.55 -15.73,32.35 -27.23,45.83 -5.49,6.69 -11.94,14.07 -17.6,19.75 -5.92,4.93 -14.39,7.38 -22.95,8.46 -17.38,2.06 -35.54,-0.35 -53.2,-3.67 -17.81,-3.14 -35.33,-7.98 -52.74,-13.32"
         style="fill:#3556ae;fill-opacity:1;fill-rule:nonzero;stroke:none"
         id="path72" />
      <path
         d="m 4801.75,1998.62 c -7.57,6.7 -15.09,13.39 -23.3,18.95 -4.06,2.78 -8.21,5.45 -12.48,7.27 -2.16,0.83 -4.24,1.47 -6.19,1.72 -0.86,-0.09 -1.78,-0.01 -2.47,-0.22 -0.63,-0.43 -1.01,-0.26 -2.24,-1.17 -16.84,-10.38 -29.94,-24.65 -41.08,-40.98 -5.65,-7.87 -10.6,-16.89 -17.27,-25.06 -3.34,-4.05 -6.89,-7.98 -11.39,-11.46 -2.35,-1.63 -4.73,-3.53 -8.94,-4.03 -2.02,-0.34 -4.84,0.53 -6.55,2.05 -1.71,1.56 -2.56,3.33 -3.05,4.85 -1.84,6.18 -1.25,11.33 -0.76,16.56 0.64,5.16 1.55,10.19 2.71,15.16 2.5,9.88 5.26,19.6 8.81,29.09 -1.35,-10.03 -3.16,-19.93 -3.98,-29.9 -0.55,-4.96 -0.93,-9.91 -1.01,-14.78 -0.02,-4.74 0.08,-9.94 1.51,-13.33 0.31,-0.86 0.79,-1.31 0.96,-1.43 0.24,0.02 0,-0.07 0.5,0.07 0.84,0.08 2.81,1.21 4.4,2.59 3.33,2.83 6.47,6.53 9.33,10.4 5.89,7.59 10.61,16.34 16.52,24.92 5.94,8.39 12.44,16.52 19.99,23.75 7.54,7.22 16.27,13.41 25.28,18.19 0.83,0.57 2.93,1.33 4.64,1.81 1.73,0.34 3.42,0.15 5.03,0.06 3.04,-0.61 5.67,-1.7 8.1,-2.99 4.73,-2.68 8.79,-5.92 12.65,-9.33 7.48,-7.06 14.36,-14.52 20.28,-22.76"
         style="fill:#3556ae;fill-opacity:1;fill-rule:nonzero;stroke:none"
         id="path74" />
      <path
         d="m 4805.61,2300.81 c 0.15,-27.59 1.26,-55.1 4.12,-82.55 7.04,-67.32 0.14,-156.12 5.47,-172.51 5.93,-18.28 41.19,-83.56 41.19,-83.56 0,0 62.67,28.73 88.79,60.06 26.11,31.33 60.05,32.93 105.76,79.14 45.7,46.21 76.77,119.61 66.59,180.7 -1.31,7.83 -9.33,86.03 -11.1,166.99 -1.77,80.95 -86.83,142.46 -167.79,142.46 -80.94,0 -129.41,-120.12 -131.94,-201.08 -1.05,-33.21 -1.23,-64.42 -1.09,-89.65"
         style="fill:#f6878d;fill-opacity:1;fill-rule:nonzero;stroke:none"
         id="path76" />
      <path
         d="m 5106.43,2449.08 c 1.77,-80.96 9.79,-159.16 11.1,-166.99 3.14,-18.89 2.33,-38.96 -1.62,-59.02 -17.91,-3.3 -248.47,-8.87 -308.2,18.94 -1.36,19.56 -1.99,39.16 -2.1,58.8 -0.14,25.23 0.04,56.44 1.09,89.65 1.07,34.32 10.43,75.65 26.98,111.91 l 189.66,67.22 c 46.55,-24.83 81.95,-68.62 83.09,-120.51"
         style="fill:#f14262;fill-opacity:1;fill-rule:nonzero;stroke:none"
         id="path78" />
      <path
         d="m 4663.58,2786.17 c -122.5,0 -168.33,-94.1 -168.33,-164.62 0,-63.29 20.29,-164.62 168.33,-164.62 74.04,0 124.15,73.7 124.15,164.62 0,90.92 -50.11,164.62 -124.15,164.62"
         style="fill:#4b4791;fill-opacity:1;fill-rule:nonzero;stroke:none"
         id="path80" />
      <path
         d="m 4658.17,2745.85 c -92.5,0 -127.11,-71.05 -127.11,-124.3 0,-47.79 15.32,-124.3 127.11,-124.3 55.91,0 93.75,55.65 93.75,124.3 0,68.65 -37.84,124.3 -93.75,124.3"
         style="fill:#302a5e;fill-opacity:1;fill-rule:nonzero;stroke:none"
         id="path82" />
      <path
         d="m 4509.04,2730.61 c 7.23,-42.93 28.48,-59.34 37.97,-117.2 9.49,-57.86 -15.82,-141.95 21.93,-215.18 37.74,-73.23 98.77,-169.52 134.03,-173.58 35.26,-4.07 317.66,43.63 412.96,233.11 27.34,54.39 85.8,267.68 35.78,397.91 -50.03,130.24 -131.4,249.58 -319.45,253.2 -188.06,3.62 -361.58,-150.79 -323.22,-378.26"
         style="fill:#f6878d;fill-opacity:1;fill-rule:nonzero;stroke:none"
         id="path84" />
      <path
         d="m 4666.32,2495.99 c 10.05,-0.24 21.07,3.59 26.03,10.18 4.34,5.77 6.15,13.37 4.87,20.47 -14.7,-12.11 -32.73,-14.2 -50.82,-11.04 -2.24,-13.5 8.17,-19.34 19.92,-19.61"
         style="fill:#f14262;fill-opacity:1;fill-rule:nonzero;stroke:none"
         id="path86" />
      <path
         d="m 4998.99,2730.61 c -7.15,44.64 -36.99,70.41 -36.99,70.41 0,0 -71.87,29.83 -127.48,35.25 -55.6,5.43 -112.57,21.7 -112.57,21.7 0,0 17.64,-44.64 47.47,-63.68 0,0 -132.91,6.73 -174.95,46.06 0,0 8.15,-32.42 16.28,-54.18 0,0 -65.1,6.71 -85.44,32.48 0,0 -16.27,-56.75 -16.27,-88.04 0,0 -78.21,107.02 -58.32,192.01 19.9,84.99 47.01,117.54 47.01,117.54 0,0 -56.05,-5.43 -86.79,0 0,0 72.33,63.28 126.58,104.87 54.25,41.59 216.98,43.4 216.98,43.4 0,0 -12.65,43.4 1.81,112.11 0,0 69.62,-102.17 143.31,-133.36 73.68,-31.19 63.76,-28.54 141.88,-48.26 78.14,-19.72 152.41,-69.73 183.6,-111.77 31.19,-42.04 65.1,-85.44 85.44,-92.21 0,0 -48.83,6.77 -73.24,27.12 0,0 40.71,-92.46 -13.1,-211.45 -53.8,-119 -188.59,-83.79 -214.74,-57.52 -26.13,26.27 -10.47,57.52 -10.47,57.52"
         style="fill:#d1544e;fill-opacity:1;fill-rule:nonzero;stroke:none"
         id="path88" />
      <path
         d="m 5009.46,2673.09 c -26.13,26.27 -10.47,57.52 -10.47,57.52 -4.32,27 -16.94,47.05 -26.24,58.71 19.56,118.6 11.59,241.68 -23.15,356.75 20.3,-8.24 32.35,-11.94 61.75,-19.5 36.07,-54.26 63.05,-115.32 81.63,-177.18 23.66,-78.76 35.12,-163.84 13.05,-243.06 -5.66,-20.31 -13.91,-40.12 -24.35,-58.67 -33.45,2.79 -61.67,14.83 -72.22,25.43"
         style="fill:#913634;fill-opacity:1;fill-rule:nonzero;stroke:none"
         id="path90" />
      <path
         d="m 5046.28,2774.8 c 0,0 9.3,297.45 -146.66,392.38 0,0 120.69,13.56 189.86,-107.14 69.16,-120.69 64.48,-224.22 62.75,-282.24 -1.75,-58.01 -105.95,-3 -105.95,-3"
         style="fill:#4b4791;fill-opacity:1;fill-rule:nonzero;stroke:none"
         id="path92" />
      <path
         d="m 5093.83,2786.17 c 122.5,0 168.34,-94.1 168.34,-164.62 0,-63.29 -20.29,-164.62 -168.34,-164.62 -74.04,0 -124.14,73.7 -124.14,164.62 0,90.92 50.1,164.62 124.14,164.62"
         style="fill:#4b4791;fill-opacity:1;fill-rule:nonzero;stroke:none"
         id="path94" />
      <path
         d="m 5027.78,2621.55 c 0,80.71 53.28,146.14 119.01,146.14 65.71,0 115.38,-65.43 115.38,-146.14 0,-80.71 -49.67,-146.14 -115.38,-146.14 -65.73,0 -119.01,65.43 -119.01,146.14"
         style="fill:#302a5e;fill-opacity:1;fill-rule:nonzero;stroke:none"
         id="path96" />
      <path
         d="m 5081.51,2621.55 c 0,54.92 36.25,99.45 80.98,99.45 44.73,0 80.99,-44.53 80.99,-99.45 0,-54.93 -36.26,-99.45 -80.99,-99.45 -44.73,0 -80.98,44.52 -80.98,99.45"
         style="fill:#4b4791;fill-opacity:1;fill-rule:nonzero;stroke:none"
         id="path98" />
      <path
         d="m 4783.33,2456.93 c -33.1,-18.22 -141.23,-24.3 -148.58,-23.29 -7.36,1.02 7.74,-81.08 34.22,-84.12 26.49,-3.05 79.45,4.04 101.52,25.31 22.06,21.26 12.84,82.1 12.84,82.1"
         style="fill:#f14262;fill-opacity:1;fill-rule:nonzero;stroke:none"
         id="path100" />
      <path
         d="m 4776.42,2433 c -2.04,7.27 -3.64,13.12 -5.18,18.81 -36.42,-12.44 -108.11,-17.69 -130.2,-18.23 1.8,-10.97 4.96,-22.09 9.43,-32.99 0.7,0.45 -0.17,-1.06 0.53,-0.61 47.72,-7.51 96.27,7.96 125.42,33.02"
         style="fill:#ffffff;fill-opacity:1;fill-rule:nonzero;stroke:none"
         id="path102" />
      <path
         d="m 4768.74,2653.19 c 0,14.98 7.39,27.13 16.5,27.13 9.12,0 16.51,-12.15 16.51,-27.13 0,-14.98 -7.39,-27.12 -16.51,-27.12 -9.11,0 -16.5,12.14 -16.5,27.12"
         style="fill:#391e4f;fill-opacity:1;fill-rule:nonzero;stroke:none"
         id="path104" />
      <path
         d="m 4579.94,2640.54 c 0,14.98 6.35,27.12 14.19,27.12 7.83,0 14.18,-12.14 14.18,-27.12 0,-14.98 -6.35,-27.13 -14.18,-27.13 -7.84,0 -14.19,12.15 -14.19,27.13"
         style="fill:#391e4f;fill-opacity:1;fill-rule:nonzero;stroke:none"
         id="path106" />
      <path
         d="m 4861.12,2758.93 c -11.27,6.21 -23.41,10.49 -35.87,14.07 -12.51,3.36 -25.48,5.33 -38.66,5.8 -13.08,0.65 -26.94,1.02 -39.62,-3.88 -12.7,-4.38 -24.24,-12.37 -32.73,-22.89 l 0.97,-1.62 c 13.62,1.47 24.87,4.81 36.75,6.39 11.61,1.74 22.88,5.98 35.01,6.96 24.02,2.04 49.18,0.14 73.39,-6.55 l 0.76,1.72"
         style="fill:#391e4f;fill-opacity:1;fill-rule:nonzero;stroke:none"
         id="path108" />
      <path
         d="m 4532.22,2723.88 c 5.89,2.28 12.08,3.71 18.24,4.43 6.14,0.82 12.28,1.12 18.37,1.2 6.13,0.08 12.22,-2.11 18.2,-0.65 3.02,0.68 6.1,1.26 9.24,2.58 3.16,1.07 6.4,2.47 9.86,4.9 l 0.2,1.87 c -5.9,5.76 -12.58,8.22 -19.37,9.46 -6.84,1.28 -13.62,-1.46 -20.2,-3.27 -6.62,-1.72 -13.1,-4.03 -19.19,-7.15 -5.99,-3.32 -11.85,-6.79 -16.51,-11.89 l 1.16,-1.48"
         style="fill:#391e4f;fill-opacity:1;fill-rule:nonzero;stroke:none"
         id="path110" />
      <path
         d="m 4723.13,776.23 c 0.07,-4.199 -5.81,-10.269 -20.16,-10.269 -14.37,0 -400.64,0 -452.87,0 -52.23,0 -64.42,20.648 -48.74,46.758 15.66,26.133 81.82,83.582 245.47,123.621 163.65,40.039 249.69,-53.59 276.3,-95.75 19.51,-30.93 0,-64.36 0,-64.36"
         style="fill:#4b4791;fill-opacity:1;fill-rule:nonzero;stroke:none"
         id="path112" />
      <path
         d="m 4197.5,804.879 c 9.01,-29.949 354.56,-14.328 354.56,-14.328 0,0 -35.04,47.328 -73.77,48.679 -38.74,1.36 -57.58,-12.109 -109.52,-21.05 -51.95,-8.93 -13.44,21.152 -13.44,21.152 0,0 -36.7,8.117 -51.64,19.699 0,0 85.6,25.301 121.51,31.18 35.89,5.859 127.3,1.949 139.05,0 8.31,-1.391 50.49,23.098 101.45,10.809 28.46,-20.801 47.28,-44.348 57.43,-60.43 19.51,-30.93 0,-64.36 0,-64.36 0.07,-4.199 -5.81,-10.269 -20.16,-10.269 -14.37,0 -400.64,0 -452.87,0 -46.86,0 -61.41,16.648 -52.6,38.918"
         style="fill:#302a5e;fill-opacity:1;fill-rule:nonzero;stroke:none"
         id="path114" />
      <path
         d="m 5675.51,1059.38 c 0,0 -322.05,-49.81 -496.61,-81.04 -165.36,-29.59 -308.15,-42.442 -348.63,-34.602 -40.48,7.832 -178.88,58.752 -223.28,77.032 -44.39,18.28 -133.18,28.73 -178.87,14.37 -45.71,-14.37 -83.14,-30.03 -101.42,-30.03 -18.27,0 -14.8,-29.598 9.58,-35.7 24.37,-6.09 46.13,-5.219 46.13,-5.219 0,0 -82.69,-45.261 -97.49,-49.621 -14.79,-4.351 2.74,-31.328 22.76,-29.59 0,0 -17.53,-10.449 -11.44,-20.89 6.09,-10.449 49.61,-10.449 49.61,-10.449 0,0 -53.1,-26.11 -8.7,-36.559 44.39,-10.441 97.49,39.168 119.26,43.527 21.75,4.352 72.24,1.731 96.62,-16.55 24.37,-18.27 128.83,-102.707 271.58,-52.219 0,0 968.96,-39.258 1065.59,-39.258 96.62,0 154.98,85.387 123.99,249.908 -30.98,164.52 -91.05,287.26 -91.05,287.26 l -334.25,-23.5 86.62,-206.87"
         style="fill:#f6878d;fill-opacity:1;fill-rule:nonzero;stroke:none"
         id="path116" />
      <path
         d="m 4458.7,990.34 c 8.53,2.012 15.33,3.191 19.59,3.449 0,0 -8.27,-1.43 -19.59,-3.449"
         style="fill:#f14262;fill-opacity:1;fill-rule:nonzero;stroke:none"
         id="path118" />
      <path
         d="m 4382.41,964.191 c 0,0 -21.76,-0.871 -46.13,5.219 -6.86,1.711 -11.99,5.32 -15.53,9.559 27.11,-11.981 60.48,-4.328 78.75,0.019 11.54,2.754 39.85,7.91 59.2,11.352 -19.38,-4.551 -47.79,-13.449 -76.29,-26.149"
         style="fill:#f14262;fill-opacity:1;fill-rule:nonzero;stroke:none"
         id="path120" />
      <path
         d="m 4386.68,925.02 c 2.09,0.949 3.86,1.691 5,2.039 0,0 -1.89,-0.758 -5,-2.039"
         style="fill:#f14262;fill-opacity:1;fill-rule:nonzero;stroke:none"
         id="path122" />
      <path
         d="m 4285.09,895.191 c 0.31,-0.293 9.87,-8.722 29.99,0.039 16.76,7.29 57.43,23.989 71.6,29.79 -17.83,-8.098 -66.14,-35.36 -79,-40.04 -8.9,-0.769 -17.29,4.129 -22.59,10.211"
         style="fill:#f14262;fill-opacity:1;fill-rule:nonzero;stroke:none"
         id="path124" />
      <path
         d="m 4335.1,863.211 c 14.79,4.359 45.7,23.078 64.63,32.019 18.93,8.95 43.09,9.989 43.09,9.989 0,0 -7.19,-0.66 -26.12,-9.989 -18.93,-9.332 -70.85,-41.589 -70.85,-41.589 0,0 -27.92,0.007 -42.16,5.39 0.15,0 16.67,-0.14 31.41,4.18"
         style="fill:#f14262;fill-opacity:1;fill-rule:nonzero;stroke:none"
         id="path126" />
      <path
         d="m 4610.61,841.891 c 27.41,-16.981 108.36,-39.172 156.68,-30.032 48.31,9.141 58.75,49.61 58.75,49.61 l 13.5,-43.52 c 0,0 672,-19.148 808.66,-13.008 135.1,6.079 345.81,9.149 373.33,90.289 -7.55,-94.179 -58.57,-142.648 -131.33,-142.648 -96.63,0 -1065.59,39.258 -1065.59,39.258 -142.75,-50.488 -247.21,33.949 -271.58,52.219 -20.27,15.211 -58.53,19.55 -83.38,18.089 h 0.01 c 37.07,12.993 113.52,-3.277 140.95,-20.257"
         style="fill:#f14262;fill-opacity:1;fill-rule:nonzero;stroke:none"
         id="path128" />
      <path
         d="m 5675.51,1059.38 c 0,0 125.9,17.1 151.14,19.71 l -19.15,78.34 -159.3,-32.21 27.31,-65.84"
         style="fill:#f14262;fill-opacity:1;fill-rule:nonzero;stroke:none"
         id="path130" />
      <path
         d="m 6011.98,1278.67 c 4.74,-12.26 1.73,-26.05 -7.67,-35.23 -58.52,-57.14 -135.34,-134.96 -214.34,-146.94 -86.18,-13.05 -229.8,-18.28 -237.65,0 -7.83,18.29 -36.55,250.7 -88.78,368.22 -52.23,117.51 -86.18,177.57 -99.23,245.47 -13.06,67.9 104.45,227.19 156.69,240.25 52.22,13.06 172.35,20.89 221.96,-23.51 49.62,-44.39 86.18,-214.14 143.63,-342.1 46.36,-103.25 104.62,-252.41 125.39,-306.16"
         style="fill:#4a69bb;fill-opacity:1;fill-rule:nonzero;stroke:none"
         id="path132" />
      <path
         d="m 5688.75,1952.71 c -16,1.84 -31.98,3.17 -48,3.52 -15.98,0.64 -31.97,0.6 -47.88,-0.34 -15.9,-0.97 -31.73,-2.56 -47.31,-5.36 -7.84,-1.25 -15.52,-3.07 -23.23,-4.8 -7.16,-2.61 -14.56,-4.51 -21.16,-8.63 -7.02,-3.15 -13.12,-8.12 -19.57,-12.41 -5.86,-5.18 -12.13,-9.88 -17.49,-15.68 -11.48,-10.79 -21.14,-23.44 -30.95,-35.94 -9.56,-12.73 -18.24,-26.16 -26.49,-39.87 -8.5,-13.58 -16.04,-27.73 -23.39,-42.06 10.79,30.38 25.71,59.27 43.6,86.37 9.1,13.44 18.97,26.48 30.51,38.17 5.42,6.17 12.07,11.19 18.2,16.7 6.84,4.7 13.27,10 20.94,13.57 7.19,4.34 15.49,6.54 23.46,9.26 8,1.68 15.95,3.6 24.04,4.63 16.14,2.32 32.38,3.84 48.61,3.7 32.41,0.07 64.8,-3.07 96.11,-10.83"
         style="fill:#3556ae;fill-opacity:1;fill-rule:nonzero;stroke:none"
         id="path134" />
      <path
         d="m 5946.78,1230.56 c -0.43,41.73 -88.54,424.24 -166.37,637.45 v 0 c 33.09,-72.85 64,-189.24 106.18,-283.18 46.36,-103.25 104.62,-252.41 125.39,-306.16 4.74,-12.26 1.73,-26.05 -7.67,-35.23 -22.42,-21.89 -47.53,-46.79 -74.41,-69.89 2.02,1.97 17.28,18.05 16.88,57.01"
         style="fill:#3556ae;fill-opacity:1;fill-rule:nonzero;stroke:none"
         id="path136" />
      <path
         d="m 1746.24,1661.49 c -1.59,-12.87 1.1,-25.84 7.35,-37.2 22.79,-41.45 34.34,-89.07 32.85,-136.35 -0.99,-31.15 -7.39,-63.03 1.1,-93.03 14.63,-51.75 69.25,-83.75 86.83,-134.58 15.58,-45.06 1.09,-101.72 33.47,-136.71 8.03,-8.67 20.49,-15.31 31.47,-10.91 5.5,2.2 9.63,6.8 13.55,11.26 37.13,42.16 76.88,93.41 65.43,148.41 -10.76,51.68 -64.02,86.6 -74.11,138.41 -8.24,42.34 13.4,91.16 -10.86,126.83 -6.69,9.84 -16.27,17.36 -23.58,26.76 -28.85,37.03 -18.16,96.06 -51.4,129.21 -10.83,10.81 -24.39,16.95 -39.17,20.1 -34.84,7.45 -68.55,-16.82 -72.93,-52.19 v -0.01"
         style="fill:#d34c58;fill-opacity:1;fill-rule:nonzero;stroke:none"
         id="path138" />
      <path
         d="m 1957.4,1004.92 c 2.23,27.56 3.18,55.14 4.21,82.79 -1.26,27.55 -2.73,55.12 -5.09,82.67 -2.36,27.54 -5.46,55.09 -10.33,82.47 -4.95,27.21 -11.49,55.01 -22.93,80.59 -20,50.55 -36.16,103.43 -52.49,155.81 l -23.69,78.98 c -9.74,25.8 -19.23,51.65 -28.41,77.69 4.03,-27.39 10.29,-54.29 15.79,-81.38 l 23.73,-79.15 c 16.43,-52.66 32.44,-105.19 52.93,-157.01 11.08,-24.78 17.21,-50.99 22.13,-77.82 4.76,-26.81 7.83,-54.02 10.17,-81.3 2.29,-27.29 3.9,-54.68 4.94,-82.1 l 9.04,-82.24"
         style="fill:#f6859c;fill-opacity:1;fill-rule:nonzero;stroke:none"
         id="path140" />
      <path
         d="m 1811.88,1563.6 c 4.55,-6.88 10.4,-12.04 16.69,-16.6 3.23,-2.16 7.02,-3.57 10.54,-5.35 3.57,-1.71 6.69,-4.01 9.59,-6.63 l 1.25,-1.13 1.12,1.71 c 2.63,4.02 5.82,7.75 8.34,11.82 2.43,4.12 4.98,8.18 7.14,12.42 4.21,8.57 7.33,17.66 8.92,27.51 l -0.78,0.39 c -6.89,-7.22 -12.24,-15.21 -16.52,-23.74 -2.09,-4.28 -3.77,-8.77 -5.58,-13.19 -1.73,-4.47 -2.77,-9.28 -4.38,-13.8 l 2.38,0.58 c -3.36,1.99 -6.49,4.29 -9.17,7.2 -2.73,2.83 -5.19,6.02 -8.21,8.46 -6.2,4.66 -12.85,8.72 -20.8,11.05 l -0.53,-0.7"
         style="fill:#f6859c;fill-opacity:1;fill-rule:nonzero;stroke:none"
         id="path142" />
      <path
         d="m 1818.57,1469.38 c 4.74,-3.91 9.62,-8.13 14.74,-11.66 5.11,-3.61 10.29,-7.09 15.91,-9.9 5.67,-2.72 11.69,-4.87 17.14,-7.97 5.48,-3.02 10.48,-6.84 15.37,-10.82 l 1.72,-1.39 1.75,2.27 c 7.55,9.9 14.01,20.42 20.12,31.14 5.74,10.94 10.85,22.22 14.53,34.32 l -0.76,0.43 c -8.47,-9.39 -15.5,-19.6 -21.9,-30.15 -6.03,-10.76 -11.71,-21.72 -16.3,-33.31 l 3.47,0.88 c -5.73,2.67 -11.36,5.47 -16.52,9.04 -5.19,3.5 -9.82,7.92 -14.83,11.74 -5.06,3.74 -10.57,6.76 -16.21,9.57 -5.71,2.74 -11.37,5.4 -18.04,6.65 l -0.19,-0.84"
         style="fill:#f6859c;fill-opacity:1;fill-rule:nonzero;stroke:none"
         id="path144" />
      <path
         d="m 1852.06,1345 c 5.19,-5.23 10.98,-9.09 16.95,-12.57 5.89,-3.63 12.37,-6.04 19.26,-7.66 6.88,-1.67 13.1,-4.7 18.64,-8.94 5.54,-4.2 10.95,-8.83 16.48,-12.46 l 4.18,-2.73 3.11,4.65 c 4.58,6.87 8.74,13.96 11.97,21.57 3.25,7.59 6.12,15.4 7.73,23.89 l -0.96,0.53 c -6.32,-5.91 -11.37,-12.51 -16.05,-19.32 -4.69,-6.8 -8.46,-14.11 -11.8,-21.66 l 7.29,1.92 c -6.32,3.48 -13.04,5.49 -19.69,7.82 -6.65,2.28 -12.71,5.58 -18.18,10.13 -5.43,4.62 -11.39,8.26 -17.93,10.65 -6.49,2.52 -13.2,4.56 -20.54,5.17 l -0.46,-0.99"
         style="fill:#f6859c;fill-opacity:1;fill-rule:nonzero;stroke:none"
         id="path146" />
      <path
         d="m 2001.25,999.531 c 21.53,3.549 102.3,29.389 96.66,50.469 -24.21,90.52 -48.42,193.21 35.42,237.49 40.35,21.3 90.99,32.13 113.96,71.55 23.66,40.6 6.24,92.21 -15,134.13 -21.23,41.93 -46.79,86.8 -37.7,132.91 9.54,48.28 55.19,83.9 62.49,132.57 9.98,66.45 -54.55,119.99 -116.53,145.93 -21.09,8.83 -44.26,16.37 -66.48,11.01 -15.87,-3.83 -29.63,-14.01 -40.52,-26.18 -43.54,-48.69 -41.76,-122.14 -31.82,-186.69 9.94,-64.57 25.15,-132.74 0.82,-193.36 -17.27,-43.06 -54.23,-83.56 -44.33,-128.88 3.96,-18.16 15.29,-34 19.6,-52.07 11.64,-48.72 -28.84,-92.62 -47.39,-139.15 -23.94,-60.04 -7.51,-133.41 37.87,-178.97 8.63,-8.66 20.87,-12.739 32.95,-10.759 v 0"
         style="fill:#f35a6c;fill-opacity:1;fill-rule:nonzero;stroke:none"
         id="path148" />
      <path
         d="m 1993.62,998.531 c 4.99,35.839 9.98,71.539 16.37,106.979 1.51,8.87 3.37,17.68 4.8,26.54 1.35,8.88 2.14,17.82 3.61,26.67 2.67,17.75 5.66,35.42 9.05,53 6.83,35.12 15.01,70.08 27.02,103.32 6.01,16.55 13.16,32.75 22.59,46.72 4.68,6.95 10.21,13.13 16.33,17.29 8.07,5.31 15.77,12.13 21.79,20.27 12.42,16.45 16.17,37.37 15.72,56.21 -0.42,19.1 -4.03,37.33 -8.07,55.14 -8.3,35.55 -18.75,69.89 -24.56,104.86 -5.9,34.78 -7.05,70.43 2.14,103.8 2.83,8.14 5.05,16.43 7.73,24.72 2.73,8.26 6.29,16.28 10.3,24.14 8.04,15.72 18.54,30.36 30.16,44.26 -14.25,-11.17 -27.46,-24.09 -38.49,-39.03 -5.53,-7.43 -10.72,-15.26 -15.13,-23.56 -4.56,-8.22 -8.42,-16.96 -10.42,-26.19 -10.05,-36.52 -8.62,-74.76 -2.5,-110.86 6.05,-36.28 16.68,-71.14 24.75,-105.82 3.95,-17.32 7.3,-34.72 7.65,-51.74 0.36,-16.95 -2.92,-33.5 -12.5,-46.17 -4.74,-6.35 -10.68,-11.74 -17.66,-16.34 -8.83,-6.02 -15.37,-13.72 -20.78,-21.65 -10.76,-15.98 -18.17,-33.12 -24.5,-50.41 -12.5,-34.65 -20.76,-70.19 -27.72,-105.85 -3.43,-17.83 -6.45,-35.73 -9.16,-53.66 -1.23,-8.98 -2.91,-17.9 -3.99,-26.9 -0.92,-9.03 -1.32,-18.11 -1.9,-27.15 -1.95,-36.22 -3.3,-72.4 -2.63,-108.589"
         style="fill:#f6859c;fill-opacity:1;fill-rule:nonzero;stroke:none"
         id="path150" />
      <path
         d="m 2136.69,1705.07 c -6.2,-2.16 -11.4,-5.78 -16.22,-9.63 -4.77,-3.93 -9.33,-8.08 -12.69,-13.34 -3.4,-5.22 -6.43,-10.73 -10.79,-15.02 -4.19,-4.44 -9.25,-8.06 -14.1,-11.95 l 6.38,-0.4 c -2.15,4.64 -4.81,8.98 -7.24,13.43 -2.52,4.41 -5.04,8.8 -8.01,12.89 -2.8,4.19 -6,8.14 -9.03,12.16 -3.07,4.04 -6.52,7.76 -9.3,12.03 l -1.08,-0.18 c -0.23,-5.65 1.47,-10.88 3.2,-15.82 1.89,-4.91 4,-9.68 6.55,-14.18 2.38,-4.6 5.4,-8.78 8.45,-12.92 3.15,-4.09 6.15,-8.23 9.76,-12.02 l 4,-4.2 2.39,3.8 c 3.27,5.18 6.42,10.57 10.5,15.08 3.9,4.68 9.22,8.05 14.24,11.64 5.05,3.56 9.03,8.1 12.94,12.72 3.88,4.69 7.49,9.51 10.74,15.06 l -0.69,0.85"
         style="fill:#f6859c;fill-opacity:1;fill-rule:nonzero;stroke:none"
         id="path152" />
      <path
         d="m 2058.38,1568.02 c 2.56,-6.16 5.92,-11.79 9.65,-17.06 3.82,-5.21 7.78,-10.29 12.34,-14.82 4.66,-4.43 10,-8.22 15,-12.3 4.9,-4.18 9.22,-8.88 13.15,-14.02 l 1.24,-1.63 1.76,1.41 c 6.53,5.19 11.7,9.92 16.84,15.45 4.87,5.56 10.06,10.84 14.59,16.62 4.57,5.75 8.83,11.72 12.88,17.85 4.09,6.12 7.76,12.51 12.02,18.48 l -0.62,0.91 c -7.15,-3.38 -12.71,-8.62 -18.25,-13.61 -5.43,-5.12 -10.47,-10.56 -15.15,-16.28 -4.71,-5.67 -8.72,-11.89 -13.11,-17.79 -4.27,-5.77 -7.88,-12.95 -11.95,-18.01 l 3.01,-0.22 c -4.95,4.06 -9.43,8.64 -13.27,13.78 -3.75,5.24 -7.11,10.82 -11.05,15.83 -4.04,4.93 -8.64,9.34 -13.21,13.78 -4.66,4.36 -9.6,8.46 -15.01,12.3 l -0.86,-0.67"
         style="fill:#f6859c;fill-opacity:1;fill-rule:nonzero;stroke:none"
         id="path154" />
      <path
         d="m 2202.41,1462.21 c -6.8,-7.98 -13.85,-15.34 -21.06,-22.37 -7.23,-7.04 -15,-13.19 -22.55,-19.97 -7.71,-6.54 -16.44,-12.4 -26.33,-15.29 -9.81,-3.1 -20.22,-3.49 -30.25,-3.37 l 4.49,-3.16 c -1.77,8.45 -4.4,16.42 -7.17,24.49 -2.72,8.05 -6.21,15.87 -10.41,23.33 -4.16,7.49 -9.1,14.64 -14.92,21.09 -5.92,6.28 -12.78,12.19 -20.97,15.12 l -0.55,-0.95 c 6.2,-5.61 10.98,-12.09 15.13,-19.01 4.22,-6.86 7.8,-14.11 11.31,-21.41 l 10.08,-22.24 c 3.31,-7.46 6.23,-15.23 9.13,-22.77 l 1.41,-3.64 3.09,0.48 c 10.69,1.68 20.82,5.29 30.73,8.78 9.79,3.82 19.86,7.18 29.5,12.11 9.73,4.76 17.93,12.15 24.8,20.37 6.87,8.24 12.46,17.61 15.52,27.92 l -0.98,0.49"
         style="fill:#f6859c;fill-opacity:1;fill-rule:nonzero;stroke:none"
         id="path156" />
      <path
         d="m 2007.64,1381.24 c -3.29,-7.93 -4.43,-16.57 -4.21,-25.13 0.36,-8.54 1.71,-17.16 4.7,-25.22 3.15,-8 7.77,-15.35 12.93,-22.01 l 15.08,-20.03 1.07,-1.43 1.74,1.23 c 8.15,5.8 17.43,10.2 26.27,14.81 8.83,4.74 17.99,8.8 27.15,12.69 9.14,3.95 18.28,7.94 27.67,11.47 9.32,3.83 18.92,6.87 28.65,10.53 l -0.17,1.09 c -20.77,0.45 -41.75,-3.96 -60.85,-12.37 -9.58,-4.18 -18.59,-9.55 -27.31,-15.21 -8.69,-5.8 -16.44,-12.78 -24.03,-19.98 l 2.81,-0.19 c -5.58,5.88 -10.67,12.39 -13.92,19.86 -3.61,7.29 -5.4,15.23 -7.88,22.66 -4.81,15 -7.87,30.44 -8.63,46.98 l -1.07,0.25"
         style="fill:#f6859c;fill-opacity:1;fill-rule:nonzero;stroke:none"
         id="path158" />
      <path
         d="m 1854.8,765.961 h 230.57 c 21.39,0 39.59,18.488 42.81,43.531 l 36.5,283.628 c 3.99,31.02 -16.3,58.97 -42.82,58.97 h -303.55 c -26.52,0 -46.81,-27.95 -42.82,-58.97 l 36.5,-283.628 c 3.22,-25.043 21.41,-43.531 42.81,-43.531"
         style="fill:#4b4791;fill-opacity:1;fill-rule:nonzero;stroke:none"
         id="path160" />
      <path
         d="m 1818.31,1152.09 h 155.19 c -26.52,0 -46.81,-27.95 -42.82,-58.97 l 36.5,-283.628 c 3.22,-25.043 21.41,-43.531 42.81,-43.531 H 1854.8 c -21.4,0 -39.59,18.488 -42.81,43.531 l -36.5,283.628 c -3.99,31.02 16.3,58.97 42.82,58.97"
         style="fill:#302a5e;fill-opacity:1;fill-rule:nonzero;stroke:none"
         id="path162" />
      <path
         d="m 3920.12,843.852 h -964.3 c -9.72,0 -17.59,-7.872 -17.59,-17.59 v -42.723 c 0,-9.707 7.87,-17.578 17.59,-17.578 h 964.3 v 77.891"
         style="fill:#1d1a3b;fill-opacity:1;fill-rule:nonzero;stroke:none"
         id="path164" />
      <path
         d="M 4168.28,790.121 V 772.75 c 0,-3.762 -3.05,-6.789 -6.8,-6.789 h -242.91 c -7.55,0 -13.68,6.121 -13.68,13.68 v 50.597 c 0,8.172 7.11,14.532 15.23,13.614 l 242.13,-46.981 c 3.43,-0.402 6.03,-3.301 6.03,-6.75"
         style="fill:#4b4791;fill-opacity:1;fill-rule:nonzero;stroke:none"
         id="path166" />
      <path
         d="m 2234.91,2482.81 h 1802.26 c 36.46,0 69,-22.87 81.36,-57.18 l 394.15,-1094.58 c 16.48,-56.46 -24.82,-98.75 -91.2,-105.9 -10.17,-1.1 -58.58,20.66 -134.6,56.42 H 2675.65 c -36.46,0 -69,22.87 -81.36,57.18 l -356.06,988.78 c -60.2,31.43 -94.51,49.38 -94.51,49.38 0,0 -22.29,105.9 91.19,105.9"
         style="fill:#4b4791;fill-opacity:1;fill-rule:nonzero;stroke:none"
         id="path168" />
      <path
         d="M 3980.74,2426.39 H 2178.49 c -25.6,0 -43.45,-25.39 -34.77,-49.48 l 394.15,-1094.59 c 12.35,-34.3 44.9,-57.17 81.36,-57.17 h 1802.25 c 25.61,0 43.45,25.39 34.78,49.48 l -394.15,1094.58 c -12.35,34.31 -44.9,57.18 -81.37,57.18"
         style="fill:#302a5e;fill-opacity:1;fill-rule:nonzero;stroke:none"
         id="path170" />
      <path
         d="m 3573.87,1225.15 -80,296.72 -303.22,-296.72 z"
         style="fill:#1d1a3b;fill-opacity:1;fill-rule:nonzero;stroke:none"
         id="path172" />
      <path
         d="m 3135.07,2041.97 c 7.92,-48.93 39.59,-68.65 77.51,-68.65 37.92,0 66.45,31.32 59.81,68.65 -6.64,37.33 -39.6,68.66 -77.52,68.66 -37.92,0 -65.87,-31.22 -59.8,-68.66"
         style="fill:#4b4791;fill-opacity:1;fill-rule:nonzero;stroke:none"
         id="path174" />
      <path
         d="m 3982.07,1407.29 -23.17,64.36 h 29.13 l 23.17,-64.36 h -29.13"
         style="fill:#1d1a3b;fill-opacity:1;fill-rule:nonzero;stroke:none"
         id="path176" />
      <path
         d="m 3920.72,1407.29 -23.17,64.36 h 29.13 l 23.17,-64.36 h -29.13"
         style="fill:#1d1a3b;fill-opacity:1;fill-rule:nonzero;stroke:none"
         id="path178" />
      <path
         d="m 3859.38,1407.29 -23.18,64.36 h 29.13 l 23.19,-64.36 h -29.14"
         style="fill:#1d1a3b;fill-opacity:1;fill-rule:nonzero;stroke:none"
         id="path180" />
      <path
         d="m 3798.04,1407.29 -23.18,64.36 h 29.13 l 23.18,-64.36 h -29.13"
         style="fill:#1d1a3b;fill-opacity:1;fill-rule:nonzero;stroke:none"
         id="path182" />
      <path
         d="m 2926.68,1407.29 -23.17,64.36 h 29.13 l 23.18,-64.36 h -29.14"
         style="fill:#1d1a3b;fill-opacity:1;fill-rule:nonzero;stroke:none"
         id="path184" />
      <path
         d="m 2865.34,1407.29 -23.18,64.36 h 29.13 l 23.18,-64.36 h -29.13"
         style="fill:#1d1a3b;fill-opacity:1;fill-rule:nonzero;stroke:none"
         id="path186" />
      <path
         d="m 2803.99,1407.29 -23.17,64.36 h 29.13 l 23.18,-64.36 h -29.14"
         style="fill:#1d1a3b;fill-opacity:1;fill-rule:nonzero;stroke:none"
         id="path188" />
      <path
         d="m 2742.65,1407.29 -23.18,64.36 h 29.13 l 23.18,-64.36 h -29.13"
         style="fill:#1d1a3b;fill-opacity:1;fill-rule:nonzero;stroke:none"
         id="path190" />
      <path
         d="m 2965.29,871.742 c 17.78,51.129 233.45,747.048 233.45,747.048 h 276.84 l 18.29,-96.92 c 0,0 -185.62,-598.999 -203.41,-650.128 -1.35,-3.902 -2.64,-7.812 -3.85,-11.73 h 0.02 c -16.27,-50 26.65,-49.793 74.98,-49.793 48.34,0 488.23,0 488.23,0 v -44.258 h -488.23 -325.17 c -97.83,0 -88.94,54.648 -71.15,105.781"
         style="fill:#302a5e;fill-opacity:1;fill-rule:nonzero;stroke:none"
         id="path192" />
      <path
         d="m 3475.58,1618.79 c 0,0 -215.67,-695.919 -233.45,-747.048 -17.79,-51.133 -26.68,-105.781 71.15,-105.781 H 2988.1 c -97.83,0 -88.94,54.648 -71.15,105.781 17.79,51.129 233.45,747.048 233.45,747.048 h 325.18"
         style="fill:#4b4791;fill-opacity:1;fill-rule:nonzero;stroke:none"
         id="path194" />
      <path
         d="m 3407.78,1618.79 c -21.45,0.99 -42.89,1.47 -64.34,2.18 -21.45,0.73 -42.9,0.9 -64.35,1.36 -21.44,0.35 -42.89,0.97 -64.34,0.98 l -64.34,0.4 -3.59,0.02 -1.12,-3.49 c -8.97,-28.02 -17.81,-56.09 -26.23,-84.28 l -25.66,-84.47 c -16.51,-56.5 -33.04,-112.98 -48.13,-169.92 19.81,55.47 38.19,111.39 56.59,167.3 l 26.7,84.14 c 9.03,28.01 17.65,56.14 26.13,84.31 l -4.69,-3.45 64.34,0.4 c 21.45,0 42.9,0.62 64.34,0.96 21.45,0.48 42.9,0.64 64.35,1.38 21.45,0.69 42.89,1.19 64.34,2.18"
         style="fill:#7268bb;fill-opacity:1;fill-rule:nonzero;stroke:none"
         id="path196" />
      <path
         d="m 1521.77,595.109 h 4773.44 c 47.17,0 85.42,38.25 85.42,85.43 v 0 c 0,47.18 -38.25,85.422 -85.42,85.422 H 1521.77 c -47.18,0 -85.42,-38.242 -85.42,-85.422 v 0 c 0,-47.18 38.24,-85.43 85.42,-85.43"
         style="fill:#963f53;fill-opacity:1;fill-rule:nonzero;stroke:none"
         id="path198" />
      <path
         d="m 1521.77,595.109 h 4773.44 c 47.17,0 85.42,38.25 85.42,85.43 v 0 H 1436.35 v 0 c 0,-47.18 38.24,-85.43 85.42,-85.43"
         style="fill:#632643;fill-opacity:1;fill-rule:nonzero;stroke:none"
         id="path200" />
      <path
         d="m 2530.38,3469.72 c 0,-396.81 -321.68,-718.5 -718.5,-718.5 -396.82,0 -718.51,321.69 -718.51,718.5 0,396.82 321.69,718.51 718.51,718.51 396.82,0 718.5,-321.69 718.5,-718.51"
         style="fill:#4a69bb;fill-opacity:1;fill-rule:nonzero;stroke:none"
         id="path202" />
      <g
         id="g204">
        <g
           id="g206"
           clip-path="url(#clipPath210)">
          <path
             d="m 2822.18,2896.33 c 13.65,-68.56 -49.82,-129.49 -69.69,-140.92 -19.88,-11.43 -153.25,-64.75 -233.36,-66.65 -80.12,-1.9 -185.84,167.57 -142.57,186.62 43.28,19.04 338.06,39.98 370.43,39.98 32.37,0 75.19,-19.03 75.19,-19.03"
             style="fill:#f9a8be;fill-opacity:1;fill-rule:nonzero;stroke:none"
             id="path212" />
          <path
             d="m 2612.08,2932.5 c -34.96,-205.65 -118.01,-365.61 -143.92,-368.47 -25.91,-2.85 -274.87,82.84 -343.51,114.26 -68.63,31.42 21.08,514.09 63.8,505.59 42.71,-8.5 136.35,-101.23 213.68,-145.69 77.33,-44.47 209.95,-105.69 209.95,-105.69"
             style="fill:#ffffff;fill-opacity:1;fill-rule:nonzero;stroke:none"
             id="path214" />
          <path
             d="m 2202.02,2847.01 c 24,-41.17 221.84,-145.49 330.8,-183.51 -26.93,-60.74 -52.3,-98.1 -64.66,-99.47 -22.19,-2.44 -207.88,60.03 -303.88,97.76 8.04,76.42 37.74,185.22 37.74,185.22"
             style="fill:#d0eefb;fill-opacity:1;fill-rule:nonzero;stroke:none"
             id="path216" />
          <path
             d="m 2822.47,2905.84 c 1.95,-81.59 -71.54,-93.31 -159.51,-72.36 -87.97,20.95 -231.62,218.99 -295.56,308.49 -63.94,89.49 -183.25,248.98 -207.92,263.25 -24.67,14.29 -81.25,21.86 -129.66,102.34 -48.41,80.47 15.27,249 38.14,268.99 22.88,20 218.92,-46.76 241.69,-80.51 22.78,-33.74 -16.12,-215.12 -9.22,-237.97 6.9,-22.85 173.75,-209.47 246.59,-255.17 72.85,-45.7 274.03,-238.03 275.45,-297.06"
             style="fill:#f9a8be;fill-opacity:1;fill-rule:nonzero;stroke:none"
             id="path218" />
          <path
             d="m 2168.37,3641.91 c -23.05,11.42 -28.63,63.31 -14.12,54.17 14.5,-9.15 39.88,-8.95 74.2,-8.47 34.33,0.48 48.41,3.43 48.41,3.43 0,0 3.51,-22.48 3.33,-40.9 0,0 -88.76,-19.66 -111.82,-8.23"
             style="fill:#f46986;fill-opacity:1;fill-rule:nonzero;stroke:none"
             id="path220" />
          <path
             d="m 2015.71,3630.11 c 13.98,25.99 24.77,45.7 24.77,45.7 L 2175.35,3546 c 36.88,31.98 81.99,61.16 81.99,61.16 l 11.87,-21.16 c -21.82,-36.92 -40.83,-115 -41.26,-134.04 0,0 -20.71,-22.85 -32.27,-24.75 0,0 144.28,-228.51 237.03,-340.86 92.2,-111.69 155.35,-208.29 198.82,-239.34 -87.7,50.56 -207.32,215.45 -264.13,294.96 -63.94,89.49 -183.25,248.98 -207.92,263.25 -24.67,14.29 -81.25,21.86 -129.66,102.34 -19.2,31.92 -20.64,77.68 -14.11,122.55"
             style="fill:#f46986;fill-opacity:1;fill-rule:nonzero;stroke:none"
             id="path222" />
          <path
             d="m 2296.42,3617.08 c -1.64,-13.32 -135.65,-129.49 -149.68,-142.83 -1.05,-0.99 -11.53,-2.53 -14.41,0 -35.64,31.32 -191.27,313.93 -194.04,324.13 -2.6,9.51 100.72,106.72 132.26,132.73 4.3,3.54 22,1.4 24.9,-2.9 31.84,-47.15 203.08,-293.93 200.97,-311.13"
             style="fill:#101428;fill-opacity:1;fill-rule:nonzero;stroke:none"
             id="path224" />
          <path
             d="m 2282.01,3617.08 c -1.63,-13.32 -135.65,-129.49 -149.68,-142.83 -14.02,-13.33 -205.45,313.1 -208.45,324.13 -2.6,9.51 112.43,105.15 143.98,131.15 4.29,3.54 10.28,2.98 13.19,-1.32 31.84,-47.15 203.07,-293.93 200.96,-311.13"
             style="fill:#2c3686;fill-opacity:1;fill-rule:nonzero;stroke:none"
             id="path226" />
          <path
             d="m 2259.45,3636.17 c -1.53,-12.45 -126.9,-121.14 -140.03,-133.61 -13.12,-12.47 -192.19,292.91 -195.01,303.23 -2.42,8.89 105.18,98.36 134.7,122.69 4.02,3.32 9.63,2.79 12.34,-1.23 29.79,-44.11 189.98,-274.98 188,-291.08"
             style="fill:#48b0e7;fill-opacity:1;fill-rule:nonzero;stroke:none"
             id="path228" />
          <path
             d="m 2179.07,3795.46 c -20.75,12.51 -46.23,54.88 -48.52,69.16 -2.29,14.28 -0.88,27.14 10.28,29.99 11.15,2.86 45.5,-41.89 62.62,-55.22 17.12,-13.33 37.97,-40.94 29.47,-59.51 -8.49,-18.56 -46.53,-11.42 -50.61,-8.57 -4.07,2.86 -3.24,24.15 -3.24,24.15"
             style="fill:#f9a8be;fill-opacity:1;fill-rule:nonzero;stroke:none"
             id="path230" />
          <path
             d="m 2134.4,3890.86 c -6.58,-16.24 36.3,-81.4 73.89,-100.16 l -13.98,-15.97 c 0,0 -6.34,1.4 -14.49,3.33 -1.11,7.23 -0.75,17.4 -0.75,17.4 -20.74,12.51 -46.23,54.88 -48.52,69.16 -1.74,10.83 -1.3,20.79 3.85,26.24"
             style="fill:#f46986;fill-opacity:1;fill-rule:nonzero;stroke:none"
             id="path232" />
          <path
             d="m 2227.32,3729.62 c -35.7,19.08 -63.71,16.94 -83.13,24.79 -19.42,7.86 -22.95,37.85 -9.74,42.85 13.22,5 93.69,-7.86 114.44,-17.14 20.74,-9.28 30.66,-52.04 30.66,-52.04 l -52.23,1.54"
             style="fill:#f9a8be;fill-opacity:1;fill-rule:nonzero;stroke:none"
             id="path234" />
          <path
             d="m 2211.69,3751.87 c 20.19,-3.8 27.14,0 27.14,0 -0.58,-7.89 6.87,-11.82 15.26,-23.04 l -26.77,0.79 c -35.7,19.08 -63.71,16.94 -83.13,24.79 -8.86,3.59 -14.23,11.79 -16.4,20.1 8.65,-16.44 63.81,-18.84 83.9,-22.64"
             style="fill:#f46986;fill-opacity:1;fill-rule:nonzero;stroke:none"
             id="path236" />
          <path
             d="m 2309.65,3696.04 c -19.05,-26.36 -112.48,-14.94 -131.32,-12.08 -18.83,2.86 -30.65,14.75 -28.73,26.74 3.88,24.2 127.34,19.91 137.54,16.1 10.19,-3.81 22.51,-30.76 22.51,-30.76"
             style="fill:#f9a8be;fill-opacity:1;fill-rule:nonzero;stroke:none"
             id="path238" />
          <path
             d="m 2150.28,3704.88 c 12.76,-12.69 43.45,-19.92 76.94,-22.62 29,-2.34 45.67,-1.22 49.52,-0.88 -35.21,-5.61 -85.17,0.57 -98.41,2.58 -15.72,2.38 -26.03,11.13 -28.05,20.92"
             style="fill:#f46986;fill-opacity:1;fill-rule:nonzero;stroke:none"
             id="path240" />
          <path
             d="m 1872.41,3326.67 c 198.32,-100.92 230.86,-97.01 316.04,-142.79 85.17,-45.78 59.83,-527.49 54.42,-601.76 -5.4,-74.26 -25.93,-369.41 -14.61,-449.4 11.32,-79.98 55.39,-377.04 74.92,-422.73 19.52,-45.7 56.76,-122.83 -0.84,-168.52 -57.6,-45.71 -179.46,-77.13 -444.05,-60 -264.59,17.14 -549.8,179.96 -562.42,202.81 -12.62,22.85 126.48,442.73 132.3,522.71 5.82,79.98 21.62,139.96 30.03,177.09 8.41,37.14 -75.75,211.37 -89.21,322.77 -13.44,111.4 -134.47,418.7 -111.52,474.99 22.95,56.29 233.75,119.01 377.29,190.59 143.54,71.59 237.65,-45.76 237.65,-45.76"
             style="fill:#ffffff;fill-opacity:1;fill-rule:nonzero;stroke:none"
             id="path242" />
          <path
             d="m 2069.03,3201.77 c -32.65,-107.3 -99.12,-204.05 -187.58,-273.01 -107.4,26.35 -216.6,73.67 -304.55,140.71 98.29,-72.39 205.48,-133.28 320.24,-174.86 96.92,79.38 154.44,183.1 171.89,307.16"
             style="fill:#d0eefb;fill-opacity:1;fill-rule:nonzero;stroke:none"
             id="path244" />
          <path
             d="m 2028.54,3252.85 c -38.09,16.24 -87.03,38.66 -156.13,73.82 0,0 -94.11,117.35 -237.65,45.76 -49.81,-24.83 -107.7,-48.6 -163.05,-71.4 85.51,-145.48 224.06,-259.29 383.99,-313.4 84.33,66.41 144.97,161.57 172.84,265.22"
             style="fill:#f9a8be;fill-opacity:1;fill-rule:nonzero;stroke:none"
             id="path246" />
          <path
             d="m 1295.87,1684.28 c -12.62,22.85 126.48,442.73 132.3,522.71 5.82,79.97 21.62,139.96 30.03,177.09 8.41,37.14 -75.75,211.37 -89.21,322.77 -2.33,19.36 -7.96,44.71 -15.47,73.56 l 89.41,66.6 c 52.44,-146.27 85.15,-403.34 134.84,-466.18 49.7,-62.84 173.51,-88.54 173.51,-88.54 0,0 -122.29,-28.57 -175.61,-17.14 0,0 -56.93,-225.66 -57.57,-337.05 -0.64,-111.4 9.69,-279.93 11.01,-302.78 0.49,-8.52 -1.39,-38.27 -3.94,-72.18 -128.14,50.73 -222.17,108.24 -229.3,121.14"
             style="fill:#d0eefb;fill-opacity:1;fill-rule:nonzero;stroke:none"
             id="path248" />
          <path
             d="m 1657.28,3575.36 c -2.05,-119.2 -9.91,-201.08 -36.33,-223.93 0,0 45.42,-197.79 226.77,-180.9 61.35,5.72 55.51,108.54 24.69,156.14 l 18.26,146.2 -233.39,102.49"
             style="fill:#f9a8be;fill-opacity:1;fill-rule:nonzero;stroke:none"
             id="path250" />
          <path
             d="m 1634.76,3372.43 v 0 c 15.52,36.56 20.88,107.8 22.52,202.93 l 233.39,-102.49 -11.71,-93.75 v 0 c -41.37,-18.56 -244.2,-6.69 -244.2,-6.69"
             style="fill:#f46986;fill-opacity:1;fill-rule:nonzero;stroke:none"
             id="path252" />
          <path
             d="m 1395.43,2694.6 c 54.61,107.36 76.48,281.7 27.18,373.46 -49.29,91.76 -142.32,124.8 -165.14,113.78 -22.83,-11.01 -84.63,-154.15 -142.66,-220.22 -58.03,-66.07 -216.494,-251.42 -221.298,-267.02 -4.805,-15.6 114.538,-141.51 338.998,-233.98 26.72,-11.02 162.92,233.98 162.92,233.98"
             style="fill:#ffffff;fill-opacity:1;fill-rule:nonzero;stroke:none"
             id="path254" />
          <path
             d="m 1228.94,2611.36 -35.81,-73.43 c 0,0 176.4,176.84 249.63,308.8 -8.87,-55.05 -25.39,-109.01 -47.33,-152.13 0,0 -136.19,-245 -162.92,-233.98 -38.41,15.82 -73.49,32.64 -105.65,49.7 l 102.08,101.04"
             style="fill:#d0eefb;fill-opacity:1;fill-rule:nonzero;stroke:none"
             id="path256" />
          <path
             d="m 1904.16,3564.68 c -12.13,49.14 -11.87,99.39 -14.8,149.64 -2.19,37.56 -4.1,71.95 -38.2,94.43 -24.92,16.42 -56.17,19.64 -85.49,15.92 -78.8,-10 -95.75,-86.78 -89.72,-159.49 4.62,-55.65 26.36,-109.09 47.95,-160.28 -28.98,1.28 -68.55,16.47 -85.86,40.59 7.78,-31.74 22.5,-60.9 45.51,-83.35 -83.98,1.44 -161.93,56.4 -206.42,130.2 -44.48,73.8 -58.58,163.91 -53.84,250.77 5.62,103.08 37.76,206.41 101.52,285.77 128.24,159.63 375.3,178.24 525.75,41.06 51.72,-47.15 89.24,-110.37 108,-178.93 24.67,-90.13 24.16,-186.82 4.94,-277.98 -7.95,-37.75 -11.6,-70.42 -15.35,-108.22 -1.16,-11.72 -15.37,-147.78 -7.15,-147.28 -53.05,-3.22 -114,7.49 -149.94,48.04 16.11,-27.85 30.02,-54.68 46.13,-82.53 -66.99,11.14 -116.22,73.56 -133.03,141.64"
             style="fill:#302a5e;fill-opacity:1;fill-rule:nonzero;stroke:none"
             id="path258" />
          <path
             d="m 1628.87,3750.1 c -23.7,14.01 -52.19,21.61 -74.16,-0.69 -32.39,-32.84 13.62,-185.66 83.44,-148.53 0,0 101.11,-141.38 175.32,-181.37 74.22,-39.99 127.08,-20 154.87,8.57 27.79,28.56 122.56,145.72 139.61,269.92 6.08,44.28 -0.44,131.39 0.92,149.96 4.16,57.12 25.8,104.03 -19.27,148.86 -45.51,45.29 -108.56,72.69 -172.74,74.96 -80.83,2.85 -161.64,-33.48 -215.16,-94.11 -59.14,-67.01 -69.4,-142.66 -72.83,-227.57"
             style="fill:#f9a8be;fill-opacity:1;fill-rule:nonzero;stroke:none"
             id="path260" />
          <path
             d="m 1566.18,3707.65 c 6.04,27.99 29.92,33.51 47.68,14 18.21,-20 21.27,-83.33 16.59,-92.67 -4.68,-9.33 -35.96,-8.66 -41.89,10.67 -5.92,19.33 12.29,31.45 29.87,25.73 0,0 4.92,28.21 -9.46,46.38 -14.37,18.18 -29.34,11.22 -33.01,6.56 -3.68,-4.67 -9.78,-10.67 -9.78,-10.67"
             style="fill:#f46986;fill-opacity:1;fill-rule:nonzero;stroke:none"
             id="path262" />
          <path
             d="m 1759.46,3831.5 c 6.76,6.29 13.94,12.14 21.46,17.69 7.57,5.46 15.65,10.37 24.22,14.36 8.51,4.01 17.42,8.32 26.85,9.05 9.34,0.82 18.73,0.07 27.27,-3.61 l -0.11,-1.28 c -4.57,-1.83 -8.93,-3 -13.2,-4.24 l -12.6,-3.48 c -8.18,-2.41 -16.67,-3.14 -24.98,-5.91 -8.24,-2.74 -16.38,-6.26 -24.4,-10.29 -8.09,-3.94 -15.89,-8.62 -23.78,-13.3 l -0.73,1.01"
             style="fill:#391e4f;fill-opacity:1;fill-rule:nonzero;stroke:none"
             id="path264" />
          <path
             d="m 2075.36,3863.56 c -7.65,4.05 -15.75,7.01 -24.17,8.78 -8.37,1.87 -16.94,2.83 -25.54,3.04 -8.65,0.18 -17.24,-1.59 -25.78,-1.53 -8.61,-0.03 -17.25,-0.29 -26.71,0.66 l -0.27,1.23 c 8.09,5.87 17.31,9.05 26.6,10.85 9.37,1.89 18.75,0.34 27.8,-1.01 9.09,-1.33 17.95,-3.67 26.25,-7.13 8.24,-3.56 16.08,-7.98 22.61,-13.83 l -0.79,-1.06"
             style="fill:#391e4f;fill-opacity:1;fill-rule:nonzero;stroke:none"
             id="path266" />
          <path
             d="m 1844.27,3781.29 c -0.32,12.08 -6.4,21.3 -13.59,20.59 -7.18,-0.7 -12.76,-11.07 -12.44,-23.15 0.32,-12.08 6.4,-21.3 13.59,-20.6 7.19,0.71 12.75,11.07 12.44,23.16"
             style="fill:#391e4f;fill-opacity:1;fill-rule:nonzero;stroke:none"
             id="path268" />
          <path
             d="m 2035.05,3796.54 c -0.32,12.08 -5.34,21.41 -11.22,20.83 -5.87,-0.57 -10.38,-10.84 -10.07,-22.92 0.32,-12.08 5.35,-21.4 11.22,-20.83 5.87,0.58 10.39,10.84 10.07,22.92"
             style="fill:#391e4f;fill-opacity:1;fill-rule:nonzero;stroke:none"
             id="path270" />
          <path
             d="m 1904.01,3663.86 c 16.54,-11.5 40.92,-11.25 58.92,0.6 -2.05,-9.3 -6.21,-18.38 -15.26,-21.69 -9.06,-3.3 -19.06,-2.33 -27.39,1.49 -8.32,3.82 -11.01,12.19 -16.27,19.6"
             style="fill:#f46986;fill-opacity:1;fill-rule:nonzero;stroke:none"
             id="path272" />
          <path
             d="m 1837.81,3592.98 c 39.85,-0.65 135.63,6.71 166.86,11.15 -12.31,-40.37 -44.61,-80.23 -89.7,-80.25 -40.61,-0.03 -67.43,33.34 -77.16,69.1"
             style="fill:#ec1f32;fill-opacity:1;fill-rule:nonzero;stroke:none"
             id="path274" />
          <path
             d="m 1874.37,3537.06 c 15.84,4.88 31.96,2.37 38.44,0.37 0,0 21.07,14.74 51.69,5.06 -13.93,-11.25 -30.51,-18.6 -49.53,-18.61 -15.67,-0.01 -29.23,5.03 -40.6,13.18"
             style="fill:#f36480;fill-opacity:1;fill-rule:nonzero;stroke:none"
             id="path276" />
          <path
             d="m 1977.64,3570.37 c -40.33,-12.57 -84.35,-8.95 -122.34,4.74 -0.26,5.96 -0.71,11.97 -1.17,17.97 39.38,0.84 103.13,5.6 137.25,9.41 -2.94,-11.16 -7.37,-22.07 -13.74,-32.12"
             style="fill:#ffffff;fill-opacity:1;fill-rule:nonzero;stroke:none"
             id="path278" />
          <path
             d="m 1668.72,3881.56 c 64.98,2.77 129.45,17.08 189.5,42.07 11.43,26.43 11.82,49.89 13.53,78.63 16.33,-29.96 26.03,-63.49 27.71,-97.56 37.84,2.45 75.87,4.48 113.71,6.94 10.6,29.99 11.88,60.86 10.2,92.63 12.79,-29.84 19.22,-67.4 23.58,-99.56 22.84,8.12 51.79,-3.73 75.65,-8.01 29.57,65.88 27.64,185.24 -34.92,235.2 -60.93,48.67 -166.76,61.9 -241.21,51.13 -158.39,-22.93 -282.88,-154.44 -273.05,-318.29 5.6,-93.48 52.49,-181.86 119.73,-247.04 -39.97,79.75 -47.91,177.79 -24.43,263.86"
             style="fill:#302a5e;fill-opacity:1;fill-rule:nonzero;stroke:none"
             id="path280" />
        </g>
      </g>
      <path
         d="m 2825.54,3421.97 c 0,-230.76 187.06,-417.82 417.82,-417.82 230.76,0 417.83,187.06 417.83,417.82 0,230.76 -187.07,417.83 -417.83,417.83 -230.76,0 -417.82,-187.07 -417.82,-417.83"
         style="fill:#f35a6c;fill-opacity:1;fill-rule:nonzero;stroke:none"
         id="path282" />
      <path
         d="m 3037.23,3258.41 h 412.26 c 18.92,0 34.26,15.34 34.26,34.26 v 258.6 c 0,18.93 -15.34,34.27 -34.26,34.27 h -412.26 c -18.92,0 -34.26,-15.34 -34.26,-34.27 v -258.6 c 0,-18.92 15.34,-34.26 34.26,-34.26"
         style="fill:#d0e8f8;fill-opacity:1;fill-rule:nonzero;stroke:none"
         id="path284" />
      <path
         d="m 3037.23,3258.41 h 412.26 c 18.92,0 34.26,15.34 34.26,34.26 l -240.39,151.17 -240.39,-151.17 c 0,-18.92 15.34,-34.26 34.26,-34.26"
         style="fill:#bfd9f3;fill-opacity:1;fill-rule:nonzero;stroke:none"
         id="path286" />
      <path
         d="m 3037.23,3585.54 h 412.26 c 18.92,0 34.26,-15.34 34.26,-34.27 l -240.39,-151.16 -240.39,151.16 c 0,18.93 15.34,34.27 34.26,34.27"
         style="fill:#4a69bb;fill-opacity:1;fill-rule:nonzero;stroke:none"
         id="path288" />
      <path
         d="m 5787.78,2820.72 c 0,-230.76 187.06,-417.83 417.83,-417.83 230.76,0 417.83,187.07 417.83,417.83 0,230.75 -187.07,417.82 -417.83,417.82 -230.77,0 -417.83,-187.07 -417.83,-417.82"
         style="fill:#f35a6c;fill-opacity:1;fill-rule:nonzero;stroke:none"
         id="path290" />
      <path
         d="m 6134.17,2804.21 c -35.61,0 -64.46,28.87 -64.46,64.47 0,35.61 28.85,64.47 64.46,64.47 35.61,0 64.47,-28.86 64.47,-64.47 0,-35.6 -28.86,-64.47 -64.47,-64.47 z m 188.63,98.22 h -42.01 c -3.8,16.57 -10.34,32.05 -19.11,46.04 l 29.74,29.73 c 4.05,4.06 4.05,10.63 0,14.68 l -33.05,33.04 c -4.05,4.06 -10.63,4.06 -14.68,0 l -29.73,-29.73 c -13.99,8.77 -29.47,15.31 -46.04,19.11 v 42 c 0,5.74 -4.65,10.39 -10.38,10.39 h -46.73 c -5.73,0 -10.38,-4.65 -10.38,-10.39 v -42 c -16.57,-3.8 -32.06,-10.34 -46.05,-19.11 l -29.72,29.73 c -4.05,4.06 -10.64,4.06 -14.69,0 l -33.04,-33.04 c -4.05,-4.05 -4.05,-10.62 0,-14.68 l 29.73,-29.73 c -8.77,-13.99 -15.3,-29.47 -19.11,-46.04 h -42 c -5.74,0 -10.38,-4.65 -10.38,-10.39 v -46.72 c 0,-5.74 4.64,-10.38 10.38,-10.38 h 42 c 3.81,-16.58 10.34,-32.06 19.11,-46.04 l -29.73,-29.73 c -4.05,-4.06 -4.05,-10.63 0,-14.69 l 33.04,-33.04 c 4.05,-4.05 10.64,-4.05 14.69,0 l 29.72,29.73 c 13.99,-8.77 29.48,-15.31 46.05,-19.11 v -42 c 0,-5.74 4.65,-10.39 10.38,-10.39 h 46.73 c 5.73,0 10.38,4.65 10.38,10.39 v 42 c 16.57,3.8 32.05,10.34 46.04,19.11 l 29.73,-29.73 c 4.05,-4.05 10.63,-4.05 14.68,0 l 33.05,33.04 c 4.05,4.06 4.05,10.63 0,14.69 l -29.74,29.73 c 8.77,13.98 15.31,29.46 19.11,46.04 h 42.01 c 5.74,0 10.38,4.64 10.38,10.38 v 46.72 c 0,5.74 -4.64,10.39 -10.38,10.39"
         style="fill:#d0e8f8;fill-opacity:1;fill-rule:nonzero;stroke:none"
         id="path292" />
      <path
         d="m 6134.17,2813.88 c -30.26,0 -54.79,24.54 -54.79,54.8 0,30.27 24.53,54.8 54.79,54.8 30.26,0 54.8,-24.53 54.8,-54.8 0,-30.26 -24.54,-54.8 -54.8,-54.8 z m 0,144.54 c -49.56,0 -89.74,-40.18 -89.74,-89.74 0,-49.56 40.18,-89.74 89.74,-89.74 49.56,0 89.75,40.18 89.75,89.74 0,49.56 -40.19,89.74 -89.75,89.74"
         style="fill:#4a69bb;fill-opacity:1;fill-rule:nonzero;stroke:none"
         id="path294" />
      <path
         d="m 6405.87,2668.23 c -18.19,0 -32.94,14.74 -32.94,32.93 0,18.19 14.75,32.93 32.94,32.93 18.18,0 32.93,-14.74 32.93,-32.93 0,-18.19 -14.75,-32.93 -32.93,-32.93 z m 96.36,50.17 h -21.47 c -1.93,8.47 -5.27,16.38 -9.75,23.52 l 15.18,15.18 c 2.07,2.08 2.07,5.43 0,7.51 l -16.87,16.87 c -2.07,2.08 -5.43,2.08 -7.5,0 l -15.2,-15.18 c -7.14,4.48 -15.05,7.82 -23.51,9.76 v 21.46 c 0,2.93 -2.38,5.3 -5.31,5.3 h -23.87 c -2.93,0 -5.31,-2.37 -5.31,-5.3 v -21.46 c -8.46,-1.94 -16.37,-5.28 -23.51,-9.76 l -15.19,15.18 c -2.08,2.08 -5.44,2.08 -7.51,0 l -16.87,-16.87 c -2.07,-2.08 -2.07,-5.43 0,-7.51 l 15.18,-15.18 c -4.47,-7.14 -7.82,-15.05 -9.75,-23.52 h -21.47 c -2.93,0 -5.3,-2.38 -5.3,-5.3 v -23.88 c 0,-2.93 2.37,-5.3 5.3,-5.3 h 21.47 c 1.93,-8.47 5.28,-16.38 9.75,-23.52 l -15.18,-15.19 c -2.07,-2.07 -2.07,-5.43 0,-7.5 l 16.87,-16.88 c 2.07,-2.07 5.43,-2.07 7.51,0 l 15.19,15.19 c 7.14,-4.48 15.05,-7.82 23.51,-9.77 v -21.45 c 0,-2.93 2.38,-5.31 5.31,-5.31 h 23.87 c 2.93,0 5.31,2.38 5.31,5.31 v 21.45 c 8.46,1.95 16.37,5.29 23.51,9.77 l 15.2,-15.19 c 2.07,-2.07 5.43,-2.07 7.5,0 l 16.87,16.88 c 2.07,2.07 2.07,5.43 0,7.5 l -15.18,15.19 c 4.48,7.14 7.82,15.05 9.75,23.52 h 21.47 c 2.93,0 5.3,2.37 5.3,5.3 v 23.88 c 0,2.92 -2.37,5.3 -5.3,5.3"
         style="fill:#d0e8f8;fill-opacity:1;fill-rule:nonzero;stroke:none"
         id="path296" />
      <path
         d="m 6405.87,2673.16 c -15.47,0 -28,12.54 -28,28 0,15.46 12.53,27.99 28,27.99 15.46,0 27.99,-12.53 27.99,-27.99 0,-15.46 -12.53,-28 -27.99,-28 z m 0,73.84 c -25.32,0 -45.85,-20.52 -45.85,-45.84 0,-25.32 20.53,-45.85 45.85,-45.85 25.31,0 45.84,20.53 45.84,45.85 0,25.32 -20.53,45.84 -45.84,45.84"
         style="fill:#4a69bb;fill-opacity:1;fill-rule:nonzero;stroke:none"
         id="path298" />
      <path
         d="m 3902.81,4004.2 c 0,-230.77 187.07,-417.83 417.82,-417.83 230.77,0 417.84,187.06 417.84,417.83 0,230.75 -187.07,417.82 -417.84,417.82 -230.75,0 -417.82,-187.07 -417.82,-417.82"
         style="fill:#f35a6c;fill-opacity:1;fill-rule:nonzero;stroke:none"
         id="path300" />
      <path
         d="M 4113.28,3789.47 H 4528 c 18.24,0 33.04,14.79 33.04,33.03 v 345.04 c 0,18.25 -14.8,33.04 -33.04,33.04 h -414.72 c -18.24,0 -33.04,-14.79 -33.04,-33.04 V 3822.5 c 0,-18.24 14.8,-33.03 33.04,-33.03"
         style="fill:#ffffff;fill-opacity:1;fill-rule:nonzero;stroke:none"
         id="path302" />
      <path
         d="m 4080.24,4114.54 h 480.8 v 53 c 0,18.25 -14.8,33.04 -33.04,33.04 h -414.72 c -18.24,0 -33.04,-14.79 -33.04,-33.04 v -53"
         style="fill:#4a69bb;fill-opacity:1;fill-rule:nonzero;stroke:none"
         id="path304" />
      <path
         d="m 4446.19,4182.23 v 0 c 5.38,0 9.75,4.37 9.75,9.75 v 17.19 c 0,5.38 -4.37,9.75 -9.75,9.75 v 0 c -5.39,0 -9.75,-4.37 -9.75,-9.75 v -17.19 c 0,-5.38 4.36,-9.75 9.75,-9.75"
         style="fill:#ffffff;fill-opacity:1;fill-rule:nonzero;stroke:none"
         id="path306" />
      <path
         d="m 4474.06,4182.23 v 0 c 5.38,0 9.75,4.37 9.75,9.75 v 17.19 c 0,5.38 -4.37,9.75 -9.75,9.75 v 0 c -5.39,0 -9.75,-4.37 -9.75,-9.75 v -17.19 c 0,-5.38 4.36,-9.75 9.75,-9.75"
         style="fill:#ffffff;fill-opacity:1;fill-rule:nonzero;stroke:none"
         id="path308" />
      <path
         d="m 4167.22,4182.23 v 0 c 5.39,0 9.75,4.37 9.75,9.75 v 17.19 c 0,5.38 -4.36,9.75 -9.75,9.75 v 0 c -5.38,0 -9.75,-4.37 -9.75,-9.75 v -17.19 c 0,-5.38 4.37,-9.75 9.75,-9.75"
         style="fill:#ffffff;fill-opacity:1;fill-rule:nonzero;stroke:none"
         id="path310" />
      <path
         d="m 4195.1,4182.23 v 0 c 5.38,0 9.74,4.37 9.74,9.75 v 17.19 c 0,5.38 -4.36,9.75 -9.74,9.75 v 0 c -5.39,0 -9.76,-4.37 -9.76,-9.75 v -17.19 c 0,-5.38 4.37,-9.75 9.76,-9.75"
         style="fill:#ffffff;fill-opacity:1;fill-rule:nonzero;stroke:none"
         id="path312" />
      <path
         d="m 4350.98,4021.73 h 25.8 c 4.37,0 7.93,3.55 7.93,7.93 v 25.8 c 0,4.38 -3.56,7.92 -7.93,7.92 h -25.8 c -4.38,0 -7.93,-3.54 -7.93,-7.92 v -25.8 c 0,-4.38 3.55,-7.93 7.93,-7.93"
         style="fill:#d0e8f8;fill-opacity:1;fill-rule:nonzero;stroke:none"
         id="path314" />
      <path
         d="m 4251.88,4021.73 h 25.79 c 4.38,0 7.93,3.55 7.93,7.93 v 25.8 c 0,4.38 -3.55,7.92 -7.93,7.92 h -25.79 c -4.39,0 -7.93,-3.54 -7.93,-7.92 v -25.8 c 0,-4.38 3.54,-7.93 7.93,-7.93"
         style="fill:#d0e8f8;fill-opacity:1;fill-rule:nonzero;stroke:none"
         id="path316" />
      <path
         d="m 4152.76,4021.73 h 25.8 c 4.38,0 7.93,3.55 7.93,7.93 v 25.8 c 0,4.38 -3.55,7.92 -7.93,7.92 h -25.8 c -4.37,0 -7.93,-3.54 -7.93,-7.92 v -25.8 c 0,-4.38 3.56,-7.93 7.93,-7.93"
         style="fill:#d0e8f8;fill-opacity:1;fill-rule:nonzero;stroke:none"
         id="path318" />
      <path
         d="m 4450.09,3936.39 h 25.79 c 4.38,0 7.93,3.55 7.93,7.93 v 25.8 c 0,4.38 -3.55,7.92 -7.93,7.92 h -25.79 c -4.39,0 -7.93,-3.54 -7.93,-7.92 v -25.8 c 0,-4.38 3.54,-7.93 7.93,-7.93"
         style="fill:#d0e8f8;fill-opacity:1;fill-rule:nonzero;stroke:none"
         id="path320" />
      <path
         d="m 4350.98,3936.39 h 25.8 c 4.37,0 7.93,3.55 7.93,7.93 v 25.8 c 0,4.38 -3.56,7.92 -7.93,7.92 h -25.8 c -4.38,0 -7.93,-3.54 -7.93,-7.92 v -25.8 c 0,-4.38 3.55,-7.93 7.93,-7.93"
         style="fill:#d0e8f8;fill-opacity:1;fill-rule:nonzero;stroke:none"
         id="path322" />
      <path
         d="m 4251.88,3936.39 h 25.79 c 4.38,0 7.93,3.55 7.93,7.93 v 25.8 c 0,4.38 -3.55,7.92 -7.93,7.92 h -25.79 c -4.39,0 -7.93,-3.54 -7.93,-7.92 v -25.8 c 0,-4.38 3.54,-7.93 7.93,-7.93"
         style="fill:#d0e8f8;fill-opacity:1;fill-rule:nonzero;stroke:none"
         id="path324" />
      <path
         d="m 4152.76,3936.39 h 25.8 c 4.38,0 7.93,3.55 7.93,7.93 v 25.8 c 0,4.38 -3.55,7.92 -7.93,7.92 h -25.8 c -4.37,0 -7.93,-3.54 -7.93,-7.92 v -25.8 c 0,-4.38 3.56,-7.93 7.93,-7.93"
         style="fill:#d0e8f8;fill-opacity:1;fill-rule:nonzero;stroke:none"
         id="path326" />
      <path
         d="m 4450.09,3851.05 h 25.79 c 4.38,0 7.93,3.55 7.93,7.93 v 25.8 c 0,4.38 -3.55,7.93 -7.93,7.93 h -25.79 c -4.39,0 -7.93,-3.55 -7.93,-7.93 v -25.8 c 0,-4.38 3.54,-7.93 7.93,-7.93"
         style="fill:#d0e8f8;fill-opacity:1;fill-rule:nonzero;stroke:none"
         id="path328" />
      <path
         d="m 4350.98,3851.05 h 25.8 c 4.37,0 7.93,3.55 7.93,7.93 v 25.8 c 0,4.38 -3.56,7.93 -7.93,7.93 h -25.8 c -4.38,0 -7.93,-3.55 -7.93,-7.93 v -25.8 c 0,-4.38 3.55,-7.93 7.93,-7.93"
         style="fill:#d0e8f8;fill-opacity:1;fill-rule:nonzero;stroke:none"
         id="path330" />
      <path
         d="m 4251.88,3851.05 h 25.79 c 4.38,0 7.93,3.55 7.93,7.93 v 25.8 c 0,4.38 -3.55,7.93 -7.93,7.93 h -25.79 c -4.39,0 -7.93,-3.55 -7.93,-7.93 v -25.8 c 0,-4.38 3.54,-7.93 7.93,-7.93"
         style="fill:#d0e8f8;fill-opacity:1;fill-rule:nonzero;stroke:none"
         id="path332" />
      <path
         d="m 5934.57,3789.47 c 0,-230.76 -187.06,-417.83 -417.82,-417.83 -230.76,0 -417.82,187.07 -417.82,417.83 0,230.76 187.06,417.83 417.82,417.83 230.76,0 417.82,-187.07 417.82,-417.83"
         style="fill:#f35a6c;fill-opacity:1;fill-rule:nonzero;stroke:none"
         id="path334" />
      <path
         d="m 5802.93,3789.47 c 0,-158.06 -128.13,-286.18 -286.18,-286.18 -158.06,0 -286.18,128.12 -286.18,286.18 0,158.05 128.12,286.18 286.18,286.18 158.05,0 286.18,-128.13 286.18,-286.18"
         style="fill:#ffffff;fill-opacity:1;fill-rule:nonzero;stroke:none"
         id="path336" />
      <path
         d="m 5540.74,3545.64 v 39.08 c 0,7.27 -5.89,13.16 -13.15,13.16 h -21.68 c -7.27,0 -13.16,-5.89 -13.16,-13.16 v -39.08 c -116.15,11.29 -208.53,103.68 -219.83,219.83 H 5312 c 7.27,0 13.17,5.89 13.17,13.16 v 21.67 c 0,7.27 -5.9,13.16 -13.17,13.16 h -39.08 c 11.3,116.15 103.68,208.54 219.83,219.83 v -39.08 c 0,-7.27 5.89,-13.16 13.16,-13.16 h 21.68 c 7.26,0 13.15,5.89 13.15,13.16 v 39.08 c 116.15,-11.29 208.54,-103.68 219.84,-219.83 h -39.09 c -7.26,0 -13.16,-5.89 -13.16,-13.16 v -21.67 c 0,-7.27 5.9,-13.16 13.16,-13.16 h 39.09 c -11.3,-116.15 -103.69,-208.54 -219.84,-219.83 z m -23.99,530.01 c -158.06,0 -286.18,-128.13 -286.18,-286.18 0,-158.06 128.12,-286.18 286.18,-286.18 158.05,0 286.18,128.12 286.18,286.18 0,158.05 -128.13,286.18 -286.18,286.18"
         style="fill:#4a69bb;fill-opacity:1;fill-rule:nonzero;stroke:none"
         id="path338" />
      <g
         id="g340"
         transform="scale(10)">
        <text
           xml:space="preserve"
           transform="matrix(1,0,0,-1,537.532,372.125)"
           style="font-variant:normal;font-weight:normal;font-size:20.4596px;font-family:BebasKai;-inkscape-font-specification:BebasKai;writing-mode:lr-tb;fill:#cfbcd4;fill-opacity:1;fill-rule:nonzero;stroke:none"
           id="text344"><tspan
             x="0 7.9565334 16.277344 24.391588"
             y="0"
             sodipodi:role="line"
             id="tspan342">24/7</tspan></text>
      </g>
    </g>
  </g>
</svg>
