<?xml version="1.0" encoding="UTF-8" standalone="no"?>
<svg
   xmlns:dc="http://purl.org/dc/elements/1.1/"
   xmlns:cc="http://creativecommons.org/ns#"
   xmlns:rdf="http://www.w3.org/1999/02/22-rdf-syntax-ns#"
   xmlns:svg="http://www.w3.org/2000/svg"
   xmlns="http://www.w3.org/2000/svg"
   xmlns:sodipodi="http://sodipodi.sourceforge.net/DTD/sodipodi-0.dtd"
   xmlns:inkscape="http://www.inkscape.org/namespaces/inkscape"
   viewBox="0 0 700 700.00001"
   version="1.1"
   id="svg10"
   sodipodi:docname="shopify-logo.svg"
   width="700"
   height="700"
   inkscape:version="0.92.4 (5da689c313, 2019-01-14)"
   inkscape:export-filename="C:\Users\suitedoalex\sites\shopify-logo-0.png"
   inkscape:export-xdpi="561.73712"
   inkscape:export-ydpi="561.73712">
  <metadata
     id="metadata16">
    <rdf:RDF>
      <cc:Work
         rdf:about="">
        <dc:format>image/svg+xml</dc:format>
        <dc:type
           rdf:resource="http://purl.org/dc/dcmitype/StillImage" />
        <dc:title></dc:title>
      </cc:Work>
    </rdf:RDF>
  </metadata>
  <defs
     id="defs14" />
  <sodipodi:namedview
     pagecolor="#ffffff"
     bordercolor="#666666"
     borderopacity="1"
     objecttolerance="10"
     gridtolerance="10"
     guidetolerance="10"
     inkscape:pageopacity="0"
     inkscape:pageshadow="2"
     inkscape:window-width="1600"
     inkscape:window-height="837"
     id="namedview12"
     showgrid="false"
     inkscape:zoom="0.77688706"
     inkscape:cx="378.65246"
     inkscape:cy="305.0905"
     inkscape:window-x="-8"
     inkscape:window-y="-8"
     inkscape:window-maximized="1"
     inkscape:current-layer="svg10" />
  <path
     d="m 206.95519,305.41398 c -0.0825,-0.74245 -0.74244,-1.07243 -1.23741,-1.15492 -0.49496,-0.0825 -10.39426,-0.16498 -10.39426,-0.16498 0,0 -8.33191,-8.08443 -9.15685,-8.90937 -0.82494,-0.82494 -2.39233,-0.57746 -3.05228,-0.41247 0,0 -1.56739,0.49496 -4.2072,1.31991 -0.41248,-1.4024 -1.07242,-3.13478 -1.97986,-4.86716 -2.96979,-5.6921 -7.25948,-8.66188 -12.53911,-8.66188 -0.32998,0 -0.74245,0 -1.07242,0.0825 -0.16499,-0.16499 -0.32998,-0.32997 -0.49497,-0.57746 -2.30984,-2.47482 -5.19713,-3.62974 -8.66188,-3.54724 -6.76452,0.16498 -13.44655,5.03214 -18.97365,13.77651 -3.87723,6.10457 -6.76452,13.77652 -7.58946,19.7161 -7.75445,2.39233 -13.19906,4.04221 -13.28156,4.12471 -3.87722,1.23741 -4.04221,1.31991 -4.53717,5.03214 -0.41247,2.72231 -10.641747,81.99916 -10.641747,81.99916 l 85.876387,14.84894 37.20485,-9.23934 c 0,0 -15.17891,-102.70519 -15.26141,-103.36514 z m -32.3377,-8.00193 c -1.97986,0.57746 -4.2072,1.3199 -6.68202,2.06236 -0.0825,-3.38226 -0.49497,-8.16692 -2.06236,-12.29164 5.19713,0.98994 7.67196,6.76453 8.74438,10.22928 z m -11.13671,3.46475 c -4.53717,1.4024 -9.40433,2.8873 -14.35398,4.45469 1.4024,-5.27963 4.04222,-10.55925 7.25949,-14.024 1.23741,-1.31991 2.88729,-2.72231 4.86715,-3.54725 1.89737,3.87722 2.22734,9.40433 2.22734,13.11656 z m -9.23934,-17.81873 c 1.56739,0 2.88729,0.32998 4.04221,1.07243 -1.81487,0.90743 -3.62974,2.30983 -5.27962,4.1247 -4.2897,4.61967 -7.58946,11.71417 -8.90937,18.64367 -4.1247,1.23741 -8.08442,2.47483 -11.79666,3.62975 2.47483,-10.88923 11.54918,-27.14057 21.94344,-27.47055 z"
     id="path2"
     inkscape:connector-curvature="0"
     style="fill:#95bf47;stroke-width:0.82494128"
     inkscape:export-filename="C:\Users\suitedoalex\sites\shopify-logo-4.png"
     inkscape:export-xdpi="76.535301"
     inkscape:export-ydpi="76.535301" />
  <path
     d="m 205.71778,304.25906 c -0.49496,-0.0825 -10.39426,-0.16498 -10.39426,-0.16498 0,0 -8.3319,-8.08443 -9.15684,-8.90937 -0.32999,-0.32998 -0.74246,-0.49496 -1.15493,-0.49496 v 123.32871 l 37.20485,-9.23934 c 0,0 -15.17891,-102.62269 -15.26141,-103.36514 -0.16499,-0.74245 -0.74244,-1.07243 -1.23741,-1.15492 z"
     id="path4"
     inkscape:connector-curvature="0"
     style="fill:#5e8e3e;stroke-width:0.82494128"
     inkscape:export-filename="C:\Users\suitedoalex\sites\shopify-logo-4.png"
     inkscape:export-xdpi="76.535301"
     inkscape:export-ydpi="76.535301" />
  <path
     d="m 164.38822,323.3977 -4.2897,16.16885 c 0,0 -4.78466,-2.22734 -10.55925,-1.81487 -8.4144,0.49496 -8.49689,5.77459 -8.4144,7.17698 0.49497,7.25949 19.46862,8.82688 20.54104,25.73817 0.82494,13.36405 -7.09449,22.43841 -18.47868,23.18085 -13.69403,0.82494 -21.20099,-7.17698 -21.20099,-7.17698 l 2.88729,-12.29163 c 0,0 7.58946,5.69209 13.61153,5.36212 3.95972,-0.24748 5.36212,-3.46476 5.19713,-5.77459 -0.57746,-9.40433 -16.08635,-8.90937 -17.07628,-24.33577 -0.82494,-13.03407 7.75444,-26.23313 26.6456,-27.47054 7.42448,-0.65996 11.13671,1.23741 11.13671,1.23741 z"
     id="path6"
     inkscape:connector-curvature="0"
     style="fill:#ffffff;stroke-width:0.82494128"
     inkscape:export-filename="C:\Users\suitedoalex\sites\shopify-logo-4.png"
     inkscape:export-xdpi="76.535301"
     inkscape:export-ydpi="76.535301" />
  <path
     d="m 272.62052,357.88024 c -4.2897,-2.30983 -6.51703,-4.28969 -6.51703,-7.012 0,-3.46475 3.05228,-5.69209 7.91943,-5.69209 5.6096,0 10.55925,2.30983 10.55925,2.30983 l 3.95971,-12.04414 c 0,0 -3.62973,-2.8048 -14.27148,-2.8048 -14.84895,0 -25.16071,8.49689 -25.16071,20.45854 0,6.76452 4.78466,11.96165 11.2192,15.67389 5.19713,2.96979 7.01201,5.03214 7.01201,8.16692 0,3.21727 -2.55732,5.77459 -7.42448,5.77459 -7.17699,0 -13.9415,-3.71224 -13.9415,-3.71224 l -4.2072,12.04414 c 0,0 6.26955,4.20721 16.7463,4.20721 15.26142,0 26.23313,-7.50697 26.23313,-21.03601 0.0825,-7.34198 -5.44461,-12.53911 -12.12663,-16.33384 z m 60.88066,-25.40819 c -7.50696,0 -13.44654,3.54725 -17.98372,8.99186 l -0.24748,-0.0825 6.51704,-34.15257 h -16.9938 l -16.49882,86.86631 h 16.99379 l 5.6921,-29.69788 c 2.22734,-11.2192 8.00193,-18.14871 13.44654,-18.14871 3.79473,0 5.27962,2.55732 5.27962,6.26956 0,2.30983 -0.24748,5.19713 -0.74244,7.50696 l -6.43454,33.98759 h 16.99378 l 6.68203,-35.1425 c 0.74245,-3.71224 1.23741,-8.16692 1.23741,-11.05421 0,-9.48683 -5.11464,-15.34392 -13.94151,-15.34392 z m 52.38378,0 c -20.45855,0 -33.98759,18.47869 -33.98759,39.10222 0,13.19906 8.16692,23.75831 23.42833,23.75831 20.04608,0 33.65761,-17.98372 33.65761,-39.10222 -0.0825,-12.12664 -7.25948,-23.75831 -23.09835,-23.75831 z m -8.41441,49.82646 c -5.77458,0 -8.24941,-4.94965 -8.24941,-11.05422 0,-9.7343 5.03214,-25.65567 14.27148,-25.65567 6.02207,0 8.00193,5.19713 8.00193,10.22927 0,10.47675 -5.03214,26.48062 -14.024,26.48062 z m 74.90467,-49.82646 c -11.46668,0 -17.98372,10.06429 -17.98372,10.06429 h -0.24748 l 0.98993,-9.15685 h -15.01393 c -0.74246,6.18706 -2.06236,15.50889 -3.46475,22.5209 l -11.79667,62.20056 h 16.99379 l 4.70217,-25.1607 h 0.32998 c 0,0 3.46475,2.22734 9.98178,2.22734 19.96358,0 32.99765,-20.45854 32.99765,-41.16457 0.0825,-11.30169 -5.03214,-21.53097 -17.48875,-21.53097 z m -16.25135,50.07393 c -4.45467,0 -7.01199,-2.47482 -7.01199,-2.47482 l 2.8048,-15.92136 c 1.97985,-10.55925 7.50696,-17.65374 13.44654,-17.65374 5.19712,0 6.76452,4.78465 6.76452,9.40433 0,10.97171 -6.51704,26.64559 -16.00387,26.64559 z m 58.07587,-74.4097 c -5.44461,0 -9.73431,4.2897 -9.73431,9.8993 0,5.03214 3.21728,8.49689 8.00193,8.49689 h 0.24749 c 5.27962,0 9.89929,-3.54724 9.98179,-9.89929 0,-4.94965 -3.29977,-8.4969 -8.4969,-8.4969 z m -23.75831,85.95888 h 16.99378 l 11.54918,-60.22071 h -17.15878 z m 71.76988,-60.38569 h -11.79666 l 0.57747,-2.80481 c 0.98992,-5.77458 4.45467,-10.97171 10.06428,-10.97171 3.05228,0 5.44461,0.82494 5.44461,0.82494 l 3.29977,-13.28156 c 0,0 -2.96979,-1.48489 -9.23935,-1.48489 -6.02207,0 -12.04414,1.73237 -16.66381,5.69209 -5.77459,4.94965 -8.4969,12.04415 -9.8993,19.22113 l -0.49496,2.80481 h -7.91944 l -2.47482,12.78659 h 7.91943 l -8.99186,47.5991 h 16.9938 l 8.99185,-47.5991 h 11.71417 z m 40.91709,0.16498 c 0,0 -10.64174,26.8106 -15.4264,41.41205 h -0.24749 c -0.32997,-4.70216 -4.2072,-41.41205 -4.2072,-41.41205 h -17.81872 l 10.22928,55.35356 c 0.24748,1.23742 0.0825,1.97986 -0.32998,2.8048 -1.97987,3.79473 -5.27962,7.50697 -9.23935,10.22927 -3.21727,2.30984 -6.76452,3.79473 -9.6518,4.78466 l 4.70216,14.43647 c 3.46475,-0.74244 10.55925,-3.54724 16.66381,-9.23934 7.75444,-7.25948 14.93144,-18.47868 22.27341,-33.74009 l 20.78852,-44.62933 z"
     id="path8"
     inkscape:connector-curvature="0"
     style="stroke-width:0.82494128"
     inkscape:export-filename="C:\Users\suitedoalex\sites\shopify-logo-4.png"
     inkscape:export-xdpi="76.535301"
     inkscape:export-ydpi="76.535301" />
</svg>
