<?xml version="1.0" encoding="UTF-8"?>
<svg xmlns="http://www.w3.org/2000/svg" xmlns:xlink="http://www.w3.org/1999/xlink" width="400px" height="300px" viewBox="0 0 1200 300" version="1.1">
<g id="surface1">
<path style=" stroke:none;fill-rule:evenodd;fill:rgb(0%,0%,0%);fill-opacity:1;" d="M 150 0 L 1050 0 C 1132.84375 0 1200 66.785156 1200 149.171875 C 1200 231.558594 1132.84375 298.347656 1050 298.347656 L 150 298.347656 C 67.15625 298.347656 0 231.558594 0 149.171875 C 0 66.785156 67.15625 0 150 0 Z M 150 0 "/>
<path style=" stroke:none;fill-rule:evenodd;fill:rgb(100%,100%,100%);fill-opacity:1;" d="M 160.804688 113.058594 L 160.804688 70.660156 L 137.199219 70.660156 L 137.199219 113.058594 L 148.84375 129.074219 Z M 160.804688 113.058594 "/>
<path style=" stroke:none;fill-rule:evenodd;fill:rgb(100%,100%,100%);fill-opacity:1;" d="M 137.199219 185.289062 L 137.199219 227.683594 L 160.804688 227.683594 L 160.804688 185.289062 L 148.84375 169.273438 Z M 137.199219 185.289062 "/>
<path style=" stroke:none;fill-rule:evenodd;fill:rgb(0%,94.901961%,90.196078%);fill-opacity:1;" d="M 160.804688 185.289062 L 185.667969 219.519531 L 204.554688 205.703125 L 179.691406 171.46875 L 160.804688 165.503906 Z M 160.804688 185.289062 "/>
<path style=" stroke:none;fill-rule:evenodd;fill:rgb(0%,94.901961%,90.196078%);fill-opacity:1;" d="M 137.199219 113.058594 L 112.019531 78.824219 L 93.136719 92.644531 L 118 126.875 L 137.199219 132.84375 Z M 137.199219 113.058594 "/>
<path style=" stroke:none;fill-rule:evenodd;fill:rgb(0%,72.54902%,94.509804%);fill-opacity:1;" d="M 118 126.875 L 77.714844 113.6875 L 70.476562 135.984375 L 110.761719 149.171875 L 129.644531 142.890625 Z M 118 126.875 "/>
<path style=" stroke:none;fill-rule:evenodd;fill:rgb(0%,72.54902%,94.509804%);fill-opacity:1;" d="M 168.042969 155.453125 L 179.691406 171.46875 L 219.976562 184.660156 L 227.214844 162.363281 L 186.929688 149.171875 Z M 168.042969 155.453125 "/>
<path style=" stroke:none;fill-rule:evenodd;fill:rgb(83.921569%,22.745098%,100%);fill-opacity:1;" d="M 186.929688 149.171875 L 227.214844 135.984375 L 219.976562 113.6875 L 179.691406 126.875 L 168.042969 142.890625 Z M 186.929688 149.171875 "/>
<path style=" stroke:none;fill-rule:evenodd;fill:rgb(83.921569%,22.745098%,100%);fill-opacity:1;" d="M 110.761719 149.171875 L 70.476562 162.363281 L 77.714844 184.660156 L 118 171.46875 L 129.644531 155.453125 Z M 110.761719 149.171875 "/>
<path style=" stroke:none;fill-rule:evenodd;fill:rgb(98.431373%,0.392157%,35.686275%);fill-opacity:1;" d="M 118 171.46875 L 93.136719 205.703125 L 112.019531 219.519531 L 137.199219 185.289062 L 137.199219 165.503906 Z M 118 171.46875 "/>
<path style=" stroke:none;fill-rule:evenodd;fill:rgb(98.431373%,0.392157%,35.686275%);fill-opacity:1;" d="M 179.691406 126.875 L 204.554688 92.644531 L 185.667969 78.824219 L 160.804688 113.058594 L 160.804688 132.84375 Z M 179.691406 126.875 "/>
<path style=" stroke:none;fill-rule:evenodd;fill:rgb(100%,100%,100%);fill-opacity:1;" d="M 323.980469 164.730469 L 323.980469 115.769531 L 311.054688 115.769531 L 311.054688 163.0625 C 311.054688 170.308594 307.433594 173.050781 301.457031 173.050781 C 297.933594 173.050781 295.878906 172.660156 293.722656 172.074219 L 295.484375 183.332031 C 297.148438 183.628906 300.1875 184.019531 303.222656 184.019531 C 315.363281 184.019531 323.980469 178.4375 323.980469 164.730469 Z M 426.207031 115.769531 L 413.183594 115.769531 L 400.847656 163.457031 L 386.746094 115.769531 L 373.722656 115.769531 L 359.625 163.457031 L 346.894531 115.082031 L 333.378906 117.53125 L 352.277344 183.332031 L 364.519531 183.332031 L 379.5 134.175781 L 394.484375 183.332031 L 406.820312 183.332031 Z M 485.941406 127.03125 L 484.078125 115.769531 L 431.59375 115.769531 L 431.59375 127.03125 L 451.667969 127.03125 L 451.667969 183.332031 L 464.691406 183.332031 L 464.691406 127.03125 Z M 565.351562 178.730469 L 563.589844 167.566406 C 558.402344 170.996094 552.722656 173.246094 546.453125 173.246094 C 534.507812 173.246094 526.675781 164.433594 526.675781 149.550781 C 526.675781 134.863281 534.019531 125.757812 545.964844 125.757812 C 552.527344 125.757812 558.007812 128.398438 562.414062 131.730469 L 564.277344 119.488281 C 559.28125 116.453125 553.210938 114.59375 545.378906 114.59375 C 526.28125 114.59375 513.457031 128.695312 513.457031 149.648438 C 513.457031 170.605469 525.792969 184.507812 545.476562 184.507812 C 553.113281 184.507812 559.96875 182.160156 565.351562 178.730469 Z M 634.972656 149.453125 C 634.972656 128.597656 622.734375 114.496094 603.347656 114.496094 C 584.054688 114.496094 571.523438 128.695312 571.523438 149.648438 C 571.523438 170.503906 583.957031 184.605469 603.148438 184.605469 C 622.539062 184.605469 634.972656 170.308594 634.972656 149.453125 Z M 621.851562 149.550781 C 621.851562 164.335938 614.902344 173.835938 603.25 173.835938 C 591.695312 173.835938 584.742188 164.335938 584.742188 149.550781 C 584.742188 134.765625 591.695312 125.265625 603.25 125.265625 C 614.800781 125.265625 621.851562 134.765625 621.851562 149.550781 Z M 721.925781 183.332031 L 716.738281 115.769531 L 700.582031 115.769531 L 683.542969 166.785156 L 666.40625 115.769531 L 649.957031 115.769531 L 644.765625 183.332031 L 656.417969 183.332031 L 659.847656 133.980469 L 676.980469 183.527344 L 688.339844 183.527344 L 705.378906 133.980469 L 709 183.332031 Z M 778.820312 136.527344 C 778.820312 122.917969 769.515625 115.769531 754.042969 115.769531 L 734.265625 115.769531 L 734.265625 183.332031 L 747.191406 183.332031 L 747.191406 158.460938 L 752.96875 158.460938 C 768.4375 158.460938 778.820312 151.117188 778.820312 136.527344 Z M 766.089844 136.820312 C 766.089844 144.558594 761.191406 147.984375 752.871094 147.984375 L 747.191406 147.984375 L 747.191406 126.148438 L 753.359375 126.148438 C 761.683594 126.148438 766.089844 129.769531 766.089844 136.820312 Z M 840.800781 181.667969 L 816.027344 115.476562 L 802.222656 115.476562 L 776.859375 183.332031 L 789.6875 183.332031 L 795.855469 166.199219 L 821.414062 166.199219 L 827.875 184.019531 Z M 817.789062 155.621094 L 799.382812 155.621094 L 808.585938 129.574219 Z M 891.621094 127.03125 L 889.761719 115.769531 L 837.277344 115.769531 L 837.277344 127.03125 L 857.351562 127.03125 L 857.351562 183.332031 L 870.375 183.332031 L 870.375 127.03125 Z M 914.339844 183.332031 L 914.339844 115.769531 L 901.316406 115.769531 L 901.316406 183.332031 Z M 973.875 163.652344 C 973.875 154.644531 968.882812 149.746094 961.339844 147.398438 C 967.214844 144.949219 971.132812 140.347656 971.132812 133.296875 C 971.132812 122.621094 963.886719 115.769531 948.710938 115.769531 L 929.027344 115.769531 L 929.027344 183.332031 L 948.417969 183.332031 C 964.277344 183.332031 973.875 176.96875 973.875 163.652344 Z M 959.089844 134.375 C 959.089844 140.152344 955.074219 143.578125 947.4375 143.578125 L 941.464844 143.578125 L 941.464844 125.660156 L 948.023438 125.660156 C 955.859375 125.660156 959.089844 128.988281 959.089844 134.375 Z M 961.4375 163.257812 C 961.4375 170.015625 956.640625 173.445312 948.417969 173.445312 L 941.464844 173.445312 L 941.464844 152.78125 L 948.21875 152.78125 C 956.835938 152.78125 961.4375 156.40625 961.4375 163.257812 Z M 1021.757812 183.332031 L 1019.996094 171.875 L 997.472656 171.875 L 997.472656 115.769531 L 984.449219 115.769531 L 984.449219 183.332031 Z M 1071.402344 183.332031 L 1071.402344 172.367188 L 1043.984375 172.367188 L 1043.984375 153.761719 L 1066.117188 153.761719 L 1064.351562 142.597656 L 1043.984375 142.597656 L 1043.984375 126.734375 L 1070.425781 126.734375 L 1070.425781 115.769531 L 1031.160156 115.769531 L 1031.160156 183.332031 Z M 1071.402344 183.332031 "/>
</g>
</svg>
