<?xml version="1.0" encoding="UTF-8"?>
<svg xmlns="http://www.w3.org/2000/svg" xmlns:xlink="http://www.w3.org/1999/xlink" width="400px" height="300px" viewBox="0 0 600 300" version="1.1">
<g id="surface1">
<path style=" stroke:none;fill-rule:evenodd;fill:rgb(25.490196%,72.156863%,51.372549%);fill-opacity:1;" d="M 217.414062 59.761719 L 259.824219 59.761719 L 152.734375 244.300781 L 44.941406 59.761719 L 88.316406 59.761719 L 152.734375 170.859375 Z M 217.414062 59.761719 "/>
<path style=" stroke:none;fill-rule:evenodd;fill:rgb(20.784314%,28.627451%,36.862745%);fill-opacity:1;" d="M 177.332031 59.722656 L 217.667969 59.722656 L 152.679688 171.050781 L 88.210938 59.722656 L 127.917969 59.722656 L 152.679688 102.582031 Z M 177.332031 59.722656 "/>
<path style=" stroke:none;fill-rule:evenodd;fill:rgb(0.392157%,0.392157%,0.392157%);fill-opacity:1;" d="M 285.128906 96.15625 C 285.128906 94.792969 285.886719 93.660156 287.398438 92.753906 C 288.910156 91.84375 290.488281 91.390625 292.136719 91.390625 C 294.429688 91.390625 295.847656 92.253906 296.398438 93.976562 L 320.582031 174.84375 L 344.625 93.976562 C 345.265625 92.253906 346.640625 91.390625 348.75 91.390625 C 350.488281 91.390625 352.113281 91.890625 353.625 92.886719 C 355.136719 93.886719 355.894531 95.019531 355.894531 96.292969 C 355.894531 96.382812 355.871094 96.519531 355.824219 96.699219 C 355.777344 96.882812 355.753906 97.0625 355.753906 97.246094 L 327.863281 187.777344 C 326.855469 190.410156 324.429688 191.722656 320.582031 191.722656 C 316.734375 191.722656 314.398438 190.410156 313.574219 187.777344 L 285.40625 97.246094 C 285.222656 96.699219 285.132812 96.335938 285.132812 96.15625 Z M 356.976562 165.855469 L 356.976562 130.460938 C 356.976562 129.375 357.546875 128.421875 358.691406 127.605469 C 359.839844 126.785156 361.1875 126.378906 362.746094 126.378906 C 364.210938 126.378906 365.519531 126.808594 366.664062 127.671875 C 367.808594 128.535156 368.378906 129.464844 368.378906 130.460938 L 368.378906 165.855469 C 368.378906 169.941406 369.9375 173.617188 373.050781 176.882812 C 376.167969 180.152344 379.875 181.785156 384.179688 181.785156 C 388.394531 181.785156 392.058594 180.175781 395.171875 176.953125 C 398.289062 173.730469 399.84375 170.03125 399.84375 165.855469 L 399.84375 130.324219 C 399.84375 129.324219 400.417969 128.417969 401.5625 127.601562 C 402.707031 126.785156 404.058594 126.375 405.617188 126.375 C 407.265625 126.375 408.617188 126.761719 409.671875 127.535156 C 410.722656 128.304688 411.25 129.234375 411.25 130.324219 L 411.25 165.855469 C 411.25 172.847656 408.570312 178.949219 403.210938 184.167969 C 397.851562 189.386719 391.511719 191.996094 384.183594 191.996094 C 376.761719 191.996094 370.371094 189.386719 365.015625 184.167969 C 359.65625 178.949219 356.976562 172.847656 356.976562 165.855469 Z M 420.574219 165.585938 L 420.574219 151.289062 C 420.574219 144.300781 423.253906 138.265625 428.613281 133.183594 C 433.972656 128.101562 440.40625 125.5625 447.917969 125.5625 C 455.0625 125.5625 461.246094 127.941406 466.46875 132.707031 C 471.6875 137.472656 474.300781 143.441406 474.300781 150.609375 C 474.300781 153.242188 473.980469 155.351562 473.335938 156.941406 C 472.695312 158.527344 471.710938 159.664062 470.382812 160.34375 C 469.054688 161.023438 467.820312 161.457031 466.671875 161.636719 C 465.527344 161.820312 463.992188 161.910156 462.070312 161.910156 L 431.980469 161.910156 L 431.980469 165.992188 C 431.980469 170.984375 433.789062 174.980469 437.40625 177.972656 C 441.023438 180.96875 445.71875 182.464844 451.488281 182.464844 C 454.511719 182.464844 457.144531 182.011719 459.390625 181.105469 C 461.632812 180.199219 463.445312 179.3125 464.816406 178.449219 C 466.191406 177.589844 467.292969 177.15625 468.117188 177.15625 C 469.398438 177.15625 470.496094 177.722656 471.414062 178.859375 C 472.328125 179.992188 472.789062 181.152344 472.789062 182.332031 C 472.789062 184.417969 470.703125 186.550781 466.535156 188.730469 C 462.367188 190.90625 457.214844 191.996094 451.078125 191.996094 C 442.101562 191.996094 434.773438 189.566406 429.09375 184.710938 C 423.414062 179.855469 420.574219 173.480469 420.574219 165.585938 Z M 431.980469 154.285156 L 457.398438 154.285156 C 459.78125 154.285156 461.382812 153.992188 462.207031 153.402344 C 463.03125 152.8125 463.445312 151.652344 463.445312 149.929688 C 463.445312 145.84375 461.933594 142.261719 458.910156 139.175781 C 455.886719 136.089844 452.175781 134.546875 447.78125 134.546875 C 443.476562 134.546875 439.765625 135.976562 436.652344 138.832031 C 433.535156 141.691406 431.980469 145.210938 431.980469 149.382812 Z M 480.054688 184.644531 C 480.054688 182.648438 480.742188 180.945312 482.113281 179.539062 C 483.488281 178.132812 485.183594 177.429688 487.199219 177.429688 C 489.121094 177.429688 490.769531 178.132812 492.144531 179.539062 C 493.519531 180.945312 494.207031 182.648438 494.207031 184.644531 C 494.207031 186.550781 493.519531 188.207031 492.144531 189.613281 C 490.769531 191.019531 489.121094 191.722656 487.199219 191.722656 C 485.183594 191.722656 483.488281 191.019531 482.113281 189.613281 C 480.742188 188.207031 480.054688 186.550781 480.054688 184.644531 Z M 490.203125 217.179688 C 490.203125 215.730469 490.664062 214.527344 491.578125 213.574219 C 492.496094 212.621094 493.59375 212.144531 494.875 212.144531 C 498.449219 212.144531 500.785156 210.828125 501.882812 208.195312 C 502.984375 205.5625 503.53125 201.617188 503.53125 196.351562 L 503.53125 130.324219 C 503.53125 129.144531 504.058594 128.191406 505.113281 127.464844 C 506.167969 126.742188 507.515625 126.378906 509.167969 126.378906 C 510.816406 126.378906 512.1875 126.742188 513.289062 127.464844 C 514.386719 128.191406 514.9375 129.144531 514.9375 130.324219 L 514.9375 196.351562 C 514.9375 204.25 513.378906 210.511719 510.265625 215.140625 C 507.152344 219.769531 502.433594 222.082031 496.113281 222.082031 C 492.175781 222.082031 490.203125 220.449219 490.203125 217.179688 Z M 502.019531 102.144531 C 502.019531 100.421875 502.707031 98.921875 504.082031 97.652344 C 505.457031 96.382812 507.152344 95.746094 509.164062 95.746094 C 511.089844 95.746094 512.738281 96.382812 514.113281 97.652344 C 515.484375 98.921875 516.171875 100.421875 516.171875 102.144531 C 516.171875 103.867188 515.484375 105.390625 514.113281 106.707031 C 512.738281 108.019531 511.089844 108.679688 509.164062 108.679688 C 507.242188 108.679688 505.570312 108.019531 504.152344 106.707031 C 502.730469 105.390625 502.019531 103.867188 502.019531 102.144531 Z M 523.4375 181.648438 C 523.4375 180.46875 523.828125 179.3125 524.605469 178.175781 C 525.386719 177.042969 526.324219 176.476562 527.421875 176.476562 C 528.15625 176.476562 529.210938 177.019531 530.582031 178.109375 C 531.957031 179.199219 533.925781 180.265625 536.492188 181.308594 C 539.054688 182.351562 542.078125 182.875 545.558594 182.875 C 550.140625 182.875 553.460938 182.054688 555.523438 180.421875 C 557.582031 178.789062 558.613281 176.746094 558.613281 174.296875 C 558.613281 171.300781 557.46875 168.917969 555.179688 167.148438 C 552.886719 165.378906 550.09375 164.039062 546.796875 163.132812 C 543.5 162.226562 540.203125 161.226562 536.902344 160.136719 C 533.605469 159.050781 530.8125 157.234375 528.523438 154.691406 C 526.230469 152.152344 525.085938 148.792969 525.085938 144.617188 C 525.085938 139.445312 526.941406 134.976562 530.652344 131.210938 C 534.359375 127.441406 540.019531 125.558594 547.621094 125.558594 C 552.476562 125.558594 556.917969 126.308594 560.949219 127.804688 C 564.980469 129.304688 566.996094 131.003906 566.996094 132.910156 C 566.996094 134 566.558594 135.226562 565.6875 136.585938 C 564.820312 137.949219 563.742188 138.628906 562.460938 138.628906 C 562.09375 138.628906 560.332031 137.96875 557.171875 136.65625 C 554.011719 135.339844 550.871094 134.679688 547.757812 134.679688 C 543.542969 134.679688 540.40625 135.65625 538.347656 137.609375 C 536.285156 139.558594 535.253906 141.761719 535.253906 144.210938 C 535.253906 146.75 536.398438 148.75 538.691406 150.199219 C 540.980469 151.652344 543.796875 152.785156 547.140625 153.605469 C 550.484375 154.421875 553.804688 155.417969 557.101562 156.597656 C 560.398438 157.777344 563.191406 159.796875 565.484375 162.65625 C 567.773438 165.515625 568.917969 169.214844 568.917969 173.753906 C 568.917969 179.378906 566.902344 183.824219 562.871094 187.09375 C 558.84375 190.359375 553.207031 191.996094 545.972656 191.996094 C 539.742188 191.996094 534.429688 190.882812 530.035156 188.660156 C 525.636719 186.433594 523.4375 184.097656 523.4375 181.648438 Z M 523.4375 181.648438 "/>
</g>
</svg>
