<svg width="320" height="180" viewBox="0 0 320 180" fill="none" xmlns="http://www.w3.org/2000/svg">
<g clip-path="url(#clip0)">
<rect width="320" height="180" fill="white"/>
<line x1="73.5" y1="-2.18557e-08" x2="73.5" y2="180" stroke="black" stroke-opacity="0.12"/>
<rect x="-1" y="8" width="74" height="40" fill="#F5F5F5"/>
<rect x="6" y="37" width="34" height="4" rx="2" fill="#797979"/>
<rect width="320" height="8" fill="#E0E0E0"/>
<rect x="298" y="2" width="4" height="4" fill="#5A5A5A"/>
<circle cx="307" cy="4" r="2" fill="#5A5A5A"/>
<path d="M313.5 2L315.665 5.75H311.335L313.5 2Z" fill="#5A5A5A"/>
<line y1="47.5" x2="73" y2="47.5" stroke="#E0E0E0"/>
<circle cx="14" cy="23" r="8" fill="#797979"/>
<rect x="19" y="55" width="26" height="6" rx="3" fill="#BBBBBB"/>
<rect x="6" y="55" width="6" height="6" rx="3" fill="#BBBBBB"/>
<rect x="19" y="67" width="39" height="6" rx="3" fill="#BBBBBB"/>
<rect x="6" y="67" width="6" height="6" rx="3" fill="#BBBBBB"/>
<rect x="19" y="79" width="31" height="6" rx="3" fill="#BBBBBB"/>
<rect x="6" y="79" width="6" height="6" rx="3" fill="#BBBBBB"/>
<rect x="83" y="23" width="226" height="100" rx="2" fill="#F9F9F9"/>
<rect x="89" y="28" width="22" height="6" rx="3" fill="#E4E4E4"/>
<rect x="107" y="43" width="24" height="5" rx="2.5" fill="#BBBBBB"/>
<rect x="107" y="51" width="60" height="3" rx="1.5" fill="#BBBBBB"/>
<circle cx="96" cy="49" r="7" fill="#797979"/>
<rect x="107" y="64" width="16" height="5" rx="2.5" fill="#BBBBBB"/>
<rect x="107" y="72" width="92" height="3" rx="1.5" fill="#BBBBBB"/>
<circle cx="96" cy="70" r="7" fill="#797979"/>
<rect x="107" y="85" width="30" height="5" rx="2.5" fill="#BBBBBB"/>
<rect x="107" y="93" width="51" height="3" rx="1.5" fill="#BBBBBB"/>
<circle cx="96" cy="91" r="7" fill="#797979"/>
<rect x="107" y="106" width="30" height="5" rx="2.5" fill="#BBBBBB"/>
<rect x="107" y="114" width="51" height="3" rx="1.5" fill="#BBBBBB"/>
<circle cx="96" cy="112" r="7" fill="#797979"/>
<line x1="107.002" y1="58.5" x2="309.002" y2="59.5" stroke="#E0E0E0"/>
<line x1="107.002" y1="79.5" x2="309.002" y2="80.5" stroke="#E0E0E0"/>
<line x1="107.002" y1="100.5" x2="309.002" y2="101.5" stroke="#E0E0E0"/>
<rect x="83" y="130" width="226" height="100" rx="2" fill="#F9F9F9"/>
<rect x="89" y="135" width="22" height="6" rx="3" fill="#E4E4E4"/>
<rect x="107" y="150" width="24" height="5" rx="2.5" fill="#BBBBBB"/>
<rect x="107" y="158" width="60" height="3" rx="1.5" fill="#BBBBBB"/>
<circle cx="96" cy="156" r="7" fill="#797979"/>
<rect x="107" y="171" width="16" height="5" rx="2.5" fill="#BBBBBB"/>
<rect x="107" y="179" width="92" height="3" rx="1.5" fill="#BBBBBB"/>
<circle cx="96" cy="177" r="7" fill="#797979"/>
<line x1="107.002" y1="165.5" x2="309.002" y2="166.5" stroke="#E0E0E0"/>
</g>
<defs>
<clipPath id="clip0">
<rect width="320" height="180" fill="white"/>
</clipPath>
</defs>
</svg>
