<?xml version="1.0" standalone="no"?>
<!DOCTYPE svg PUBLIC "-//W3C//DTD SVG 20010904//EN"
 "http://www.w3.org/TR/2001/REC-SVG-20010904/DTD/svg10.dtd">
<svg version="1.0" xmlns="http://www.w3.org/2000/svg"
 width="6000.000000pt" height="3375.000000pt" viewBox="0 0 6000.000000 3375.000000"
 preserveAspectRatio="xMidYMid meet">

<g transform="translate(0.000000,3375.000000) scale(0.100000,-0.100000)"
fill="#000000" stroke="none">
<path d="M24745 19483 c-658 -80 -1212 -398 -1609 -920 -168 -222 -314 -535
-385 -823 -61 -252 -61 -244 -61 -1545 l0 -1185 -3432 -2 -3433 -3 -140 -28
c-430 -86 -807 -292 -1105 -603 -283 -295 -457 -644 -537 -1074 -17 -89 -18
-304 -20 -3658 l-3 -3562 -49 0 c-88 0 -81 79 -81 -889 0 -973 -8 -891 83
-891 l47 0 0 -2150 0 -2150 4615 0 4615 0 0 5400 0 5400 5448 0 c4624 0 5451
-2 5467 -14 17 -12 19 -29 21 -137 2 -178 3 -1083 1 -1874 -2 -1003 -2 -1087
3 -1355 3 -135 4 -319 2 -410 -2 -91 -5 -1705 -7 -3587 l-4 -3423 2910 0 2909
0 0 64 c0 77 31 188 71 256 5 8 13 25 18 36 20 46 149 159 223 196 146 74 -21
68 2012 68 1568 -1 1837 -3 1871 -15 22 -8 47 -15 55 -15 41 0 149 -69 220
-140 110 -110 170 -244 170 -377 l0 -73 680 0 680 0 0 2500 c0 2462 0 2500 19
2500 11 0 27 7 35 16 14 14 16 153 16 1378 0 1046 -3 1365 -12 1374 -7 7 -22
12 -35 12 l-23 0 0 2665 c0 1813 -3 2697 -11 2763 -50 460 -251 875 -584 1207
-298 298 -649 480 -1090 567 l-110 22 -3427 3 -3428 3 0 1138 c0 698 -4 1183
-11 1257 -47 550 -284 1046 -685 1435 -362 350 -780 556 -1279 629 -140 21
-148 21 -5370 19 -2876 0 -5243 -3 -5260 -5z m10175 -546 c477 -81 855 -272
1180 -597 355 -354 564 -805 610 -1312 5 -57 9 -318 10 -580 l0 -478 -6736 0
-6735 0 3 563 4 562 27 140 c131 667 550 1216 1151 1509 234 115 497 187 740
205 61 5 2255 8 4876 7 4520 -1 4770 -2 4870 -19z m740 -135 c399 -153 726
-474 878 -862 47 -120 47 -131 -3 -40 -205 376 -518 686 -890 882 -111 59
-105 67 15 20z m-11520 -128 c-128 -85 -213 -156 -344 -287 -66 -66 -104 -100
-86 -76 97 127 284 290 434 381 93 56 91 45 -4 -18z m-7995 -4168 c46 -11 67
-23 93 -51 39 -42 37 -59 -7 -63 -22 -2 -40 4 -60 21 -16 13 -42 29 -59 36
-27 11 -36 10 -76 -10 -63 -31 -78 -58 -78 -136 0 -56 3 -68 27 -93 54 -56
145 -57 192 -1 40 46 31 60 -38 63 -45 2 -65 8 -73 20 -5 9 -7 20 -3 24 10 10
209 6 219 -4 6 -6 6 -31 2 -58 -6 -39 -16 -56 -55 -96 l-48 -48 -100 0 -99 0
-43 44 c-41 42 -69 103 -69 154 0 74 77 192 127 192 10 0 25 5 33 10 20 13 44
12 115 -4z m447 -4 c6 -6 8 -18 5 -26 -5 -11 -25 -16 -84 -18 l-78 -3 -3 -34
c-2 -19 -1 -44 2 -57 6 -22 12 -24 65 -24 44 0 62 -4 75 -19 24 -26 8 -35 -74
-41 l-65 -5 -3 -41 c-4 -58 14 -74 87 -74 39 0 63 -5 71 -15 23 -28 0 -35
-116 -35 l-114 0 0 195 c0 193 0 196 23 205 28 12 196 5 209 -8z m353 -2 c23
-19 1 -38 -48 -42 l-42 -3 -5 -170 -5 -170 -32 -3 -33 -3 -2 173 -3 173 -50 5
c-42 4 -50 8 -50 25 0 15 9 22 35 26 58 11 218 3 235 -11z m880 5 c74 -19 94
-44 94 -115 1 -37 -5 -62 -17 -77 -18 -23 -118 -67 -132 -58 -5 3 -20 1 -34
-4 -23 -9 -25 -16 -28 -73 -3 -61 -4 -63 -32 -66 -16 -2 -32 2 -37 10 -14 22
-11 352 4 370 23 30 98 35 182 13z m390 -6 c71 -24 96 -122 48 -187 -16 -22
-83 -50 -155 -66 -25 -6 -27 -10 -30 -69 l-3 -62 -35 0 -35 0 -3 185 c-3 221
-5 217 104 214 38 -1 87 -8 109 -15z m-785 -20 c6 -11 17 -39 25 -62 7 -23 23
-67 35 -97 12 -30 26 -71 31 -90 5 -19 17 -48 25 -63 21 -37 12 -57 -25 -57
-23 0 -34 7 -45 29 -18 35 -33 41 -96 41 -63 0 -78 -6 -96 -41 -11 -22 -22
-29 -44 -29 -40 0 -44 12 -20 64 11 25 20 53 20 63 0 10 7 27 15 37 8 11 15
27 15 35 1 9 9 34 20 56 11 22 19 50 20 61 0 12 9 33 21 48 26 33 83 37 99 5z
m-1669 -41 c73 -98 49 -246 -50 -310 -33 -22 -232 -28 -256 -8 -12 10 -15 36
-15 114 l0 102 39 22 c21 12 41 22 45 22 3 0 6 -44 6 -99 0 -123 6 -130 85
-111 64 15 91 40 102 95 13 60 -2 119 -39 150 -17 14 -29 27 -27 29 42 35 81
32 110 -6z m-419 -255 c-32 -61 -51 -73 -133 -80 -71 -6 -73 -5 -59 12 8 10
39 33 68 52 28 18 52 38 52 43 0 6 19 24 43 41 l42 31 3 -30 c2 -17 -6 -48
-16 -69z m27716 -265 c22 -19 14 -55 -16 -67 -40 -17 -82 0 -82 33 0 46 57 66
98 34z m-144 -14 c14 -5 16 -30 16 -169 l0 -163 -29 -7 c-17 -3 -39 -1 -50 5
-20 10 -21 19 -21 170 0 117 3 160 13 163 18 8 53 8 71 1z m446 -13 c15 -29
13 -306 -2 -318 -7 -6 -58 -10 -112 -11 l-99 -1 -33 34 c-18 19 -35 35 -38 35
-2 0 -6 -12 -8 -27 -4 -35 -45 -52 -83 -35 -25 11 -25 13 -25 127 0 114 0 116
25 127 38 17 79 0 83 -35 2 -15 6 -27 8 -27 3 0 19 13 35 30 25 25 38 29 92
32 l62 3 3 35 c2 19 9 38 15 42 23 15 66 8 77 -11z m-1243 -9 c7 -4 17 -31 24
-60 14 -68 39 -69 52 -2 12 59 22 70 65 70 41 0 72 -24 72 -56 0 -12 5 -35 10
-50 10 -26 11 -27 24 -8 7 10 17 35 21 54 10 48 22 60 60 60 56 0 57 -12 14
-170 -22 -80 -46 -148 -52 -152 -20 -13 -85 -9 -100 6 -8 8 -19 42 -26 75 -7
34 -14 61 -16 61 -2 0 -13 -31 -25 -69 -21 -73 -30 -81 -86 -81 -40 0 -59 24
-73 91 -16 75 -30 132 -42 171 -16 50 -7 68 33 68 18 0 38 -4 45 -8z m671
-186 c2 -78 -1 -122 -8 -126 -6 -4 -54 -7 -107 -8 l-96 -1 -34 34 c-30 30 -33
38 -33 96 0 51 4 68 26 96 l26 34 111 -3 112 -3 3 -119z m1577 -152 c12 -13
13 -19 4 -30 -24 -29 4 -37 87 -27 113 14 154 -1 237 -82 66 -66 127 -171 132
-227 1 -15 7 -33 13 -40 7 -9 9 -53 5 -133 -8 -155 -7 -284 1 -292 13 -13 18
7 17 72 0 49 3 67 14 72 20 7 19 52 0 59 -24 10 -20 71 6 79 11 4 23 5 26 2
12 -13 22 -221 13 -284 -5 -38 -10 -91 -10 -119 0 -28 -4 -64 -10 -80 -5 -16
-14 -63 -19 -104 -18 -153 -55 -246 -127 -315 -24 -24 -44 -48 -44 -53 0 -18
-93 -93 -150 -122 -86 -43 -155 -60 -249 -60 -178 0 -318 75 -452 240 -64 78
-97 149 -112 238 -8 45 -20 88 -26 96 -7 8 -11 44 -10 85 1 50 -3 78 -15 95
-21 32 -21 152 -1 296 18 134 33 187 79 279 53 107 100 167 180 226 39 29 85
64 101 79 45 39 128 64 217 65 58 1 81 -3 93 -15z m125 -29 c0 -19 -17 -19
-50 0 l-25 14 38 1 c26 0 37 -4 37 -15z m-1796 -169 c50 -17 96 -61 96 -92 0
-22 -4 -24 -42 -24 -26 0 -55 8 -73 20 -39 26 -51 25 -80 -5 -29 -28 -33 -79
-9 -113 18 -26 84 -31 104 -7 12 15 65 20 93 9 21 -8 10 -37 -28 -74 -27 -26
-45 -34 -84 -38 -75 -7 -114 4 -154 44 -85 86 -50 244 63 280 49 16 69 16 114
0z m-1280 -25 c35 -33 40 -64 16 -104 l-20 -34 25 -23 c34 -32 32 -69 -6 -106
-28 -27 -37 -29 -127 -34 -88 -5 -97 -7 -98 -25 -2 -48 -5 -56 -24 -75 -27
-27 -77 -26 -107 2 -25 23 -31 74 -13 107 11 21 56 41 85 38 19 -2 20 5 23
128 3 161 1 158 129 153 80 -3 96 -7 117 -27z m266 14 c25 -30 8 -50 -50 -55
-48 -4 -55 -8 -58 -27 -3 -19 1 -23 25 -23 66 0 93 -23 73 -60 -7 -13 -23 -20
-53 -22 -37 -3 -42 -6 -42 -28 0 -23 5 -25 49 -30 56 -6 79 -28 57 -54 -10
-12 -33 -16 -96 -16 -46 0 -90 3 -99 6 -14 5 -16 28 -16 153 0 101 4 151 12
159 18 18 182 16 198 -3z m114 9 c13 -5 16 -25 16 -113 0 -121 7 -138 59 -143
41 -4 61 -29 42 -52 -10 -12 -32 -16 -85 -16 -124 0 -116 -11 -116 161 0 130
2 149 18 158 20 12 44 14 66 5z m361 -8 c42 -18 53 -52 36 -114 -10 -39 -9
-47 5 -63 9 -10 20 -16 25 -13 5 2 8 43 7 91 -2 108 4 113 118 113 86 0 109
-11 102 -47 -2 -14 -16 -19 -58 -23 -47 -4 -55 -8 -55 -25 0 -16 9 -21 44 -26
52 -7 76 -31 58 -60 -8 -13 -23 -19 -48 -19 -20 0 -42 -7 -49 -15 -20 -25 5
-45 56 -45 39 0 44 -3 50 -26 9 -36 -7 -44 -98 -44 -91 0 -107 5 -119 38 l-10
25 -30 -29 c-28 -27 -36 -29 -124 -32 -136 -5 -130 -13 -126 165 2 97 7 151
15 155 20 13 165 9 201 -6z m763 2 c7 -7 12 -34 12 -61 l0 -48 48 3 47 3 3 45
c4 54 16 70 51 70 47 0 51 -13 51 -171 l0 -147 -30 -7 c-54 -12 -69 0 -72 58
-3 46 -6 53 -31 61 -43 16 -61 -2 -65 -62 -3 -44 -6 -51 -27 -56 -14 -4 -36
-4 -50 0 l-25 6 0 147 c0 158 4 171 50 171 14 0 31 -5 38 -12z m443 2 c10 -6
19 -19 19 -30 0 -21 -17 -27 -80 -32 -28 -2 -36 -8 -38 -25 -3 -20 1 -23 30
-23 48 0 73 -20 64 -53 -4 -19 -13 -27 -29 -27 -42 0 -67 -12 -67 -31 0 -19
17 -26 74 -31 40 -4 58 -34 32 -54 -20 -14 -158 -20 -190 -8 -14 5 -16 28 -16
153 0 101 4 151 12 159 15 15 161 16 189 2z m-5796 -446 c16 -4 38 -16 49 -26
20 -18 21 -18 28 2 7 18 15 21 50 18 42 -3 43 -4 46 -40 3 -36 5 -38 37 -38
32 0 34 2 37 38 3 37 3 37 48 37 l45 0 6 -105 c3 -58 6 -93 7 -79 1 14 9 34
17 45 8 10 15 27 15 37 0 11 6 31 14 45 8 15 17 35 20 45 4 13 17 17 61 17 54
0 56 -1 62 -30 3 -17 10 -33 14 -36 5 -3 9 -12 9 -21 0 -8 6 -29 14 -46 8 -18
18 -41 22 -52 6 -13 10 14 12 83 l3 102 93 0 c92 0 93 0 121 -32 21 -23 30
-28 33 -17 8 25 40 49 66 49 14 0 28 5 31 10 13 22 106 0 143 -33 19 -17 20
-17 25 3 5 19 12 20 198 20 184 0 194 -1 216 -22 32 -30 32 -99 0 -125 -24
-19 -21 -37 12 -77 24 -29 6 -46 -49 -46 -48 0 -52 2 -65 32 l-13 33 -4 -30
-3 -30 -145 0 c-143 0 -144 0 -150 23 l-5 24 -24 -26 c-22 -24 -31 -26 -104
-26 -78 0 -81 1 -114 35 -20 21 -37 50 -40 69 -5 32 -6 33 -22 17 -17 -15 -16
-18 6 -59 13 -24 21 -48 18 -53 -4 -5 -29 -9 -56 -9 -42 0 -51 3 -58 22 l-8
23 -7 -23 c-7 -21 -13 -22 -95 -22 -67 0 -92 4 -101 15 -16 20 -64 19 -80 0
-10 -12 -31 -15 -99 -13 l-86 3 -5 40 c-5 36 -8 40 -37 43 -31 3 -32 2 -35
-40 l-3 -43 -45 0 c-38 0 -45 3 -50 23 l-5 24 -24 -26 c-22 -24 -31 -26 -105
-26 -82 1 -114 13 -129 50 -3 9 -6 4 -6 -12 -1 -15 -5 -30 -11 -33 -6 -4 -10
42 -10 132 0 93 3 133 10 123 5 -8 10 -24 10 -35 0 -18 2 -18 13 4 13 25 22
32 72 49 30 11 53 10 110 -4z m1846 3 c20 -7 43 -18 52 -25 11 -10 17 -9 27 3
7 8 29 15 50 15 42 0 62 -21 74 -77 9 -38 33 -35 42 6 13 59 25 71 71 71 52 0
62 -16 39 -64 -9 -19 -16 -39 -16 -45 0 -6 -4 -19 -9 -29 -25 -51 -40 -89 -43
-107 -3 -17 -12 -20 -60 -23 l-57 -3 -18 43 c-10 24 -27 69 -38 101 -14 41
-21 53 -28 42 -11 -21 -93 -21 -101 0 -3 8 -18 15 -34 15 -22 0 -32 -7 -44
-32 -14 -30 -14 -36 0 -65 17 -36 36 -41 70 -17 14 9 38 14 64 12 54 -4 61
-28 22 -69 -26 -28 -32 -29 -113 -29 -76 0 -88 3 -107 23 -30 31 -54 82 -54
112 0 50 60 135 97 135 12 0 25 5 28 10 8 14 42 12 86 -3z m-13966 -244 c57
-82 215 -329 221 -346 3 -10 13 -17 22 -15 15 3 17 25 20 188 2 160 5 187 19
198 21 15 85 16 101 0 9 -9 12 -94 12 -323 0 -229 -3 -314 -12 -323 -13 -13
-96 -16 -114 -4 -6 4 -41 54 -78 112 -38 58 -77 117 -87 132 -10 15 -19 31
-19 36 0 5 -7 15 -16 23 -9 7 -23 28 -32 48 -9 19 -23 36 -29 39 -24 7 -33
-50 -33 -213 0 -152 -1 -165 -19 -175 -26 -14 -74 -13 -89 2 -9 9 -12 94 -12
323 0 229 3 314 12 323 7 7 33 12 59 12 44 0 50 -3 74 -37z m950 2 c64 -42 97
-80 126 -143 18 -40 22 -65 22 -162 -1 -106 -3 -119 -28 -165 -29 -55 -92
-125 -111 -125 -7 0 -20 -8 -30 -17 -14 -15 -39 -19 -136 -21 -114 -4 -120 -3
-166 24 -115 67 -162 157 -162 309 0 152 45 239 159 307 43 26 54 28 160 28
114 0 114 0 166 -35z m704 26 c13 -7 16 -18 13 -40 -5 -35 -21 -41 -117 -41
-42 0 -76 -5 -83 -12 -9 -9 -12 -84 -12 -278 0 -194 -3 -269 -12 -278 -15 -15
-72 -16 -99 -2 -18 10 -19 24 -19 284 0 313 9 286 -100 286 -72 0 -100 14
-100 49 0 39 16 41 268 41 134 0 251 -4 261 -9z m304 -6 c9 -8 21 -32 27 -52
6 -21 18 -51 25 -68 19 -41 101 -254 110 -285 4 -14 15 -39 26 -57 10 -18 21
-48 25 -67 3 -21 16 -41 30 -51 29 -19 31 -50 5 -65 -11 -5 -40 -10 -65 -10
-41 0 -48 3 -66 33 -11 17 -27 53 -36 80 -9 26 -24 52 -35 57 -10 6 -64 9
-120 8 -79 -2 -104 -6 -109 -18 -4 -8 -18 -40 -30 -70 -12 -30 -26 -62 -30
-70 -8 -17 -60 -25 -97 -15 -32 8 -30 21 37 195 28 74 60 160 70 190 10 30 31
87 45 125 15 39 33 85 40 104 6 18 18 37 26 42 23 14 106 11 122 -6z m775 3
c7 -7 12 -33 12 -60 0 -37 -4 -50 -19 -58 -11 -5 -77 -10 -148 -10 -175 0
-175 0 -171 -64 l3 -51 140 -5 c77 -3 146 -9 153 -13 7 -5 12 -30 12 -62 0
-32 -5 -57 -12 -62 -7 -4 -76 -10 -153 -13 l-140 -5 0 -55 0 -55 160 -5 c88
-3 166 -9 173 -13 16 -10 16 -99 0 -115 -16 -16 -460 -17 -489 -2 -18 10 -19
24 -19 325 0 288 1 315 18 324 26 15 465 14 480 -1z m464 -1 c7 -8 23 -19 35
-26 29 -15 82 -92 89 -131 9 -43 -9 -60 -67 -60 -63 0 -97 14 -109 44 -11 31
-39 46 -84 46 -37 0 -76 -28 -76 -53 0 -31 54 -64 113 -70 36 -4 67 -13 83
-26 15 -12 37 -21 51 -21 49 0 123 -109 123 -181 0 -30 -37 -96 -66 -116 -14
-10 -38 -28 -54 -40 -26 -21 -38 -23 -157 -23 -124 0 -131 1 -156 24 -15 14
-35 27 -45 30 -23 8 -87 129 -79 149 7 19 76 31 119 22 20 -5 46 -23 66 -46
32 -37 37 -39 90 -39 47 0 60 4 84 27 34 32 35 43 6 70 -17 15 -40 22 -84 25
-43 3 -69 10 -89 26 -15 12 -38 22 -51 22 -57 0 -114 92 -114 184 0 43 42 126
64 126 7 0 22 11 34 25 21 24 26 25 141 25 87 0 123 -4 133 -13z m732 7 c20
-8 23 -106 3 -122 -7 -6 -46 -12 -87 -14 l-75 -3 -3 -249 c-1 -164 -6 -254
-13 -263 -14 -16 -111 -18 -140 -3 -18 10 -19 24 -19 259 0 283 8 261 -95 261
-44 0 -68 5 -79 16 -19 18 -22 94 -4 112 9 9 79 12 254 12 133 0 249 -3 258
-6z m337 -41 c12 -27 25 -66 31 -88 5 -22 15 -47 22 -55 7 -8 25 -53 40 -100
15 -47 35 -105 46 -130 10 -25 26 -70 35 -100 9 -30 25 -72 35 -93 18 -36 18
-38 0 -47 -24 -13 -126 -13 -150 0 -11 6 -21 26 -25 50 -10 62 -32 71 -155 68
l-103 -3 -18 -54 c-9 -29 -23 -57 -31 -62 -20 -13 -132 -11 -146 3 -6 6 -8 18
-3 27 5 9 11 31 15 49 3 19 12 48 20 65 8 18 21 53 30 80 9 26 23 68 32 95 9
26 22 61 30 77 7 17 18 49 23 70 21 82 58 177 72 186 8 5 51 9 96 9 l82 0 22
-47z m1230 37 c14 -8 19 -21 19 -55 0 -71 -9 -75 -173 -75 -78 0 -148 -4 -155
-9 -9 -5 -12 -25 -10 -57 l3 -49 141 -5 c163 -6 174 -11 174 -75 0 -64 -11
-69 -174 -75 l-141 -5 -3 -49 c-2 -32 1 -52 10 -57 7 -5 78 -9 158 -9 174 0
190 -6 190 -75 0 -34 -5 -47 -19 -55 -31 -16 -486 -13 -500 3 -7 9 -12 101
-13 268 l-3 254 -70 -3 c-116 -5 -105 22 -105 -262 0 -236 -1 -250 -19 -260
-29 -15 -126 -13 -140 3 -7 9 -12 99 -13 263 l-3 249 -80 5 c-44 3 -86 9 -92
13 -17 10 -17 99 -1 115 16 16 989 17 1019 2z m11649 -49 c0 -11 4 -22 9 -26
5 -3 13 -30 16 -59 6 -46 11 -55 31 -60 20 -5 24 -13 24 -41 0 -28 -4 -35 -19
-35 -21 0 -31 19 -31 56 0 13 -4 24 -9 24 -5 0 -11 22 -15 50 -4 27 -11 52
-16 55 -13 8 -13 55 0 55 6 0 10 -9 10 -19z m165 -18 c4 -21 10 -47 15 -58 5
-11 12 -35 15 -52 4 -18 11 -33 16 -33 6 0 16 15 24 33 l14 32 1 -50 c0 -50
-12 -75 -36 -75 -14 0 -22 19 -35 84 -14 74 -69 107 -69 42 0 -19 -4 -38 -10
-41 -21 -13 -11 42 25 143 10 27 34 11 40 -25z m439 7 c5 -29 7 -30 66 -30 80
0 100 -17 100 -86 0 -85 -23 -101 -142 -96 l-48 2 0 120 c0 114 11 155 24 90z
m-304 11 c0 -6 -4 -13 -10 -16 -5 -3 -10 -21 -10 -40 0 -19 -4 -37 -10 -40
-11 -7 -13 27 -4 74 6 27 34 46 34 22z m-7978 -43 c17 -13 59 -113 77 -183 6
-22 17 -49 24 -60 7 -11 19 -39 27 -62 7 -24 16 -43 20 -43 10 0 20 38 20 78
0 45 25 96 63 128 28 24 37 26 99 22 58 -3 72 -8 97 -32 l30 -29 37 33 c35 31
40 32 105 28 58 -3 73 -8 97 -31 l28 -27 14 25 c15 28 41 39 70 30 18 -6 20
-15 20 -100 0 -100 11 -141 42 -151 38 -12 48 12 48 120 0 55 4 106 8 112 11
17 53 24 74 13 16 -9 18 -24 18 -149 0 -123 -2 -140 -17 -148 -10 -5 -59 -9
-108 -11 -88 -2 -92 -1 -130 29 l-39 31 -27 -31 c-26 -28 -33 -30 -97 -30 -62
0 -73 3 -108 31 l-39 31 -24 -29 c-22 -25 -32 -28 -98 -32 l-74 -3 -38 40
c-40 42 -51 44 -51 7 0 -43 -46 -59 -88 -30 -12 9 -28 37 -35 63 l-14 47 -59
3 c-32 2 -68 1 -79 -2 -20 -5 -45 -54 -45 -89 0 -10 -12 -22 -26 -27 -33 -13
-37 -13 -58 3 -14 10 -15 18 -8 37 5 14 18 45 27 70 28 73 37 94 50 120 7 14
16 41 20 60 4 19 16 51 26 70 11 19 19 39 19 45 0 33 70 48 102 23z m1596 -2
c9 -5 12 -66 12 -211 0 -235 1 -232 -86 -216 -30 6 -55 6 -67 0 -24 -13 -57
-2 -85 29 l-24 25 -28 -32 c-27 -29 -33 -31 -97 -31 -78 0 -99 11 -144 73 -40
56 -40 118 0 174 43 59 67 73 128 73 68 0 96 -12 120 -50 19 -29 21 -30 37
-15 9 9 16 23 16 31 0 21 49 37 77 25 31 -14 58 11 43 40 -9 16 -18 18 -50 13
-26 -4 -45 -2 -55 6 -20 16 -19 57 1 68 18 10 185 9 202 -2z m6591 -22 c12
-15 21 -37 21 -50 0 -23 -3 -24 -74 -24 -41 0 -78 -4 -81 -10 -3 -5 2 -21 11
-35 13 -19 25 -25 55 -25 26 0 41 6 48 17 5 10 13 14 17 10 17 -17 -25 -40
-71 -39 -60 0 -84 28 -85 95 0 65 20 85 87 86 44 1 54 -3 72 -25z m-23441 -5
c62 -21 82 -103 40 -159 -20 -28 -27 -30 -83 -30 -51 0 -65 4 -82 23 -46 50
-37 123 19 157 37 23 62 25 106 9z m-3673 -103 c62 -22 101 -40 180 -83 41
-23 145 -143 175 -203 35 -70 34 -64 14 -84 -10 -11 -34 -16 -75 -16 -67 0
-76 6 -139 99 -37 54 -115 114 -190 147 -63 27 -312 28 -353 2 -14 -10 -33
-18 -41 -18 -13 0 -95 -60 -137 -100 -31 -29 -86 -125 -109 -190 -32 -92 -33
-296 -2 -385 75 -216 249 -345 466 -345 126 0 240 46 329 133 71 69 130 191
140 287 l2 25 -265 5 c-146 3 -266 7 -267 8 -9 7 -1 110 9 120 9 9 99 12 344
12 276 0 334 -2 344 -14 16 -20 8 -175 -14 -246 -37 -123 -106 -233 -193 -306
-32 -27 -60 -52 -63 -55 -3 -4 -32 -18 -65 -33 -33 -15 -68 -31 -77 -36 -9 -5
-69 -19 -133 -30 -106 -18 -122 -19 -169 -5 -28 7 -73 17 -100 21 -46 6 -128
43 -211 96 -63 40 -153 144 -192 222 -153 310 -80 677 172 867 59 44 160 99
184 99 9 1 27 7 41 15 19 11 64 14 175 15 133 0 158 -3 220 -24z m3028 -18
c13 -11 17 -34 19 -123 l3 -110 128 -5 c143 -6 147 -8 147 -77 0 -66 -14 -73
-140 -73 -60 0 -115 -3 -124 -6 -14 -5 -16 -43 -15 -328 0 -230 4 -331 13
-356 18 -50 62 -69 158 -70 90 0 108 -12 108 -70 0 -57 -18 -63 -164 -58 -105
4 -126 8 -161 29 -65 38 -84 62 -108 133 -5 17 -13 184 -16 376 l-6 345 -58 5
c-35 3 -62 11 -68 20 -10 16 -7 106 5 117 3 4 33 9 65 11 l59 4 4 115 c2 88 6
116 18 123 22 14 113 12 133 -2z m19823 -243 c12 -30 -6 -63 -42 -80 -30 -14
-40 -15 -66 -4 -35 14 -63 66 -46 87 16 19 147 16 154 -3z m-21561 -11 c22 -8
49 -18 60 -21 11 -4 43 -22 70 -41 137 -95 205 -233 205 -416 0 -65 -2 -74
-22 -84 -16 -9 -137 -13 -413 -15 l-390 -2 -3 -37 c-7 -85 89 -221 188 -265
46 -20 71 -24 150 -25 69 0 103 4 125 16 17 9 35 16 42 16 22 0 110 95 122
132 13 40 30 48 103 48 55 0 78 -7 78 -26 0 -33 -51 -123 -96 -170 -80 -82
-135 -112 -266 -144 -99 -24 -92 -24 -254 10 -119 25 -250 125 -306 234 -47
91 -61 156 -61 276 -1 172 42 290 143 390 55 55 130 99 225 131 41 14 258 9
300 -7z m1101 -14 c116 -58 181 -138 192 -237 6 -54 -4 -63 -71 -63 -58 0 -87
14 -87 41 0 27 -37 90 -67 112 -26 20 -120 47 -161 47 -124 -2 -217 -88 -197
-179 8 -39 77 -109 112 -116 16 -3 41 -12 56 -20 16 -8 34 -15 40 -15 18 0
145 -40 215 -68 193 -78 238 -282 95 -426 -36 -37 -122 -86 -151 -86 -7 0 -36
-8 -64 -17 -54 -17 -63 -16 -222 17 -134 28 -255 141 -259 243 -2 41 -1 41 38
48 75 13 103 2 129 -50 26 -51 42 -67 101 -100 55 -32 213 -34 262 -4 57 34
77 70 78 134 0 50 -4 62 -29 88 -17 17 -35 31 -40 31 -6 1 -29 9 -51 20 -22
11 -49 19 -60 20 -12 0 -46 9 -78 20 -31 11 -63 20 -72 20 -8 0 -23 4 -33 9
-9 5 -42 21 -74 36 -76 37 -123 87 -148 159 -25 75 -25 91 2 163 28 73 83 129
168 170 62 30 70 32 191 32 120 1 128 0 185 -29z m1288 20 l26 -10 0 -504 0
-504 -22 -6 c-36 -9 -97 -7 -119 4 -18 10 -19 27 -19 507 0 460 1 497 18 509
20 16 80 18 116 4z m958 -13 c164 -58 264 -160 319 -328 15 -45 19 -88 20
-183 0 -69 -4 -133 -9 -143 -5 -10 -20 -45 -33 -78 -13 -33 -34 -76 -47 -95
-26 -39 -95 -105 -129 -123 -118 -65 -257 -103 -332 -92 -160 24 -269 74 -353
161 -48 52 -109 165 -122 228 -12 62 -13 213 -2 281 12 71 57 161 112 223 49
56 154 132 182 132 9 1 33 9 52 20 55 30 251 28 342 -3z m736 7 c15 -11 22
-25 22 -50 0 -44 23 -45 70 -4 19 16 40 29 45 30 6 0 28 9 50 20 56 29 270 29
330 0 22 -11 45 -19 50 -20 18 0 116 -92 142 -133 14 -22 35 -65 46 -96 20
-52 21 -80 25 -403 l3 -348 -26 -10 c-33 -13 -86 -13 -119 -1 l-25 10 -3 348
c-3 343 -3 349 -27 393 -30 58 -93 117 -140 130 -101 30 -204 22 -281 -23 -48
-29 -76 -59 -107 -120 l-27 -52 -4 -335 c-3 -293 -6 -337 -20 -347 -17 -14
-81 -17 -119 -7 l-23 6 0 504 0 505 23 9 c35 14 91 11 115 -6z m19899 -439
c-2 -56 -5 -70 -18 -73 -20 -4 -34 27 -19 42 16 16 11 79 -9 105 -16 20 -24
23 -56 18 -45 -7 -64 -30 -65 -78 0 -48 30 -79 76 -79 21 0 33 -4 29 -10 -9
-14 -68 -12 -87 3 -26 21 -48 60 -48 86 0 13 10 39 21 58 21 34 23 34 83 32
58 -3 61 -2 64 22 11 89 32 -1 29 -126z m763 44 c0 -73 -4 -119 -10 -119 -6 0
-10 49 -10 126 0 81 4 123 10 119 6 -4 10 -57 10 -126z m-541 35 c12 -15 21
-37 21 -50 0 -23 -3 -24 -74 -24 -41 0 -78 -4 -81 -10 -3 -5 2 -21 11 -35 13
-19 25 -25 55 -25 26 0 41 6 48 17 5 10 13 14 18 10 11 -12 -34 -47 -61 -47
-63 1 -99 39 -98 106 0 60 24 82 89 83 44 1 54 -3 72 -25z m93 -11 c9 -21 19
-50 22 -65 5 -21 12 -28 31 -28 20 0 25 -5 25 -25 0 -20 -5 -25 -25 -25 -20 0
-25 5 -25 25 0 14 -4 25 -9 25 -5 0 -12 14 -16 31 -4 17 -13 42 -21 57 -16 31
-17 42 -6 42 5 0 15 -17 24 -37z m138 31 c0 -3 -6 -20 -14 -37 -7 -18 -18 -43
-24 -57 -10 -24 -11 -23 -11 13 -1 20 3 37 8 37 5 0 12 11 15 25 5 21 26 36
26 19z m190 -8 c0 -8 7 -16 15 -20 9 -3 15 -18 15 -36 l0 -30 -67 0 c-87 0
-101 -8 -78 -44 14 -21 25 -26 56 -26 26 0 41 6 48 17 11 21 24 13 16 -10 -7
-16 -35 -27 -72 -27 -13 0 -37 13 -55 29 -26 23 -33 37 -33 68 0 22 9 49 20
65 18 24 27 27 78 28 42 0 57 -4 57 -14z m330 -3 c11 -10 20 -25 20 -33 0 -9
5 -21 12 -28 9 -9 9 -15 0 -24 -7 -7 -12 -19 -12 -27 0 -25 -50 -61 -85 -61
-52 0 -125 84 -97 112 7 7 12 19 12 27 0 47 107 71 150 34z m262 -5 c16 -18
19 -34 16 -75 -6 -73 -32 -95 -107 -91 l-56 3 -3 -35 c-2 -19 -8 -39 -13 -44
-5 -6 -9 43 -9 127 l0 137 76 0 c67 0 79 -3 96 -22z m251 -7 c27 -46 22 -97
-13 -133 -31 -31 -29 -31 -115 -16 -17 3 -20 -3 -23 -44 -2 -27 -7 -48 -13
-48 -5 0 -9 56 -9 134 l0 134 78 1 c76 1 78 1 95 -28z m228 7 c11 -11 19 -34
19 -49 0 -28 0 -28 -72 -31 -58 -2 -73 -6 -76 -19 -8 -43 72 -66 110 -32 10 9
21 13 25 10 13 -14 -41 -47 -76 -47 -38 0 -64 21 -90 73 -15 29 -7 58 28 100
22 26 108 24 132 -5z m99 -45 c0 -77 16 -103 63 -103 42 0 56 25 57 97 0 91
18 87 22 -4 2 -43 2 -83 0 -89 -2 -7 -28 -15 -59 -19 -49 -6 -58 -4 -79 16
-21 20 -24 31 -24 96 0 42 4 73 10 73 6 0 10 -29 10 -67z m288 56 c-32 -12
-48 -53 -48 -120 0 -27 -4 -49 -10 -49 -6 0 -10 37 -10 90 l0 90 48 -1 c42 -1
44 -2 20 -10z m-3350 -1196 c6 -9 12 -34 12 -54 0 -71 -85 -105 -135 -54 -41
41 -26 114 28 134 28 10 78 -4 95 -26z m1173 10 c35 -30 27 -112 -11 -133 -54
-29 -120 8 -120 66 0 48 9 65 44 80 33 14 61 10 87 -13z m-25857 -353 c7 -7
12 -98 14 -254 l3 -243 27 23 c15 13 41 35 57 49 17 14 58 39 93 55 60 29 67
30 205 30 l142 0 75 -37 c84 -43 173 -125 208 -191 51 -99 62 -149 62 -293 0
-143 -10 -191 -59 -288 -31 -59 -147 -172 -193 -186 -12 -4 -32 -14 -43 -21
-11 -8 -31 -14 -45 -14 -14 0 -43 -7 -65 -15 -53 -19 -102 -18 -189 1 -94 22
-160 55 -221 109 l-50 45 -3 -57 c-2 -32 -8 -63 -14 -70 -14 -17 -130 -17
-146 -1 -9 9 -12 169 -12 659 0 355 3 660 6 677 4 17 14 33 23 36 25 8 113 -2
125 -14z m3327 -2 c14 -22 11 -1342 -3 -1356 -7 -7 -39 -12 -73 -12 -34 0 -66
5 -73 12 -7 7 -12 30 -12 53 0 64 -16 71 -64 27 -99 -92 -296 -144 -403 -108
-26 9 -57 16 -71 16 -39 0 -157 76 -211 136 -78 88 -108 163 -131 321 -7 54
-5 85 10 162 10 53 27 115 38 139 46 102 161 213 255 244 18 6 36 15 42 19 5
5 73 9 150 9 141 0 142 0 213 -35 39 -19 87 -50 108 -70 62 -61 64 -54 64 200
0 216 1 226 21 246 19 19 29 21 77 16 30 -3 59 -12 63 -19z m2984 -110 c3 -13
6 -68 8 -123 l2 -100 125 -3 c103 -2 127 -5 138 -19 16 -22 16 -98 -1 -111 -8
-7 -67 -13 -138 -14 l-124 -3 -3 -325 c-2 -217 1 -338 8 -363 14 -49 51 -65
151 -68 94 -2 119 -16 119 -67 0 -21 -5 -43 -12 -50 -8 -8 -54 -12 -141 -12
-119 0 -132 2 -171 25 -58 34 -81 61 -105 125 -19 51 -21 76 -21 386 -1 252
-4 335 -13 343 -7 5 -37 11 -67 13 l-55 3 -5 40 c-3 22 -3 52 0 65 5 22 12 25
60 28 30 2 60 8 67 14 9 7 13 43 13 118 0 77 4 110 13 113 6 3 42 6 79 6 62 1
68 -1 73 -21z m-761 -244 c11 -8 27 -14 36 -14 31 0 141 -83 183 -138 55 -74
76 -120 93 -210 19 -99 18 -161 -3 -184 -15 -17 -41 -18 -413 -18 -435 0 -410
4 -410 -58 0 -37 51 -141 87 -177 42 -42 72 -65 83 -65 6 0 27 -9 47 -20 30
-16 57 -20 125 -20 69 0 96 4 125 20 21 11 42 20 48 20 20 0 92 78 114 123 19
39 28 47 57 53 40 7 112 0 124 -13 12 -12 -29 -102 -69 -154 -57 -74 -183
-159 -235 -159 -13 0 -43 -7 -66 -15 -23 -8 -66 -15 -95 -15 -29 0 -72 7 -95
15 -23 8 -53 15 -66 15 -78 0 -258 147 -302 248 -75 172 -72 387 8 540 45 86
162 193 228 208 15 4 37 12 49 20 40 25 311 23 347 -2z m-4280 10 c14 -5 16
-42 16 -308 0 -379 11 -442 89 -523 17 -18 54 -44 83 -59 47 -24 59 -26 137
-21 103 6 155 29 208 93 74 88 76 99 82 479 l6 340 65 3 c36 1 71 -2 78 -6 19
-13 19 -1001 0 -1014 -19 -12 -132 -10 -145 3 -6 6 -9 17 -7 23 3 7 0 25 -6
41 -9 24 -12 26 -23 12 -20 -26 -120 -87 -143 -87 -12 0 -39 -7 -59 -16 -27
-11 -58 -14 -104 -11 -178 12 -304 89 -373 226 l-33 66 -3 369 c-1 204 0 376
2 383 6 14 100 19 130 7z m3004 -17 c24 -10 49 -22 55 -27 7 -5 36 -28 65 -50
28 -22 52 -45 52 -51 0 -6 5 -7 10 -4 6 3 10 28 10 55 0 27 4 60 10 75 9 25
13 26 77 23 l68 -3 5 -515 c6 -629 3 -665 -76 -811 -22 -41 -117 -124 -171
-149 -26 -12 -59 -27 -72 -33 -15 -8 -81 -12 -175 -12 -160 0 -173 3 -284 58
-97 49 -192 171 -195 251 l-2 41 68 3 c67 3 68 3 85 -29 39 -71 60 -95 119
-135 141 -94 375 -72 462 43 11 15 25 34 31 40 29 35 50 140 50 256 0 64 -2
117 -5 117 -3 0 -25 -19 -50 -43 -57 -56 -126 -93 -217 -117 -90 -24 -131 -25
-216 -4 -151 37 -239 98 -319 222 -59 91 -75 162 -70 320 4 169 26 239 107
336 62 74 95 98 210 150 50 22 306 17 368 -7z m2722 -1733 c0 -8 -4 -14 -9
-14 -5 0 -24 -12 -41 -26 -39 -33 -38 -68 2 -72 36 -4 55 -27 38 -47 -7 -8
-20 -15 -29 -15 -36 0 -41 -20 -41 -177 l0 -153 -26 -6 c-14 -4 -29 -3 -34 2
-5 5 -10 80 -12 166 -2 86 -7 160 -11 165 -13 12 -125 7 -142 -7 -11 -9 -15
-44 -17 -169 -3 -154 -3 -156 -26 -159 -47 -7 -52 9 -52 171 0 143 -1 152 -22
175 l-23 24 23 18 c12 10 22 26 22 35 0 26 38 93 59 105 11 5 40 10 64 10 64
0 66 -21 6 -60 -36 -23 -49 -38 -49 -55 0 -21 6 -24 58 -30 33 -4 69 -2 85 4
23 9 27 16 27 50 0 53 26 83 81 91 46 6 69 -2 69 -26z m-6746 4 c17 -28 -4
-53 -45 -53 -30 0 -34 3 -37 29 -2 16 2 33 10 38 20 13 60 5 72 -14z m1345 8
c8 -9 11 -88 9 -267 -3 -235 -4 -254 -21 -257 -44 -9 -47 6 -47 269 0 226 2
249 18 258 23 14 28 13 41 -3z m2165 -8 c15 -25 -4 -52 -38 -56 -32 -4 -56 13
-56 39 0 38 72 51 94 17z m455 8 c8 -9 11 -88 9 -267 l-3 -254 -23 -3 c-13 -2
-34 3 -46 12 -21 13 -25 13 -40 -2 -13 -13 -35 -17 -99 -17 -71 0 -87 3 -111
23 -49 38 -74 81 -81 137 -13 104 25 193 97 231 43 22 160 18 191 -6 14 -11
28 -20 31 -20 3 0 6 35 6 78 0 47 5 83 12 90 16 16 43 15 57 -2z m2911 -1 c20
-24 4 -65 -24 -65 -39 0 -56 11 -56 34 0 43 53 63 80 31z m15093 -20 c34 -32
37 -89 6 -129 -17 -22 -28 -26 -73 -26 -42 0 -57 5 -74 23 -26 28 -41 87 -22
87 20 0 50 31 50 52 0 30 78 25 113 -7z m-22175 -28 c33 -30 44 -54 37 -77 -9
-28 -47 -25 -74 4 -13 14 -39 32 -57 41 -32 15 -36 15 -74 -7 -31 -18 -41 -31
-46 -57 -6 -30 -3 -37 27 -62 19 -16 46 -29 62 -29 16 0 41 -7 55 -15 15 -8
39 -19 54 -25 30 -10 78 -78 78 -110 0 -28 -33 -90 -62 -116 -29 -27 -90 -38
-163 -29 -44 6 -64 14 -91 41 -30 28 -35 38 -32 71 2 31 7 39 25 41 17 3 28
-6 44 -32 11 -19 36 -45 54 -56 31 -19 35 -20 72 -5 103 41 83 139 -31 160
-22 4 -49 13 -60 21 -11 8 -28 14 -38 14 -23 0 -68 61 -75 103 -10 66 44 139
112 150 17 3 59 3 95 1 49 -4 71 -10 88 -27z m5742 4 c5 -11 10 -33 10 -50 0
-29 2 -31 38 -31 49 0 66 -12 57 -39 -5 -16 -15 -21 -38 -21 -56 0 -58 -5 -55
-141 l3 -123 45 -17 c31 -12 45 -22 45 -35 0 -17 -8 -19 -65 -19 -62 0 -65 1
-87 34 -21 31 -23 46 -23 151 0 102 -3 121 -20 143 -11 14 -20 32 -20 41 0 8
9 20 20 26 14 7 20 21 20 43 0 54 47 79 70 38z m18885 -341 l0 -325 -77 -3
c-43 -2 -87 2 -98 8 -12 7 -26 7 -37 1 -49 -25 -103 -34 -140 -23 -21 6 -48
14 -60 17 -26 7 -81 59 -94 89 -5 12 -13 28 -18 36 -17 28 -31 131 -21 151 6
10 10 29 10 44 0 33 30 93 66 128 58 58 160 83 214 52 14 -8 35 -14 48 -15 21
0 22 4 22 73 0 45 5 78 12 85 9 9 39 12 93 10 l80 -3 0 -325z m-24105 260 c16
0 42 -11 58 -25 32 -27 47 -26 93 8 19 13 43 19 86 18 75 0 105 -12 134 -53
23 -31 24 -41 24 -188 0 -154 0 -155 -23 -158 -46 -7 -52 10 -52 152 0 72 -4
136 -8 142 -14 20 -57 44 -79 44 -39 0 -74 -23 -94 -62 -15 -30 -19 -58 -19
-146 0 -116 -9 -140 -48 -128 -17 6 -20 20 -25 139 -3 72 -8 140 -12 149 -8
20 -59 48 -87 48 -33 0 -76 -29 -93 -62 -11 -23 -18 -68 -21 -143 -6 -129 -7
-135 -32 -135 -11 0 -24 6 -29 13 -6 6 -11 91 -12 188 l-2 175 27 13 c22 10
30 9 43 -3 11 -10 21 -12 27 -6 12 12 85 29 102 24 8 -2 26 -4 42 -4z m-338
-9 l23 -9 -5 -188 -5 -189 -30 0 -30 0 -3 184 c-2 127 1 188 9 197 14 17 12
16 41 5z m907 -17 c13 -12 18 -11 34 4 15 13 38 17 106 17 93 0 115 -10 162
-69 23 -29 36 -139 25 -201 -10 -53 -80 -121 -135 -130 -54 -9 -137 3 -157 23
-25 24 -34 -1 -34 -99 0 -52 -5 -90 -12 -97 -16 -16 -45 -15 -54 0 -9 14 -7
556 2 570 7 11 44 1 63 -18z m850 1 c63 -46 75 -65 79 -127 4 -53 3 -58 -19
-66 -13 -5 -84 -9 -157 -10 -74 0 -136 -2 -138 -5 -3 -3 4 -22 15 -42 25 -47
86 -86 121 -78 38 10 87 41 105 69 23 35 59 29 63 -9 5 -44 -61 -103 -126
-112 -66 -9 -140 3 -175 29 -38 28 -77 101 -84 157 -4 35 0 57 20 100 43 93
83 118 188 119 64 0 80 -3 108 -25z m576 11 c26 19 91 18 99 -1 6 -17 -3 -47
-18 -57 -6 -4 -25 -8 -42 -8 -26 0 -33 -6 -52 -45 -19 -38 -22 -63 -22 -155 0
-60 -4 -111 -10 -115 -5 -3 -20 -3 -34 1 l-25 6 0 184 c-1 182 0 185 22 193
14 6 29 5 42 -4 17 -10 24 -10 40 1z m426 2 c27 -8 46 -8 62 -1 12 6 31 7 44
2 21 -7 21 -13 22 -188 0 -174 0 -181 -21 -192 -14 -8 -27 -8 -43 -1 -17 8
-36 7 -71 -4 -67 -21 -163 -12 -204 18 -84 61 -107 199 -50 291 42 66 80 87
159 87 35 0 81 -5 102 -12z m289 -17 c0 -5 17 0 38 11 55 29 174 22 221 -12
39 -29 81 -116 81 -167 0 -64 -31 -132 -79 -171 -41 -35 -47 -36 -120 -37 -58
0 -84 5 -105 18 -15 10 -30 16 -33 14 -2 -3 -5 -46 -5 -95 0 -108 -11 -133
-52 -114 l-26 12 0 275 0 276 23 8 c22 9 57 -2 57 -18z m478 -174 l2 -187 -24
-6 c-14 -3 -30 -3 -35 1 -15 9 -15 367 0 382 7 7 20 8 33 4 20 -8 21 -15 24
-194z m854 177 c46 -32 74 -75 83 -130 10 -62 -1 -66 -172 -70 -80 -2 -148 -6
-150 -8 -3 -2 3 -20 12 -40 19 -40 77 -79 118 -78 30 1 81 33 111 70 25 31 60
26 64 -10 5 -43 -64 -104 -128 -113 -105 -14 -193 22 -230 95 -30 59 -28 164
4 221 37 65 85 89 175 89 65 0 80 -4 113 -26z m948 1 c56 -41 104 -149 82
-183 -9 -14 -83 -21 -219 -22 l-93 0 0 -28 c0 -32 27 -60 82 -85 46 -22 74
-12 128 43 39 40 54 46 77 32 9 -6 10 -17 2 -45 -26 -94 -212 -131 -298 -60
-56 46 -71 82 -71 166 0 90 8 113 51 156 43 44 61 50 150 50 65 1 80 -2 109
-24z m908 -4 c57 -43 96 -165 60 -188 -7 -4 -53 -8 -103 -9 -201 -2 -205 -3
-205 -22 0 -45 94 -114 143 -105 15 3 27 8 27 12 0 3 13 12 28 19 16 7 35 24
42 38 10 18 21 24 39 22 42 -5 38 -38 -12 -94 l-45 -49 -89 0 c-82 0 -93 2
-130 28 -117 81 -108 291 17 359 53 29 182 22 228 -11z m646 19 l26 -10 0
-173 c0 -188 -6 -212 -51 -205 l-24 3 -3 184 c-2 127 1 188 9 197 14 17 11 16
43 4z m15508 -80 c48 -21 108 -75 108 -97 0 -7 5 -22 12 -32 22 -35 4 -51 -59
-52 -32 0 -67 -4 -78 -9 -17 -6 -14 -9 19 -15 27 -5 53 -22 83 -51 40 -41 43
-47 43 -99 0 -30 -4 -55 -10 -55 -5 0 -10 -6 -10 -14 0 -26 -73 -72 -134 -85
-113 -25 -237 24 -280 111 -33 66 -21 78 79 78 59 0 65 -2 88 -31 20 -25 30
-30 58 -27 79 7 18 62 -83 75 -21 3 -42 11 -49 19 -6 8 -16 14 -22 14 -6 0
-24 12 -39 27 -25 24 -28 34 -28 90 0 58 3 66 36 103 20 22 44 40 53 40 9 1
27 7 41 15 36 21 120 18 172 -5z m509 6 c14 -7 36 -16 50 -19 37 -10 85 -57
114 -110 21 -41 25 -61 25 -133 0 -80 -2 -88 -35 -139 -61 -96 -171 -139 -289
-114 -110 23 -179 92 -206 207 -11 46 -10 62 5 115 30 108 58 138 175 190 44
20 127 21 161 3z m630 -6 c58 -26 71 -37 102 -87 27 -42 27 -44 27 -228 l0
-185 -84 0 c-67 0 -85 3 -90 16 -3 9 -6 80 -6 159 l0 143 -31 26 c-39 33 -51
33 -91 -3 l-33 -29 -5 -154 -5 -153 -79 -3 c-57 -2 -82 1 -87 10 -5 7 -9 113
-9 236 0 209 1 223 20 242 28 28 117 28 152 0 14 -10 29 -16 32 -12 14 13 91
41 117 41 15 1 46 -8 70 -19z m1322 -1 c53 -20 117 -68 117 -87 0 -5 7 -15 15
-22 8 -7 15 -25 15 -41 0 -15 5 -31 10 -34 17 -11 12 -102 -6 -109 -9 -3 -83
-6 -164 -6 -82 0 -151 -4 -154 -9 -11 -17 4 -37 37 -53 32 -15 34 -15 75 13
38 26 51 29 118 29 88 0 98 -10 67 -71 -46 -90 -171 -143 -284 -119 -33 7 -64
19 -70 26 -6 8 -17 14 -23 14 -16 0 -59 47 -79 85 -25 49 -39 138 -27 169 5
15 10 38 10 52 0 48 89 153 131 154 8 1 25 7 39 15 36 21 110 18 173 -6z
m-2862 1 c18 -10 19 -24 19 -255 l0 -245 -84 0 c-67 0 -85 3 -90 16 -3 9 -6
114 -6 235 0 206 1 220 20 239 22 22 106 28 141 10z m-15004 -163 c-2 -23 -3
-1 -3 48 0 50 1 68 3 42 2 -26 2 -67 0 -90z m-5016 -63 c7 -21 5 -35 -11 -66
-11 -21 -20 -46 -20 -56 0 -30 -43 -74 -64 -66 -15 6 -17 14 -12 51 3 25 12
59 20 76 8 18 17 42 21 54 3 12 16 24 28 26 12 2 23 5 25 6 1 0 7 -11 13 -25z
m2815 1 c10 -25 -48 -176 -71 -185 -33 -12 -47 -1 -42 34 8 48 46 149 60 158
20 13 47 9 53 -7z m19583 -720 c58 -15 121 -66 121 -96 0 -10 5 -21 10 -24 17
-10 11 -44 -9 -55 -11 -5 -47 -10 -81 -10 -54 0 -62 2 -72 24 -14 33 -37 40
-59 20 -17 -15 -17 -19 -3 -46 15 -30 152 -168 166 -168 4 0 17 14 30 30 21
29 25 30 100 30 95 0 96 -4 37 -116 l-40 -77 70 -67 c39 -37 68 -70 64 -73 -3
-4 -50 -7 -103 -7 -75 0 -100 4 -110 15 -16 19 -41 19 -66 0 -10 -8 -28 -15
-39 -15 -11 0 -40 -7 -65 -16 -25 -9 -58 -13 -75 -10 -162 31 -225 89 -225
204 0 77 9 99 60 150 l41 42 -13 53 c-19 74 -4 130 47 174 21 18 50 33 64 34
14 0 35 4 46 9 28 12 43 12 104 -5z m-1773 -133 c11 -5 35 -17 54 -26 42 -20
103 -106 98 -139 -3 -20 -9 -22 -81 -25 -70 -3 -83 0 -110 21 -51 38 -54 38
-86 11 -29 -24 -31 -29 -31 -99 0 -65 3 -76 22 -89 32 -22 56 -20 99 9 32 23
45 26 110 23 72 -3 74 -4 77 -30 4 -35 -45 -109 -90 -135 -61 -35 -139 -48
-207 -33 -34 7 -66 19 -72 26 -6 8 -17 14 -24 14 -14 0 -53 44 -79 90 -27 47
-28 220 -3 248 10 10 17 23 17 29 0 32 71 80 170 117 21 8 113 0 136 -12z
m539 -3 c109 -38 168 -121 163 -231 l-3 -63 -140 -2 c-77 -2 -150 -5 -162 -8
-30 -7 -19 -38 21 -58 32 -15 35 -14 77 14 37 24 54 29 106 29 101 0 111 -12
69 -79 -59 -93 -164 -134 -284 -110 -60 12 -72 19 -122 69 -50 50 -57 62 -69
124 -11 57 -11 78 0 125 23 101 66 150 165 190 63 26 106 26 179 0z m517 0
c64 -25 90 -48 113 -100 15 -31 16 -44 7 -64 -11 -23 -17 -25 -72 -25 -56 0
-64 3 -87 30 -25 31 -75 41 -88 20 -10 -16 15 -40 41 -40 13 0 38 -6 56 -14
18 -8 44 -17 58 -20 14 -3 41 -19 59 -35 36 -33 50 -88 37 -155 -16 -84 -138
-126 -294 -101 -60 10 -142 90 -142 139 0 40 11 46 80 46 62 0 96 -13 103 -40
5 -18 12 -21 44 -18 42 3 60 33 26 44 -10 3 -27 10 -38 14 -11 5 -34 12 -52
15 -84 17 -143 67 -158 136 -11 50 61 158 106 159 8 0 19 4 25 9 27 26 111 26
176 0z m-1796 -5 c30 -15 36 -15 65 0 36 18 144 22 154 6 3 -5 13 -10 22 -10
22 0 81 -62 89 -94 3 -14 10 -29 15 -32 5 -3 9 -86 9 -185 l0 -180 -87 3 -88
3 -3 152 -3 151 -31 31 c-18 17 -37 31 -44 31 -9 0 -32 -15 -74 -48 -3 -2 -7
-74 -10 -160 l-5 -157 -32 -3 -33 -3 0 255 c0 179 3 256 11 256 6 0 26 -7 45
-16z m-993 -370 c14 -62 20 -69 73 -74 62 -7 90 -23 110 -62 l17 -32 18 23
c11 13 19 29 19 36 0 6 11 17 24 23 41 18 46 0 46 -155 0 -115 -3 -143 -14
-143 -18 0 -33 19 -41 53 -10 40 -49 37 -71 -5 -9 -18 -18 -34 -19 -36 -1 -1
-30 -10 -64 -18 -56 -14 -65 -14 -111 1 l-50 17 0 187 c0 154 3 190 16 209 22
31 37 23 47 -24z m1334 -684 c48 -23 91 -70 98 -108 3 -15 10 -41 15 -58 6
-17 10 -94 10 -172 0 -163 1 -162 -95 -162 -96 0 -95 -2 -95 170 0 143 -1 150
-24 174 -29 33 -65 33 -100 1 -26 -24 -26 -25 -26 -174 0 -138 -2 -151 -19
-161 -27 -14 -134 -13 -149 2 -16 16 -17 450 -2 479 9 15 22 19 67 19 31 0 71
-5 88 -11 25 -10 37 -9 61 4 42 22 122 21 171 -3z m519 4 c22 -9 54 -27 72
-41 34 -26 87 -117 77 -133 -4 -6 -45 -10 -93 -10 -79 0 -88 2 -113 26 -30 29
-64 28 -93 -2 -22 -22 -22 -156 0 -178 23 -24 71 -19 108 9 27 21 44 25 99 25
102 0 113 -21 56 -106 -56 -82 -166 -118 -284 -94 -50 10 -66 20 -110 64 -46
46 -54 61 -68 121 -31 135 21 253 136 309 62 30 154 35 213 10z m551 -10 c64
-33 100 -70 124 -123 21 -49 26 -140 7 -159 -8 -8 -60 -12 -170 -12 -93 0
-158 -4 -158 -9 0 -11 62 -61 75 -61 4 0 24 12 44 28 32 24 44 27 113 27 42 0
82 -5 88 -11 16 -16 -23 -86 -71 -127 -88 -76 -251 -75 -339 1 -89 75 -117
217 -65 326 13 29 36 63 49 75 78 73 213 93 303 45z m478 16 c3 -5 14 -10 24
-10 35 0 111 -102 111 -149 0 -25 -19 -31 -91 -31 -33 0 -59 -4 -59 -10 0 -5
10 -10 21 -10 30 0 82 -34 113 -74 35 -46 34 -98 -2 -150 -33 -48 -80 -73
-152 -82 -59 -7 -170 11 -170 27 0 5 -7 9 -15 9 -19 0 -52 36 -77 83 -30 59
-21 67 70 67 73 0 81 -2 98 -25 24 -32 94 -37 94 -6 0 19 -66 51 -108 51 -29
0 -93 34 -123 66 -20 22 -24 36 -24 89 0 57 3 67 30 96 45 47 99 67 182 68 39
1 75 -3 78 -9z m-3113 -1146 c35 -6 38 -9 43 -48 4 -23 3 -57 -2 -76 l-9 -35
-130 0 c-115 0 -133 -2 -170 -23 -22 -12 -51 -37 -65 -55 -23 -31 -24 -38 -24
-192 0 -154 1 -161 24 -193 14 -17 45 -42 70 -55 40 -19 62 -22 169 -22 110 0
124 -2 134 -19 11 -19 7 -121 -5 -133 -12 -11 -229 -24 -315 -18 -83 6 -142
20 -142 35 0 4 -11 11 -24 14 -14 3 -27 15 -31 25 -3 11 -12 22 -19 24 -8 3
-17 21 -21 39 -4 18 -14 40 -21 49 -9 10 -19 61 -26 133 -14 141 1 347 27 375
8 10 15 24 15 32 0 20 61 99 76 99 6 0 18 7 25 16 7 9 22 20 34 24 23 10 333
13 387 4z m538 -72 c0 -78 0 -78 -40 -117 -53 -51 -63 -89 -64 -220 -1 -159 6
-192 59 -252 45 -51 45 -51 45 -129 l0 -77 -53 6 c-92 9 -178 84 -226 195 -40
96 -38 434 4 482 7 8 16 25 20 38 9 32 52 80 99 110 50 33 70 40 119 41 l37 1
0 -78z m-20856 42 c11 -10 16 -34 16 -72 1 -31 3 -88 6 -127 7 -99 7 -111 -3
-195 l-8 -75 -115 -7 c-163 -10 -203 -4 -233 35 -13 18 -31 47 -40 66 -19 37
-23 126 -7 136 6 3 10 15 10 25 0 33 56 86 105 100 35 10 55 10 91 1 57 -15
64 -8 64 65 0 28 3 54 7 57 13 14 92 7 107 -9z m-911 -39 c48 -27 57 -45 57
-111 0 -27 -7 -51 -22 -69 -19 -24 -20 -29 -7 -39 9 -6 26 -30 39 -53 l23 -41
-22 -43 c-40 -76 -46 -78 -218 -79 l-153 0 0 223 c0 123 3 227 7 230 3 4 61 7
128 7 112 0 126 -2 168 -25z m1935 9 c14 -10 22 -25 22 -45 0 -25 6 -33 35
-45 31 -13 35 -18 35 -52 0 -34 -4 -40 -32 -53 -31 -13 -33 -17 -36 -71 -3
-58 -3 -58 33 -75 34 -16 36 -20 33 -58 l-3 -40 -69 -3 c-63 -3 -71 -1 -97 24
-28 26 -29 32 -29 116 0 82 -1 89 -25 104 -20 13 -25 25 -25 59 0 35 4 44 25
53 18 8 25 20 25 39 0 35 9 49 35 56 36 9 50 7 73 -9z m4260 -9 c59 -30 88
-61 121 -133 14 -29 28 -52 31 -52 4 0 13 14 20 31 27 65 128 101 221 79 112
-27 157 -132 113 -260 -23 -66 -57 -97 -116 -105 -64 -9 -53 -19 30 -25 59 -4
67 -7 67 -25 0 -20 -8 -20 -394 -23 -403 -2 -438 1 -410 34 9 11 72 14 325 14
292 0 391 9 277 25 -57 8 -96 38 -118 91 -23 57 -49 70 -59 31 -7 -28 -50 -77
-88 -100 -22 -14 -54 -17 -168 -17 l-140 0 0 223 c0 123 3 227 7 230 3 4 57 7
119 7 100 0 118 -3 162 -25z m-4941 -77 c34 1 74 -3 88 -8 l25 -10 0 -189 c0
-183 -1 -192 -25 -237 -40 -76 -73 -94 -171 -94 -65 0 -90 4 -116 20 -63 37
-99 110 -62 124 9 3 38 6 64 6 39 0 52 -4 60 -20 17 -31 94 -24 103 10 9 34
-8 45 -51 34 -130 -35 -233 86 -201 235 20 97 88 147 179 134 25 -4 73 -6 107
-5z m393 1 c27 -6 50 -14 50 -17 0 -4 16 -18 36 -32 l37 -24 -7 -100 c-6 -95
-8 -101 -42 -143 -25 -30 -43 -43 -62 -44 -15 0 -36 -4 -47 -9 -37 -15 5 -19
212 -22 111 -2 205 -6 208 -10 4 -4 5 -14 2 -23 -6 -13 -46 -15 -310 -15 -309
0 -343 4 -316 37 8 8 35 13 80 13 78 0 99 15 37 25 -43 8 -77 33 -110 84 -13
18 -18 46 -18 97 0 62 4 76 28 110 37 51 55 65 95 74 47 11 70 11 127 -1z
m5439 -17 c59 -44 82 -122 67 -226 -10 -62 -57 -113 -114 -122 -85 -13 -26
-24 133 -24 158 0 215 10 138 25 -47 8 -97 47 -117 90 -18 36 -21 130 -7 168
5 14 24 41 41 60 63 72 212 72 281 1 l34 -35 -1 -101 -2 -100 -37 -38 c-28
-28 -48 -40 -81 -45 -92 -13 -27 -25 142 -25 l174 0 0 -25 0 -25 -394 0 c-321
0 -396 3 -405 14 -12 15 -3 27 34 41 l20 7 -20 8 c-11 5 -30 9 -42 9 -27 1
-32 -15 -35 -109 l-3 -65 -53 -3 c-31 -2 -60 2 -68 9 -11 9 -14 58 -14 260 l1
250 27 10 c15 6 50 8 77 5 28 -4 64 -2 80 4 41 13 115 4 144 -18z m-6865 12
c13 -5 16 -25 16 -110 0 -92 2 -106 21 -125 21 -21 61 -20 84 2 6 6 11 56 13
112 3 80 7 105 20 115 20 15 84 16 100 0 14 -14 17 -334 4 -342 -5 -3 -74 -7
-153 -8 -143 -3 -144 -3 -169 23 -37 37 -50 92 -50 212 0 90 3 108 18 116 19
12 72 14 96 5z m7485 0 c30 -6 31 -8 31 -65 0 -32 -4 -61 -10 -64 -6 -3 -10
-52 -10 -110 0 -57 -4 -106 -9 -110 -17 -10 -100 -10 -111 1 -6 6 -11 74 -12
169 -1 143 1 159 17 172 20 14 55 17 104 7z m-6900 -384 c87 0 112 -10 92 -34
-12 -14 -80 -16 -616 -16 -497 0 -605 2 -614 14 -28 33 8 36 510 39 272 1 507
2 523 0 16 -2 63 -3 105 -3z m21716 -606 c60 -65 -4 -165 -96 -152 -23 3 -24
7 -27 91 l-3 87 51 0 c42 0 55 -5 75 -26z m-17608 -18 c19 -14 46 -42 59 -63
l23 -38 1 -664 0 -663 -22 -40 c-13 -22 -41 -51 -64 -64 l-41 -24 -2529 0
-2529 0 -37 23 c-20 12 -47 35 -60 52 l-23 30 -3 675 -2 675 22 37 c13 20 39
49 57 63 l35 25 2538 0 2539 0 36 -24z m2823 -766 l0 -790 -856 0 c-845 0
-857 0 -898 21 -25 12 -50 35 -64 59 l-22 39 0 671 c0 670 0 671 22 709 12 20
37 47 57 59 l36 21 863 1 862 0 0 -790z m14788 598 c9 -9 12 -76 12 -240 l0
-228 -26 -10 c-14 -6 -45 -10 -70 -10 l-44 0 0 250 0 250 58 0 c32 0 63 -5 70
-12z m432 -8 c54 -27 106 -84 126 -136 26 -68 16 -178 -22 -235 -61 -91 -175
-133 -290 -108 -134 29 -194 107 -194 249 0 116 36 177 135 229 55 29 188 30
245 1z m390 10 c14 0 57 3 96 6 60 5 78 2 110 -14 89 -46 104 -90 104 -303 l0
-168 -45 -7 c-25 -3 -65 -3 -90 0 l-45 7 0 140 c0 176 -9 199 -76 199 -42 0
-46 -2 -60 -35 -10 -24 -14 -74 -14 -168 l0 -134 -31 -7 c-46 -9 -94 -7 -123
4 l-26 10 0 234 c0 178 3 236 13 240 6 3 46 3 87 1 41 -3 86 -5 100 -5z m688
-9 c44 -23 64 -43 87 -93 27 -59 18 -68 -69 -68 -68 0 -75 2 -90 25 -21 31
-76 36 -76 6 0 -18 65 -51 103 -51 31 0 95 -39 121 -73 42 -55 34 -136 -18
-179 -12 -10 -26 -22 -32 -27 -6 -5 -39 -15 -73 -22 -76 -15 -169 2 -219 39
-61 44 -92 122 -56 136 9 3 44 6 79 6 56 0 66 -3 83 -25 25 -31 96 -37 90 -8
-2 10 -17 22 -33 26 -17 5 -38 13 -47 18 -10 5 -25 9 -34 9 -29 0 -103 43
-121 69 -26 39 -23 119 6 159 37 52 84 71 179 72 62 0 92 -5 120 -19z m-2298
-916 c0 -198 -1 -205 -21 -216 -41 -21 -46 1 -52 214 -5 191 -5 198 15 212 15
10 26 11 40 4 17 -9 18 -26 18 -214z m-924 207 c7 -4 20 -36 29 -72 10 -36 26
-94 36 -130 61 -219 59 -209 39 -220 -29 -15 -62 3 -74 41 l-11 34 -80 0 -80
0 -11 -35 c-10 -30 -16 -35 -48 -38 -31 -3 -36 0 -36 17 0 11 6 38 14 58 8 21
17 54 20 73 3 19 15 64 25 100 11 36 25 84 31 107 6 23 17 49 26 58 16 16 99
21 120 7z m567 -39 c8 -10 17 -29 19 -43 2 -20 11 -27 46 -34 28 -7 42 -15 42
-26 0 -11 -14 -19 -42 -26 l-43 -9 -3 -90 c-3 -82 -1 -92 19 -107 12 -10 32
-18 45 -18 12 0 25 -4 29 -9 9 -15 -37 -41 -73 -41 -38 0 -91 25 -93 43 -1 6
-4 59 -8 116 -6 103 -6 105 -34 114 -16 5 -31 7 -34 4 -3 -3 -7 -62 -10 -131
-7 -142 2 -131 -108 -141 -54 -5 -80 -3 -111 10 -41 16 -41 17 -48 77 -8 77
-8 192 0 212 7 19 45 21 62 4 8 -8 12 -49 12 -118 0 -115 6 -130 51 -130 58 0
59 2 59 131 0 118 0 119 25 125 14 3 36 3 50 0 39 -10 85 18 85 52 0 48 34 67
63 35z m-15029 -829 c10 -4 16 -18 16 -41 0 -33 -1 -34 -37 -31 -31 2 -39 7
-41 26 -6 40 23 61 62 46z m-5766 -16 c8 -8 12 -68 12 -204 0 -206 -3 -219
-52 -212 l-23 3 -3 204 c-3 212 -1 220 39 221 8 0 20 -5 27 -12z m847 -203 l0
-210 -30 0 -30 0 -3 200 c-1 110 0 205 3 213 3 8 16 12 32 10 l28 -3 0 -210z
m-1469 184 c48 -12 107 -69 102 -97 -5 -25 -63 -28 -80 -4 -17 25 -71 52 -102
52 -43 0 -103 -49 -116 -97 -25 -86 12 -167 86 -188 43 -13 92 1 130 36 22 20
69 26 79 9 12 -19 -7 -51 -47 -81 -38 -27 -48 -29 -128 -29 -93 0 -116 10
-165 69 -59 72 -58 191 0 262 62 73 136 94 241 68z m6137 -11 c15 -13 40 -70
56 -133 4 -17 12 -39 18 -50 23 -44 53 -132 55 -165 3 -33 1 -35 -27 -35 -24
0 -33 6 -44 33 l-15 32 -78 0 c-79 0 -79 0 -89 -30 -12 -32 -37 -45 -70 -35
-14 5 -18 12 -13 23 4 10 9 31 12 47 2 17 8 35 12 40 4 6 22 53 40 105 18 52
39 111 45 129 17 47 63 65 98 39z m1146 -24 c5 -29 21 -44 47 -44 48 0 42 -51
-9 -65 -32 -10 -32 -10 -35 -84 -3 -82 11 -117 50 -123 15 -2 23 -10 23 -23 0
-17 -8 -21 -44 -23 -94 -7 -111 17 -111 154 0 44 -6 83 -15 100 -19 37 -19 58
0 74 8 7 15 21 15 31 0 40 71 43 79 3z m-6804 -204 l0 -155 -65 -3 c-146 -8
-166 -6 -196 17 -50 40 -59 60 -59 143 0 76 0 77 40 118 l39 40 121 -2 120 -3
0 -155z m456 139 c39 -28 54 -56 38 -75 -17 -20 -52 -17 -67 6 -10 16 -23 20
-71 20 -59 0 -59 0 -71 -36 -18 -55 -7 -114 27 -141 38 -31 66 -29 102 8 22
22 38 29 58 27 39 -4 40 -30 4 -71 -24 -27 -42 -36 -77 -42 -96 -14 -169 21
-193 94 -23 72 -4 162 44 204 26 23 39 26 103 27 59 0 80 -4 103 -21z m180
-11 c3 -149 7 -199 15 -207 5 -4 23 -13 40 -19 27 -8 35 -7 60 13 28 22 29 26
34 132 l5 108 30 0 30 0 0 -155 0 -155 -80 -7 c-106 -9 -140 -2 -176 36 -29
31 -29 32 -29 152 0 66 3 124 7 127 3 4 19 7 35 7 25 0 28 -4 29 -32z m679 3
c23 -19 40 -44 49 -75 13 -45 12 -48 -8 -70 -15 -15 -19 -26 -12 -31 20 -12
11 -50 -18 -81 -22 -23 -43 -33 -76 -39 -103 -15 -173 24 -195 107 -16 57 -16
67 3 123 25 72 61 95 152 95 63 0 74 -3 105 -29z m276 18 c13 -21 -6 -59 -29
-59 -52 0 -62 -20 -67 -137 -5 -103 -6 -108 -28 -111 -47 -7 -52 10 -52 163 0
78 3 144 6 148 11 10 163 7 170 -4z m4332 -203 c2 -150 -1 -212 -9 -223 -22
-25 -77 -43 -104 -33 -34 13 -31 39 4 51 16 6 32 20 35 32 3 12 6 101 6 198 0
97 3 179 7 183 4 4 19 6 33 4 l25 -3 3 -209z m318 192 c37 -25 74 -95 74 -138
0 -41 -36 -110 -73 -140 -27 -22 -41 -25 -108 -25 -67 0 -79 3 -103 25 -33 30
-66 101 -66 141 0 42 37 111 73 136 46 31 158 32 203 1z m184 -98 l5 -115 37
-18 c37 -18 38 -18 68 3 29 21 29 21 32 133 l3 112 35 0 35 0 3 -152 c3 -177
15 -163 -132 -166 l-96 -2 -30 32 c-28 30 -31 38 -37 136 -3 57 -3 116 1 131
6 23 11 27 39 24 l32 -3 5 -115z m743 94 c53 -45 73 -132 37 -157 -17 -12 -18
-16 -7 -26 20 -16 10 -55 -24 -87 -26 -25 -35 -28 -108 -28 -75 -1 -82 1 -110
28 -17 16 -38 51 -47 78 -22 67 -5 139 43 186 33 30 38 32 110 32 66 0 79 -3
106 -26z m127 -135 c0 -104 -3 -158 -10 -154 -6 4 -10 68 -10 161 0 96 4 154
10 154 6 0 10 -60 10 -161z m13247 -4 c12 -8 23 -27 25 -42 2 -22 10 -30 43
-39 22 -6 40 -17 40 -24 0 -7 -18 -18 -40 -24 l-40 -12 -3 -96 -3 -96 42 -13
c50 -16 59 -33 27 -50 -30 -16 -80 -13 -118 6 l-29 15 -3 118 c-3 110 -4 118
-25 127 -30 13 -29 29 2 49 15 10 25 26 25 40 0 55 18 68 57 41z m1767 -51 c3
-9 6 -34 6 -56 l0 -39 53 6 c83 11 121 -10 154 -82 l27 -58 8 31 c9 36 74 104
99 104 10 0 29 5 43 11 20 10 36 8 78 -5 60 -19 85 -37 118 -85 l23 -34 9 24
c16 41 59 77 114 95 51 16 57 16 109 -1 40 -12 64 -28 88 -56 19 -21 37 -39
40 -39 4 0 7 33 7 74 0 41 4 86 10 100 9 24 15 26 65 26 l55 0 0 -215 0 -214
-34 -7 c-19 -3 -48 -2 -63 3 -24 8 -29 16 -33 53 l-5 43 -45 -45 c-56 -55
-120 -73 -194 -55 -53 14 -116 68 -116 101 -1 19 -3 18 -23 -9 -60 -83 -137
-115 -221 -94 -60 15 -114 61 -122 105 -9 48 -22 30 -26 -35 -3 -50 -6 -55
-31 -64 -15 -5 -44 -6 -63 -3 l-34 7 -1 77 c-2 108 -9 136 -37 140 -43 6 -52
-13 -52 -114 0 -94 0 -95 -27 -105 -18 -7 -43 -7 -68 -2 -36 7 -40 11 -43 41
-4 41 -15 40 -53 -2 -23 -26 -43 -37 -83 -46 -80 -16 -86 -11 -85 79 0 56 3
70 9 53 13 -31 37 -38 60 -17 16 15 32 17 85 13 l65 -6 0 42 0 43 -70 -1 c-49
-1 -73 3 -79 12 -13 22 -54 10 -62 -18 -4 -14 -7 12 -6 60 2 99 7 102 92 75
35 -11 64 -29 86 -53 l34 -37 5 85 c3 47 9 91 13 98 12 19 113 16 121 -4z
m-1963 -28 c24 -4 43 -16 59 -38 27 -36 40 -121 20 -133 -6 -4 -52 -10 -101
-15 -49 -4 -92 -10 -95 -13 -7 -6 15 -49 30 -59 6 -4 34 -8 63 -8 64 0 111
-16 95 -32 -6 -6 -39 -17 -72 -24 -50 -10 -71 -10 -111 0 -27 7 -51 15 -52 17
-50 70 -62 171 -29 235 11 22 28 46 37 54 17 14 81 29 105 25 8 -2 31 -6 51
-9z m701 -11 c10 -4 20 -16 23 -26 8 -24 58 -46 63 -29 16 47 86 79 160 72 29
-3 32 -6 32 -37 0 -33 0 -33 -36 -25 -31 7 -40 5 -59 -15 -47 -46 -41 -170 8
-192 12 -5 37 -6 55 -3 30 7 32 6 32 -21 0 -35 -23 -43 -91 -34 -62 9 -85 28
-107 90 l-18 50 -90 -3 c-104 -4 -124 -8 -124 -28 0 -31 38 -54 89 -54 27 0
62 -5 78 -11 27 -10 27 -11 9 -24 -37 -28 -116 -37 -173 -20 -48 14 -55 20
-74 62 -43 95 -14 231 55 252 60 19 113 17 168 -4z"/>
<path d="M17717 14453 c-4 -3 -7 -32 -7 -63 0 -56 1 -58 31 -64 49 -10 58 -8
84 19 32 31 32 60 -1 90 -26 24 -91 35 -107 18z"/>
<path d="M18093 14453 c-8 -3 -13 -25 -13 -58 0 -44 4 -56 20 -65 32 -17 90
-2 101 27 14 36 11 48 -16 77 -23 25 -60 33 -92 19z"/>
<path d="M17356 14343 c-19 -70 -18 -82 8 -89 45 -11 59 1 51 44 -4 20 -11 43
-17 50 -15 17 -36 15 -42 -5z"/>
<path d="M43192 13728 c-7 -7 -12 -25 -12 -40 0 -21 7 -32 26 -40 23 -11 29
-10 45 11 23 28 24 45 3 65 -18 19 -45 21 -62 4z"/>
<path d="M42611 13718 c-17 -45 22 -94 57 -72 21 13 28 60 11 80 -18 22 -58
18 -68 -8z"/>
<path d="M44300 13380 c-8 -5 -29 -10 -46 -10 -17 0 -37 -7 -44 -15 -7 -8 -27
-15 -46 -15 -50 0 -124 -84 -124 -142 0 -14 -10 -38 -22 -53 -18 -23 -21 -41
-22 -113 -1 -75 1 -87 16 -90 12 -2 22 6 30 25 7 15 17 31 22 35 5 3 8 33 7
66 -2 51 1 63 24 90 37 44 105 67 195 67 92 0 131 -20 161 -83 16 -32 20 -56
17 -93 -3 -27 -1 -52 4 -55 5 -3 15 -20 22 -37 25 -58 30 -4 12 115 -17 105
-21 122 -52 195 -8 17 -14 38 -14 46 0 9 -24 29 -54 46 -59 34 -64 35 -86 21z"/>
<path d="M44363 13023 c-42 -8 -24 -23 27 -23 28 0 50 5 50 10 0 6 -6 10 -14
10 -8 0 -20 2 -28 4 -7 2 -23 1 -35 -1z"/>
<path d="M44125 13010 c3 -5 22 -10 41 -10 19 0 34 5 34 10 0 6 -18 10 -41 10
-24 0 -38 -4 -34 -10z"/>
<path d="M44110 12950 c0 -12 27 -12 55 0 16 7 13 9 -17 9 -21 1 -38 -3 -38
-9z"/>
<path d="M44415 12930 c-3 -5 1 -10 10 -10 9 0 13 5 10 10 -3 6 -8 10 -10 10
-2 0 -7 -4 -10 -10z"/>
<path d="M43785 12790 c-3 -6 1 -13 9 -16 22 -8 68 4 61 16 -8 13 -62 13 -70
0z"/>
<path d="M44268 12753 c7 -3 16 -2 19 1 4 3 -2 6 -13 5 -11 0 -14 -3 -6 -6z"/>
<path d="M43989 12623 c-1 -16 -2 -45 -3 -65 -3 -35 -1 -38 25 -38 23 0 27 5
31 35 3 25 -2 45 -16 65 -26 37 -36 38 -37 3z"/>
<path d="M44836 12585 c-4 -14 -3 -31 1 -37 3 -7 6 -29 4 -49 -3 -61 16 -54
21 7 7 88 -10 141 -26 79z"/>
<path d="M44378 12555 l-47 -50 -86 -4 -86 -3 32 -24 c28 -20 45 -24 105 -24
l73 0 31 55 c17 30 30 65 28 77 -3 21 -7 18 -50 -27z"/>
<path d="M43865 12540 c-22 -43 -20 -156 3 -169 13 -7 25 -2 50 20 38 34 40
46 7 59 -22 8 -24 13 -18 58 4 39 2 50 -11 55 -11 4 -20 -3 -31 -23z"/>
<path d="M44423 12450 c0 -30 2 -43 4 -27 2 15 2 39 0 55 -2 15 -4 2 -4 -28z"/>
<path d="M41283 13273 c-34 -13 2 -55 38 -46 23 6 25 39 3 47 -18 7 -23 7 -41
-1z"/>
<path d="M41287 13138 c-22 -12 -5 -48 23 -48 20 0 46 35 33 43 -23 12 -41 14
-56 5z"/>
<path d="M42043 13273 c-34 -13 2 -55 38 -46 23 6 25 39 3 47 -18 7 -23 7 -41
-1z"/>
<path d="M42047 13138 c-22 -12 -21 -25 3 -38 23 -12 64 4 58 22 -6 17 -42 27
-61 16z"/>
<path d="M37467 12802 c-24 -26 -21 -67 5 -92 26 -24 41 -25 58 -5 8 10 30 15
61 15 l49 0 0 35 c0 34 -1 35 -42 35 -24 0 -52 7 -62 15 -26 20 -49 19 -69 -3z"/>
<path d="M38280 12800 c0 -19 3 -21 12 -12 9 9 9 15 0 24 -9 9 -12 7 -12 -12z"/>
<path d="M38527 12802 c-10 -11 -16 -34 -16 -53 l1 -34 7 30 c6 30 6 30 91 36
51 3 66 6 39 7 -27 1 -52 8 -59 17 -17 20 -43 19 -63 -3z"/>
<path d="M38830 12806 c47 -13 60 -12 60 5 0 5 -24 9 -52 8 l-53 -1 45 -12z"/>
<path d="M38990 12799 c0 -14 5 -19 17 -17 26 5 29 38 4 38 -15 0 -21 -6 -21
-21z"/>
<path d="M38865 12720 c-3 -5 -22 -10 -41 -10 -19 0 -34 -4 -34 -10 0 -5 23
-10 50 -10 43 0 50 3 50 20 0 21 -15 27 -25 10z"/>
<path d="M38535 12700 c3 -5 13 -10 21 -10 8 0 12 5 9 10 -3 6 -13 10 -21 10
-8 0 -12 -4 -9 -10z"/>
<path d="M26168 12595 c-26 -6 -56 -24 -75 -43 -80 -84 -82 -311 -4 -391 43
-44 67 -53 143 -52 83 1 112 17 155 89 26 44 28 54 28 157 0 108 -1 111 -34
163 -18 29 -43 58 -55 64 -34 19 -111 25 -158 13z"/>
<path d="M27315 12478 c-2 -7 -16 -48 -30 -90 -14 -43 -23 -82 -20 -88 9 -14
118 -12 138 3 15 11 15 17 -7 78 -28 79 -31 86 -57 99 -14 8 -20 8 -24 -2z"/>
<path d="M29581 12429 c-5 -13 -16 -46 -24 -72 -13 -44 -13 -48 4 -57 22 -13
69 -13 89 0 12 8 13 16 2 57 -7 26 -24 59 -37 72 l-24 24 -10 -24z"/>
<path d="M43228 12566 c-25 -25 -31 -70 -14 -110 13 -31 19 -36 49 -36 62 0
102 82 64 133 -18 25 -79 33 -99 13z"/>
<path d="M34860 12428 c-7 -12 -22 -33 -33 -46 -27 -29 -12 -44 39 -40 38 3
39 4 36 37 -1 18 -9 42 -16 53 -14 20 -14 20 -26 -4z"/>
<path d="M35222 12413 c-21 -8 -42 -59 -42 -103 0 -43 21 -95 42 -102 6 -2 39
9 72 25 l61 30 -1 51 0 51 -47 13 c-26 7 -47 17 -47 22 0 11 -22 18 -38 13z"/>
<path d="M35482 12407 c-5 -7 -14 -31 -19 -54 -11 -44 -1 -114 20 -141 11 -14
43 -7 67 13 8 8 33 15 55 17 l40 3 3 49 c2 27 1 60 -2 72 -5 19 -11 21 -46 17
-28 -4 -46 -1 -58 9 -26 22 -49 28 -60 15z"/>
<path d="M36096 12397 c-36 -36 -29 -51 24 -55 58 -4 65 7 31 48 l-28 34 -27
-27z"/>
<path d="M36155 12283 c-79 -4 -92 -12 -76 -42 19 -35 46 -43 73 -21 16 12 44
20 79 22 46 3 54 6 54 23 0 22 -12 24 -130 18z"/>
<path d="M42981 12561 c-40 -35 -22 -52 51 -49 65 3 76 12 54 41 -22 28 -76
33 -105 8z"/>
<path d="M17019 12055 c-30 -6 -68 -20 -85 -31 -84 -53 -154 -163 -154 -243
l0 -41 335 0 c381 0 348 -9 319 91 -25 85 -58 133 -120 174 -89 59 -181 75
-295 50z"/>
<path d="M20390 12060 c-14 -4 -39 -8 -57 -9 -17 -1 -38 -8 -47 -16 -8 -8 -19
-15 -26 -15 -19 0 -98 -80 -120 -122 -39 -76 -53 -131 -53 -218 -1 -178 77
-316 212 -376 44 -20 70 -24 145 -24 51 0 96 4 102 9 5 5 26 14 47 21 54 17
138 103 171 175 26 55 28 70 29 185 0 107 -3 132 -22 172 -11 26 -21 51 -21
55 0 15 -79 92 -121 118 -21 14 -71 32 -110 40 -77 16 -92 17 -129 5z"/>
<path d="M41361 11821 c-40 -35 -22 -52 51 -49 65 3 76 12 54 41 -22 28 -76
33 -105 8z"/>
<path d="M41810 11834 c-20 -6 -43 -42 -35 -54 10 -17 125 -12 131 5 12 30
-52 62 -96 49z"/>
<path d="M42123 11825 c-19 -13 -23 -26 -23 -65 0 -56 18 -80 58 -80 49 0 72
25 72 79 0 29 -6 53 -13 60 -25 20 -71 23 -94 6z"/>
<path d="M42380 11831 c-8 -6 -20 -25 -26 -43 -9 -28 -8 -39 8 -70 16 -33 23
-38 52 -38 49 0 80 40 73 94 -3 21 -10 43 -15 48 -14 14 -75 20 -92 9z"/>
<path d="M42630 11834 c-17 -5 -40 -49 -40 -75 0 -10 8 -31 18 -48 35 -63 132
-27 132 49 0 51 -57 90 -110 74z"/>
<path d="M42863 11830 c-16 -6 -23 -18 -23 -35 0 -25 1 -26 63 -23 59 3 62 4
59 27 -1 14 -3 26 -5 27 -9 9 -76 12 -94 4z"/>
<path d="M15635 9828 c-190 -37 -295 -177 -294 -393 0 -177 70 -295 214 -363
55 -27 77 -32 138 -32 50 0 85 6 116 20 24 11 49 20 55 20 27 0 119 104 149
168 31 65 32 71 31 197 0 125 -1 132 -31 190 -53 102 -134 169 -226 186 -94
17 -102 17 -152 7z"/>
<path d="M18090 9831 c-8 -6 -31 -11 -52 -11 -52 0 -153 -70 -195 -135 -69
-105 -89 -243 -53 -366 40 -135 102 -207 222 -256 54 -22 74 -25 140 -21 42 3
83 9 90 15 7 6 25 13 40 17 43 10 143 114 175 182 25 54 28 69 28 174 0 96 -4
125 -23 176 -42 111 -140 198 -242 215 -25 4 -61 10 -80 13 -19 4 -42 2 -50
-3z"/>
<path d="M20645 9831 c-11 -5 -31 -10 -44 -10 -35 -1 -107 -40 -148 -80 -68
-66 -118 -219 -77 -235 9 -3 157 -6 330 -6 276 0 315 2 321 16 9 24 -23 139
-53 183 -32 49 -122 111 -178 123 -68 15 -130 18 -151 9z"/>
<path d="M19385 9830 c-11 -5 -33 -9 -49 -9 -70 -2 -177 -84 -221 -170 -54
-108 -57 -293 -5 -405 38 -82 82 -128 160 -168 54 -27 79 -33 146 -36 76 -4
84 -2 158 34 113 55 168 125 200 255 20 82 20 144 0 222 -37 145 -136 246
-259 267 -27 5 -63 11 -80 14 -16 3 -39 1 -50 -4z"/>
<path d="M19295 8015 c-47 -21 -66 -48 -72 -107 -8 -81 13 -122 79 -153 l52
-24 36 21 c63 38 79 66 80 135 0 74 -26 113 -88 131 -47 14 -48 14 -87 -3z"/>
<path d="M39671 7834 c-29 -24 -31 -31 -31 -88 0 -78 16 -96 83 -96 37 0 49 5
66 26 39 50 24 142 -28 169 -41 21 -55 19 -90 -11z"/>
<path d="M16543 8017 c-60 -22 -78 -53 -78 -132 0 -62 3 -73 26 -97 15 -16 34
-28 43 -28 9 0 16 -4 16 -9 0 -18 38 -18 78 0 64 30 82 60 82 138 0 74 -13 98
-69 125 -39 18 -54 19 -98 3z"/>
<path d="M17148 8012 c-37 -16 -85 -82 -71 -96 4 -3 57 -6 120 -6 113 0 113 0
113 24 0 41 -11 56 -53 76 -48 24 -60 24 -109 2z"/>
<path d="M18173 8015 c-48 -22 -73 -64 -73 -125 0 -64 23 -106 72 -131 50 -25
75 -24 122 9 28 19 44 40 54 71 13 40 13 50 -2 98 -15 46 -23 56 -58 73 -48
23 -70 24 -115 5z"/>
<path d="M18675 8013 c-99 -35 -101 -204 -4 -254 47 -23 68 -24 114 -2 26 12
42 30 55 61 24 54 25 74 3 130 -12 32 -26 48 -54 63 -44 22 -58 22 -114 2z"/>
<path d="M19766 8016 c-29 -13 -79 -83 -70 -98 6 -10 231 -11 237 0 2 4 0 21
-4 38 -6 21 -21 37 -50 52 -46 25 -71 26 -113 8z"/>
<path d="M20713 8016 c-42 -24 -63 -49 -63 -78 l0 -28 114 0 c63 0 117 4 120
8 3 5 -4 26 -16 48 -16 33 -28 42 -64 52 -53 14 -62 14 -91 -2z"/>
<path d="M21612 8016 c-33 -12 -78 -77 -67 -96 4 -6 56 -10 116 -10 93 0 111
3 116 17 15 37 -54 102 -107 101 -14 0 -40 -6 -58 -12z"/>
<path d="M37815 7860 c-12 -20 16 -40 57 -40 40 0 40 0 26 23 -17 24 -71 36
-83 17z"/>
<path d="M38326 7835 c-23 -21 -26 -32 -26 -88 0 -78 16 -97 79 -97 59 0 80
27 81 102 0 51 -3 59 -31 82 -38 33 -69 33 -103 1z"/>
<path d="M40257 7852 c-10 -10 -17 -22 -17 -25 0 -4 29 -7 65 -7 68 0 77 6 47
33 -25 22 -75 21 -95 -1z"/>
<path d="M39750 6644 c-15 -39 -12 -53 16 -79 32 -30 84 -33 107 -7 16 17 14
21 -31 65 -54 53 -78 59 -92 21z"/>
<path d="M38547 6772 c-10 -10 -17 -22 -17 -25 0 -4 29 -7 65 -7 68 0 77 6 47
33 -25 22 -75 21 -95 -1z"/>
<path d="M36455 6388 c-31 -18 -35 -28 -35 -99 0 -71 6 -79 55 -79 35 0 55 36
55 98 0 44 -4 57 -22 73 -27 22 -27 22 -53 7z"/>
<path d="M38646 5711 c-15 -17 -15 -19 -1 -25 22 -8 110 -8 118 1 4 3 0 15
-10 25 -22 24 -84 24 -107 -1z"/>
<path d="M39184 5734 c-15 -6 -6 -44 11 -44 7 0 27 -3 45 -6 30 -7 32 -6 25
17 -4 13 -8 25 -9 26 -5 6 -62 12 -72 7z"/>
<path d="M15645 4458 c-27 -15 -35 -28 -35 -58 0 -68 78 -96 119 -44 28 35 26
56 -5 88 -29 28 -48 32 -79 14z"/>
<path d="M14793 4564 c-20 -9 -15 -42 8 -54 11 -7 32 -9 46 -6 19 5 24 12 21
34 -2 22 -8 27 -33 29 -16 1 -36 0 -42 -3z"/>
<path d="M14784 4376 c-15 -40 16 -62 72 -52 31 6 35 10 32 34 -3 25 -7 27
-51 30 -35 2 -49 -1 -53 -12z"/>
<path d="M20994 4557 c-2 -7 -3 -60 -2 -118 l3 -104 44 -3 c36 -3 48 1 72 24
25 24 29 35 29 84 0 31 -6 63 -12 72 -39 47 -122 75 -134 45z"/>
<path d="M21458 4468 c-16 -6 -28 -13 -28 -18 0 -13 81 -23 92 -12 24 24 -20
44 -64 30z"/>
<path d="M21445 4351 c-18 -8 -18 -10 10 -20 33 -14 78 -6 72 12 -4 15 -54 19
-82 8z"/>
<path d="M16065 4444 c-30 -32 -30 -33 -8 -79 15 -32 20 -35 60 -35 38 0 45 3
54 27 16 42 3 92 -27 103 -39 15 -53 12 -79 -16z"/>
<path d="M16494 4459 c-10 -17 17 -30 50 -24 37 7 44 14 26 25 -21 13 -67 12
-76 -1z"/>
<path d="M16502 4353 c-10 -4 -10 -8 -1 -19 14 -17 33 -18 62 -2 21 11 21 11
2 19 -23 9 -45 10 -63 2z"/>
<path d="M21884 4460 c-43 -17 -42 -115 1 -126 59 -15 105 24 92 78 -13 51
-45 68 -93 48z"/>
<path d="M22284 4459 c-7 -12 13 -29 36 -29 23 0 43 17 36 29 -4 6 -20 11 -36
11 -16 0 -32 -5 -36 -11z"/>
<path d="M22282 4353 c-10 -4 -10 -8 -1 -19 14 -17 33 -18 62 -2 21 11 21 11
2 19 -23 9 -45 10 -63 2z"/>
<path d="M15160 3025 c0 -9 -9 -15 -24 -15 -28 0 -56 -33 -56 -67 0 -34 18
-37 25 -3 4 17 16 35 28 42 12 6 28 17 35 25 22 21 50 15 79 -17 31 -36 46
-38 41 -8 -2 13 -11 24 -22 26 -11 3 -26 10 -34 18 -19 19 -72 18 -72 -1z"/>
<path d="M15495 3016 c-60 -33 -66 -52 -63 -198 l3 -127 35 -30 c28 -24 45
-30 81 -31 40 0 52 5 85 35 l39 36 0 131 c0 96 -3 132 -12 135 -7 3 -13 11
-13 18 0 14 -77 56 -101 54 -8 -1 -32 -11 -54 -23z m125 -49 c24 -16 25 -23
28 -127 l4 -110 -35 -35 c-43 -43 -80 -45 -122 -8 -29 26 -30 29 -33 132 -3
123 7 150 58 167 38 12 63 8 100 -19z"/>
<path d="M15876 3025 c-11 -8 -28 -15 -38 -15 -10 0 -25 -12 -35 -27 -14 -22
-17 -49 -17 -156 l0 -129 37 -34 c31 -29 44 -34 87 -34 27 0 50 4 50 9 0 5 9
13 20 16 39 12 54 61 54 175 1 122 -14 157 -77 190 -45 24 -56 24 -81 5z m94
-54 c24 -17 25 -23 28 -135 l3 -117 -32 -30 c-69 -64 -144 -22 -155 88 -9 85
3 171 27 191 40 34 83 35 129 3z"/>
<path d="M15219 2864 c-9 -11 -8 -14 3 -14 9 0 27 -9 42 -21 22 -17 26 -28 26
-69 0 -67 -32 -100 -95 -100 -74 0 -107 49 -91 136 6 28 14 38 38 46 28 10 30
12 12 19 -11 4 -37 7 -57 7 l-37 0 0 -48 c0 -27 5 -52 10 -55 6 -3 10 -24 10
-46 0 -32 4 -41 24 -48 13 -5 26 -17 29 -25 5 -12 20 -16 59 -16 45 0 59 5 91
31 35 29 37 33 37 91 0 44 -5 67 -20 88 -22 32 -64 44 -81 24z"/>
<path d="M21333 2993 c26 -2 67 -2 90 0 23 2 2 3 -48 3 -49 0 -68 -1 -42 -3z"/>
<path d="M21788 2923 c6 -2 18 -2 25 0 6 3 1 5 -13 5 -14 0 -19 -2 -12 -5z"/>
<path d="M22173 2923 c9 -2 23 -2 30 0 6 3 -1 5 -18 5 -16 0 -22 -2 -12 -5z"/>
<path d="M22040 2763 c0 -118 1 -126 15 -105 13 17 14 26 4 44 -7 14 -10 49
-6 100 3 43 1 81 -4 84 -5 3 -9 -49 -9 -123z"/>
<path d="M21901 2844 c0 -11 3 -14 6 -6 3 7 2 16 -1 19 -3 4 -6 -2 -5 -13z"/>
<path d="M22291 2844 c0 -11 3 -14 6 -6 3 7 2 16 -1 19 -3 4 -6 -2 -5 -13z"/>
<path d="M21900 2801 c0 -5 -8 -12 -17 -14 -11 -3 -8 -5 9 -6 20 -1 26 3 22
14 -7 17 -14 20 -14 6z"/>
<path d="M22400 2782 c0 -30 1 -32 16 -18 12 13 39 16 125 16 60 0 109 3 109
8 0 4 -52 6 -117 4 -88 -2 -118 0 -124 10 -6 8 -9 1 -9 -20z"/>
<path d="M21666 2781 c5 -5 51 -5 104 -1 l95 7 -104 1 c-61 1 -101 -2 -95 -7z"/>
<path d="M22292 2720 c0 -14 2 -19 5 -12 2 6 2 18 0 25 -3 6 -5 1 -5 -13z"/>
<path d="M21308 2643 c7 -3 16 -2 19 1 4 3 -2 6 -13 5 -11 0 -14 -3 -6 -6z"/>
<path d="M22178 2643 c12 -2 30 -2 40 0 9 3 -1 5 -23 4 -22 0 -30 -2 -17 -4z"/>
<path d="M22043 2570 c0 -30 2 -43 4 -27 2 15 2 39 0 55 -2 15 -4 2 -4 -28z"/>
<path d="M37732 3233 c-29 -43 -33 -62 -22 -104 13 -49 34 -69 70 -69 42 0 59
9 75 41 21 39 19 86 -6 125 -18 29 -26 34 -59 34 -31 0 -42 -6 -58 -27z"/>
<path d="M35703 2562 c-20 -13 -55 -101 -48 -122 5 -15 15 -20 44 -20 56 0 63
14 44 88 -16 63 -19 67 -40 54z"/>
<path d="M21010 1649 c-1 -8 -9 -32 -20 -54 -28 -59 -26 -65 23 -65 24 0 46 2
49 5 5 6 -34 110 -46 122 -3 3 -6 0 -6 -8z"/>
<path d="M15172 1610 c-17 -16 -22 -32 -22 -70 0 -52 11 -70 59 -94 24 -13 32
-12 68 4 34 15 41 23 46 56 7 46 0 82 -21 107 -22 25 -101 23 -130 -3z"/>
<path d="M16542 1618 c-17 -17 -15 -45 4 -52 24 -9 107 -7 123 3 12 8 13 14 3
35 -10 23 -17 26 -65 26 -29 0 -58 -5 -65 -12z"/>
<path d="M16535 1493 c-4 -13 2 -25 22 -40 45 -37 89 -25 119 31 l13 26 -74 0
c-60 0 -74 -3 -80 -17z"/>
<path d="M21460 1598 c-50 -82 11 -183 93 -156 48 15 67 43 67 97 0 71 -19 91
-86 91 -51 0 -56 -2 -74 -32z"/>
<path d="M22389 1603 c-7 -20 -6 -29 3 -35 14 -10 133 -6 144 5 4 3 -1 18 -10
32 -14 22 -24 25 -71 25 -51 0 -56 -2 -66 -27z"/>
<path d="M22397 1503 c-23 -22 18 -73 59 -73 22 0 74 38 74 55 0 7 8 16 18 18
9 3 -19 5 -64 6 -44 0 -84 -2 -87 -6z"/>
<path d="M38092 1278 c-11 -14 -15 -39 -13 -74 0 -11 13 -27 27 -35 24 -12 28
-12 45 10 34 42 18 111 -25 111 -13 0 -28 -6 -34 -12z"/>
<path d="M38450 1271 c-21 -41 1 -111 35 -111 35 0 58 65 39 114 -9 23 -61 21
-74 -3z"/>
<path d="M35646 1384 c-28 -27 -20 -51 19 -58 20 -4 45 -4 55 -1 41 13 12 75
-35 75 -13 0 -31 -7 -39 -16z"/>
<path d="M36314 1385 c-35 -35 -31 -52 16 -60 48 -8 80 1 80 23 0 25 -12 40
-43 51 -24 9 -31 8 -53 -14z"/>
<path d="M13900 10161 c-6 -13 -10 -171 -10 -446 0 -275 4 -433 10 -446 8 -14
21 -19 55 -19 l45 0 0 465 0 465 -45 0 c-34 0 -47 -5 -55 -19z"/>
<path d="M13906 8394 c-14 -14 -16 -108 -16 -885 0 -581 3 -877 10 -890 8 -14
21 -19 55 -19 l45 0 0 905 0 905 -39 0 c-23 0 -46 -7 -55 -16z"/>
<path d="M24923 7825 c0 -22 2 -30 4 -17 2 12 2 30 0 40 -3 9 -5 -1 -4 -23z"/>
<path d="M25232 7790 c0 -14 2 -19 5 -12 2 6 2 18 0 25 -3 6 -5 1 -5 -13z"/>
<path d="M25850 7606 c0 -19 4 -25 13 -19 6 4 66 11 132 14 l120 5 -120 2
c-79 1 -125 6 -133 14 -9 9 -12 6 -12 -16z"/>
<path d="M25060 7472 c0 -11 37 -32 44 -25 15 15 4 33 -19 33 -14 0 -25 -3
-25 -8z"/>
<path d="M25958 7423 c18 -2 45 -2 60 0 15 2 0 4 -33 4 -33 0 -45 -2 -27 -4z"/>
<path d="M25113 4052 c-7 -5 -9 -13 -3 -21 7 -12 16 -12 54 -1 30 8 77 11 131
7 68 -4 85 -2 85 9 0 11 -25 14 -127 14 -71 0 -133 -4 -140 -8z"/>
<path d="M28960 4050 c0 -6 27 -10 61 -10 37 0 58 4 54 10 -3 6 -31 10 -61 10
-30 0 -54 -4 -54 -10z"/>
<path d="M25396 4011 c-7 -10 22 -37 30 -28 9 8 -3 37 -15 37 -5 0 -12 -4 -15
-9z"/>
<path d="M28907 4014 c-11 -11 3 -24 18 -18 8 4 12 10 9 15 -6 11 -18 12 -27
3z"/>
<path d="M28870 3953 c0 -22 2 -25 10 -13 13 20 13 40 0 40 -5 0 -10 -12 -10
-27z"/>
<path d="M25656 3921 c-8 -12 20 -22 39 -15 19 8 9 24 -15 24 -10 0 -21 -4
-24 -9z"/>
<path d="M25940 3915 c0 -8 7 -15 15 -15 8 0 15 4 15 9 0 5 -7 11 -15 15 -9 3
-15 0 -15 -9z"/>
<path d="M26596 3921 c-7 -11 17 -21 54 -21 23 0 33 -9 61 -55 l33 -55 13 42
c12 43 7 57 -22 58 -6 0 -16 9 -23 20 -9 16 -23 20 -61 20 -28 0 -52 -4 -55
-9z"/>
<path d="M26815 3920 c-6 -10 18 -18 70 -22 22 -2 31 -9 33 -25 3 -23 22 -33
22 -12 0 15 -21 53 -34 61 -16 11 -84 10 -91 -2z"/>
<path d="M27172 3923 c-27 -11 3 -23 59 -23 46 0 59 3 59 15 0 12 -12 15 -52
14 -29 0 -59 -3 -66 -6z"/>
<path d="M27927 3923 c-17 -17 -2 -23 53 -23 47 0 60 3 60 15 0 11 -13 15 -53
15 -30 0 -57 -3 -60 -7z"/>
<path d="M28337 3924 c-13 -14 5 -24 42 -24 20 0 42 -5 49 -12 9 -9 13 -7 18
5 3 9 3 21 -1 27 -7 11 -97 14 -108 4z"/>
<path d="M25814 3740 c0 -102 2 -143 3 -92 2 50 2 134 0 185 -1 50 -3 9 -3
-93z"/>
<path d="M26158 3895 c-7 -36 5 -38 24 -4 16 28 16 29 -1 29 -12 0 -20 -9 -23
-25z"/>
<path d="M27717 3913 c-10 -10 -8 -73 2 -73 9 0 21 34 21 63 0 17 -11 22 -23
10z"/>
<path d="M28246 3912 c-3 -5 -2 -89 2 -188 l7 -179 6 147 c4 115 9 152 21 165
15 17 15 20 -2 41 -20 24 -26 26 -34 14z"/>
<path d="M28826 3894 c-4 -18 -16 -40 -27 -50 -19 -17 -19 -18 3 -42 l23 -24
-24 -20 c-21 -16 -22 -21 -10 -29 7 -5 17 -9 21 -9 4 0 11 -12 14 -26 l6 -25
12 23 c14 28 45 35 151 37 110 1 85 19 -34 23 -76 2 -96 6 -105 20 -20 32 7
42 119 46 58 3 102 8 99 13 -3 5 -47 9 -97 9 -51 0 -99 5 -107 10 -8 5 -20 24
-26 42 l-11 33 -7 -31z"/>
<path d="M25582 3892 c-10 -28 -3 -332 8 -332 5 0 11 64 14 143 2 78 6 155 8
171 4 34 -18 47 -30 18z"/>
<path d="M26513 3894 c-11 -24 -4 -334 8 -334 5 0 9 55 9 123 0 67 5 139 11
161 9 31 8 41 -4 53 -13 14 -16 13 -24 -3z"/>
<path d="M27490 3866 c0 -25 5 -48 10 -51 6 -4 10 11 10 39 0 25 -4 48 -10 51
-6 4 -10 -11 -10 -39z"/>
<path d="M25980 3881 c0 -11 5 -23 10 -26 6 -3 10 3 10 14 0 11 -4 23 -10 26
-5 3 -10 -3 -10 -14z"/>
<path d="M27125 3878 c-11 -6 -23 -16 -27 -22 -11 -16 -9 -96 2 -96 6 0 10 20
10 44 0 34 5 47 23 59 26 18 20 30 -8 15z"/>
<path d="M27312 3869 c1 -13 8 -23 13 -21 15 3 12 35 -3 40 -9 3 -13 -3 -10
-19z"/>
<path d="M27891 3881 c-8 -6 -9 -11 -3 -15 6 -3 14 -1 17 5 9 14 2 20 -14 10z"/>
<path d="M28066 3882 c-3 -5 1 -18 9 -28 14 -18 14 -18 15 3 0 23 -15 39 -24
25z"/>
<path d="M30020 3868 c0 -13 12 -41 25 -63 14 -22 25 -47 25 -55 0 -9 13 -23
29 -33 l29 -17 7 30 c4 17 12 36 19 43 18 18 47 97 41 108 -4 5 -44 9 -91 9
-81 0 -84 -1 -84 -22z"/>
<path d="M28463 3859 c4 -13 7 -88 7 -166 0 -91 4 -143 10 -143 7 0 10 56 8
162 -2 128 -6 162 -17 166 -10 3 -12 -1 -8 -19z"/>
<path d="M25402 3849 c-16 -25 -15 -29 8 -29 13 0 20 7 20 19 0 28 -14 33 -28
10z"/>
<path d="M26109 3832 c-12 -35 -38 -42 -63 -17 -14 14 -16 13 -22 -10 -4 -18
-1 -32 11 -45 16 -18 16 -20 1 -36 -21 -20 -17 -61 4 -55 55 14 60 13 70 -13
10 -26 30 -36 30 -14 0 6 -11 31 -26 55 l-25 43 28 50 c22 39 25 52 15 62 -9
9 -14 5 -23 -20z"/>
<path d="M27845 3828 c-3 -13 -5 -61 -3 -107 2 -62 7 -86 17 -89 11 -4 13 3 8
32 -9 56 13 66 150 66 l113 0 0 41 c0 24 -4 38 -10 34 -5 -3 -10 -13 -10 -21
0 -23 -44 -34 -134 -34 -95 0 -112 10 -107 66 3 38 -15 47 -24 12z"/>
<path d="M25123 3809 c-24 -9 -27 -17 -17 -43 7 -18 35 -21 50 -6 5 5 56 11
113 12 73 2 106 7 109 16 3 9 -23 12 -105 12 -60 0 -113 4 -118 9 -6 5 -20 5
-32 0z"/>
<path d="M27361 3740 c1 -58 4 -77 9 -60 11 36 11 112 0 130 -7 10 -9 -12 -9
-70z"/>
<path d="M27670 3748 c0 -38 3 -49 10 -38 13 20 13 90 0 90 -5 0 -10 -24 -10
-52z"/>
<path d="M27543 3740 c0 -25 2 -35 4 -22 2 12 2 32 0 45 -2 12 -4 2 -4 -23z"/>
<path d="M27090 3679 c0 -46 14 -79 35 -79 7 0 16 -6 18 -12 3 -8 6 -6 6 4 1
10 -8 22 -19 28 -15 8 -20 21 -20 55 0 25 -4 45 -10 45 -5 0 -10 -18 -10 -41z"/>
<path d="M25987 3653 c-11 -10 -8 -53 3 -53 6 0 10 6 10 14 0 8 3 21 6 30 6
16 -7 22 -19 9z"/>
<path d="M27587 3653 c-9 -8 -9 -56 -1 -77 10 -27 51 -20 56 9 9 44 -2 75 -26
75 -13 0 -26 -3 -29 -7z"/>
<path d="M28870 3620 c0 -11 3 -20 8 -20 4 0 17 -3 30 -6 32 -9 27 8 -8 28
-29 16 -30 16 -30 -2z"/>
<path d="M27313 3615 c-3 -9 -3 -18 0 -21 9 -9 27 6 27 22 0 19 -19 18 -27 -1z"/>
<path d="M26150 3616 c0 -3 4 -16 10 -30 7 -20 16 -26 37 -25 18 1 22 3 10 6
-10 3 -22 16 -27 29 -8 20 -30 35 -30 20z"/>
<path d="M28070 3604 c0 -8 5 -12 10 -9 6 3 10 10 10 16 0 5 -4 9 -10 9 -5 0
-10 -7 -10 -16z"/>
<path d="M27885 3600 c3 -5 10 -10 16 -10 5 0 9 5 9 10 0 6 -7 10 -16 10 -8 0
-12 -4 -9 -10z"/>
<path d="M25935 3571 c-7 -12 12 -24 25 -16 11 7 4 25 -10 25 -5 0 -11 -4 -15
-9z"/>
<path d="M27970 3570 c-36 -4 -49 -9 -39 -14 23 -10 114 -3 112 9 -2 12 -7 13
-73 5z"/>
<path d="M27165 3560 c3 -5 33 -10 66 -10 33 0 59 4 59 10 0 6 -29 10 -66 10
-41 0 -63 -4 -59 -10z"/>
<path d="M28945 3560 c3 -5 33 -10 65 -10 32 0 62 5 65 10 4 6 -20 10 -65 10
-45 0 -69 -4 -65 -10z"/>
<path d="M27586 3534 c-9 -25 -7 -64 4 -64 6 0 10 18 10 40 0 43 -4 50 -14 24z"/>
<path d="M27490 3430 c0 -5 16 -10 35 -10 19 0 35 5 35 10 0 6 -16 10 -35 10
-19 0 -35 -4 -35 -10z"/>
<path d="M40430 561 c-67 -20 -145 -58 -161 -77 -6 -8 -15 -14 -20 -14 -10 0
-99 -85 -99 -95 0 -3 -11 -21 -24 -38 -53 -73 -77 -146 -83 -259 l-5 -78 2286
0 2286 0 0 48 c-1 76 -35 189 -87 286 -29 54 -136 150 -203 183 -140 68 23 63
-2002 62 -1680 -1 -1838 -3 -1888 -18z"/>
<path d="M25180 230 c0 -6 35 -10 86 -10 54 0 83 4 79 10 -3 6 -42 10 -86 10
-46 0 -79 -4 -79 -10z"/>
<path d="M26245 231 c-3 -5 -2 -12 2 -14 13 -7 73 4 73 14 0 12 -67 12 -75 0z"/>
<path d="M29313 228 c2 -8 16 -12 36 -10 18 2 39 -2 47 -9 17 -14 29 -6 21 16
-8 19 -111 22 -104 3z"/>
<path d="M29880 230 c0 -6 27 -10 60 -10 33 0 60 4 60 10 0 6 -27 10 -60 10
-33 0 -60 -4 -60 -10z"/>
<path d="M25135 189 c-10 -15 3 -25 16 -12 7 7 7 13 1 17 -6 3 -14 1 -17 -5z"/>
<path d="M26211 173 c-1 -34 -19 -58 -52 -68 -19 -6 -17 -8 13 -23 26 -14 34
-24 37 -52 l4 -35 6 30 c5 23 16 35 48 51 l42 21 -42 19 c-35 16 -43 25 -48
54 l-6 35 -2 -32z"/>
<path d="M29804 189 c-10 -17 10 -29 23 -14 10 10 9 14 -2 19 -8 3 -17 0 -21
-5z"/>
<path d="M25400 161 c0 -20 13 -35 23 -25 7 8 -4 44 -14 44 -5 0 -9 -9 -9 -19z"/>
<path d="M29407 160 c-3 -11 -1 -23 4 -26 5 -3 9 6 9 20 0 31 -6 34 -13 6z"/>
<path d="M25096 113 c-4 -9 -2 -21 4 -27 7 -7 10 -2 10 17 0 31 -5 34 -14 10z"/>
<path d="M29757 109 c-8 -29 3 -56 14 -37 11 17 11 58 0 58 -5 0 -11 -9 -14
-21z"/>
<path d="M26052 101 c-19 -11 16 -20 42 -11 18 6 18 7 2 13 -22 9 -28 9 -44
-2z"/>
<path d="M26461 101 c-19 -12 11 -20 89 -23 49 -3 55 -6 60 -28 4 -16 8 -21
13 -13 8 13 -8 53 -27 65 -16 11 -118 9 -135 -1z"/>
<path d="M26862 101 c-20 -12 8 -21 70 -21 35 0 48 4 46 13 -5 14 -97 21 -116
8z"/>
<path d="M27217 104 c-17 -18 -3 -24 54 -24 44 0 60 3 57 13 -5 13 -99 23
-111 11z"/>
<path d="M27795 100 c-3 -5 0 -13 8 -16 23 -9 112 0 110 11 -4 14 -110 19
-118 5z"/>
<path d="M28232 102 c-16 -11 15 -22 64 -22 26 0 33 -5 38 -25 10 -38 30 -32
22 7 -3 17 -8 34 -11 36 -9 10 -100 13 -113 4z"/>
<path d="M28815 100 c-6 -9 16 -17 65 -22 18 -2 27 -12 34 -35 10 -37 40 -45
62 -15 18 24 17 30 -7 37 -12 4 -30 16 -40 26 -20 20 -103 27 -114 9z"/>
<path d="M29036 101 c-8 -12 18 -21 60 -21 35 0 46 13 18 24 -24 9 -72 7 -78
-3z"/>
<path d="M29357 104 c-11 -11 3 -24 18 -18 8 4 12 10 9 15 -6 11 -18 12 -27 3z"/>
<path d="M25580 50 c0 -27 5 -50 10 -50 6 0 10 23 10 50 0 28 -4 50 -10 50 -5
0 -10 -22 -10 -50z"/>
<path d="M25800 50 c0 -38 4 -50 15 -50 11 0 15 12 15 50 0 38 -4 50 -15 50
-11 0 -15 -12 -15 -50z"/>
<path d="M25981 76 c-15 -18 -11 -68 6 -73 7 -3 15 11 19 32 7 42 -6 64 -25
41z"/>
<path d="M28130 65 c-11 -13 -11 -19 3 -32 21 -21 49 -9 45 19 -4 28 -30 35
-48 13z"/>
<path d="M28727 73 c-14 -13 -7 -73 7 -73 15 0 36 48 29 68 -5 13 -25 16 -36
5z"/>
<path d="M29137 74 c-3 -6 -2 -24 2 -40 7 -25 10 -26 16 -11 8 20 -8 67 -18
51z"/>
<path d="M25117 64 c-3 -4 7 -19 23 -35 27 -27 33 -29 115 -29 55 0 84 4 80
10 -3 6 -30 10 -59 10 -40 0 -60 6 -86 25 -33 24 -60 31 -73 19z"/>
<path d="M27005 60 c-3 -5 -1 -10 4 -10 6 0 11 5 11 10 0 6 -2 10 -4 10 -3 0
-8 -4 -11 -10z"/>
<path d="M27175 61 c-6 -11 9 -23 19 -14 9 9 7 23 -3 23 -6 0 -12 -4 -16 -9z"/>
<path d="M27357 64 c-8 -8 3 -34 14 -34 11 0 12 27 0 34 -4 3 -11 3 -14 0z"/>
<path d="M27755 60 c-3 -5 -3 -15 1 -21 6 -11 23 6 24 24 0 10 -18 9 -25 -3z"/>
<path d="M27940 50 c0 -19 3 -21 12 -12 9 9 9 15 0 24 -9 9 -12 7 -12 -12z"/>
<path d="M29297 42 c-15 -15 -27 -31 -27 -35 0 -4 39 -7 86 -7 54 0 83 4 79
10 -3 5 -21 10 -38 10 -36 0 -49 7 -63 33 -9 16 -12 15 -37 -11z"/>
<path d="M30902 33 c3 -28 4 -28 83 -31 73 -3 81 -1 97 20 10 13 18 26 18 31
0 4 -45 7 -101 7 l-100 0 3 -27z"/>
<path d="M29731 37 c-14 -6 -26 -18 -29 -24 -3 -10 31 -13 147 -13 94 0 151 4
151 10 0 6 -39 10 -98 10 -71 0 -104 4 -118 15 -23 18 -23 18 -53 2z"/>
<path d="M26787 26 c-4 -10 -5 -21 -2 -24 9 -9 17 6 13 25 -3 17 -4 17 -11 -1z"/>
<path d="M27136 15 c-3 -9 0 -15 9 -15 8 0 15 7 15 15 0 19 -16 19 -24 0z"/>
<path d="M27720 10 c0 -5 5 -10 11 -10 5 0 7 5 4 10 -3 6 -8 10 -11 10 -2 0
-4 -4 -4 -10z"/>
<path d="M27980 10 c0 -5 5 -10 11 -10 5 0 7 5 4 10 -3 6 -8 10 -11 10 -2 0
-4 -4 -4 -10z"/>
</g>
</svg>
